<?xml version="1.0" encoding="utf-8"?>
<!-- Generator: Adobe Illustrator 26.1.0, SVG Export Plug-In . SVG Version: 6.00 Build 0)  -->
<svg version="1.1" id="Layer_1" xmlns="http://www.w3.org/2000/svg" xmlns:xlink="http://www.w3.org/1999/xlink" x="0px" y="0px"
	 viewBox="0 0 31.5 45" style="enable-background:new 0 0 31.5 45;" xml:space="preserve">
<style type="text/css">
	.st0{clip-path:url(#SVGID_00000143611842014187641960000016089886315449905852_);}
	.st1{fill:#455EBB;}
</style>
<g>
	<defs>
		<rect id="SVGID_1_" x="0.02" y="5.62" width="31.48" height="31.48"/>
	</defs>
	<clipPath id="SVGID_00000104696066147070738760000013048288552333216663_">
		<use xlink:href="#SVGID_1_"  style="overflow:visible;"/>
	</clipPath>
	<g style="clip-path:url(#SVGID_00000104696066147070738760000013048288552333216663_);">
		<path class="st1" d="M27.19,37.1h-0.4c-4.66-0.51-9.13-2.1-13.06-4.64c-3.65-2.32-6.74-5.41-9.06-9.04
			c-2.55-3.93-4.14-8.41-4.63-13.06c-0.06-0.57-0.01-1.14,0.16-1.69c0.17-0.55,0.44-1.06,0.8-1.5C1.36,6.73,1.81,6.36,2.31,6.1
			c0.51-0.27,1.06-0.43,1.63-0.48h4.75c1.05-0.01,2.06,0.36,2.86,1.04c0.79,0.68,1.31,1.63,1.46,2.66c0.17,1.27,0.49,2.53,0.93,3.73
			c0.29,0.77,0.35,1.61,0.18,2.41c-0.17,0.8-0.57,1.54-1.15,2.13l-1.04,1.03c1.69,2.65,3.95,4.9,6.6,6.59l1.02-1.03
			c0.59-0.58,1.33-0.98,2.14-1.16c0.81-0.17,1.65-0.11,2.42,0.18c1.2,0.45,2.45,0.76,3.72,0.93c1.04,0.14,1.99,0.66,2.68,1.45
			c0.69,0.79,1.06,1.81,1.05,2.85v4.31c0,1.14-0.45,2.24-1.26,3.05c-0.81,0.81-1.91,1.26-3.05,1.26L27.19,37.1z M8.68,8.49H4.36
			c-0.2,0-0.4,0.04-0.58,0.12C3.6,8.69,3.43,8.8,3.3,8.95C3.16,9.1,3.06,9.27,2.99,9.46c-0.06,0.19-0.09,0.39-0.07,0.59
			c0.43,4.2,1.84,8.24,4.13,11.8c2.1,3.29,4.9,6.08,8.2,8.18c3.55,2.29,7.59,3.72,11.79,4.19c0.2,0.01,0.4-0.01,0.58-0.08
			c0.19-0.07,0.36-0.17,0.5-0.3c0.14-0.13,0.26-0.3,0.34-0.48c0.08-0.18,0.12-0.38,0.12-0.57v-4.31c0-0.35-0.12-0.69-0.35-0.95
			c-0.23-0.26-0.54-0.44-0.89-0.49c-1.47-0.2-2.92-0.56-4.31-1.08c-0.26-0.1-0.54-0.12-0.81-0.07c-0.27,0.06-0.52,0.19-0.72,0.38
			l-1.8,1.75c-0.22,0.22-0.51,0.36-0.82,0.41c-0.31,0.04-0.63-0.02-0.9-0.18c-3.83-2.17-7-5.34-9.18-9.16
			c-0.16-0.27-0.22-0.59-0.18-0.9s0.18-0.6,0.41-0.82l1.83-1.82c0.18-0.19,0.3-0.42,0.36-0.67c0.06-0.25,0.04-0.52-0.04-0.76
			c-0.51-1.39-0.87-2.84-1.08-4.31c-0.03-0.36-0.19-0.7-0.45-0.95C9.39,8.63,9.04,8.49,8.68,8.49z"/>
	</g>
</g>
</svg>
