<svg width="45" height="45" viewBox="0 0 45 45" fill="none" xmlns="http://www.w3.org/2000/svg">
<g clip-path="url(#clip0_6_2383)">
<path d="M38.8328 45.0001H38.2572C31.6025 44.2739 25.2102 42.0041 19.5911 38.3722C14.3802 35.0586 9.95957 30.6461 6.64001 25.4447C2.9929 19.8266 0.724995 13.429 0.0205439 6.7716C-0.0644452 5.95931 0.0133457 5.13825 0.249385 4.35626C0.485425 3.57428 0.874994 2.84699 1.3954 2.21676C1.91581 1.58654 2.55665 1.06598 3.28059 0.68541C4.00453 0.304838 4.7971 0.0718627 5.61214 5.42762e-05H12.3961C13.8925 -0.0146475 15.3433 0.514318 16.478 1.48836C17.6127 2.46239 18.3538 3.81504 18.5633 5.29417C18.809 7.11652 19.2572 8.90592 19.8995 10.6293C20.3109 11.7306 20.3979 12.9264 20.1502 14.0755C19.9025 15.2245 19.3304 16.2788 18.5016 17.1136L17.0215 18.591C19.4403 22.3804 22.661 25.5952 26.4573 28.0096L27.9168 26.5322C28.755 25.7009 29.8148 25.1275 30.9701 24.8801C32.1254 24.6328 33.3275 24.7219 34.4335 25.1369C36.1515 25.7826 37.9379 26.2302 39.7579 26.4706C41.2434 26.6752 42.6035 27.413 43.5835 28.546C44.5635 29.6791 45.0963 31.1298 45.0822 32.6266V38.7825C45.0822 40.4152 44.4325 41.981 43.2759 43.1355C42.1193 44.2899 40.5507 44.9385 38.915 44.9385L38.8328 45.0001ZM12.3755 4.10402H6.2083C5.92204 4.10286 5.63869 4.16139 5.3764 4.27587C5.11411 4.39034 4.87866 4.55823 4.68514 4.76878C4.49162 4.97934 4.34428 5.22792 4.25257 5.4986C4.16086 5.76928 4.1268 6.0561 4.15257 6.34068C4.76759 12.347 6.78861 18.1249 10.0525 23.208C13.0585 27.912 17.0576 31.9038 21.7702 34.9043C26.849 38.1767 32.6194 40.2278 38.6272 40.8961C38.909 40.9158 39.1919 40.8774 39.4582 40.7831C39.7244 40.6889 39.9684 40.5409 40.1748 40.3483C40.3812 40.1558 40.5456 39.9228 40.6578 39.664C40.77 39.4052 40.8275 39.1261 40.8268 38.8441V32.6882C40.8318 32.1902 40.6551 31.7075 40.3298 31.33C40.0046 30.9525 39.5529 30.7059 39.0589 30.6362C36.9522 30.3537 34.8837 29.8375 32.8917 29.0972C32.5234 28.9557 32.1221 28.9231 31.7357 29.0031C31.3493 29.0832 30.9941 29.2725 30.7126 29.5486L28.143 32.052C27.8243 32.3684 27.4105 32.5719 26.965 32.6311C26.5194 32.6904 26.0667 32.6024 25.6761 32.3804C20.2027 29.2753 15.6712 24.7521 12.5605 19.2887C12.3381 18.8988 12.2499 18.4469 12.3093 18.0022C12.3687 17.5575 12.5725 17.1444 12.8894 16.8263L15.5002 14.2203C15.7539 13.9507 15.9298 13.6177 16.0094 13.2565C16.089 12.8953 16.0694 12.5193 15.9525 12.1683C15.2193 10.1773 14.7024 8.11352 14.4107 6.01237C14.3745 5.49694 14.1448 5.01413 13.7675 4.66036C13.3902 4.3066 12.8931 4.10792 12.3755 4.10402Z" fill="#455EBB"/>
</g>
<defs>
<clipPath id="clip0_6_2383">
<rect width="45" height="45" fill="white"/>
</clipPath>
</defs>
</svg>
