<svg width="45" height="45" viewBox="0 0 45 45" fill="none" xmlns="http://www.w3.org/2000/svg">
<g clip-path="url(#clip0_176_353)">
<path d="M22.4993 12.1641L25.5678 18.4395L32.4837 19.4176L27.4636 24.2745L28.6708 31.1547L22.4993 27.8806L16.3301 31.1547L17.5362 24.2745L12.5161 19.4176L19.4321 18.4395L22.4993 12.1641Z" fill="#E22E2E"/>
<path d="M23.1702 0H21.8289V8.13995H23.1702V0Z" fill="#FF4D4D"/>
<path d="M15.6963 4.31846L14.457 4.83179L16.3863 9.4894L17.6256 8.97607L15.6963 4.31846Z" fill="#FF4D4D"/>
<path d="M4.83217 14.4546L4.31885 15.6938L8.97645 17.6231L9.48978 16.3838L4.83217 14.4546Z" fill="#FF4D4D"/>
<path d="M8.97743 27.3762L4.31982 29.3054L4.83315 30.5447L9.49076 28.6154L8.97743 27.3762Z" fill="#FF4D4D"/>
<path d="M16.3849 35.5117L14.4548 40.1689L15.694 40.6825L17.6241 36.0252L16.3849 35.5117Z" fill="#FF4D4D"/>
<path d="M28.6174 35.5067L27.3782 36.02L29.3074 40.6776L30.5467 40.1643L28.6174 35.5067Z" fill="#FF4D4D"/>
<path d="M36.0219 27.3733L35.5085 28.6125L40.1662 30.5418L40.6795 29.3025L36.0219 27.3733Z" fill="#FF4D4D"/>
<path d="M40.1679 14.455L35.5103 16.3843L36.0236 17.6236L40.6812 15.6943L40.1679 14.455Z" fill="#FF4D4D"/>
<path d="M29.3035 4.317L27.3743 8.97461L28.6135 9.48793L30.5428 4.83032L29.3035 4.317Z" fill="#FF4D4D"/>
<path d="M7.06349 6.11571L6.11499 7.06421L11.8708 12.82L12.8193 11.8715L7.06349 6.11571Z" fill="#FF4D4D"/>
<path d="M8.13995 21.8298H0V23.1712H8.13995V21.8298Z" fill="#FF4D4D"/>
<path d="M11.8706 32.1817L6.11475 37.9375L7.06325 38.886L12.8191 33.1302L11.8706 32.1817Z" fill="#FF4D4D"/>
<path d="M23.1712 36.8601H21.8298V45.0001H23.1712V36.8601Z" fill="#FF4D4D"/>
<path d="M33.1292 32.1799L32.1807 33.1284L37.9365 38.8842L38.885 37.9357L33.1292 32.1799Z" fill="#FF4D4D"/>
<path d="M45.0001 21.8289H36.8601V23.1702H45.0001V21.8289Z" fill="#FF4D4D"/>
<path d="M37.9345 6.11406L32.1787 11.8699L33.1272 12.8184L38.883 7.06256L37.9345 6.11406Z" fill="#FF4D4D"/>
</g>
<defs>
<clipPath id="clip0_176_353">
<rect width="45" height="45" fill="white"/>
</clipPath>
</defs>
</svg>
