<svg width="267" height="103" viewBox="0 0 267 103" fill="none" xmlns="http://www.w3.org/2000/svg">
<g clip-path="url(#clip0_2_5)">
<path d="M101.82 69.8855V82.5805H100.386V69.8855H101.82Z" fill="black"/>
<path d="M114.929 69.8855H116.331V82.5805H115.184L106.956 72.1708V82.5805H105.554V69.8855H106.899L114.929 80.0609V69.8855Z" fill="black"/>
<path d="M124.743 82.5805H123.309V71.211H119.027V69.8855H129.022V71.211H124.743V82.5805Z" fill="black"/>
<path d="M140.947 71.1938H133.172V75.5274H140.129V76.8329H133.172V81.275H141.038V82.5805H131.735V69.8855H140.947V71.1938Z" fill="black"/>
<path d="M152.708 82.5806L149.014 77.65H145.372V82.5806H143.938V69.8855H149.418C150.064 69.8804 150.707 69.9769 151.323 70.1712C151.847 70.3327 152.334 70.5947 152.757 70.9425C153.152 71.2671 153.47 71.6762 153.686 72.1395C153.909 72.626 154.022 73.1557 154.016 73.6906C154.024 74.1787 153.937 74.6637 153.76 75.119C153.596 75.5261 153.351 75.8961 153.041 76.2073C152.719 76.5239 152.347 76.7846 151.939 76.9786C151.501 77.1892 151.034 77.3354 150.554 77.4128L154.469 82.5948L152.708 82.5806ZM151.724 71.8738C151.151 71.4338 150.348 71.211 149.315 71.211H145.372V76.3787H149.295C149.74 76.3827 150.184 76.3221 150.611 76.1988C150.987 76.0904 151.339 75.9142 151.65 75.6789C151.939 75.4587 152.173 75.1752 152.335 74.8504C152.503 74.5043 152.588 74.1237 152.582 73.7392C152.599 73.3826 152.53 73.0272 152.381 72.7026C152.231 72.3781 152.006 72.0938 151.724 71.8738V71.8738Z" fill="black"/>
<path d="M168.969 82.5806H167.42L165.926 79.2268H158.991L157.48 82.5806H156.003L161.828 69.797H163.173L168.969 82.5806ZM162.467 71.4824L159.554 77.9585H165.364L162.467 71.4824Z" fill="black"/>
<path d="M180.63 81.4836C180.274 81.7569 179.889 81.9916 179.483 82.1835C179.056 82.3807 178.61 82.533 178.152 82.6377C177.632 82.7512 177.101 82.8058 176.569 82.8005C175.693 82.8092 174.825 82.636 174.019 82.292C173.265 81.9654 172.583 81.4936 172.012 80.9037C171.432 80.306 170.977 79.6002 170.672 78.8269C170.027 77.1732 170.027 75.3386 170.672 73.6849C170.981 72.9073 171.435 72.1955 172.012 71.5881C172.589 70.9846 173.282 70.5037 174.051 70.174C174.866 69.8251 175.745 69.649 176.632 69.657C177.16 69.6519 177.688 69.7007 178.206 69.8027C178.654 69.8936 179.09 70.0305 179.509 70.2112C179.901 70.3804 180.274 70.5931 180.618 70.8454C180.965 71.098 181.293 71.3738 181.602 71.6709L180.618 72.7222C180.093 72.2277 179.503 71.8067 178.863 71.471C178.207 71.1654 177.494 70.9994 176.769 70.9837C176.045 70.968 175.325 71.1028 174.656 71.3796C174.065 71.6415 173.533 72.0183 173.09 72.4879C172.641 72.9699 172.288 73.5334 172.052 74.1477C171.8 74.8042 171.674 75.5017 171.679 76.2045C171.674 76.9109 171.801 77.6121 172.052 78.2727C172.287 78.89 172.64 79.4565 173.09 79.941C173.533 80.4115 174.065 80.79 174.656 81.0551C175.271 81.3314 175.94 81.4708 176.615 81.4636C177.395 81.4842 178.168 81.3197 178.872 80.9837C179.554 80.6261 180.18 80.1709 180.73 79.6325L181.677 80.558C181.352 80.8923 181.002 81.2017 180.63 81.4836V81.4836Z" fill="black"/>
<path d="M188.978 82.5805H187.544V71.211H183.26V69.8855H193.257V71.211H188.978V82.5805Z" fill="black"/>
<path d="M197.536 69.8855V82.5805H196.102V69.8855H197.536Z" fill="black"/>
<path d="M210.869 69.8855H212.415L206.934 82.6719H205.661L200.18 69.8855H201.784L206.315 80.8237L210.869 69.8855Z" fill="black"/>
<path d="M224.136 71.1938H216.361V75.5274H223.316V76.8329H216.361V81.275H224.228V82.5805H214.922V69.8855H224.136V71.1938Z" fill="black"/>
<path d="M234.148 69.8855V82.5805H232.714V69.8855H234.148Z" fill="black"/>
<path d="M247.257 69.8855H248.66V82.5805H247.513L239.284 72.1708V82.5805H237.882V69.8855H239.23L247.26 80.0609L247.257 69.8855Z" fill="black"/>
<path d="M262.162 81.4836C261.805 81.7568 261.421 81.9914 261.015 82.1835C260.589 82.3808 260.144 82.533 259.687 82.6377C259.167 82.7512 258.636 82.8058 258.104 82.8005C256.83 82.8158 255.582 82.4436 254.526 81.7336C253.471 81.0235 252.658 80.0095 252.196 78.8269C251.547 77.1739 251.547 75.3379 252.196 73.6849C252.503 72.9074 252.957 72.1956 253.532 71.5881C254.11 70.9859 254.804 70.5051 255.571 70.174C256.386 69.8254 257.265 69.6494 258.152 69.657C258.681 69.6519 259.209 69.7007 259.727 69.8027C260.174 69.8939 260.61 70.0309 261.029 70.2112C261.421 70.3817 261.793 70.5943 262.139 70.8454C262.485 71.0987 262.813 71.3745 263.123 71.6709L262.139 72.7222C261.613 72.2276 261.021 71.8067 260.381 71.471C259.437 71.0002 258.366 70.8448 257.327 71.028C256.287 71.2112 255.335 71.7231 254.611 72.4879C254.16 72.9692 253.808 73.5328 253.572 74.1477C253.319 74.8038 253.193 75.5016 253.2 76.2045C253.193 76.911 253.32 77.6124 253.572 78.2727C253.807 78.8904 254.159 79.457 254.611 79.941C255.053 80.4127 255.585 80.7915 256.176 81.0551C256.791 81.3313 257.458 81.4707 258.132 81.4636C258.913 81.4839 259.688 81.3194 260.392 80.9837C261.074 80.626 261.699 80.1708 262.248 79.6325L263.194 80.558C262.874 80.8918 262.529 81.2012 262.162 81.4836V81.4836Z" fill="black"/>
<path d="M265.302 82.5806V80.678H266.977V82.5806H265.302Z" fill="black"/>
<path fill-rule="evenodd" clip-rule="evenodd" d="M6.73206e-05 47.5206C6.73206e-05 47.5206 10.5855 28.2353 36.7639 17.0515C36.7036 15.5546 36.7323 12.3922 36.7639 10.064C52.0929 9.64123 63.7423 7.60443 80.5426 -1.52588e-05C53.9542 33.1059 -3.95765 56.8077 18.5239 98.955C-7.86089 74.3562 6.59627 49.4775 26.3791 34.6628C17.1846 36.2568 8.4977 40.6618 -0.00566864 47.5178" fill="url(#paint0_linear_2_5)"/>
<path fill-rule="evenodd" clip-rule="evenodd" d="M25.3294 57.5333C11.7355 75.4788 14.7181 104.211 41.9863 102.954C56.1079 102.306 72.4378 93.173 80.5425 80.4952C92.2838 62.1211 93.8525 36.174 65.4602 41.1903C55.5888 42.9357 49.8874 56.462 38.0199 59.5329C56.5495 54.7394 50.8481 64.2321 42.97 77.2443C53.4264 59.9529 63.3981 58.5931 65.5634 62.7553C66.8253 65.1777 63.682 71.6738 58.7607 77.1357C52.5689 83.9917 44.0053 88.2025 36.847 88.0425C26.8896 87.8225 19.6567 79.164 25.3294 57.5133" fill="url(#paint1_linear_2_5)"/>
<path fill-rule="evenodd" clip-rule="evenodd" d="M81.2394 79.3811C92.3354 61.0984 93.2847 36.2797 65.4659 41.196C55.5945 42.9414 45.2471 49.666 38.0257 59.5387C59.1307 55.4879 38.1748 62.8267 42.9757 77.25C47.9917 69.2056 53.6013 62.7153 61.7691 60.787C75.343 57.5818 82.8311 65.1863 81.2423 79.3554" fill="url(#paint2_linear_2_5)"/>
<path d="M126.822 33.3801H115.267V29.3608C115.267 26.8279 115.157 25.2425 114.937 24.6045C114.719 23.9646 114.197 23.6475 113.374 23.6475C112.66 23.6475 112.176 23.9332 111.918 24.4673C111.659 25.0015 111.533 26.4184 111.533 28.6781V49.9174C111.533 51.9056 111.661 53.214 111.918 53.8424C112.176 54.4709 112.686 54.7852 113.455 54.7852C114.298 54.7852 114.869 54.4281 115.175 53.7196C115.482 53.0112 115.629 51.6228 115.629 49.5632V44.3155H113.297V37.588H126.828V61.3469H119.56L118.491 58.176C117.794 59.4497 116.765 60.5118 115.511 61.2498C114.212 61.9578 112.749 62.3116 111.269 62.2753C109.361 62.2838 107.484 61.7985 105.82 60.867C104.258 60.0496 102.93 58.8504 101.96 57.3819C101.106 56.062 100.543 54.5759 100.311 53.0226C100.093 51.499 99.9841 49.2137 99.9841 46.1666V33.0259C99.9841 28.798 100.213 25.7271 100.67 23.8132C101.126 21.8992 102.439 20.1452 104.607 18.5512C106.775 16.9572 109.579 16.1602 113.019 16.1602C116.403 16.1602 119.212 16.8524 121.445 18.237C123.678 19.6215 125.133 21.266 125.81 23.1704C126.487 25.0749 126.825 27.8363 126.825 31.4547L126.822 33.3801Z" fill="#299DD8"/>
<path d="M151.268 17.0857L157.864 61.3469H146.069L145.446 53.3911H141.314L140.62 61.3469H128.675L134.583 17.0857H151.268ZM145.145 45.5439C144.56 40.5295 143.973 34.3333 143.384 26.9555C142.208 35.4322 141.469 41.6283 141.167 45.5439H145.145Z" fill="#299DD8"/>
<path d="M195.491 17.0857V61.3469H185.391V31.4662L181.376 61.3469H174.206L169.964 32.1489L169.95 61.3469H159.838V17.0857H174.791C175.232 19.752 175.689 22.8886 176.162 26.4956L177.802 37.7537L180.458 17.0857H195.491Z" fill="#299DD8"/>
<path d="M235.78 17.0857V61.3469H225.682V31.4662L221.667 61.3469H214.497L210.258 32.1489L210.244 61.3469H200.129V17.0857H215.079C215.525 19.752 215.982 22.8886 216.45 26.4956L218.093 37.7537L220.746 17.0857H235.78Z" fill="#299DD8"/>
<path d="M260.392 17.0857L266.989 61.3469H255.193L254.57 53.3911H250.446L249.752 61.3469H237.799L243.692 17.0857H260.392ZM254.269 45.5439C253.684 40.5295 253.097 34.3333 252.508 26.9555C251.333 35.4322 250.594 41.6283 250.292 45.5439H254.269Z" fill="#299DD8"/>
</g>
<defs>
<linearGradient id="paint0_linear_2_5" x1="23.3191" y1="57.4247" x2="65.0027" y2="13.1885" gradientUnits="userSpaceOnUse">
<stop stop-color="#06A94B"/>
<stop offset="1" stop-color="#67BD45"/>
</linearGradient>
<linearGradient id="paint1_linear_2_5" x1="28.5329" y1="84.6716" x2="74.6366" y2="62.1356" gradientUnits="userSpaceOnUse">
<stop stop-color="#026695"/>
<stop offset="0.21" stop-color="#096A9B"/>
<stop offset="0.5" stop-color="#1C77AA"/>
<stop offset="0.85" stop-color="#3B8BC4"/>
<stop offset="1" stop-color="#4A95D1"/>
</linearGradient>
<linearGradient id="paint2_linear_2_5" x1="53.782" y1="66.1433" x2="80.0543" y2="58.0496" gradientUnits="userSpaceOnUse">
<stop stop-color="#9ED8F5"/>
<stop offset="1" stop-color="#00A0E8"/>
</linearGradient>
<clipPath id="clip0_2_5">
<rect width="267" height="103" fill="white"/>
</clipPath>
</defs>
</svg>
