<?xml version="1.0" encoding="utf-8"?>
<!-- Generator: Adobe Illustrator 26.1.0, SVG Export Plug-In . SVG Version: 6.00 Build 0)  -->
<svg version="1.1" id="Layer_1" xmlns="http://www.w3.org/2000/svg" xmlns:xlink="http://www.w3.org/1999/xlink" x="0px" y="0px"
	 viewBox="0 0 16 16" style="enable-background:new 0 0 16 16;" xml:space="preserve">
<style type="text/css">
	.st0{fill-rule:evenodd;clip-rule:evenodd;fill:url(#SVGID_1_);}
	.st1{fill-rule:evenodd;clip-rule:evenodd;fill:url(#SVGID_00000057843855606628493540000006029784821749389238_);}
	.st2{fill-rule:evenodd;clip-rule:evenodd;fill:url(#SVGID_00000171702623319217497910000007352653683766837941_);}
</style>
<linearGradient id="SVGID_1_" gradientUnits="userSpaceOnUse" x1="4.8246" y1="9.1079" x2="11.1382" y2="15.8081" gradientTransform="matrix(1 0 0 -1 0 18)">
	<stop  offset="0" style="stop-color:#06A94B"/>
	<stop  offset="1" style="stop-color:#67BD45"/>
</linearGradient>
<path class="st0" d="M1.3,7.4c0,0,1.6-2.92,5.57-4.61c-0.01-0.23,0-0.71,0-1.06c2.32-0.06,4.09-0.37,6.63-1.52
	C9.47,5.21,0.7,8.8,4.1,15.19c-4-3.73-1.81-7.49,1.19-9.74C3.9,5.69,2.59,6.36,1.3,7.4"/>
<linearGradient id="SVGID_00000019657549663409367220000012407484178723427741_" gradientUnits="userSpaceOnUse" x1="5.623" y1="4.9701" x2="12.606" y2="8.3835" gradientTransform="matrix(1 0 0 -1 0 18)">
	<stop  offset="0" style="stop-color:#026695"/>
	<stop  offset="0.21" style="stop-color:#096A9B"/>
	<stop  offset="0.5" style="stop-color:#1C77AA"/>
	<stop  offset="0.85" style="stop-color:#3B8BC4"/>
	<stop  offset="1" style="stop-color:#4A95D1"/>
</linearGradient>
<path style="fill-rule:evenodd;clip-rule:evenodd;fill:url(#SVGID_00000019657549663409367220000012407484178723427741_);" d="
	M5.14,8.91c-2.06,2.72-1.61,7.07,2.52,6.88c2.14-0.1,4.61-1.48,5.84-3.4c1.78-2.78,2.02-6.71-2.28-5.95
	C9.72,6.7,8.85,8.75,7.06,9.22C9.86,8.49,9,9.93,7.81,11.9c1.58-2.62,3.09-2.82,3.42-2.19c0.19,0.37-0.28,1.35-1.03,2.18
	c-0.94,1.04-2.23,1.68-3.32,1.65C5.37,13.5,4.28,12.19,5.14,8.91"/>
<linearGradient id="SVGID_00000092456483639512354420000006150302829906584982_" gradientUnits="userSpaceOnUse" x1="9.4466" y1="7.7756" x2="13.4259" y2="9.0015" gradientTransform="matrix(1 0 0 -1 0 18)">
	<stop  offset="0" style="stop-color:#9ED8F5"/>
	<stop  offset="1" style="stop-color:#00A0E8"/>
</linearGradient>
<path style="fill-rule:evenodd;clip-rule:evenodd;fill:url(#SVGID_00000092456483639512354420000006150302829906584982_);" d="
	M13.6,12.22c1.68-2.77,1.82-6.53-2.39-5.78C9.72,6.7,8.15,7.72,7.06,9.22c3.2-0.61,0.02,0.5,0.75,2.68c0.76-1.22,1.61-2.2,2.85-2.49
	C12.71,8.92,13.84,10.07,13.6,12.22"/>
</svg>
