<svg width="463" height="429" viewBox="0 0 463 429" fill="none" xmlns="http://www.w3.org/2000/svg">
<g clip-path="url(#clip0_657_2)">
<path d="M171.877 281.109C171.877 281.109 115.799 256.132 69.4075 259.8C27.3938 263.061 20.6965 269.126 0 266.452C5.34155 279.788 28.0309 323.743 74.7491 339.737C121.467 355.731 166.862 347.726 184.194 334.406C201.525 321.086 182.544 286.44 171.877 281.109Z" fill="#218498"/>
<path d="M17.6904 275.125C17.6904 275.125 97.7321 310.097 169.868 303.103" stroke="white" stroke-width="1.23" stroke-miterlimit="10"/>
<path d="M36.7051 303.103L65.4874 291.608" stroke="white" stroke-width="1.23" stroke-miterlimit="10"/>
<path d="M83.5215 276.364C83.5215 277.114 97.782 298.603 97.782 298.603" stroke="white" stroke-width="1.23" stroke-miterlimit="10"/>
<path d="M270.851 284.891C270.851 284.891 288.02 240.725 315.495 217.541C340.39 196.541 347.348 196.199 357.247 183.498C361.592 193.721 373.092 230.192 356.153 264.349C339.213 298.505 309.925 318.754 293.132 320.857C276.34 322.961 267.895 293.614 270.851 284.891Z" fill="#218498"/>
<path d="M352.265 197.862C352.265 197.862 327.338 260.566 283.936 295.88" stroke="white" stroke-width="0.95" stroke-miterlimit="10"/>
<path d="M357.068 223.557L334.999 232.882" stroke="white" stroke-width="0.95" stroke-miterlimit="10"/>
<path d="M316.785 234.301C317.194 234.708 321.081 254.257 321.081 254.257" stroke="white" stroke-width="0.95" stroke-miterlimit="10"/>
<path d="M201.574 295.766C201.574 295.766 188.229 223.818 141.494 190.509C94.7597 157.201 62.743 157.201 34.7121 139.967C34.7121 139.967 32.0332 167.945 50.7204 210.579C69.4077 253.213 92.1134 287.777 134.829 306.51C177.546 325.243 201.574 295.766 201.574 295.766Z" fill="#8182EE"/>
<path d="M46.7178 155.88C46.7178 155.88 124.146 247.817 172.203 289.114" stroke="white" stroke-width="1.23" stroke-miterlimit="10"/>
<path d="M56.7314 201.84L89.4342 205.835" stroke="white" stroke-width="1.23" stroke-miterlimit="10"/>
<path d="M121.483 193.183L112.793 229.817" stroke="white" stroke-width="1.23" stroke-miterlimit="10"/>
<path d="M103.45 265.131L144.173 263.126" stroke="white" stroke-width="1.23" stroke-miterlimit="10"/>
<path d="M295.288 311.695C295.288 311.695 323.858 259.881 368.175 246.186C412.492 232.491 437.076 240.627 463 234.448C463 234.448 457.92 256.588 432.731 284.549C407.542 312.51 381.292 333.33 343.77 336.802C306.249 340.275 295.288 311.695 295.288 311.695Z" fill="#8182EE"/>
<path d="M449.719 243.659C449.719 243.659 366.901 294.543 319.513 314.026" stroke="white" stroke-width="0.99" stroke-miterlimit="10"/>
<path d="M430.33 276.381L404.21 271.147" stroke="white" stroke-width="0.99" stroke-miterlimit="10"/>
<path d="M382.861 253.311L380.182 283.62" stroke="white" stroke-width="0.99" stroke-miterlimit="10"/>
<path d="M378.368 313.08L347.642 301.211" stroke="white" stroke-width="0.99" stroke-miterlimit="10"/>
<path d="M335.816 356.318C349.733 364.339 349.799 377.333 335.979 385.355L271.162 423C257.326 431.005 234.849 431.005 220.932 423L155.592 385.355C141.674 377.333 141.609 364.339 155.428 356.318L220.311 318.689C234.147 310.668 256.624 310.668 270.541 318.689L335.816 356.318Z" fill="url(#paint0_linear_657_2)"/>
<path d="M335.816 338.971C349.733 346.992 349.799 359.986 335.979 368.008L271.162 405.637C257.326 413.658 234.849 413.658 220.932 405.637L155.592 368.008C141.674 359.986 141.609 346.992 155.428 338.971L220.311 301.326C234.147 293.32 256.624 293.32 270.541 301.326L335.816 338.971Z" stroke="#94C3FF" stroke-width="0.93" stroke-miterlimit="10"/>
<path d="M358.962 315.705L277.548 362.986C260.217 373.046 232.006 373.046 214.56 362.986L132.624 315.705C123.836 310.651 119.442 303.999 119.556 297.38V306.771C119.556 313.407 123.917 320.042 132.624 325.113L214.56 372.393C232.023 382.453 260.217 382.453 277.565 372.393L358.962 325.113C367.571 320.107 371.899 313.57 371.916 307.015V297.625C371.883 304.179 367.538 310.716 358.962 315.705Z" fill="#A6D0F4"/>
<path d="M358.75 279.283C376.212 289.342 376.293 305.646 358.962 315.705L277.548 362.986C260.217 373.046 232.006 373.046 214.56 362.986L132.624 315.705C115.162 305.646 115.08 289.342 132.411 279.283L213.809 232.002C231.157 221.943 259.367 221.943 276.813 232.002L358.75 279.283Z" fill="url(#paint1_linear_657_2)"/>
<path d="M374.219 54.1284L283.641 1.95645C279.737 -0.293467 276.176 -0.505415 273.628 0.978224L266.13 5.33132C268.678 3.84768 272.239 4.05963 276.143 6.30954L366.721 58.4815C374.496 62.9487 380.785 73.8233 380.769 82.7414V113.914C380.769 118.349 379.136 121.463 376.653 122.93L384.15 118.577C386.682 117.11 388.251 113.996 388.267 109.561L388.349 78.4046C388.3 69.4702 381.994 58.5956 374.219 54.1284Z" fill="#C7D8F2"/>
<path d="M366.721 58.4815C374.497 62.9487 380.786 73.8233 380.769 82.7414V113.914C380.769 122.832 374.399 126.435 366.623 121.952L276.046 69.78C268.27 65.2801 261.981 54.4218 262.014 45.5037L262.095 14.331C262.095 5.41284 268.45 1.80971 276.225 6.29324L366.721 58.4815Z" fill="#EAF1F7"/>
<path d="M374.219 136.951L283.641 84.7794C279.737 82.5132 276.176 82.3012 273.628 83.7849L266.13 88.138C268.678 86.6543 272.239 86.8663 276.143 89.1162L366.721 141.288C374.496 145.755 380.785 156.63 380.769 165.564V196.721C380.769 201.155 379.136 204.269 376.653 205.737L384.15 201.384C386.682 199.916 388.251 196.802 388.267 192.368L388.349 161.211C388.3 152.293 381.994 141.435 374.219 136.951Z" fill="#94C3FF"/>
<path d="M366.721 141.304C374.497 145.772 380.786 156.646 380.769 165.581V196.737C380.769 205.672 374.399 209.258 366.623 204.775L276.046 152.603C268.27 148.119 261.981 137.245 262.014 128.327L262.095 97.1702C262.095 88.2358 268.45 84.6327 276.225 89.1162L366.721 141.304Z" fill="#8182EE"/>
<path d="M364.043 107.295L363.912 107.409L364.043 107.295Z" fill="#A6D0F4"/>
<path d="M344.555 102.877L344.375 102.713L344.555 102.877Z" fill="#A6D0F4"/>
<path d="M351.693 107.735L351.432 107.621L351.693 107.735Z" fill="#A6D0F4"/>
<path d="M337.923 94.9692L337.743 94.7084L337.923 94.9692Z" fill="#A6D0F4"/>
<path d="M336.289 92.2628C336.012 91.7411 335.734 91.2357 335.473 90.6324C335.734 91.3009 336.012 91.7411 336.289 92.2628Z" fill="#A6D0F4"/>
<path d="M339.115 96.73C338.772 96.2572 338.445 95.7681 338.135 95.2953C338.445 95.7681 338.772 96.192 339.115 96.73Z" fill="#A6D0F4"/>
<path d="M339.312 97.0072C339.261 96.9141 339.201 96.8266 339.132 96.7463C339.201 96.8266 339.261 96.9141 339.312 97.0072V97.0072Z" fill="#A6D0F4"/>
<path d="M340.602 98.6702L340.308 98.2952L340.602 98.6702Z" fill="#A6D0F4"/>
<path d="M350.125 106.952H350.043L349.782 106.806L349.521 106.659H349.439L349.259 106.561H349.161L349.014 106.463H348.916L348.753 106.366H348.655L348.492 106.251H348.394L348.247 106.154H348.149L347.969 106.023L347.642 105.811L347.397 105.632L347.234 105.518H347.136L346.989 105.387H346.891L346.727 105.273H346.646L346.482 105.159L346.303 104.344L346.123 104.213L345.911 104.034L345.633 103.806L345.388 103.594L345.159 103.398H345.078L344.914 103.268L344.833 103.186L344.669 103.04L344.489 102.877L344.228 102.648L343.722 102.143C343.641 102.071 343.565 101.995 343.493 101.915C343.409 101.847 343.332 101.771 343.264 101.686L343.036 101.458C342.963 101.368 342.881 101.286 342.791 101.214L342.562 100.953L341.843 100.154L341.631 99.9092L341.402 99.6647L341.19 99.4038L340.961 99.1267L340.732 98.8495C340.438 98.4745 340.144 98.1158 339.867 97.7409L339.654 97.48L339.458 97.2028C339.394 97.1005 339.323 97.0025 339.246 96.9094C338.887 96.4202 338.56 95.9311 338.25 95.4583L338.053 95.1649C338.053 95.0507 337.923 94.9529 337.857 94.8714C337.465 94.2518 337.106 93.6649 336.763 93.0454L336.583 92.7519L336.42 92.4421C336.126 91.9041 335.848 91.3987 335.587 90.8118C338.766 90.3811 341.968 90.1415 345.176 90.0944C345.266 90.2516 345.364 90.4039 345.47 90.5509C346.703 92.453 348.329 94.0704 350.239 95.2953C350.961 95.7489 351.767 96.0521 352.61 96.1866C353.452 96.3211 354.312 96.2841 355.14 96.0779H355.401C355.695 96.4202 361.298 103.007 364.484 107.181L364.157 107.458L364.01 107.588L363.847 107.702L363.667 107.833L363.487 107.947C363.315 108.067 363.135 108.176 362.948 108.273L362.768 108.371L362.589 108.469L362.393 108.567C362.201 108.659 362.005 108.741 361.805 108.811L361.609 108.893H361.413H361.217L360.58 109.072H360.367H360.171H359.959H359.714H359.273H357.214H356.969H356.708H356.218H355.989H355.908H355.744H355.565H355.369L354.83 108.942H354.601H354.519H354.356H354.258H354.095H353.931L353.719 108.86L353.441 108.762L353.18 108.664H353.098H352.935H352.837H352.673H352.51H352.412L352.232 108.583L351.906 108.436L351.644 108.306H351.481H351.383H351.22H351.122H350.958H350.86L350.125 106.952Z" fill="#4B5CC0"/>
<path d="M340.307 98.2952L339.752 97.5941C339.932 97.8224 340.111 98.0669 340.307 98.2952Z" fill="#A6D0F4"/>
<path d="M341.255 99.4527L341.075 99.2408L341.255 99.4527Z" fill="#A6D0F4"/>
<path d="M341.713 99.9908L341.517 99.7462L341.713 99.9908Z" fill="#A6D0F4"/>
<path d="M342.415 100.757L341.729 99.9908L342.415 100.757Z" fill="#A6D0F4"/>
<path d="M343.035 101.458L342.872 101.295L343.035 101.458Z" fill="#A6D0F4"/>
<path d="M343.591 101.964C343.516 101.897 343.446 101.826 343.379 101.752C343.446 101.826 343.516 101.897 343.591 101.964V101.964Z" fill="#A6D0F4"/>
<path d="M344.081 102.436L343.607 101.98L344.081 102.436Z" fill="#A6D0F4"/>
<path d="M345.029 103.3L344.865 103.17L345.029 103.3Z" fill="#A6D0F4"/>
<path d="M346.074 104.197L345.861 104.018L346.074 104.197Z" fill="#A6D0F4"/>
<path d="M344.015 77.5568L344.211 79.9535C344.211 80.2633 344.211 80.5567 344.326 80.8665C344.266 80.8775 344.205 80.8775 344.146 80.8665H344.048C342.61 79.7252 341.81 75.8612 342.807 75.8123C342.962 75.8016 343.117 75.8417 343.248 75.9265C343.382 76.0051 343.503 76.1041 343.607 76.2199C343.803 77.1329 343.966 77.8503 343.966 77.8503L344.015 77.5568Z" fill="#CBDCEB"/>
<path d="M363.372 107.784C363.204 107.897 363.029 108 362.85 108.094C363.029 108 363.204 107.897 363.372 107.784V107.784Z" fill="#A6D0F4"/>
<path d="M354.274 94.6757C354.491 95.1323 354.747 95.5687 355.041 95.98C354.214 96.1863 353.353 96.2233 352.511 96.0888C351.669 95.9543 350.863 95.6511 350.141 95.1975C348.231 93.9726 346.605 92.3551 345.371 90.4531C345.678 90.3786 345.963 90.2334 346.204 90.0292C346.582 88.9789 346.813 87.8817 346.89 86.7684L348.899 89.6705C349.214 90.1589 349.639 90.5666 350.141 90.8607C350.322 90.9867 350.527 91.0749 350.743 91.1197C350.959 91.1645 351.182 91.1652 351.399 91.1215L353.473 90.5509H353.588C353.695 91.9433 353.924 93.3235 354.274 94.6757V94.6757Z" fill="#CBDCEB"/>
<path d="M363.715 107.605L363.568 107.702L363.715 107.605Z" fill="#A6D0F4"/>
<path d="M363.879 107.425L363.748 107.523L363.879 107.425Z" fill="#A6D0F4"/>
<path d="M354.862 81.6002C355.597 82.0241 355.744 82.0077 355.76 82.0077L356.25 85.6109L356.119 86.8173C356.104 87.0531 356.071 87.2874 356.021 87.5184C355.939 88.2 355.668 88.8451 355.238 89.3809C354.807 89.9167 354.236 90.3219 353.588 90.5509H353.473L351.399 91.1215C351.182 91.1652 350.959 91.1645 350.743 91.1197C350.527 91.0749 350.322 90.9867 350.141 90.8607C349.639 90.5666 349.214 90.1589 348.899 89.6705L346.874 86.801C345.617 85.0385 344.759 83.0249 344.358 80.8991C344.358 80.5893 344.358 80.2959 344.244 79.9861L344.048 77.5894L345.681 72.307C345.681 72.307 345.943 71.9483 346.563 72.307C347.111 72.6716 347.574 73.1498 347.919 73.7091C349.553 75.9917 349.716 78.0459 352.509 80.0676C353.637 80.8339 354.372 81.323 354.862 81.6002Z" fill="#CBDCEB"/>
<path d="M357.737 84.2577C358.734 85.4478 357.917 88.3825 356.48 87.8608H356.365C356.244 87.7888 356.143 87.6879 356.071 87.5673C356.121 87.3363 356.154 87.102 356.169 86.8663L356.3 85.6598V85.9696C356.571 85.2678 356.794 84.5488 356.97 83.8175C357.075 83.8197 357.178 83.8538 357.264 83.9153C357.441 84 357.601 84.116 357.737 84.2577Z" fill="#CBDCEB"/>
<path d="M352.363 69.405C355.1 71.8493 356.882 75.1818 357.394 78.8122C357.545 80.4558 357.396 82.1131 356.953 83.7033C356.778 84.4347 356.554 85.1537 356.283 85.8554V85.5457L355.793 81.9425C355.793 81.9425 355.63 81.9425 354.895 81.5349C354.159 81.1273 353.669 80.7687 352.559 79.9046C349.765 77.8829 349.586 75.8286 347.968 73.5461C347.623 72.9868 347.16 72.5085 346.613 72.144C345.992 71.7853 345.747 72.144 345.731 72.144L344.097 77.4264V77.5568C344.097 77.5568 343.934 76.8721 343.738 75.9265C343.542 74.9808 343.264 73.7581 343.117 72.9429C342.916 70.8471 343.498 68.7512 344.75 67.0572C345.682 66.2094 348.099 66.4214 350.517 67.8235C351.188 68.2816 351.807 68.812 352.363 69.405V69.405Z" fill="#8182EE"/>
<path d="M345.355 90.4531C345.249 90.3061 345.151 90.1537 345.061 89.9966C341.853 90.0437 338.651 90.2832 335.472 90.7139C332.885 85.815 331.465 80.3864 331.323 74.8504C331.323 63.1117 339.67 58.3836 349.896 64.2693C360.122 70.1549 368.387 84.4533 368.355 96.192C368.355 101.328 366.721 105.126 364.059 107.279L364.385 107.001C361.2 102.828 355.597 96.2409 355.303 95.8985H355.042C354.748 95.4872 354.491 95.0508 354.274 94.5942C353.925 93.242 353.695 91.8617 353.588 90.4694C354.24 90.2592 354.821 89.8718 355.266 89.3506C355.71 88.8293 356 88.1949 356.103 87.5184C356.176 87.639 356.277 87.7399 356.397 87.8119C358.031 88.3825 358.766 85.4478 357.77 84.2577C357.648 84.1016 357.498 83.969 357.329 83.8664C357.243 83.8048 357.14 83.7707 357.035 83.7686C357.477 82.1783 357.627 80.521 357.476 78.8774C356.964 75.247 355.182 71.9145 352.444 69.4702C351.84 68.9265 351.177 68.4509 350.468 68.0518C348.05 66.6496 345.567 66.4214 344.702 67.2855C343.449 68.9795 342.867 71.0754 343.068 73.1711C343.215 73.9863 343.476 75.1928 343.689 76.1547C343.585 76.0389 343.464 75.9399 343.329 75.8612C343.199 75.7765 343.044 75.7364 342.888 75.7471C341.892 75.7471 342.692 79.66 344.13 80.8013C344.293 80.8991 344.359 80.9317 344.408 80.9317C344.808 83.0575 345.667 85.0711 346.923 86.8337C346.873 87.9475 346.653 89.0471 346.27 90.0944C345.999 90.2871 345.685 90.4103 345.355 90.4531Z" fill="#25437F"/>
<path d="M343.33 101.703C343.262 101.651 343.202 101.591 343.15 101.523C343.202 101.591 343.262 101.651 343.33 101.703V101.703Z" fill="#A6D0F4"/>
<path d="M345.551 103.757L345.339 103.578L345.551 103.757Z" fill="#A6D0F4"/>
<path d="M352.656 172.412L352.787 172.803H352.673C352.661 172.673 352.655 172.543 352.656 172.412V172.412Z" fill="#25437F"/>
<path d="M342.546 153.027C342.616 153.93 342.849 154.814 343.232 155.635C343.287 155.575 343.337 155.51 343.379 155.44L343.526 157.201C343.526 157.494 343.526 157.804 343.656 158.114H343.444C342.43 156.987 341.851 155.536 341.811 154.021C341.811 153.451 341.941 153.059 342.252 153.043C342.348 153.019 342.447 153.014 342.546 153.027V153.027Z" fill="#CBDCEB"/>
<path d="M351.987 168.043C352.045 169.519 352.27 170.985 352.657 172.412C352.649 172.553 352.649 172.695 352.657 172.836C352.155 173.003 351.624 173.064 351.098 173.013C350.572 172.962 350.062 172.802 349.602 172.542L349.439 172.445H349.341C348.083 171.603 347.033 170.488 346.27 169.184V169.184C346.765 167.999 347.036 166.733 347.07 165.45L348.23 167.081C348.564 167.558 348.992 167.963 349.488 168.271C349.67 168.394 349.875 168.479 350.091 168.521C350.308 168.563 350.53 168.561 350.745 168.515L351.987 168.043Z" fill="#CBDCEB"/>
<path d="M359.665 180.499C359.109 179.798 358.407 178.966 357.639 178.086C357.57 178.698 357.41 179.297 357.166 179.863C356.881 180.78 356.308 181.582 355.531 182.149C354.754 182.715 353.815 183.017 352.853 183.009C353.224 181.665 353.421 180.279 353.441 178.885C353.444 178.265 353.378 177.647 353.245 177.042C353.098 176.472 352.984 175.868 352.886 175.265C352.759 174.461 352.688 173.649 352.673 172.836C352.172 173.003 351.641 173.064 351.115 173.013C350.589 172.962 350.079 172.802 349.619 172.542L349.455 172.445H349.357C348.1 171.603 347.05 170.488 346.286 169.184V169.184C344.003 168.936 341.703 168.871 339.409 168.988C338.691 168.988 338.021 170.374 337.449 172.053C340.489 177.186 344.733 181.506 349.815 184.64C354.356 187.265 358.538 187.786 361.756 186.515C361.42 184.402 360.712 182.365 359.665 180.499V180.499Z" fill="#4B5CC0"/>
<path d="M355.352 169.233C354.982 168.411 354.697 167.553 354.503 166.673C354.11 167.18 353.576 167.56 352.967 167.765H352.788L351.987 167.977C352.046 169.454 352.271 170.92 352.657 172.347C352.693 172.479 352.737 172.61 352.788 172.738H352.673C352.688 173.552 352.759 174.363 352.886 175.167C352.984 175.77 353.098 176.374 353.245 176.944C353.378 177.549 353.444 178.167 353.441 178.787C353.421 180.181 353.224 181.567 352.853 182.912C353.815 182.919 354.754 182.618 355.531 182.051C356.308 181.484 356.881 180.682 357.166 179.765C357.52 178.895 357.703 177.965 357.705 177.026C357.429 174.302 356.63 171.656 355.352 169.233Z" fill="#8182EE"/>
<path d="M355.074 163.624L354.274 160.021C350.153 157.6 346.897 153.951 344.963 149.587C344.963 149.913 344.963 150.223 344.963 150.516C344.969 152.078 344.533 153.609 343.705 154.934C343.592 155.111 343.466 155.28 343.329 155.44L343.476 157.201C343.476 157.494 343.476 157.804 343.607 158.114C344 160.239 344.853 162.253 346.106 164.015L347.004 165.287L348.164 166.918C348.498 167.395 348.926 167.8 349.422 168.108C349.604 168.231 349.81 168.316 350.026 168.358C350.242 168.4 350.465 168.398 350.68 168.352L351.938 168.01L352.738 167.798H352.918C353.526 167.592 354.06 167.212 354.453 166.706C354.878 166.138 355.164 165.479 355.286 164.782C355.12 164.42 355.047 164.022 355.074 163.624V163.624Z" fill="#CBDCEB"/>
<path d="M355.336 164.749L355.385 164.814L355.369 164.88L355.336 164.765V164.749Z" fill="#25437F"/>
<path d="M355.075 163.624L355.336 164.749C355.158 164.401 355.068 164.015 355.075 163.624V163.624Z" fill="#FF8D68"/>
<path d="M356.593 161.113C356.755 161.22 356.898 161.352 357.018 161.505C357.33 161.928 357.481 162.448 357.442 162.972C357.442 164.195 356.74 165.467 355.809 165.108H355.727C355.646 165.06 355.579 164.993 355.531 164.912C355.945 163.676 356.294 162.419 356.577 161.146H356.658L356.593 161.113Z" fill="#CBDCEB"/>
<path d="M349.896 142.005C360.122 147.891 368.387 162.189 368.355 173.912C368.355 180.433 365.757 184.786 361.723 186.352C361.378 184.297 360.682 182.317 359.664 180.499C359.109 179.798 358.407 178.966 357.639 178.086C357.664 177.765 357.664 177.444 357.639 177.124C357.375 174.366 356.576 171.686 355.287 169.233C354.916 168.411 354.632 167.553 354.437 166.673C354.859 166.11 355.145 165.457 355.27 164.765C355.334 164.863 355.418 164.946 355.515 165.01C356.675 165.467 357.361 164.195 357.378 162.972C357.416 162.448 357.265 161.928 356.953 161.505C356.833 161.352 356.69 161.22 356.528 161.113C356.626 159.825 356.838 158.472 356.838 157.266C356.855 156.945 356.855 156.624 356.838 156.304C356.478 154.195 355.698 152.18 354.545 150.376C353.392 148.573 351.889 147.019 350.125 145.804L349.88 145.625C349.569 145.413 349.275 145.217 348.981 145.054C345.714 143.179 343.525 144.321 342.872 146.505C342.872 146.685 342.774 146.864 342.741 147.043C342.529 148.282 342.42 149.536 342.415 150.793C342.41 151.539 342.448 152.285 342.529 153.027C342.401 152.949 342.254 152.909 342.104 152.913C341.794 152.913 341.663 153.32 341.663 153.891C341.703 155.405 342.282 156.856 343.297 157.983L343.591 158.114C343.984 160.239 344.837 162.253 346.09 164.015L346.988 165.287C346.955 166.57 346.683 167.836 346.188 169.021C343.905 168.773 341.605 168.707 339.311 168.825C338.592 168.825 337.923 170.211 337.351 171.89C333.606 166.119 331.5 159.442 331.258 152.57C331.356 140.848 339.67 136.104 349.896 142.005Z" fill="#25437F"/>
<path d="M356.855 156.304C356.494 154.195 355.715 152.18 354.562 150.376C353.408 148.573 351.905 147.019 350.141 145.804L349.896 145.625L348.965 145.022C345.698 143.228 343.623 144.37 342.97 146.554C342.97 146.734 342.872 146.913 342.839 147.092C342.627 148.331 342.518 149.585 342.512 150.842C342.506 151.594 342.549 152.346 342.643 153.092C342.714 153.995 342.946 154.879 343.329 155.701C343.385 155.641 343.434 155.575 343.476 155.505C343.613 155.345 343.739 155.177 343.852 155C344.68 153.675 345.116 152.143 345.11 150.581C345.11 150.288 345.11 149.978 345.11 149.652C347.044 154.016 350.3 157.665 354.421 160.086L355.221 163.689L355.482 164.814C355.897 163.578 356.246 162.321 356.528 161.048C356.813 159.807 356.972 158.539 357.002 157.266C356.97 156.943 356.92 156.622 356.855 156.304V156.304Z" fill="#8182EE"/>
<path d="M324.038 62.5737C324.404 62.8137 324.709 63.1366 324.928 63.5161C325.146 63.8957 325.272 64.3213 325.295 64.7584C325.295 65.5573 324.74 65.8834 324.021 65.4758L272.435 35.7541C272.066 35.5194 271.758 35.2004 271.536 34.8234C271.314 34.4463 271.186 34.0221 271.161 33.5857C271.161 32.8031 271.717 32.4607 272.419 32.8683L324.038 62.5737Z" fill="#79AEF5"/>
<path d="M309.173 61.3998C309.53 61.6451 309.823 61.9707 310.031 62.3502C310.238 62.7297 310.352 63.1526 310.366 63.5845C310.366 64.3834 309.794 64.7095 309.108 64.3182L272.37 43.1234C272.007 42.8851 271.705 42.5644 271.489 42.1876C271.274 41.8108 271.15 41.3884 271.129 40.955C271.129 40.1724 271.684 39.8463 272.387 40.2539L309.173 61.3998Z" fill="#79AEF5"/>
<path d="M324.038 145.413C324.405 145.649 324.71 145.969 324.928 146.346C325.147 146.723 325.273 147.146 325.296 147.581C325.296 148.38 324.741 148.706 324.022 148.299L272.436 118.593C272.075 118.352 271.775 118.031 271.56 117.655C271.344 117.278 271.219 116.858 271.194 116.425C271.194 115.626 271.75 115.284 272.452 115.691L324.038 145.413Z" fill="#254DA1"/>
<path d="M309.173 144.223C309.533 144.461 309.832 144.78 310.047 145.153C310.262 145.527 310.388 145.945 310.414 146.375C310.414 147.174 309.843 147.516 309.157 147.109L272.419 125.914C272.058 125.673 271.759 125.351 271.543 124.975C271.328 124.599 271.203 124.178 271.178 123.745C271.178 122.946 271.733 122.62 272.436 123.028L309.173 144.223Z" fill="#254DA1"/>
<path d="M309.01 160.918C311.199 159.646 314.221 159.825 317.553 161.749C321.04 164.013 323.942 167.067 326.023 170.662C328.104 174.258 329.304 178.293 329.527 182.439C329.527 186.221 328.171 188.879 326.015 190.134L323.385 191.65C325.541 190.411 326.88 187.737 326.897 183.971C326.678 179.824 325.479 175.788 323.398 172.192C321.317 168.596 318.413 165.543 314.923 163.282C311.656 161.358 308.569 161.179 306.38 162.45L309.01 160.918Z" fill="#86E563"/>
<path d="M314.923 163.282C318.413 165.543 321.317 168.596 323.398 172.192C325.479 175.788 326.678 179.824 326.896 183.971C326.896 191.569 321.473 194.634 314.857 190.819C311.369 188.556 308.467 185.502 306.386 181.907C304.305 178.311 303.105 174.276 302.884 170.129C302.9 162.516 308.291 159.467 314.923 163.282Z" fill="#2AB774"/>
<path d="M319.235 173.276L321.816 177.727L311.966 183.335L307.18 175.069L309.777 173.586L311.982 177.401L319.235 173.276Z" fill="white"/>
<path d="M309.01 199.15C311.199 197.878 314.221 198.058 317.553 199.982C321.041 202.244 323.944 205.298 326.025 208.894C328.105 212.489 329.305 216.525 329.526 220.671C329.526 224.453 328.171 227.192 326.014 228.35L323.433 229.883C325.59 228.627 326.929 225.97 326.946 222.187C326.724 218.043 325.524 214.01 323.443 210.417C321.363 206.824 318.46 203.773 314.972 201.514C311.705 199.59 308.618 199.411 306.429 200.666L309.01 199.15Z" fill="#FF7363"/>
<path d="M314.923 201.514C318.41 203.773 321.313 206.824 323.394 210.417C325.475 214.01 326.675 218.043 326.896 222.187C326.896 229.801 321.473 232.866 314.857 229.051C311.37 226.787 308.468 223.733 306.387 220.138C304.307 216.543 303.106 212.508 302.884 208.362C302.9 200.748 308.291 197.683 314.923 201.514Z" fill="#FF465C"/>
<path d="M318.304 211.117L320.869 215.568L317.128 217.72L320.836 224.144L318.255 225.627L314.531 219.171L310.79 221.323L308.209 216.856L311.95 214.736L308.242 208.296L310.839 206.813L314.547 213.253L318.304 211.117Z" fill="white"/>
<path d="M256.117 119.767C255.391 117.465 253.891 115.483 251.87 114.158C249.849 112.833 247.431 112.246 245.025 112.496C239.308 112.773 235.094 115.284 233.689 119.555C232.832 122.933 233.143 126.5 234.571 129.68C235.505 131.383 236.853 132.823 238.491 133.87L236.858 139.756C238.344 141.533 244.552 143.701 248.913 143.473C248.913 143.473 249.452 141.419 249.991 139.234C252.899 140.049 255.055 137.603 256.1 134.343C256.926 129.52 256.931 124.592 256.117 119.767Z" fill="#FF8E54"/>
<path d="M256.117 119.767C255.392 117.465 253.891 115.483 251.87 114.158C249.849 112.833 247.431 112.246 245.025 112.496H244.731L233.428 120.648C232.92 123.711 233.317 126.855 234.571 129.696C235.505 131.399 236.853 132.84 238.491 133.886L236.858 139.772C238.344 141.549 244.552 143.717 248.913 143.489C248.913 143.489 249.452 141.435 249.991 139.25C250.938 139.537 251.96 139.437 252.834 138.973C251.851 138.424 251.081 137.563 250.645 136.527C249.583 134.587 253.128 133.267 253.307 131.392C253.487 129.517 252.246 126.093 254.549 124.495C255.077 124.079 255.513 123.559 255.83 122.967C256.148 122.375 256.34 121.724 256.395 121.055C256.331 120.62 256.238 120.19 256.117 119.767V119.767Z" fill="#FF5F4D"/>
<path d="M246.511 326.857C273.459 326.857 295.304 313.003 295.304 295.913C295.304 278.823 273.459 264.968 246.511 264.968C219.564 264.968 197.719 278.823 197.719 295.913C197.719 313.003 219.564 326.857 246.511 326.857Z" fill="#CBDCEB"/>
<path d="M268.76 137.294L270.851 135.663L273.562 129.99C273.562 129.99 275.049 129.37 275.424 129.256C276.526 129.322 277.619 129.486 278.691 129.745C279.229 129.095 279.807 128.479 280.423 127.903C280.799 127.658 282.269 126.044 282.89 126.419C283.51 126.794 283.38 127.397 283.02 127.903C282.661 128.408 281.387 129.631 281.387 129.631L280.015 132.892L280.145 134.114C280.364 134.123 280.575 134.198 280.75 134.329C280.925 134.46 281.056 134.641 281.125 134.848C281.387 135.598 281.387 136.332 280.521 136.576C279.96 136.737 279.414 136.944 278.887 137.196C278.041 137.829 277.132 138.375 276.176 138.826C275.493 139.077 274.795 139.284 274.085 139.446L273.464 140.929L268.76 137.294Z" fill="#FF8E54"/>
<path d="M281.093 134.946C280.596 134.929 280.099 134.995 279.623 135.142C278.937 135.451 277.99 136.772 277.549 137.131C277.107 137.489 274.772 138.516 273.693 137.522C272.656 136.837 271.479 136.391 270.247 136.218L268.793 137.343L273.481 141.044L274.102 139.56C274.811 139.398 275.51 139.191 276.193 138.94C277.149 138.489 278.058 137.943 278.904 137.31C279.431 137.058 279.977 136.851 280.538 136.69C281.355 136.43 281.355 135.696 281.093 134.946Z" fill="#FF5F4D"/>
<path d="M266.44 138.239L269.054 136.104C269.054 136.104 273.481 137.049 273.955 140.75L271.798 143.016L266.44 138.239Z" fill="#F9FBFC"/>
<path d="M252.213 149.896L266.523 136.674C266.523 136.674 273.057 137.033 273.694 142.397L259.368 158.831C257.328 158.389 255.504 157.259 254.201 155.632C252.898 154.005 252.196 151.979 252.213 149.896V149.896Z" fill="#253C72"/>
<path d="M259.367 158.831L273.693 142.397C273.544 141.121 272.968 139.932 272.06 139.022C268.01 144.217 263.44 148.986 258.42 153.255L257.228 158.048C257.905 158.399 258.624 158.662 259.367 158.831V158.831Z" fill="#252F4C"/>
<path d="M225.145 289.717L224.704 295.701C224.673 296.165 224.786 296.627 225.029 297.024C225.272 297.421 225.632 297.734 226.06 297.918C227.193 298.378 228.435 298.502 229.638 298.277C230.768 298.191 231.861 297.835 232.825 297.239C233.788 296.643 234.595 295.825 235.175 294.853C235.698 293.81 242.575 289.065 241.709 286.701C240.386 284.337 238.017 286.701 235.632 286.701C233.248 286.701 228.314 285.511 225.145 289.717Z" fill="#171E26"/>
<path d="M226.73 198.139C226.73 198.139 225.096 238.458 225.929 251.11C225.929 251.11 222.76 282.739 224.296 290.239C224.296 290.239 229.85 294.201 234.603 291.038C235.779 290.647 235.779 289.065 235.779 289.065C235.779 289.065 238.948 259.409 239.749 250.327C240.549 241.246 246.871 213.954 245.695 208.036C244.519 202.117 237.021 193.802 226.73 198.139Z" fill="#171E26"/>
<path d="M252.278 298.146C252.278 298.146 250.089 304.88 251.673 306.461C252.292 307.145 253.087 307.646 253.971 307.911C254.855 308.175 255.795 308.193 256.688 307.961C257.657 307.648 258.606 307.277 259.53 306.852L259.988 305.467L260.527 306.38C261.176 306.237 261.798 305.995 262.373 305.662C263.418 305.075 266.457 303.885 267.714 303.086C268.972 302.287 271.21 300.918 271.406 299.206C271.602 297.494 265.411 298.081 263.761 298.146C262.653 298.079 261.556 297.882 260.494 297.559C259.89 297.559 253.486 298.358 253.486 298.358" fill="#171E26"/>
<path d="M262.291 197.406C262.291 197.406 263.925 203.422 263.925 215.535C263.925 227.649 262.863 258.235 262.863 258.235C262.863 258.235 262.34 289.326 261.801 297.233C261.801 297.233 258.11 301.978 251.772 298.277C248.603 294.592 249.664 291.967 249.664 291.967C249.664 291.967 245.434 272.99 247.018 255.594C247.018 255.594 241.219 220.28 240.157 216.073C239.096 211.867 220.686 210.025 227.89 189.449L262.291 197.406Z" fill="#1F2F3F"/>
<path d="M252.213 216.09C252.213 216.09 260.724 219.807 259.662 232.018C258.6 244.23 256.395 252.186 257.538 259.621C258.682 267.055 260.185 271.31 259.172 280.326C258.306 287.679 255.333 294.657 257.685 299.581C259.315 299.308 260.799 298.478 261.884 297.233C262.423 289.326 262.945 258.235 262.945 258.235C262.945 258.235 264.007 227.665 264.007 215.535C264.025 211.439 263.807 207.346 263.354 203.275L250.139 209.193L252.213 216.09Z" fill="#25437F"/>
<path d="M265.984 158.57C266.034 157.287 265.753 156.013 265.166 154.871C264.579 153.729 263.708 152.757 262.635 152.049C257.734 148.788 251.2 144.744 246.97 142.495C241.693 139.707 236.205 136.772 233.281 136.511C225.113 135.745 220.213 143.326 220.997 153.271C221.674 159.977 223.11 166.584 225.277 172.966C226.353 177.236 226.961 181.609 227.09 186.009C227.142 188.217 226.838 190.419 226.192 192.531C224.885 195.694 223.562 208.345 223.562 208.345C223.562 208.345 232.53 217.557 244.16 218.356C255.791 219.155 260.25 216.725 260.25 216.725L261.05 211.459L262.684 216.204C263.292 215.959 263.828 215.564 264.242 215.057C264.656 214.549 264.935 213.946 265.053 213.302C265.298 211.394 263.174 195.139 262.749 191.96C263.435 185.439 264.742 175.656 265.167 171.336C265.494 167.162 265.804 162.532 265.984 158.57Z" fill="#25437F"/>
<path d="M237.022 136.527C237.022 136.527 240.86 139.788 249.959 141.125L251.331 144.386C248.717 144.975 246.021 145.112 243.36 144.793C239.999 144.26 236.95 142.521 234.784 139.902L234.392 139.103L237.022 136.527Z" fill="#F9FBFC"/>
<path d="M231.728 119.457C231.821 117.591 232.52 115.805 233.719 114.369C234.919 112.934 236.553 111.927 238.377 111.501C245.025 109.643 245.826 110.425 247.688 109.105C249.55 107.784 251.951 107.474 255.398 108.567C258.845 109.659 259.4 113.083 258.322 116.278C257.244 119.474 256.688 121.316 254.075 122.637C253.303 123.085 252.686 123.757 252.307 124.564C251.928 125.371 251.803 126.274 251.951 127.153C251.951 127.153 252.474 130.609 250.612 131.93L248.978 127.952C248.373 130.101 247.477 132.158 246.316 134.066C244.976 135.696 242.052 136.446 239.128 136.446C236.204 136.446 232.48 129.272 231.418 126.892C231.154 126.115 231.114 125.281 231.302 124.482C231.489 123.684 231.898 122.954 232.48 122.376C232.089 122.011 231.811 121.543 231.678 121.026C231.545 120.509 231.562 119.965 231.728 119.457V119.457Z" fill="#25437F"/>
<path d="M255.398 158.749C252.752 152.375 243.163 153.972 230.405 149.195C224.263 146.897 223.414 143.359 224.198 140.326C221.544 144.072 220.379 148.668 220.931 153.222C221.608 159.928 223.044 166.535 225.211 172.917C226.287 177.187 226.894 181.56 227.024 185.96C227.076 188.168 226.772 190.37 226.125 192.482C224.819 195.645 223.495 208.296 223.495 208.296C223.495 208.296 232.463 217.508 244.094 218.307C248.514 218.72 252.97 218.495 257.325 217.638C259.171 204.351 250.971 197.829 248.962 191.797C246.887 185.292 258.093 165.124 255.398 158.749Z" fill="#252F4C"/>
<path d="M253.095 110.963C252.54 110.089 251.706 109.428 250.727 109.088C249.748 108.747 248.683 108.747 247.704 109.088V109.088C245.842 110.409 245.042 109.626 238.393 111.485C236.57 111.911 234.935 112.918 233.736 114.353C232.536 115.788 231.837 117.574 231.745 119.441C231.585 119.953 231.575 120.5 231.717 121.017C231.859 121.535 232.146 122 232.545 122.359C231.963 122.938 231.555 123.668 231.367 124.466C231.179 125.264 231.22 126.099 231.483 126.876C232.712 129.645 234.305 132.238 236.221 134.587C240.337 133.87 242.15 130.495 241.415 128.294C240.353 125.033 243.898 127.935 244.976 125.848C246.054 123.762 241.415 122.278 246.022 118.023C250.628 113.767 255.235 114.86 253.095 110.963Z" fill="#252F4C"/>
<path d="M304.534 181.314L306.772 180.825C308.134 179.715 309.551 178.676 311.019 177.711C311.558 177.548 316.067 174.173 316.491 174.939C316.916 175.705 316.491 176.406 315.773 176.83C315.149 177.216 314.499 177.559 313.829 177.857L312.702 179.488C313.06 180.046 313.315 180.665 313.453 181.314C313.487 181.857 313.487 182.401 313.453 182.944C313.582 183.313 313.634 183.704 313.606 184.094C313.578 184.484 313.47 184.864 313.29 185.21C312.967 185.709 312.524 186.119 312.002 186.403C311.48 186.688 310.895 186.838 310.3 186.841L307.229 186.58L305.776 186.792L304.534 181.314Z" fill="#FF8E54"/>
<path d="M313.224 185.194C313.489 184.694 313.592 184.124 313.518 183.564C313.013 184.203 312.34 184.688 311.574 184.966C310.512 185.096 309.173 186.026 308.307 184.558C307.542 183.514 306.596 182.614 305.514 181.901L304.681 181.77L305.775 186.906L307.229 186.71L310.3 186.971C310.897 186.942 311.478 186.765 311.989 186.454C312.5 186.144 312.924 185.711 313.224 185.194V185.194Z" fill="#FF5F4D"/>
<path d="M302.198 180.971L304.959 180.499C305.609 180.953 306.148 181.549 306.535 182.24C306.923 182.932 307.149 183.702 307.197 184.493C307.34 185.719 307.013 186.954 306.282 187.949L304.028 188.227L302.198 180.971Z" fill="#CBDCEB"/>
<path d="M262.356 152.244C262.356 152.244 265.231 152.766 267.437 157.69C269.642 162.613 276.944 179.52 278.741 180.906C280.537 182.292 302.263 179.814 302.263 179.814C302.263 179.814 306.559 182.585 305.53 186.14C304.517 189.4 303.08 189.009 303.08 189.009C303.08 189.009 281.73 193.9 277.483 194.373C276.22 194.547 274.935 194.457 273.709 194.109C272.483 193.761 271.343 193.163 270.361 192.351C269.283 191.65 260.56 174.776 258.73 171.972C256.901 169.167 252.196 159.32 255.675 155.668C259.155 152.016 262.356 152.244 262.356 152.244Z" fill="#25437F"/>
<path d="M303.096 189.009C303.096 189.009 304.534 189.351 305.546 186.14C305.734 185.451 305.734 184.725 305.546 184.036C303.08 184.803 299.584 185.814 295.958 186.629C289.244 188.129 280.619 189.726 274.559 187.689C268.499 185.651 262.275 170.863 260.037 162.744C259.097 159.514 259.035 156.093 259.857 152.831C258.276 153.497 256.851 154.485 255.676 155.733C252.18 159.32 256.933 169.167 258.73 172.037C260.527 174.906 269.283 191.716 270.361 192.417C271.343 193.228 272.483 193.826 273.709 194.174C274.935 194.522 276.22 194.612 277.483 194.438C281.746 194.014 303.096 189.009 303.096 189.009Z" fill="#252F4C"/>
<path d="M102.127 98.1484L102.568 250.213L189.356 200.193L188.931 48.1286L102.127 98.1484Z" fill="#CBDCEB"/>
<path d="M113.479 104.523L110.474 102.779L110.915 254.844L113.904 256.572L113.479 104.523Z" fill="#BDC5CB"/>
<path d="M200.284 54.5034L197.278 52.7589L110.474 102.779L113.479 104.523L200.284 54.5034Z" fill="white"/>
<path d="M113.479 104.523L113.904 256.572L200.709 206.552L200.284 54.5034L113.479 104.523Z" fill="#EAF1F7"/>
<path d="M181.808 87.1108V89.2955L131.284 118.414V116.229L181.808 87.1108Z" fill="#A6D0F4"/>
<path d="M159.952 108.436V110.604L131.317 127.12L131.301 124.935L159.952 108.436Z" fill="#A6D0F4"/>
<path d="M177.774 140.881V143.049L131.432 169.754V167.586L177.774 140.881Z" fill="#A6D0F4"/>
<path d="M160.035 141.451L160.051 143.62L131.399 160.135V157.951L160.035 141.451Z" fill="#A6D0F4"/>
<path d="M167.663 128.327V130.511L131.383 151.413L131.366 149.228L167.663 128.327Z" fill="#A6D0F4"/>
<path d="M144.484 127.006V129.191L131.334 136.756V134.587L144.484 127.006Z" fill="#A6D0F4"/>
<path d="M145.284 176.292C153.353 171.662 160.982 172.836 164.134 180.156C168.071 189.303 163.579 204.726 154.088 215.389L151.916 210.318C158.352 202.818 161.357 192.237 158.613 185.863C156.391 180.694 151.017 179.863 145.333 183.14C143.833 184.028 142.436 185.077 141.167 186.27L138.962 181.151C140.869 179.287 142.991 177.656 145.284 176.292V176.292Z" fill="#4385FF"/>
<path d="M138.929 181.151L141.134 186.254C140.786 186.58 140.443 186.922 140.105 187.281C132.787 194.797 129.226 206.34 132.117 213.073L132.46 213.774L132.591 214.019C134.715 217.736 138.766 218.649 143.258 216.84C143.989 216.547 144.699 216.204 145.381 215.812L145.97 215.454L146.852 214.883L146.966 214.802C147.538 214.394 148.109 213.954 148.697 213.465L148.91 213.269L149.547 212.698C149.627 212.626 149.703 212.55 149.776 212.47L150.609 211.671C151.05 211.215 151.474 210.742 151.883 210.269L154.088 215.389C153.68 215.845 153.255 216.318 152.814 216.774C152.373 217.231 152.03 217.557 151.621 217.932L151.295 218.242L150.38 219.057L150.086 219.318C149.269 220.019 148.452 220.655 147.619 221.225L147.423 221.356L146.313 222.106H146.182L145.414 222.562C144.81 222.921 144.205 223.231 143.617 223.524C143.029 223.818 142.735 223.915 142.31 224.078C135.466 226.801 129.242 225.089 126.58 218.715C122.463 209.161 127.527 192.759 137.9 182.096L138.929 181.151Z" fill="#94C3FF"/>
<path d="M186.399 182.488V183.596C186.4 183.745 186.439 183.891 186.513 184.02C186.588 184.149 186.695 184.256 186.824 184.33C186.953 184.404 187.1 184.444 187.249 184.444C187.398 184.444 187.544 184.404 187.674 184.33L192.901 181.33C193.026 181.252 193.129 181.144 193.2 181.016C193.272 180.888 193.309 180.743 193.309 180.596V179.488C193.312 179.339 193.276 179.193 193.203 179.063C193.131 178.934 193.025 178.826 192.897 178.751C192.768 178.677 192.622 178.637 192.474 178.638C192.325 178.638 192.179 178.678 192.051 178.754L186.824 181.754C186.697 181.831 186.592 181.938 186.518 182.066C186.443 182.195 186.403 182.34 186.399 182.488V182.488Z" fill="#94C3FF"/>
<path d="M169.884 197.438V198.547C169.881 198.695 169.917 198.842 169.99 198.971C170.062 199.101 170.168 199.208 170.297 199.283C170.425 199.358 170.571 199.397 170.72 199.397C170.868 199.396 171.014 199.356 171.142 199.28L192.916 186.824C193.043 186.748 193.149 186.64 193.223 186.512C193.297 186.384 193.338 186.239 193.341 186.091V184.982C193.344 184.834 193.308 184.687 193.235 184.558C193.163 184.428 193.057 184.321 192.929 184.246C192.8 184.171 192.654 184.132 192.506 184.132C192.357 184.133 192.211 184.173 192.083 184.248L170.309 196.704C170.177 196.776 170.068 196.883 169.993 197.012C169.918 197.141 169.881 197.289 169.884 197.438V197.438Z" fill="#94C3FF"/>
<g opacity="0.53">
<path d="M178.819 203.291V204.4C178.819 204.549 178.859 204.695 178.933 204.824C179.008 204.952 179.115 205.059 179.244 205.134C179.373 205.208 179.52 205.247 179.669 205.247C179.818 205.247 179.964 205.208 180.093 205.134L192.884 197.813C193.014 197.74 193.122 197.633 193.197 197.504C193.272 197.375 193.31 197.229 193.308 197.079V195.971C193.312 195.822 193.275 195.676 193.203 195.547C193.13 195.417 193.024 195.309 192.896 195.234C192.768 195.16 192.622 195.12 192.473 195.121C192.324 195.121 192.179 195.161 192.051 195.237L179.244 202.558C179.117 202.634 179.012 202.742 178.937 202.87C178.863 202.998 178.823 203.143 178.819 203.291V203.291Z" fill="#94C3FF"/>
</g>
<path d="M173.151 201.009V202.166C173.156 202.313 173.198 202.456 173.274 202.582C173.35 202.709 173.456 202.813 173.584 202.887C173.712 202.96 173.856 203 174.003 203.002C174.15 203.005 174.296 202.969 174.425 202.9L192.884 192.384C193.013 192.31 193.12 192.203 193.195 192.074C193.269 191.945 193.309 191.799 193.309 191.65V190.542C193.312 190.393 193.276 190.247 193.203 190.117C193.131 189.988 193.025 189.88 192.896 189.805C192.768 189.73 192.622 189.691 192.473 189.692C192.325 189.692 192.179 189.732 192.051 189.808L173.641 200.34C173.508 200.399 173.393 200.492 173.307 200.609C173.221 200.726 173.167 200.864 173.151 201.009V201.009Z" fill="#94C3FF"/>
</g>
<defs>
<linearGradient id="paint0_linear_657_2" x1="145.072" y1="370.845" x2="346.303" y2="370.845" gradientUnits="userSpaceOnUse">
<stop stop-color="white"/>
<stop offset="1" stop-color="#CBDCEB"/>
</linearGradient>
<linearGradient id="paint1_linear_657_2" x1="222.172" y1="232.85" x2="308.569" y2="471.382" gradientUnits="userSpaceOnUse">
<stop stop-color="white"/>
<stop offset="1" stop-color="#CBDCEB"/>
</linearGradient>
<clipPath id="clip0_657_2">
<rect width="463" height="429" fill="white"/>
</clipPath>
</defs>
</svg>
