<svg width="45" height="45" viewBox="0 0 45 45" fill="none" xmlns="http://www.w3.org/2000/svg">
<g clip-path="url(#clip0_173_324)">
<path d="M21.8809 8.78125V37.5361C21.7635 37.5522 21.6555 37.5782 21.549 37.5786C20.3005 37.5817 19.0517 37.5725 17.8037 37.5882C17.5019 37.5916 17.3809 37.5051 17.3316 37.2053C16.9675 34.9949 16.015 33.041 14.5944 31.2962C14.0193 30.5901 13.4571 29.8738 12.8777 29.1712C9.79524 25.4315 8.96021 21.2504 10.6988 16.7706C12.4283 12.3126 15.8592 9.70975 20.6815 8.90607C21.0616 8.84251 21.4488 8.8249 21.8809 8.78125Z" fill="#E74273"/>
<path d="M23.1294 37.5727V29.9333C25.2289 29.6771 26.9169 28.7437 28.1266 27.0494C29.0411 25.7682 29.4279 24.3332 29.3218 22.7764C29.1362 20.0491 27.0688 17.084 23.14 16.5789V8.94417C23.6348 8.94417 24.1187 8.91813 24.5963 8.96216C24.718 8.97327 24.8832 9.1919 24.9184 9.33778C25.0967 10.078 25.2524 10.823 25.3855 11.5727C25.4364 11.8583 25.5526 11.9854 25.8423 12.0892C26.6613 12.3821 27.4658 12.7187 28.2578 13.0771C28.5028 13.1885 28.6551 13.1762 28.8661 13.0326C29.5038 12.5973 30.1654 12.1953 30.8012 11.7569C31.0729 11.5696 31.2612 11.5555 31.5082 11.8043C32.4008 12.7028 33.3057 13.5895 34.2231 14.4643C34.4552 14.6863 34.4627 14.8621 34.2799 15.1171C33.8332 15.7397 33.4206 16.386 32.9755 17.0097C32.8189 17.2291 32.802 17.3926 32.9234 17.6514C33.289 18.426 33.6281 19.2155 33.9271 20.0161C34.0278 20.2841 34.162 20.3906 34.4267 20.4373C35.2069 20.5786 35.9816 20.7513 36.763 20.8864C37.0488 20.9358 37.1357 21.0679 37.1341 21.3336C37.1263 22.6182 37.1212 23.9028 37.1365 25.187C37.14 25.506 36.9771 25.5917 36.7082 25.6411C35.9436 25.7809 35.1814 25.9394 34.4181 26.0768C34.153 26.1247 34.0242 26.2392 33.926 26.5049C33.6343 27.2921 33.3117 28.0713 32.9473 28.8279C32.8067 29.1185 32.8243 29.3038 33.0029 29.5516C33.4417 30.16 33.843 30.7948 34.2806 31.4043C34.4631 31.6582 34.4588 31.8293 34.2227 32.0553C33.3043 32.9293 32.3978 33.8147 31.5031 34.7117C31.278 34.9369 31.0971 34.9598 30.8337 34.781C30.1682 34.3288 29.4948 33.8866 28.807 33.4685C28.679 33.3919 28.4472 33.3881 28.2981 33.444C27.4544 33.7633 26.6167 34.0995 25.7895 34.4586C25.6329 34.5272 25.4563 34.7048 25.4176 34.8626C25.2316 35.6165 25.0707 36.3781 24.9408 37.1434C24.8828 37.488 24.7266 37.5949 24.3927 37.5776C23.9903 37.557 23.5851 37.5727 23.1294 37.5727Z" fill="#EF648D"/>
<path d="M26.8007 42.4492C26.444 43.8066 25.2547 44.7925 23.7577 45C23.0765 44.1691 21.6719 44.1519 21.1509 44.9682C19.7588 44.7998 18.5554 43.7836 18.2026 42.4492H26.8007Z" fill="#E74273"/>
<path d="M27.2469 39.2605C27.2038 39.7583 27.1651 40.2127 27.122 40.7128H17.8867C17.8432 40.2292 17.8017 39.7625 17.7571 39.2605H27.2469Z" fill="#E74273"/>
<path d="M13.3886 7.37396C13.2985 7.30006 13.084 7.19515 12.9803 7.02553C12.3261 5.95345 11.6947 4.86988 11.0601 3.78745C10.8722 3.46736 10.9035 3.15914 11.2323 2.96042C11.587 2.74715 11.8873 2.8758 12.0885 3.21351C12.7309 4.29172 13.3761 5.36878 14.0016 6.45618C14.2616 6.90875 13.9919 7.38507 13.3886 7.37396Z" fill="#E74273"/>
<path d="M31.6169 7.37396C31.7066 7.30006 31.9215 7.19515 32.0248 7.02553C32.679 5.95345 33.3105 4.86988 33.9454 3.78745C34.133 3.46736 34.102 3.15914 33.7732 2.96042C33.4185 2.74715 33.1179 2.8758 32.9166 3.21351C32.2746 4.29172 31.6314 5.36878 31.005 6.45618C30.7435 6.90875 31.0129 7.38507 31.6169 7.37396Z" fill="#E74273"/>
<path d="M34.1004 40.6878C33.9642 40.8203 33.8162 41.0849 33.642 41.1025C33.4192 41.1247 33.0736 41.0144 32.9585 40.8452C32.4946 40.1625 32.0972 39.4354 31.678 38.724C31.4431 38.3273 31.2062 37.9318 30.9815 37.5298C30.8081 37.22 30.8641 36.9306 31.1702 36.7445C31.4994 36.5435 31.8118 36.6373 32.0033 36.9547C32.6676 38.0589 33.3147 39.1693 33.9646 40.2797C34.0194 40.3731 34.035 40.4872 34.1004 40.6878Z" fill="#E74273"/>
<path d="M9.80493 40.6878C9.94117 40.8203 10.0891 41.0849 10.2634 41.1025C10.4861 41.1247 10.8318 41.0144 10.9469 40.8452C11.4108 40.1625 11.8081 39.4354 12.2274 38.724C12.4623 38.3273 12.6991 37.9318 12.9238 37.5298C13.0973 37.22 13.0413 36.9306 12.7351 36.7445C12.4059 36.5435 12.0935 36.6373 11.9021 36.9547C11.2366 38.0574 10.5898 39.1693 9.94077 40.2804C9.88636 40.3731 9.87031 40.4872 9.80493 40.6878Z" fill="#E74273"/>
<path d="M3.42589 33.3525C3.28691 33.2254 3.05907 33.1036 2.97451 32.9191C2.84063 32.6266 2.9796 32.3677 3.27321 32.2023C3.96104 31.8152 4.64612 31.4239 5.33356 31.0357C5.75401 30.7979 6.17406 30.5586 6.59882 30.3285C6.92727 30.1504 7.24867 30.1726 7.44402 30.5019C7.63193 30.8186 7.54737 31.121 7.20913 31.314C6.08898 31.9522 4.96674 32.586 3.84242 33.2154C3.74846 33.2687 3.63259 33.2859 3.42589 33.3525Z" fill="#E74273"/>
<path d="M42.0662 32.5991C42.0807 33.1559 41.6321 33.4656 41.2222 33.2447C40.0454 32.6095 38.8847 31.9452 37.7314 31.2701C37.4213 31.0886 37.3791 30.7655 37.5748 30.4783C37.7917 30.1594 38.1099 30.1598 38.4313 30.3409C39.3709 30.87 40.3104 31.4008 41.25 31.9333C41.432 32.0363 41.6325 32.1186 41.7906 32.2499C41.9272 32.3637 42.0165 32.5333 42.0662 32.5991Z" fill="#E74273"/>
<path d="M7.52693 13.1108C7.52693 13.6702 7.08651 13.9554 6.66568 13.7276C5.50338 13.1004 4.3587 12.4411 3.21597 11.7806C2.90279 11.5999 2.84289 11.3016 3.02023 10.9972C3.19053 10.7036 3.49392 10.6266 3.77735 10.7817C4.95178 11.4219 6.11539 12.0794 7.26816 12.7543C7.41027 12.8378 7.47995 13.0434 7.52693 13.1108Z" fill="#E74273"/>
<path d="M37.9428 13.8309C37.8215 13.7161 37.5956 13.5909 37.5149 13.4055C37.3881 13.1134 37.5243 12.8576 37.8211 12.6918C38.707 12.1968 39.5882 11.6944 40.4718 11.1955C40.7239 11.0531 40.9686 10.8923 41.2336 10.7774C41.5343 10.6472 41.8208 10.7089 41.9899 11.0029C42.1543 11.2874 42.1129 11.5876 41.8236 11.7564C40.6699 12.4303 39.5021 13.0812 38.3367 13.7356C38.2564 13.7808 38.1507 13.7838 37.9428 13.8309Z" fill="#E74273"/>
<path d="M2.59466 22.5964C1.96281 22.5964 1.33058 22.6053 0.698732 22.5934C0.22426 22.5846 -0.0262857 22.3606 0.00190073 21.988C0.0340019 21.5669 0.317432 21.4371 0.706561 21.4378C1.93815 21.4401 3.16974 21.4348 4.40133 21.4405C4.8758 21.4405 5.14005 21.6611 5.13574 22.0179C5.13144 22.3748 4.86171 22.5922 4.39193 22.5968C3.79258 22.6049 3.19284 22.5987 2.59309 22.5987L2.59466 22.5964Z" fill="#E74273"/>
<path d="M42.4312 22.5988C41.8154 22.5988 41.1996 22.6061 40.5838 22.5961C40.1273 22.5889 39.838 22.3461 39.8733 21.9919C39.9124 21.5861 40.1864 21.436 40.5814 21.4375C41.8291 21.4417 43.0771 21.4375 44.3248 21.4375C44.7213 21.4375 44.9977 21.5941 45.0001 22.0118C45.0024 22.4296 44.7166 22.5889 44.3271 22.5927C43.6953 22.5984 43.063 22.5927 42.4312 22.5927V22.5988Z" fill="#E74273"/>
<path d="M23.0862 2.48869C23.0862 3.10667 23.0819 3.72465 23.0862 4.34302C23.0901 4.73509 22.9296 5.00464 22.5072 5.00847C22.0848 5.0123 21.9141 4.7527 21.9153 4.35756C21.9189 3.12135 21.9189 1.88513 21.9153 0.648917C21.9165 0.2488 22.1091 -0.00773505 22.5193 -7.72989e-05C22.9018 0.00719756 23.0882 0.257223 23.087 0.634367C23.085 1.25235 23.0862 1.87033 23.0862 2.48869Z" fill="#E74273"/>
</g>
<defs>
<clipPath id="clip0_173_324">
<rect width="45" height="45" fill="white"/>
</clipPath>
</defs>
</svg>
