<svg width="80" height="45" viewBox="0 0 80 45" fill="none" xmlns="http://www.w3.org/2000/svg">
<g clip-path="url(#clip0_170_300)">
<path d="M10.312 25.8085C10.2681 25.8994 10.2143 25.9853 10.1514 26.0644C9.87855 26.4321 9.47678 26.6408 9.0426 26.6408H9.02678C8.8272 26.6367 8.63043 26.5932 8.44787 26.5128L0.831724 23.1049C0.489569 22.949 0.22325 22.6646 0.0908651 22.3139C-0.0415194 21.9632 -0.0292244 21.5746 0.125068 21.2329L8.86623 1.90772C9.02241 1.56674 9.30789 1.30125 9.66021 1.16932C10.0125 1.0374 10.403 1.04979 10.7461 1.20378L18.3465 4.61087C18.6722 4.75655 18.9304 5.01958 19.0693 5.34709C19.0693 5.36284 19.0855 5.37898 19.0855 5.39473C19.1559 5.56852 19.1893 5.75492 19.1837 5.9422C19.1781 6.12948 19.1337 6.31358 19.0531 6.48291L18.8601 6.9148L18.8439 6.93056L10.312 25.8085Z" fill="#0095A3"/>
<path d="M21.5277 33.9833C21.2715 34.4367 20.8451 34.7705 20.3421 34.9115C19.8391 35.0526 19.3005 34.9893 18.8443 34.7357C17.8794 34.2235 17.5587 33.0239 18.0724 32.064L20.0488 28.5605C20.1732 28.3365 20.3409 28.1392 20.5422 27.9799C20.7434 27.8206 20.9744 27.7026 21.2217 27.6325C21.5974 27.5252 21.9968 27.5315 22.369 27.6505C22.7412 27.7695 23.0695 27.996 23.3122 28.3011C23.5549 28.6062 23.7011 28.9762 23.7323 29.3641C23.7634 29.7521 23.6781 30.1405 23.4871 30.4802L21.5277 33.9833Z" fill="#3CAEB8"/>
<path d="M27.2319 38.9748C26.8784 39.5984 26.2841 40.0787 25.577 40.2543C25.2314 40.3578 24.8685 40.3913 24.5097 40.3528C24.1509 40.3143 23.8035 40.2047 23.4879 40.0303C22.1703 39.2945 21.7045 37.6149 22.4277 36.3031L24.9502 31.8236C25.3038 31.1838 25.8823 30.7358 26.5893 30.5279C27.2964 30.3201 28.0355 30.4157 28.6943 30.7677C29.321 31.1197 29.7706 31.6957 29.9798 32.4157C30.1886 33.1197 30.0921 33.8555 29.7386 34.4953L27.2319 38.9748Z" fill="#3CAEB8"/>
<path d="M33.065 41.9342C32.4382 43.1019 30.9597 43.5019 29.803 42.8779C29.242 42.5667 28.8274 42.0472 28.6497 41.4328C28.472 40.8183 28.5458 40.1589 28.8548 39.5984L31.1364 35.5511C31.4579 34.9747 31.9562 34.5905 32.5988 34.3984C32.8038 34.3472 33.0142 34.3204 33.2255 34.3185C33.6417 34.3148 34.0517 34.4196 34.4146 34.6224C34.6962 34.7685 34.9434 34.9724 35.14 35.2205C35.3367 35.4687 35.4783 35.7555 35.5555 36.0622C35.7274 36.6723 35.6584 37.3247 35.3625 37.8858L33.065 41.9342Z" fill="#3CAEB8"/>
<path d="M39.4921 40.7684L37.7245 43.9357C37.5612 44.2092 37.3253 44.4325 37.0428 44.5811C36.7603 44.7297 36.442 44.7979 36.1231 44.778C35.8042 44.7581 35.497 44.6511 35.2352 44.4686C34.9735 44.2861 34.7674 44.0352 34.6397 43.7436C34.6311 43.6832 34.6149 43.624 34.5914 43.5676C34.4787 43.1196 34.527 42.6716 34.7358 42.2877L36.5034 39.1369C36.6128 38.9375 36.7618 38.7624 36.9414 38.6222C37.1209 38.4819 37.3272 38.3795 37.5477 38.3211C37.6892 38.2817 37.8351 38.2601 37.9819 38.257C38.2745 38.2459 38.5642 38.318 38.8171 38.4648C39.0153 38.5726 39.19 38.7186 39.3308 38.8945C39.4715 39.0703 39.5756 39.2724 39.6368 39.4889C39.7505 39.9184 39.6989 40.3748 39.4921 40.7684Z" fill="#3CAEB8"/>
<path d="M64.8159 31.5995C64.3335 32.2396 63.4339 32.5601 62.1966 32.4636C59.9793 32.3514 56.7818 31.1357 52.7001 28.8321C52.3142 28.6239 51.8325 28.768 51.6075 29.1518C51.3987 29.5361 51.5272 30.0317 51.9128 30.2396C55.7853 32.3995 58.9346 33.6475 61.3297 33.9833C61.2332 34.8471 60.9118 36.3187 59.6424 37.1341C58.9354 37.566 57.7945 37.8699 56.0111 37.6298H55.9949C54.2435 37.3739 51.8653 36.5743 48.6358 34.8144C48.2498 34.6062 47.7682 34.7345 47.527 35.1341C47.3182 35.5184 47.4787 36.014 47.8643 36.2223C50.5801 37.6778 52.9587 38.6219 54.9826 39.0377C54.9347 39.7097 54.7417 40.7975 53.9062 41.3431C52.6048 42.175 49.9854 41.5667 46.5467 39.614C46.1773 39.39 45.6633 39.518 45.4383 39.918C45.2295 40.2861 45.3738 40.7817 45.7435 40.9896C46.6603 41.5202 47.6165 41.9802 48.6037 42.3656C48.3625 43.0534 47.8485 44.2054 46.7238 44.7172C45.2133 45.4054 42.9636 44.8294 40.1679 43.0695C40.1354 43.0534 40.0876 43.0376 40.0552 43.0215L40.8749 41.5498C41.7745 39.9499 41.196 37.9341 39.6055 37.0703C38.8865 36.6717 38.043 36.5577 37.2432 36.751C37.2562 36.3681 37.2129 35.9853 37.1147 35.6148C36.8094 34.5912 36.1348 33.7274 35.2027 33.2152C34.2682 32.7109 33.1743 32.5849 32.1488 32.8632C31.9882 32.9113 31.8435 32.9912 31.683 33.0554C31.6662 32.6898 31.6178 32.3264 31.5382 31.9691C31.2009 30.8652 30.4777 29.9372 29.4495 29.3774C28.1319 28.6254 26.5893 28.6734 25.3362 29.3136C25.2555 28.1455 24.6129 27.0258 23.5041 26.4179C21.7848 25.4573 19.5996 26.0821 18.6355 27.7778L17.7999 29.264L11.8564 26.2723L20.0978 8.05105L20.5154 7.13924C20.5964 6.94226 20.661 6.73894 20.7084 6.53136C26.9266 4.88334 34.6879 3.34751 37.9985 3.74751C33.6432 6.45105 28.7587 11.1546 28.1478 12.0983C27.8266 12.5944 27.5214 13.618 27.0069 15.3621C26.5411 16.9455 25.5789 20.2251 24.9823 20.6093C24.5326 20.8172 24.2914 21.2652 24.3717 21.777C24.5326 22.8648 26.2358 24.0006 28.0995 24.2746C30.1404 24.5467 33.9967 24.0825 36.9854 17.6514C37.4192 16.6908 39.0745 15.9396 41.2114 15.716C43.6861 15.4758 46.0963 16.0199 46.8354 17.0116C48.6188 19.4431 57.2314 27.6502 65.2335 27.6821C65.4585 28.7518 65.6353 30.5758 64.8159 31.5995Z" fill="#0095A3"/>
<path d="M65.7959 26.0805C58.4043 26.5604 49.7759 18.3053 48.1198 16.0817C47.043 14.5939 44.5205 14.0341 42.1763 14.0659C41.7904 14.0659 41.4045 14.0821 41.0355 14.114C38.2718 14.4022 36.2151 15.4738 35.5239 16.9777C33.3067 21.7927 30.6707 22.7529 28.8873 22.7207C27.5214 22.7049 26.5411 22.1128 26.1235 21.7289C27.007 20.849 27.682 18.7533 28.5337 15.8116C28.8873 14.6438 29.2728 13.284 29.4986 12.9643C29.9806 12.2124 35.8454 6.58125 40.2802 4.29346C42.2246 3.28559 43.1724 3.31748 43.558 3.42968C46.4989 4.26157 55.4326 5.3509 59.9319 5.86118H59.9369L68.0366 25.4158C68.061 25.4934 68.1003 25.5656 68.1524 25.6282C68.1524 25.6282 68.1555 25.6317 68.1567 25.634C67.3963 25.8986 66.6007 26.0491 65.7959 26.0805Z" fill="#3CAEB8"/>
<path d="M79.8916 21.698C79.7353 22.0496 79.4782 22.3197 79.1197 22.4584L71.6467 25.4851L71.5448 25.5235L71.3727 25.5838C71.2077 25.6519 71.031 25.6871 70.8525 25.6876C70.6585 25.6922 70.4658 25.6547 70.2878 25.5777C70.1078 25.4953 69.9462 25.3777 69.8127 25.2319C69.7312 25.1511 69.6615 25.0594 69.6055 24.9594L69.6009 24.9617C69.5686 24.914 69.5427 24.8624 69.5237 24.808L61.7505 6.05231L61.6188 5.72801L61.361 5.0748C61.2654 4.85889 61.232 4.62074 61.2646 4.387H61.2603C61.2866 4.13552 61.3805 3.89573 61.5321 3.69288C61.6836 3.49003 61.8873 3.3316 62.1217 3.23427L69.8645 0.103827C70.5931 -0.193578 71.424 0.172991 71.717 0.883843L79.8869 20.6194C79.9607 20.7896 79.9992 20.9729 80 21.1582C80.0008 21.3436 79.9639 21.5272 79.8916 21.698Z" fill="#3CAEB8"/>
</g>
<defs>
<clipPath id="clip0_170_300">
<rect width="80" height="45" fill="white"/>
</clipPath>
</defs>
</svg>
