<svg width="54" height="54" viewBox="0 0 54 54" fill="none" xmlns="http://www.w3.org/2000/svg">
<path fill-rule="evenodd" clip-rule="evenodd" d="M27 4.5C22.8228 4.5 18.8168 6.15937 15.8631 9.11307C12.9094 12.0668 11.25 16.0728 11.25 20.25C11.25 32.0625 27 49.5 27 49.5C27 49.5 42.75 32.0625 42.75 20.25C42.75 16.0728 41.0906 12.0668 38.1369 9.11307C35.1832 6.15937 31.1772 4.5 27 4.5ZM15.75 20.25C15.75 17.2663 16.9353 14.4048 19.045 12.295C21.1548 10.1853 24.0163 9 27 9C29.9837 9 32.8452 10.1853 34.955 12.295C37.0647 14.4048 38.25 17.2663 38.25 20.25C38.25 26.73 31.77 36.4275 27 42.48C22.32 36.4725 15.75 26.6625 15.75 20.25Z" fill="#455EBB"/>
<path d="M27 25.875C30.1066 25.875 32.625 23.3566 32.625 20.25C32.625 17.1434 30.1066 14.625 27 14.625C23.8934 14.625 21.375 17.1434 21.375 20.25C21.375 23.3566 23.8934 25.875 27 25.875Z" fill="#455EBB"/>
</svg>
