<?xml version="1.0" encoding="utf-8"?>
<!-- Generator: Adobe Illustrator 26.1.0, SVG Export Plug-In . SVG Version: 6.00 Build 0)  -->
<svg version="1.1" id="Layer_1" xmlns="http://www.w3.org/2000/svg" xmlns:xlink="http://www.w3.org/1999/xlink" x="0px" y="0px"
	 viewBox="0 0 31.5 45" style="enable-background:new 0 0 31.5 45;" xml:space="preserve">
<style type="text/css">
	.st0{fill-rule:evenodd;clip-rule:evenodd;fill:#455EBB;}
	.st1{fill:#455EBB;}
</style>
<path class="st0" d="M15.75,0C11.57,0,7.57,1.66,4.61,4.61C1.66,7.57,0,11.57,0,15.75C0,27.56,15.75,45,15.75,45
	S31.5,27.56,31.5,15.75c0-4.18-1.66-8.18-4.61-11.14C23.93,1.66,19.93,0,15.75,0z M4.5,15.75c0-2.98,1.19-5.85,3.3-7.95
	c2.11-2.11,4.97-3.3,7.95-3.3s5.85,1.19,7.96,3.3C25.81,9.9,27,12.77,27,15.75c0,6.48-6.48,16.18-11.25,22.23
	C11.07,31.97,4.5,22.16,4.5,15.75z"/>
<path class="st1" d="M15.75,21.38c3.11,0,5.62-2.52,5.62-5.62s-2.52-5.62-5.62-5.62s-5.62,2.52-5.62,5.62S12.64,21.38,15.75,21.38z"
	/>
</svg>
