<svg width="317" height="206" viewBox="0 0 317 206" fill="none" xmlns="http://www.w3.org/2000/svg">
<g clip-path="url(#clip0_170_73)">
<path opacity="0.23" d="M317 201.62C317 203.316 290.691 205.284 260.381 205.284C230.071 205.284 205.493 203.909 205.493 202.213C205.493 200.518 230.067 199.143 260.381 199.143C290.695 199.143 317 199.925 317 201.62Z" fill="#32323F"/>
<path d="M261.435 0.00702335C292.229 0.0698299 317.105 45.3911 317 101.236C316.895 157.081 294.758 201.68 263.988 202.208C229.289 202.804 205.382 156.848 205.488 101.008C205.594 45.1691 230.642 -0.0557832 261.435 0.00702335Z" fill="#303646"/>
<path d="M307.876 101.223C307.983 45.3787 284.908 0.0638892 256.336 0.00912489C227.765 -0.0456394 204.515 45.1803 204.408 101.024C204.301 156.868 227.376 202.183 255.948 202.238C284.519 202.292 307.769 157.066 307.876 101.223Z" fill="white"/>
<path d="M299.243 101.207C299.338 51.851 278.943 11.801 253.691 11.7526C228.438 11.7042 207.89 51.6757 207.795 101.032C207.7 150.387 228.094 190.437 253.347 190.486C278.599 190.534 299.148 150.563 299.243 101.207Z" fill="#CD2B31"/>
<path d="M288.511 101.185C288.589 61.0073 271.987 28.405 251.43 28.3656C230.873 28.3262 214.146 60.8646 214.069 101.042C213.991 141.22 230.593 173.822 251.15 173.862C271.707 173.901 288.434 141.363 288.511 101.185Z" fill="white"/>
<path d="M278.729 101.166C278.791 68.5746 265.325 42.1284 248.65 42.0964C231.975 42.0644 218.407 68.4589 218.344 101.05C218.281 133.641 231.748 160.088 248.423 160.12C265.098 160.151 278.666 133.757 278.729 101.166Z" fill="#CD2B31"/>
<path d="M266.916 101.142C266.958 79.322 257.942 61.6157 246.778 61.5943C235.613 61.5729 226.529 79.2445 226.487 101.065C226.445 122.885 235.461 140.592 246.626 140.613C257.79 140.635 266.874 122.963 266.916 101.142Z" fill="white"/>
<path d="M256.887 101.123C256.908 90.129 252.365 81.2077 246.74 81.1969C241.114 81.1861 236.537 90.09 236.516 101.084C236.495 112.078 241.038 121 246.663 121.011C252.289 121.021 256.866 112.118 256.887 101.123Z" fill="#CD2B31"/>
<path opacity="0.17" d="M170.707 202.576C170.707 204.001 130.558 205.807 84.2876 205.98C38.0169 206.154 0.499067 205.143 0.494873 203.712C0.490679 202.282 37.996 200.992 84.2681 200.819C130.54 200.646 170.702 201.151 170.707 202.576Z" fill="#32323F"/>
<path d="M136.141 199.643C136.227 198.011 135.906 193.898 135.906 193.898L131.351 193.94L131.895 200.111L134.994 201.947L136.141 199.643Z" fill="white"/>
<path d="M136.463 198.945C136.94 198.834 136.743 199.267 136.922 199.95C137.333 201.511 143.333 201.531 144.238 201.668C144.705 201.739 145.468 204.04 143.144 204.04C141.135 204.04 134.699 204.063 132.5 204.049C132.28 204.052 132.066 203.984 131.889 203.853C131.712 203.723 131.583 203.539 131.521 203.329C131.119 201.82 131.217 199.476 131.83 199.421C132.759 199.133 134.477 199.403 136.463 198.945Z" fill="#1F1F39"/>
<path d="M93.179 194.282C94.5462 193.287 97.6386 190.388 97.6386 190.388L94.6539 187.126L90.0503 191.518L90.5857 194.947L93.179 194.282Z" fill="white"/>
<path d="M93.9449 194.061C94.342 194.34 93.8666 194.473 93.4361 195.038C92.4477 196.347 96.3201 200.692 96.7912 201.435C97.0373 201.819 95.6882 203.858 94.1826 202.18C92.8797 200.728 88.6899 196.095 87.2751 194.497C87.1315 194.338 87.0476 194.135 87.0376 193.921C87.0277 193.707 87.0924 193.497 87.2206 193.326C88.1726 192.057 90.1186 190.608 90.5576 191.017C91.3964 191.508 92.2939 192.924 93.9449 194.061Z" fill="#1F1F39"/>
<path d="M136.457 196.303L136.068 196.379C134.6 196.678 133.115 196.891 131.622 197.017C131.144 197.063 130.663 197.077 130.182 197.058C129.669 194.075 128.176 178.371 125.988 173.3C123.873 168.387 117.725 154.267 117.346 153.393L117.326 153.351C115.891 159.911 115.167 167.684 112.433 174.584C109.805 180.142 104.325 185.72 100.534 189.159C99.6153 189.997 98.7975 190.695 98.1432 191.253C97.1381 192.099 96.5202 192.578 96.5202 192.578C96.2559 192.42 96.0001 192.265 95.7527 192.109C94.103 191.08 92.8351 190.129 92.1682 189.492C91.7013 189.048 91.5279 188.756 91.7223 188.7C92.4296 187.797 93.7857 186.42 95.392 184.816C96.0113 184.198 96.6683 183.545 97.3394 182.872C101.245 178.964 105.627 174.394 105.945 171.996C106.268 169.564 105.945 161.125 106.028 152.845C106.033 152.26 106.041 151.677 106.052 151.094C106.06 150.652 106.068 150.211 106.08 149.773C106.08 149.482 106.094 149.192 106.103 148.905C106.103 148.734 106.113 148.564 106.119 148.397C106.124 148.229 106.13 148.039 106.137 147.862C106.152 147.443 106.169 147.025 106.189 146.614C106.189 146.591 106.189 146.568 106.189 146.544C106.204 146.2 106.222 145.858 106.24 145.52C106.28 144.836 106.323 144.169 106.38 143.523C106.38 143.44 106.393 143.359 106.4 143.279C106.435 142.851 106.472 142.433 106.513 142.022C106.524 141.912 106.535 141.805 106.547 141.697C106.569 141.482 106.593 141.27 106.618 141.062C106.679 140.535 106.749 140.028 106.825 139.546C106.979 138.569 121.301 136.629 121.301 136.629L122.767 136.272C125.338 143.132 132.511 167.518 133.026 171.098C133.54 174.678 136.629 195.109 136.457 196.303Z" fill="#3B3B4C"/>
<path opacity="0.57" d="M119.686 158.238C118.329 155.413 117.329 153.353 117.329 153.353C117.719 151.381 118.004 149.068 118.004 149.068C118.004 149.068 119.419 154.866 119.686 158.238Z" fill="#1F1F39"/>
<path opacity="0.28" d="M106.036 152.843C107.798 151.448 112.583 146.37 114.179 141.119L106.622 141.059C106.226 144.396 106.078 148.599 106.036 152.843Z" fill="#1F1F39"/>
<path d="M147.094 93.512C146.879 93.9662 146.706 94.4396 146.579 94.9258C146.468 95.3892 146.174 95.7437 146.16 96.3215C146.16 96.4611 146.152 96.616 146.149 96.7737C146.146 96.9314 146.139 97.1045 146.131 97.2539C146.072 98.2308 145.911 98.7891 145.777 99.6265C145.777 99.6265 142.782 99.5889 142.678 99.0334C142.613 98.6928 142.508 99.4256 142.678 98.6942C142.746 98.3886 143.097 96.7053 143.142 96.3746C143.171 96.2104 143.189 96.0444 143.196 95.8777C142.877 97.7396 143.177 95.6642 143.076 95.2943C142.773 94.1777 141.568 93.9181 141.769 93.1924C142.036 92.2265 143.992 94.6523 144.348 89.798C144.44 88.5419 146.972 88.5154 147.639 90.2753C147.759 90.6173 147.523 92.6913 147.094 93.512Z" fill="#EFAEA6"/>
<path d="M117.395 105.472C117.222 106.922 115.731 110.357 115.843 111.965L119.295 112.872C119.295 112.872 122.65 113.702 122.054 112.886C121.256 111.793 121.554 112.327 121.246 111.606C121.06 111.169 120.932 110.357 120.842 109.482C120.721 108.294 120.672 106.989 120.654 106.351C120.654 106.101 120.644 105.953 120.644 105.953L120.703 105.674L119.388 102.373C119.388 102.373 117.585 103.879 117.395 105.472Z" fill="#EFAEA6"/>
<path opacity="0.14" d="M120.842 109.482C120.721 108.294 120.672 106.989 120.654 106.351L119.853 105.964C119.853 105.964 118.785 105.776 118.47 106.172C117.99 106.771 118.98 110.121 120.842 109.482Z" fill="#1F1F3B"/>
<path d="M116.44 108.914C117.838 108.495 117.97 111.028 119.376 111.147C120.118 111.211 119.955 110.856 120.304 110.48C120.519 110.249 120.724 109.99 121.063 110.374C127.993 118.189 120.777 137.907 121.659 139.283C122.38 140.408 116.516 142.864 112.832 141.876C107.78 140.521 108.087 134.488 108.233 133.337C108.378 132.186 111.634 112.602 111.634 112.602C113.367 111.552 114.978 110.315 116.44 108.914Z" fill="white"/>
<path d="M119.861 140.998C119.89 142.504 120.071 143.616 120.584 144.133C121.505 145.059 122.781 145.237 124.323 143.478C124.412 143.377 124.493 143.27 124.567 143.159C126.637 140.07 125.147 131.545 124.934 129.464C124.848 128.627 124.655 127.492 124.495 126.319C124.294 124.861 124.997 120.663 126.02 119.612C127.644 117.947 135.015 117.976 139.689 115.145C144.113 112.463 146.799 97.6768 146.705 97.42C146.526 96.9203 141.952 96.51 141.952 96.51C141.453 98.4431 138.298 110.304 136.178 110.755C132.694 111.496 127.213 111.871 121.058 110.386C121.031 110.651 121.019 110.918 121.021 111.184C121.021 111.644 121.034 112.314 121.104 113.232C121.143 113.769 121.202 114.392 121.287 115.106C121.817 119.616 119.507 122.825 119.976 128.282C120.178 130.635 120.136 133.006 120.051 135.179C119.964 137.398 119.83 139.417 119.861 140.998Z" fill="#0069A8"/>
<path opacity="0.16" d="M119.861 140.998C119.89 142.504 120.071 143.616 120.584 144.133C121.505 145.059 122.781 145.237 124.323 143.478C124.412 143.377 124.493 143.27 124.567 143.159C126.637 140.07 125.147 131.545 124.934 129.464C124.848 128.627 124.655 127.492 124.495 126.319C124.294 124.861 124.997 120.663 126.02 119.612C127.644 117.947 135.015 117.976 139.689 115.145C144.113 112.463 146.799 97.6768 146.705 97.42C146.526 96.9203 141.952 96.51 141.952 96.51C141.453 98.4431 138.298 110.304 136.178 110.755C132.694 111.496 127.213 111.871 121.058 110.386C121.031 110.651 121.019 110.918 121.021 111.184C121.021 111.644 121.034 112.314 121.104 113.232C121.143 113.769 121.202 114.392 121.287 115.106C121.817 119.616 119.507 122.825 119.976 128.282C120.178 130.635 120.136 133.006 120.051 135.179C119.964 137.398 119.83 139.417 119.861 140.998Z" fill="#1F1F3B"/>
<path d="M116.693 117.648C116.693 119.204 116.668 120.84 116.601 122.446C116.567 123.296 116.521 124.141 116.461 124.959C116.412 125.635 116.321 126.379 116.202 127.154C116.202 127.169 116.202 127.183 116.195 127.197C116.196 127.206 116.196 127.214 116.195 127.222C115.782 129.745 115.235 132.245 114.557 134.71C113.365 139.065 114.995 141.479 113.384 143.346C111.439 145.597 108.501 145.551 106.293 144.032C105.109 143.22 106.389 138.031 107.287 133.754C107.697 131.8 108.028 130.035 108.01 128.959C107.999 128.301 107.982 127.758 107.964 127.284C107.947 126.865 107.931 126.483 107.915 126.12C107.876 125.206 107.847 124.372 107.872 123.038C107.883 122.383 107.908 121.61 107.949 120.647C108.079 117.716 108.841 113.702 110.046 112.313C112.928 109.013 116.437 108.918 116.437 108.918C116.523 110.052 116.695 113.588 116.693 117.648Z" fill="#0069A8"/>
<path d="M116.911 102.572C116.911 102.572 117.038 103.155 117.227 103.885C117.458 104.78 117.786 105.896 118.078 106.424C118.101 106.464 118.127 106.503 118.155 106.54C118.838 107.443 121.408 108.122 123.349 107.571C124.188 107.335 122.491 105.007 123.283 104.814C123.739 104.703 123.307 103.988 122.776 103.176C122.402 102.605 121.983 101.985 121.786 101.491C121.775 101.465 121.765 101.437 121.757 101.412L116.911 102.572Z" fill="#EFAEA6"/>
<path d="M115.387 103.561C115.304 103.701 115.256 103.86 115.248 104.023C115.197 105.403 117.943 106.89 118.147 106.544C118.413 106.094 117.543 104.989 117.834 104.608C118.271 104.033 118.474 104.507 119.063 104.848C119.69 105.212 120.617 105.015 119.774 104.22C119.603 104.072 119.461 103.894 119.355 103.694C119.174 103.306 119.521 103.158 119.963 103.105C120.627 103.024 120.69 103.176 121.081 102.838C121.473 102.5 120.522 102.047 121.32 101.695C121.473 101.628 121.629 101.564 121.782 101.495C122.387 101.227 122.922 100.912 122.869 100.196C122.869 100.146 122.86 100.094 122.85 100.041C122.816 99.7784 122.713 99.5296 122.549 99.321C122.499 99.2666 122.441 99.2197 122.377 99.1814C121.931 98.9023 121.29 99.1674 120.806 99.4019L120.697 99.455C120.653 99.4759 120.605 99.4867 120.557 99.4867C120.509 99.4867 120.461 99.4759 120.417 99.455C120.043 99.3042 119.619 98.6622 118.846 98.8967C118.073 99.1312 118.302 99.5694 117.634 99.8025C117.231 99.9421 116.236 99.4354 115.726 100.112C115.578 100.302 115.472 100.522 115.415 100.756C115.194 101.698 115.98 102.514 115.387 103.561Z" fill="#191939"/>
<path opacity="0.46" d="M100.542 189.159C99.6237 189.997 98.8059 190.695 98.1516 191.253C97.5267 189.804 96.1861 186.696 95.4004 184.816C96.0197 184.198 96.6768 183.545 97.3478 182.872L100.542 189.159Z" fill="#070716"/>
<path opacity="0.24" d="M120.045 113.951C119.876 113.923 119.878 117.161 118.586 118.859C118.239 119.334 117.799 119.732 117.291 120.03C115.789 120.868 109.941 124.11 107.87 124.791C107.921 122.15 107.921 122.15 107.949 120.646C109.586 120.435 115.562 118.946 116.325 118.459C116.876 118.102 117.367 117.661 117.779 117.151C118.55 116.22 119.064 115.14 119.419 114.247C119.6 113.79 119.429 113.311 119.809 113.108C120.312 112.831 120.261 113.986 120.045 113.951Z" fill="#1F1F3B"/>
<path d="M120.568 113.034C120.428 112.782 120.055 112.448 119.549 112.718C119.167 112.923 119.216 113.106 119.036 113.556C118.494 114.925 117.571 116.734 115.942 117.769C114.314 118.805 109.224 118.319 106.955 120.142C104.686 121.965 105.078 124.776 101.695 127.189C98.3122 129.602 93.5563 129.876 92.5651 130.601C91.5739 131.327 91.0371 131.894 91.2887 132.34C91.5404 132.787 92.4407 133.274 93.3591 133.227C94.2776 133.179 101.235 130.396 102.889 129.281C105.589 127.467 106.745 123.481 108.527 122.397C110.31 121.314 114.786 120.538 116.915 119.346C119.292 118.016 119.823 114.043 120.038 114.076C120.158 114.114 120.285 114.118 120.407 114.09C120.528 114.061 120.64 114.001 120.73 113.914C120.911 113.75 120.709 113.285 120.568 113.034Z" fill="#F4AD00"/>
<path d="M91.7432 94.7374C92.1416 93.6502 92.7008 92.1637 91.1322 89.9697C90.4836 89.0625 93.0083 91.0248 92.3373 89.3165C91.3951 86.9215 94.054 87.8929 94.6202 88.6884C95.2158 89.5259 95.0816 91.2105 94.5349 92.9956C94.1155 94.3689 94.3001 95.244 94.3001 95.244L91.7432 94.7374Z" fill="#F5B1B4"/>
<path d="M76.2855 166.333C75.2496 168.89 74.1718 171.56 73.1219 174.186C68.9908 184.515 62.3685 192.966 62.1183 193.977C61.5885 196.134 61.9981 196.661 62.3 197.433L63.1388 200.145L59.3195 199.866L57.7482 196.357C57.7482 196.357 66.6422 174.036 67.604 171.872C67.9815 171.024 68.6203 168.317 69.255 165.343C69.4424 164.47 69.6283 163.574 69.8142 162.691C70.5803 158.936 71.2206 155.492 71.2206 155.492C71.4317 154.922 72.051 149.797 71.9406 149.202C71.6442 147.622 74.3269 139.728 77.7646 141.904C83.4181 145.484 82.8407 150.342 82.8407 150.342C82.8407 150.342 80.0964 156.969 76.8182 165.039L76.2855 166.333Z" fill="#EFAEA6"/>
<path d="M58.5898 193.422C57.8447 193.722 56.2132 194.612 56.1587 196.673C56.2272 198.74 55.2346 200.684 55.2346 200.684L55.8413 200.938C55.8413 200.938 56.894 198.146 57.6657 197.881C58.3857 198.752 60.6197 203.295 61.5032 203.565C62.8453 203.975 64.8822 203.983 65.398 203.778C66.0257 203.534 67.3678 202.857 66.3976 202.357C64.5117 201.387 63.0088 199.566 63.0088 199.566C62.9952 199.556 62.9794 199.549 62.9627 199.545C62.946 199.542 62.9287 199.542 62.9121 199.546C62.8954 199.549 62.8798 199.557 62.8664 199.567C62.8529 199.578 62.8419 199.591 62.8341 199.606C62.7041 199.873 62.465 200.304 61.4445 199.606C60.094 198.684 59.0917 195.214 58.9673 193.656C58.9632 193.614 58.9493 193.572 58.9266 193.536C58.9039 193.499 58.8732 193.469 58.8366 193.446C58.8001 193.423 58.7588 193.409 58.716 193.405C58.6732 193.401 58.63 193.407 58.5898 193.422Z" fill="#0067A7"/>
<path d="M75.8033 144.316L78.1547 145.316C78.2417 145.353 78.321 145.406 78.3881 145.473C79.2269 146.296 83.8976 150.159 85.8674 152.102C85.8814 152.116 86.8124 149.263 88.1964 150.437C89.9272 151.904 94.8411 161.184 95.8001 164.595C97.0387 168.993 102.413 188.544 102.993 189.655C103.573 190.766 104.454 191.423 106.451 192.039C106.471 192.039 106.492 192.05 106.512 192.056C107.322 192.231 107.299 193.416 106.482 193.548L103.035 194.106C102.955 194.119 102.874 194.119 102.794 194.106L100.704 193.75C100.578 193.728 100.459 193.673 100.359 193.592C100.259 193.511 100.182 193.406 100.134 193.287C100.134 193.287 89.6112 167.308 88.7794 165.53C87.9476 163.752 78.6146 152.332 78.6146 152.332C78.4385 152.193 75.5726 154.961 75.3531 155.009C74.5968 155.177 72.518 155.149 69.6032 151.241C68.728 150.064 69.8995 147.528 70.3022 146.745C70.3777 146.596 70.5019 146.476 70.6545 146.406L75.2119 144.316C75.305 144.274 75.4057 144.253 75.5076 144.253C75.6094 144.253 75.7101 144.274 75.8033 144.316Z" fill="#EFAEA6"/>
<path d="M103.021 195.778C103.72 195.638 105.994 195.57 107.675 195.416C108.424 195.347 109.056 195.261 109.379 195.137C109.411 195.125 109.44 195.114 109.465 195.101C110.336 194.682 112.133 193.542 112.282 192.981C112.432 192.42 111.621 191.654 110.532 191.573C110.074 191.538 109.351 191.613 108.666 191.712C107.981 191.811 107.304 191.937 107.009 191.991L106.848 192.023C106.834 192.031 106.821 192.041 106.81 192.053C106.8 192.066 106.792 192.08 106.788 192.096C106.783 192.112 106.782 192.128 106.785 192.144C106.787 192.16 106.793 192.176 106.802 192.19C106.963 192.42 107.21 192.816 106.169 193.363C104.786 194.088 101.442 193.363 100.107 192.759C100.072 192.743 100.033 192.735 99.9937 192.737C99.9547 192.739 99.9166 192.75 99.8826 192.769C99.8486 192.788 99.8195 192.815 99.7978 192.847C99.7761 192.88 99.7624 192.917 99.7578 192.956C99.6641 193.709 99.6403 195.517 101.336 196.497C103.077 197.373 104.231 199.09 104.231 199.09L104.718 198.692C104.718 198.692 102.892 196.552 103.021 195.778Z" fill="#0067A7"/>
<path d="M68.4498 166.313C69.0845 167.625 76.9664 166.74 81.4106 164.969C85.5011 163.34 93.2641 162.067 94.0596 159.772C94.5838 158.257 88.4509 150.434 85.153 138.202C80.0294 140.329 71.6302 136.388 71.6302 136.388C71.6302 136.388 71.5855 136.473 71.5058 136.629C71.0389 137.541 69.3795 140.881 68.4498 144.01C68.0779 145.266 67.8221 146.476 67.8067 147.491C67.7578 150.438 69.9177 156.284 69.8282 160.451C69.7695 163.197 67.734 164.842 68.4498 166.313Z" fill="#333344"/>
<path d="M80.1049 113.711L82.4521 114.89L86.1162 127.407C86.1162 127.407 85.3446 135.185 83.6935 137.961C81.542 141.574 74.0152 137.996 74.2962 137.174C76.8797 129.637 77.3201 113.819 77.3201 113.819L80.1049 113.711Z" fill="white"/>
<path opacity="0.28" d="M68.4498 144.009C72.8675 146.117 78.8145 142.817 78.8145 142.817L72.3418 137.337L71.503 136.624C71.0389 137.539 69.3795 140.879 68.4498 144.009Z" fill="#070716"/>
<path d="M66.4465 145.957C66.4262 145.717 66.3511 145.485 66.227 145.279C66.1394 145.131 66.0132 145.011 65.8621 144.93C65.7784 144.886 65.6866 144.859 65.5923 144.851L64.9395 144.8H64.9185H64.8402L62.1645 144.59H62.1379C62.008 144.58 61.8778 144.607 61.7618 144.666C61.3956 144.844 61.1118 145.312 61.0628 145.88L60.9999 146.69L60.8965 147.992L61.5759 148.045L61.6794 146.738L61.6947 146.551C61.7255 146.133 61.9338 145.784 62.2036 145.647C62.2277 145.635 62.2524 145.624 62.2777 145.615C62.3468 145.591 62.4201 145.581 62.493 145.587L64.8696 145.774L65.0681 145.788C65.4651 145.821 65.7531 146.303 65.707 146.867L65.6944 147.029L65.5923 148.35V148.36L66.2718 148.413L66.3752 147.078L66.4381 146.295C66.4381 146.251 66.4381 146.207 66.4381 146.163C66.4449 146.095 66.4477 146.026 66.4465 145.957Z" fill="#201B2C"/>
<path d="M65.0247 141.186C65.057 141.794 65.1536 142.397 65.3127 142.984C65.5531 144.013 66.1962 145.242 65.6636 145.379C65.131 145.516 65.1589 144.924 64.9073 144.79C64.6556 144.656 65.2176 145.277 64.8863 145.757C64.555 146.237 63.2199 146.465 62.6341 146.055C62.0484 145.644 62.1686 144.886 62.1798 143.87C62.191 142.854 62.5642 142.364 62.3559 141.015L65.0247 141.186Z" fill="#EEADA5"/>
<path d="M66.4464 145.957C66.4285 145.716 66.3543 145.482 66.2298 145.274C66.1411 145.126 66.0141 145.005 65.8621 144.923C65.7786 144.879 65.6874 144.853 65.5937 144.845L64.9408 144.801H64.9198H64.8723L64.9184 145.022V145.034L64.9883 145.354L65.075 145.764C65.4734 145.798 65.76 146.281 65.7167 146.845L65.7055 147.006L65.6021 148.328L66.2787 148.381L66.3835 147.055L66.4464 146.272C66.4464 146.229 66.4464 146.184 66.4464 146.141C66.4496 146.08 66.4496 146.018 66.4464 145.957Z" fill="#201B2C"/>
<path d="M74.2682 149.873L73.558 159.604C73.538 159.88 73.409 160.138 73.1994 160.319C72.9897 160.501 72.7165 160.592 72.4397 160.573H72.4089L55.0165 159.529C53.0593 159.389 53.1697 158.005 53.2117 157.435L53.6073 148.235C53.6493 147.658 54.4587 146.191 56.0244 146.327L71.4834 147.443L72.0636 147.484C73.34 147.57 74.3647 148.568 74.2682 149.873Z" fill="#603A3E"/>
<path d="M74.2682 149.873L73.558 159.604C73.5379 159.88 73.4089 160.138 73.1993 160.319C72.9897 160.501 72.7164 160.592 72.4396 160.573H72.4088C72.2495 159.982 72.1879 159.064 72.3879 157.642C72.873 154.185 72.16 150.175 71.4875 147.446L72.0677 147.487C73.3399 147.57 74.3646 148.568 74.2682 149.873Z" fill="#775155"/>
<path d="M62.1071 129.242C61.622 132.381 61.8457 141.524 61.8457 141.524C64.0223 142.595 65.5531 141.99 65.5797 142.002C65.5168 141.862 65.7447 131.104 65.9432 129.972C66.2228 128.361 70.8935 123.214 71.7351 123.871C72.743 124.659 73.8404 128.851 73.5329 131.76C73.4854 132.322 73.35 132.874 73.1316 133.394C71.9434 136.022 70.5775 136.292 70.7872 137.668C70.9969 139.044 78.149 143.545 78.8145 142.811C79.4799 142.077 79.0144 132.808 79.6659 130.677C80.2474 128.78 81.6608 125.342 80.4124 122.721C79.4897 120.795 78.2665 116.774 77.6877 114.792C77.6779 114.763 77.6695 114.734 77.6611 114.706C77.4696 114.048 77.355 113.638 77.355 113.638C76.738 113.856 76.1411 114.127 75.5711 114.448C74.1214 115.224 72.4299 116.388 70.7383 117.716C66.2745 121.231 62.472 126.883 62.1071 129.242Z" fill="#0067A7"/>
<path d="M85.2677 124.992C86.1652 127.546 82.8786 133.989 82.715 138.779C82.715 138.842 82.715 138.904 82.715 138.969C82.6881 139.733 82.7825 140.497 82.9946 141.232C83.2826 142.163 84.6722 142.805 85.5767 142.872C86.2002 142.92 86.6503 142.631 86.5329 141.967C85.462 135.955 88.7879 130.788 88.6509 124.125C88.6201 122.624 87.1326 120.29 87.6429 118.871C88.1448 117.475 91.7796 110.872 93.021 105.759C93.569 103.504 94.9628 96.9204 95.0131 93.6963C95.0313 92.6384 91.8942 91.8819 91.7977 92.5197C90.8541 98.4808 90.7604 100.704 89.7385 103.842C88.9137 106.375 87.3619 111.539 82.1334 114.718C82.0593 114.762 82.3599 115.25 82.4676 116.18C82.5486 116.884 82.7471 117.734 82.8618 118.707C83.1903 121.489 84.2025 121.966 85.2677 124.992Z" fill="#0067A7"/>
<path opacity="0.17" d="M73.5344 131.765C74.1467 130.671 75.0191 129.016 75.0526 128.382C75.1057 127.405 73.6029 124.996 71.7366 123.877C72.7236 124.689 73.8405 128.857 73.5344 131.765Z" fill="#070716"/>
<path opacity="0.17" d="M70.7383 117.716C74.9854 117.5 76.765 116.626 77.6849 114.805L77.7282 114.727L77.6625 114.718L75.5725 114.439C74.1214 115.224 72.4299 116.388 70.7383 117.716Z" fill="#070716"/>
<path d="M83.0183 105.018C83.3384 105.939 82.8323 106.496 83.4936 107.346C84.0178 108.019 84.5211 108.107 84.3478 108.42C84.1744 108.732 83.5467 108.616 83.5984 108.942C83.6502 109.267 83.9228 109.491 83.5719 109.639C83.3384 109.738 83.0784 109.74 83.3636 109.918C83.4768 109.99 83.6949 109.885 83.5034 110.287C83.3119 110.689 83.9773 111.931 83.3328 112.15C83.0099 112.26 81.8733 111.568 81.3127 112.069C80.8109 112.52 81.9404 114.079 82.1278 114.815C82.3151 115.55 82.2676 119.503 81.8482 119.42C80.8122 119.205 80.5089 116.852 77.8108 114.979C74.5954 112.746 78.1519 108.393 78.1519 108.393L79.013 105.863L83.0183 105.018Z" fill="#F5B1B4"/>
<path d="M57.8951 117.68C59.0134 118.686 63.8155 114.266 66.961 117.366C68.2052 118.591 69.3823 117.169 70.7076 116.808C70.9235 116.747 71.1478 116.722 71.3717 116.734C72.2245 116.79 72.6984 116.988 73.4351 116.957C73.625 116.949 73.8142 116.928 74.0013 116.894C74.1733 116.864 74.362 116.822 74.5717 116.764C75.0344 116.634 75.4895 116.477 75.9347 116.296C76.4943 116.063 76.9959 115.711 77.404 115.264L77.446 115.218C78.9418 113.592 79.5429 110.939 79.9316 109.987C80.0602 109.665 80.0378 109.187 79.8127 108.921C79.5094 108.565 79.1138 108.122 79.3514 107.687C79.5765 107.281 80.1511 107.324 80.3007 107.602C80.6781 108.3 81.0961 108.482 81.1227 107.558C81.1674 106.043 82.0453 105.625 82.4689 105.532C82.695 105.491 82.906 105.39 83.0799 105.24C83.6139 104.745 83.2616 103.87 83.1064 103.55C82.3753 102.027 80.5285 101.857 78.3057 102.415C75.1602 103.207 74.3452 107.874 73.5707 108.445C72.7962 109.016 72.0511 107.924 69.9821 109.003C67.5664 110.259 67.9354 111.525 67.0826 112.023C66.3375 112.457 64.8948 112.181 63.1683 112.487C60.2367 113.009 56.1336 116.096 57.8951 117.68Z" fill="#2E2E49"/>
<path d="M188.403 85.8594C188.403 85.8594 194.925 86.112 194.974 87.0667C195.014 87.8552 188.532 88.8615 188.532 88.8615L152.521 90.6034L152.395 87.6012L188.403 85.8594Z" fill="#060606"/>
<path d="M155.061 91.2789C154.401 94.3257 152.013 96.644 149.073 96.7877L104.81 98.9287V98.9162L104.659 95.3264L104.178 83.9263V83.911L148.441 81.77C152.012 81.5969 155.044 84.7009 155.212 88.7066L155.234 89.223C155.264 89.9129 155.206 90.6037 155.061 91.2789Z" fill="#E7E7E9"/>
<path d="M104.81 98.9162L59.5544 99.2651C58.436 99.3195 50.4996 99.4214 41.7999 99.1898C30.3098 98.8841 17.4875 97.9978 17.2945 95.6544C17.2945 95.6544 17.2945 95.6447 17.2945 95.6405C17.2939 95.6359 17.2939 95.6312 17.2945 95.6265C17.2833 91.4939 56.4802 88.0772 59.0763 87.9502L104.182 83.9305L104.659 95.3265L104.81 98.9162Z" fill="#0073B8"/>
<path d="M50.4674 94.0369L4.3743 96.27C4.2317 96.0978 4.0919 95.9243 3.9549 95.7494C3.8808 95.6559 3.8151 95.5624 3.7438 95.4702C2.70211 94.0469 1.86543 92.4848 1.25817 90.8295C-1.10583 84.461 -0.155195 76.8725 4.25407 71.46C7.2905 67.7321 11.395 65.7446 15.5778 65.5422C19.7606 65.3398 24.0077 66.924 27.3475 70.3434L43.8871 87.2872L45.7786 89.2259L50.4674 94.0369Z" fill="#0073B8"/>
<path opacity="0.18" d="M155.061 91.2789C154.401 94.3257 152.013 96.644 149.073 96.7878L104.81 98.9288V98.9162L59.5544 99.2651C58.436 99.3196 50.4996 99.4215 41.7999 99.1898L40.7346 97.0236L104.659 95.3265L118.793 94.9524C118.793 94.9524 147.591 93.2455 155.061 91.2789Z" fill="#1F1F39"/>
<path d="M18.111 125.783C22.2882 125.582 26.3913 123.594 29.4347 119.866L50.4675 94.0354L4.37292 96.2685C-0.7591 103.719 8.70228e-06 114.489 6.34129 120.982C9.6797 124.403 13.9324 125.986 18.111 125.783Z" fill="#00446D"/>
<path opacity="0.18" d="M45.773 89.2244C31.712 91.2203 11.8214 94.4527 3.96329 95.7451C3.8892 95.6516 3.82349 95.5581 3.75219 95.466C2.70791 94.0444 1.8684 92.4837 1.25818 90.8295C6.69357 91.3501 12.7063 90.6899 20.5267 89.8343C28.484 88.9578 40.1167 87.9836 43.8815 87.2858L45.773 89.2244Z" fill="#1F1F39"/>
<path opacity="0.16" d="M139.113 88.3479C139.869 91.4603 138.084 94.0103 138.274 94.7681C138.464 95.526 137.653 97.3404 137.653 97.3404H136.024L135.745 93.6167L139.113 88.3479Z" fill="#1F1F3B"/>
<path d="M138.453 92.1665C138.323 92.5378 134.139 101.765 133.979 102.076C133.77 102.495 132.409 99.6796 132.095 100.456C132.095 100.456 133.181 96.8435 133.203 96.2769C133.216 95.9279 133.523 95.371 133.846 94.7081C133.986 94.4289 134.119 94.1344 134.238 93.826C134.298 93.6739 134.354 93.5175 134.401 93.3598C134.502 92.9909 134.54 92.6079 134.515 92.2265C134.467 91.0597 133.572 90.2363 134.235 90.0855C134.898 89.9348 135.353 90.2628 136.332 87.837C136.599 87.1811 138.493 87.255 139.099 88.3437C139.289 88.6591 139.217 89.9822 138.453 92.1665Z" fill="#EFAEA6"/>
<path d="M114.764 109.461C119.384 109.613 125.355 107.977 126.899 106.71C128.516 105.38 133.626 93.2036 133.626 93.2036C133.626 93.2036 137.21 94.9259 137.27 95.6391C137.33 96.3523 133.282 107.906 130.357 111.035C128.449 113.076 114.914 117.194 113.4 117.206C111.886 117.217 111.655 114.425 112.326 112.46C112.508 111.921 113.426 109.423 114.764 109.461Z" fill="#0069A8"/>
<path d="M48.8654 106.534C49.0052 105.697 49.24 104.281 49.6874 103.265C50.8477 100.625 49.5476 99.6168 49.9055 99.0237C50.5975 97.8959 51.2126 100.59 51.3454 98.1318C51.4572 96.0704 53.269 95.5205 53.8618 95.8205C54.9117 96.3551 55.1927 97.0836 54.2979 99.321C54.0183 100.019 52.8105 101.31 52.4484 103.133C52.2303 104.227 52.1297 106.782 51.8738 107.189C51.618 107.595 48.8654 106.534 48.8654 106.534Z" fill="#EFAEA6"/>
<path d="M45.3116 200.112C45.376 198.491 45.032 194.413 45.032 194.413L40.75 194.499L41.326 200.62L44.2618 202.41L45.3116 200.112Z" fill="#EFAEA6"/>
<path d="M45.608 199.415C46.054 199.301 45.8736 199.732 46.0498 200.407C46.4524 201.954 52.0919 201.913 52.9447 202.04C53.3836 202.106 54.126 204.377 51.9409 204.401C50.0522 204.42 44.0017 204.507 41.9341 204.515C41.7246 204.517 41.5204 204.449 41.3533 204.323C41.1861 204.197 41.0655 204.019 41.01 203.817C40.6158 202.324 40.6843 199.996 41.2603 199.938C42.127 199.638 43.7459 199.89 45.608 199.415Z" fill="#1F1F39"/>
<path d="M20.4736 198.24C21.0915 196.741 22.1665 192.797 22.1665 192.797L18.1124 191.401L16.5564 197.352L18.6967 200.043L20.4736 198.24Z" fill="#EFAEA6"/>
<path d="M20.9922 197.689C21.4507 197.735 21.132 198.078 21.0663 198.772C20.9139 200.363 26.2235 202.261 26.9798 202.68C27.3712 202.893 27.2874 205.28 25.2281 204.55C23.4471 203.919 17.7363 201.918 15.7917 201.214C15.594 201.143 15.4255 201.009 15.3122 200.832C15.199 200.655 15.1474 200.446 15.1654 200.237C15.3052 198.702 16.1705 196.537 16.7311 196.681C17.6468 196.7 19.0798 197.492 20.9922 197.689Z" fill="#1F1F39"/>
<path d="M34.9749 141.847C37.4619 148.628 41.5692 168.27 42.0893 171.818C42.6093 175.366 46.3545 198.561 46.2063 199.746C42.0263 200.678 40.4201 200.762 40.4201 200.762C39.9056 197.807 37.8841 178.189 35.7773 173.179C33.6706 168.168 27.1461 154.365 27.1461 154.365C27.9612 162.093 29.7939 174.417 28.6923 176.944C26.6415 182.591 21.5626 197.807 21.5626 197.807C18.9064 197.603 15.849 196.551 16.3299 196.395C17.6971 192.396 20.9978 179.507 21.4409 175.649C21.8841 171.791 16.8471 140.768 16.8471 140.768L31.4324 139.814L34.9749 141.847Z" fill="#4B4B5B"/>
<path opacity="0.62" d="M27.1462 154.365C27.2999 156.585 27.7138 158.919 27.9682 161.483L25.2225 149.81C25.6931 151.395 26.3383 152.922 27.1462 154.365Z" fill="#1F1F39"/>
<path d="M28.6588 105.942C29.9338 108.295 30.5699 108.687 30.6859 108.981C30.3015 109.409 30.1477 108.782 30.6594 110.048C31.4017 111.889 31.7917 113.39 29.1216 112.597L29.8471 114.436L30.0568 117.252L26.3452 117.91C26.485 115.363 22.6167 108.738 23.5743 106.884C24.532 105.031 28.2814 105.254 28.6588 105.942Z" fill="#EFAEA6"/>
<path d="M27.1951 110.722C26.0543 110.373 26.2668 108.629 27.4858 109.254C28.3163 108.894 28.2352 108.827 27.9052 108.091C27.5753 107.356 28.2953 107.413 28.7189 106.659C29.1425 105.906 29.759 105.322 28.8796 104.686C28.3792 104.323 28.2827 104.364 27.9011 104.023C27.5194 103.682 27.1336 102.883 26.6191 103.641C26.1046 104.398 26.4332 104.916 25.2211 104.382C24.009 103.847 22.9382 104.242 23.0039 105.629C23.078 107.237 22.1539 106.203 22.0826 107.783C21.9526 110.615 23.5421 109.952 23.9 111.412C24.2579 112.872 25.2826 114.152 26.3283 113.705C27.374 113.258 27.4844 111.452 27.1951 110.722Z" fill="#6D3522"/>
<path opacity="0.16" d="M29.1215 112.597C28.2757 112.11 27.9807 112.307 27.8633 112.528C26.8204 114.522 28.4854 114.269 29.3592 115.064C30.2329 115.86 29.6765 114.054 29.6765 114.054L29.1215 112.597Z" fill="#1F1F39"/>
<path d="M23.7392 115.175C24.6549 114.801 29.1131 115.125 31.677 115.454C36.3938 116.074 42.4416 114.921 43.8563 113.704C46.1057 111.778 48.9366 103.449 49.3085 102.706C49.6804 101.962 52.9992 102.753 53.2005 103.317C52.7392 104.686 51.9032 112.347 46.4804 117.282C43.2216 120.248 34.9092 122.738 34.5247 124.519C34.4912 128.96 33.0471 132.641 34.9805 141.84C30.0106 146.422 16.678 144.973 16.3271 142.165C15.9762 139.357 17.7167 123.006 18.4143 121.01C19.316 118.417 22.825 115.549 23.7392 115.175Z" fill="#0069A8"/>
<path opacity="0.28" d="M34.5192 124.526C34.4899 128.416 33.1213 132.921 34.6143 140.018C34.4228 140.018 34.0397 138.941 33.7755 138.483C32.6767 136.629 31.3836 127.912 31.7414 127.178C32.0993 126.444 32.7885 124.924 34.7136 124.157C34.6017 124.217 34.5416 124.423 34.5192 124.526Z" fill="#1F1F39"/>
<path d="M203.559 79.555C199.76 78.9548 199.225 77.2311 198.513 71.8898C198.021 76.9576 197.395 78.8794 193.531 79.4573C196.9 80.9032 198.084 81.428 198.684 87.2858C199.514 81.3526 200.254 80.8278 203.559 79.555Z" fill="white"/>
</g>
<defs>
<clipPath id="clip0_170_73">
<rect width="317" height="206" fill="white"/>
</clipPath>
</defs>
</svg>
