<svg width="176" height="171" viewBox="0 0 176 171" fill="none" xmlns="http://www.w3.org/2000/svg">
<g clip-path="url(#clip0_6_2145)">
<path d="M173.511 107.853L89.3843 155.621C88.0423 156.295 86.5614 156.646 85.0597 156.646C83.5579 156.646 82.077 156.295 80.735 155.621L1.82712 109.535C1.32462 109.316 0.890024 108.967 0.568648 108.523C0.247272 108.079 0.0508949 107.557 0 107.011L0 121.352C0.0443673 121.896 0.235209 122.418 0.55227 122.863C0.869331 123.307 1.30078 123.657 1.80083 123.876L80.7613 169.975C82.1033 170.649 83.5842 171 85.086 171C86.5877 171 88.0686 170.649 89.4106 169.975L173.511 122.246C173.998 122.028 174.418 121.684 174.727 121.25C175.037 120.816 175.225 120.306 175.272 119.775V105.421C175.216 105.944 175.024 106.444 174.715 106.871C174.406 107.297 173.991 107.636 173.511 107.853Z" fill="url(#paint0_linear_6_2145)"/>
<path d="M173.511 102.844C175.89 104.225 175.916 106.472 173.511 107.853L89.3843 155.621C88.0423 156.295 86.5614 156.646 85.0597 156.646C83.558 156.646 82.077 156.295 80.7351 155.621L1.82714 109.535C-0.565199 108.221 -0.578344 105.894 1.82714 104.514L85.8352 56.7458C87.1754 56.0657 88.657 55.7113 90.1598 55.7113C91.6627 55.7113 93.1443 56.0657 94.4845 56.7458L173.511 102.844Z" fill="#5098F0"/>
<path d="M85.1122 154.53C83.85 154.557 82.6015 154.263 81.4843 153.675L2.52379 107.59C1.82712 107.195 1.41963 106.696 1.40649 106.275C1.39334 105.855 1.81398 105.368 2.48436 104.961L86.5187 57.2191C87.6322 56.6338 88.8758 56.3398 90.1335 56.3647C91.404 56.3389 92.6605 56.6327 93.7878 57.2191L172.735 103.305C173.445 103.712 173.852 104.198 173.852 104.619C173.852 105.04 173.458 105.513 172.788 105.933L88.7533 153.675C87.6308 154.262 86.3785 154.555 85.1122 154.53Z" fill="#438BE3"/>
<g style="mix-blend-mode:multiply" opacity="0.2">
<path d="M71.3234 74.9119H80.1303L91.3691 81.4054L80.1303 87.8989H71.3234L60.0846 81.4054L71.3234 74.9119Z" fill="#438BE3"/>
</g>
<path d="M80.1304 12.987V87.8989L91.3691 81.4054V6.49353L80.1304 12.987Z" fill="#C7DEEB"/>
<path d="M68.8784 81.4054L80.1303 87.8989V12.987L68.8784 6.49353V81.4054Z" fill="#D4EBF8"/>
<path d="M68.8784 6.4935L80.1303 12.987L91.3691 6.4935L80.1303 0L68.8784 6.4935Z" fill="white"/>
<g style="mix-blend-mode:multiply" opacity="0.2">
<path d="M86.0981 83.4691H94.9051L106.144 89.9626L94.9051 96.4561H86.0981L74.8594 89.9626L86.0981 83.4691Z" fill="#438BE3"/>
</g>
<path d="M94.905 33.5454V96.4561L106.144 89.9626V27.0519L94.905 33.5454Z" fill="#C7DEEB"/>
<path d="M83.6663 89.9626L94.905 96.4561V33.5454L83.6663 27.0519V89.9626Z" fill="#D4EBF8"/>
<path d="M83.6663 27.0519L94.905 33.5454L106.144 27.0519L94.905 20.5584L83.6663 27.0519Z" fill="white"/>
<g style="mix-blend-mode:multiply" opacity="0.2">
<path d="M100.886 92.0395H109.68L120.932 98.533L109.68 105.013H100.886L89.634 98.533L100.886 92.0395Z" fill="#438BE3"/>
</g>
<path d="M109.68 54.1038V105.013L120.932 98.533V47.6103L109.68 54.1038Z" fill="#C7DEEB"/>
<path d="M98.441 98.533L109.68 105.013V54.1038L98.441 47.6103V98.533Z" fill="#D4EBF8"/>
<path d="M98.441 47.6103L109.68 54.1038L120.932 47.6103L109.68 41.1168L98.441 47.6103Z" fill="white"/>
<g style="mix-blend-mode:multiply" opacity="0.2">
<path d="M115.661 100.597H124.468L135.706 107.09L124.468 113.584H115.661L104.422 107.09L115.661 100.597Z" fill="#438BE3"/>
</g>
<path d="M124.468 81.8523V113.584L135.706 107.09V75.3588L124.468 81.8523Z" fill="#C7DEEB"/>
<path d="M113.216 107.09L124.468 113.584V81.8523L113.216 75.3588V107.09Z" fill="#D4EBF8"/>
<path d="M113.216 75.3589L124.468 81.8524L135.706 75.3589L124.468 68.8654L113.216 75.3589Z" fill="white"/>
<g style="mix-blend-mode:multiply" opacity="0.2">
<path d="M130.435 109.154H139.242L150.481 115.648L139.242 122.141H130.435L119.197 115.648L130.435 109.154Z" fill="#438BE3"/>
</g>
<path d="M139.242 100.005V122.141L150.481 115.647V93.5117L139.242 100.005Z" fill="#C7DEEB"/>
<path d="M127.99 115.647L139.242 122.141V100.005L127.99 93.5117V115.647Z" fill="#D4EBF8"/>
<path d="M127.99 93.5117L139.242 100.005L150.481 93.5117L139.242 87.0182L127.99 93.5117Z" fill="white"/>
<path d="M40.7487 100.097C42.2341 100.952 43.2331 102.503 46.1907 104.041C47.9126 104.908 52.0664 105.605 51.9086 103.699C51.9213 103.594 51.9213 103.488 51.9086 103.383C52.0435 103.638 52.1325 103.913 52.1715 104.198C52.3293 106.104 48.2281 105.421 46.4536 104.553C43.4829 103.055 42.5101 101.491 41.0116 100.61L40.3675 100.268V100.728L37.41 99.348C37.3019 99.0035 37.2487 98.6442 37.2522 98.2833C37.502 98.5856 39.6446 99.4794 40.7487 100.097Z" fill="#001135"/>
<path d="M44.2058 95.3914C44.4433 96.1329 44.7935 96.8334 45.2442 97.4683C45.615 97.9134 46.0597 98.2913 46.5587 98.5856C48.2675 99.348 51.6457 101.911 51.8166 103.659C51.9875 105.408 47.8732 104.869 46.0986 104.001C43.1411 102.503 42.1552 100.952 40.6567 100.058C39.5394 99.4006 37.1339 98.4279 37.0288 98.165C36.8694 97.5129 36.8694 96.8321 37.0288 96.1801C41.6951 98.9931 42.7467 95.7069 44.2058 95.3914Z" fill="#001135"/>
<path d="M34.242 102.529C34.3428 103.584 34.7443 104.588 35.3988 105.421C35.9903 106.196 40.8144 111.402 38.3432 112.677C35.872 113.952 31.7708 111.77 30.8507 109.903C29.9306 108.037 30.1277 106.801 29.0236 105.697C28.2244 104.996 27.6371 104.085 27.3279 103.068C27.2411 102.489 27.3328 101.898 27.5908 101.372C27.7222 101.083 29.0104 103.725 30.3249 103.909C31.6394 104.093 33.3876 102.871 34.242 102.529Z" fill="#001135"/>
<path d="M29.0236 105.644C30.1277 106.748 29.9831 108.01 30.8507 109.851C31.7182 111.691 35.872 113.899 38.3432 112.624C38.5001 112.55 38.6397 112.444 38.753 112.313C38.8662 112.182 38.9505 112.028 39.0004 111.862C39.004 112.091 38.9477 112.317 38.8371 112.518C38.7264 112.718 38.5652 112.886 38.3695 113.005C36.0297 114.215 31.7971 112.177 30.9296 110.376C30.062 108.576 30.2329 107.498 29.2733 106.433V106.762C28.5435 106.138 27.9294 105.39 27.4594 104.553V103.449C27.8208 104.283 28.3538 105.031 29.0236 105.644Z" fill="#001135"/>
<path d="M38.9479 57.3899V50.5415C38.9479 50.5415 45.0996 51.3302 47.6629 48.1097C47.6629 48.1097 49.2139 63.1079 48.2675 69.3517C47.3211 75.5954 46.0723 85.2962 45.7832 88.0698C45.494 90.8433 44.7842 95.4308 46.0986 98.0203C46.0986 98.0203 40.5384 99.8869 37.1339 97.2448L38.0409 84.6653L38.9479 57.3899Z" fill="#1058B0"/>
<path d="M42.497 50.8833C42.3942 54.1412 42.0913 57.3897 41.59 60.6104C41.2507 61.9654 40.9918 63.3392 40.8144 64.7247C40.2492 68.9967 39.5657 76.2395 39.4342 78.0272C39.0267 81.55 37.6728 88.3852 37.3048 90.7776C36.9367 93.1699 35.7011 105.237 35.7011 105.237C35.7011 105.237 29.8649 105.079 27.3016 101.78C27.3016 101.78 28.0903 91.0799 28.5372 87.6097C28.9842 84.1395 29.9437 83.6663 30.1672 81.3002C30.3907 78.9342 28.9579 69.47 28.9973 63.5548C29.2525 58.8233 30.0014 54.1315 31.2319 49.5557C31.2319 49.5557 32.3229 52.3292 42.497 50.8833Z" fill="#2971C9"/>
<path d="M42.497 21.4391C42.497 21.4391 45.8489 31.2188 45.8095 35.2279C45.77 39.2371 46.8479 48.9247 46.8479 48.9247C46.8479 48.9247 46.0592 50.4627 42.9045 51.0279C41.1742 51.3809 39.3972 51.4431 37.6466 51.2119C37.6466 51.2119 33.5191 33.2562 32.5333 30.693C31.5474 28.1298 33.0853 21.0447 33.0853 21.0447C33.0853 21.0447 36.5818 24.2258 39.4211 23.1216C42.2604 22.0174 42.497 21.4391 42.497 21.4391Z" fill="#E6F6FF"/>
<path d="M38.0409 24.7647C38.0409 24.7647 38.501 23.161 39.3554 22.8061C40.2098 22.4512 41.3008 23.8971 41.3008 23.8971C41.3119 24.6261 41.2144 25.3526 41.0116 26.0529C42.0765 28.2281 42.7315 30.5808 42.9439 32.9933C43.4171 36.6476 45.1259 47.676 45.1259 47.676L43.3777 50.1735L41.7477 48.6356C41.7477 48.6356 41.5374 40.3675 41.1562 36.0035C40.8276 32.2441 40.3412 28.5372 40.2098 26.3946C39.4137 25.9562 38.6835 25.4075 38.0409 24.7647Z" fill="#B00052"/>
<path d="M33.0065 14.8799L41.1299 18.4027C41.1299 18.4027 41.4717 22.609 39.5263 23.1479C37.5808 23.6869 32.5333 18.8102 32.5333 18.8102C33.3877 17.7586 33.0065 14.8799 33.0065 14.8799Z" fill="#D9A782"/>
<path d="M40.5516 18.6261H41.0379C41.9214 20.6972 42.1907 22.9786 41.8135 25.1985L39.4343 22.8061C41.3797 21.5179 40.5516 18.6261 40.5516 18.6261Z" fill="#FDFDFD"/>
<path d="M32.5069 18.2712C32.5069 18.2712 33.3876 21.0316 39.4342 22.8061L38.4615 26.1317C35.6936 24.3921 33.244 22.1914 31.2188 19.6251L32.5069 18.2712Z" fill="#FDFDFD"/>
<path d="M43.588 18.4026C44.5344 18.981 47.3737 25.067 47.6892 27.8143C48.0046 30.5615 47.3737 39.3816 47.5051 42.5101C47.6366 45.6385 50.1341 57.7054 50.1341 57.7054C48.3727 62.8319 47.0582 59.3485 46.9136 58.5598C45.7174 52.1583 45.1917 38.1986 44.2847 31.5079C43.6041 27.1172 42.1864 22.873 40.0915 18.9547L41.1168 17.8374L43.588 18.4026Z" fill="#367ED6"/>
<path d="M40.1835 18.9021L41.7214 18.4026L45.1522 23.8577L44.1532 25.2642C44.1532 25.2642 45.954 25.5797 46.2038 25.6585C46.5305 28.7551 46.5613 31.8758 46.2958 34.9782C46.1512 36.963 45.7174 39.7234 45.3625 41.774C45.0339 37.9226 44.7316 34.2289 44.3766 31.508C43.7019 27.0991 42.284 22.8367 40.1835 18.9021Z" fill="#438BE3"/>
<path d="M31.9023 18.9022C31.9023 18.9022 34.5312 23.7 36.0823 26.1318C38.4045 30.4904 39.8597 35.2579 40.3675 40.1704C40.6304 44.771 40.4727 60.7813 39.6971 62.5164C38.9216 64.2515 26.8547 60.3738 26.8547 60.3738C26.8547 60.3738 28.064 51.4354 28.9316 47.768C29.7991 44.1006 27.6171 36.503 26.3026 34.4787C24.9882 32.4544 23.5817 26.5918 24.883 25.2774C27.1037 23.0248 29.447 20.8965 31.9023 18.9022Z" fill="#367ED6"/>
<path d="M30.2329 20.164L31.9417 18.8495C31.9417 18.8495 34.5707 23.6474 36.1218 26.0792C38.4439 30.4378 39.8992 35.2053 40.4069 40.1177C40.4069 41.0379 40.4069 42.3524 40.4069 43.9034C39.868 42.0632 38.8559 39.6051 38.4878 38.5535C37.0813 34.6101 33.3482 30.3512 33.6374 29.8517C34.1617 29.2382 34.7378 28.6708 35.3594 28.156L33.4008 28.3663C33.4008 28.3663 31.0873 23.2005 30.2329 20.164Z" fill="#438BE3"/>
<path d="M32.8618 12.7767C32.8618 12.7767 32.1652 11.9092 31.4291 12.2904C30.693 12.6716 30.9296 13.3814 31.3108 14.0255C31.692 14.6696 33.0459 16.1155 33.5454 15.6686C34.0449 15.2216 32.8618 12.7767 32.8618 12.7767Z" fill="#F1A882"/>
<path d="M39.9337 4.71894C41.189 5.70914 42.1297 7.04256 42.6416 8.55721C42.9759 9.29541 43.1377 10.1001 43.1148 10.9101C43.1148 11.2256 42.6284 11.7119 42.8256 12.1194C43.0174 12.8939 43.0443 13.7 42.9045 14.4855C42.7862 15.261 42.3918 16.3389 42.3392 17.0356C42.2867 17.7322 42.5627 19.4673 40.7487 19.7171C39.3786 19.7154 38.0248 19.4186 36.7796 18.8471C35.5344 18.2755 34.4268 17.4424 33.5323 16.4046C32.1521 14.3277 30.5353 12.6321 30.3249 10.1214C30.1639 8.94614 30.3375 7.74927 30.8257 6.66814C31.314 5.58701 32.0971 4.66542 33.0853 4.00912C35.2411 2.62893 37.9883 3.61478 39.9337 4.71894Z" fill="#FFCDA8"/>
<path d="M41.6557 16.2075C41.6557 16.1286 42.2867 16.2075 42.5627 15.9446C42.4594 16.3017 42.3847 16.6666 42.3392 17.0356C42.3392 17.6534 42.5101 19.1125 41.2877 19.6645C41.2124 18.4996 41.3369 17.3304 41.6557 16.2075Z" fill="#D9A782"/>
<path d="M42.9044 14.4592C42.8347 14.9028 42.7381 15.3418 42.6153 15.7737C42.4028 14.9599 42.1259 14.1643 41.7871 13.3945C41.4585 12.3823 41.8529 12.2246 42.2998 11.8565C42.5917 11.5959 42.86 11.31 43.1016 11.0021C43.1016 11.3176 42.6416 11.7645 42.8256 12.1589C43.0083 12.9123 43.0351 13.6951 42.9044 14.4592Z" fill="#D9A782"/>
<path d="M38.3038 2.82613C39.3803 2.97246 40.3935 3.42042 41.2262 4.11822C42.0589 4.81603 42.6772 5.73521 43.0096 6.76955C43.0454 6.99972 42.9975 7.2351 42.8744 7.4329C42.7514 7.63071 42.5615 7.77779 42.3392 7.84742C42.2798 8.11728 42.1553 8.36852 41.9766 8.57929C41.7979 8.79006 41.5704 8.95396 41.3139 9.05674C40.2492 9.35907 37.1602 8.70183 36.5555 9.54309C35.9509 10.3844 35.964 11.0284 35.4908 11.3702C34.9197 12.1625 34.5007 13.0539 34.2552 13.9992C34.2552 14.17 32.6121 12.3561 31.0873 12.6847C30.7042 11.9204 30.4679 11.0911 30.3906 10.2398C30.3775 10.0033 30.3775 9.76637 30.3906 9.52995C29.4836 3.24676 35.2148 2.27405 38.3038 2.82613Z" fill="#412999"/>
<path d="M31.0742 12.6058C30.6911 11.8416 30.4548 11.0122 30.3775 10.1609C30.3644 9.92444 30.3644 9.68747 30.3775 9.45105C32.0203 10.4028 33.8596 10.9649 35.7537 11.0941C35.6788 11.2018 35.5854 11.2953 35.4777 11.3702C34.9066 12.1624 34.4876 13.0539 34.2421 13.9991C34.1764 14.1437 32.599 12.3297 31.0742 12.6058Z" fill="#281080"/>
<path d="M35.149 43.4697C36.1696 43.5661 37.199 43.4996 38.1986 43.2725C39.756 42.6907 41.4447 42.5542 43.0753 42.8781C44.5941 43.3861 45.997 44.1903 47.2028 45.2442C48.0572 46.2301 47.6628 46.7427 47.1239 46.7427C47.1239 46.7427 47.9914 47.3211 47.4919 47.8863C47.2422 48.1623 46.2958 47.8863 46.2958 47.8863C46.2958 47.8863 46.8479 48.4121 46.2958 48.7144C45.8749 48.8882 45.4022 48.8882 44.9813 48.7144C44.9813 48.7144 44.9813 49.1745 44.679 49.2928C44.1663 49.5294 42.9044 49.0299 42.05 48.7144C41.0019 48.4355 39.9264 48.2724 38.8427 48.2281C38.0803 48.2281 36.5424 47.2816 35.7405 47.137C34.8269 47.0485 33.9069 47.0485 32.9933 47.137L35.149 43.4697Z" fill="#FFCDA8"/>
<path d="M33.7162 46.0855C35.5761 46.2441 37.3858 46.7714 39.0399 47.6366C40.0703 48.1276 41.2286 48.2839 42.3523 48.0835C42.5101 47.8074 43.5879 47.6891 43.7457 47.6103C43.9034 47.5314 43.8377 46.769 43.7457 46.6113C43.6537 46.4535 44.0612 46.3352 44.4555 46.3878C44.8498 46.4404 44.6001 45.3625 44.6001 44.9682C44.6001 44.5738 44.9813 45.0865 45.3362 45.2836C45.6911 45.4808 47.045 46.7427 47.1239 46.7427C47.2028 46.7427 47.9914 47.3211 47.4919 47.8863C47.2422 48.1623 46.2958 47.8863 46.2958 47.8863C46.2958 47.8863 46.8479 48.4121 46.2958 48.7144C45.8749 48.8882 45.4022 48.8882 44.9813 48.7144C44.9813 48.7144 44.9813 49.1745 44.679 49.2928C44.1663 49.5294 42.9044 49.0299 42.05 48.7144C41.0019 48.4355 39.9264 48.2724 38.8427 48.2281C38.0803 48.2281 36.5424 47.2816 35.7405 47.1371C34.8269 47.0485 33.9069 47.0485 32.9933 47.1371L33.7162 46.0855Z" fill="#D9A782"/>
<path d="M36.5556 43.3777H37.4757C36.7634 44.9134 36.5741 46.6403 36.9368 48.2938H35.4908C35.2775 47.4346 35.224 46.5434 35.3331 45.6649C35.3535 45.2166 35.4739 44.7786 35.6854 44.3829C35.8969 43.9871 36.1942 43.6437 36.5556 43.3777Z" fill="#EEF5F9"/>
<path d="M36.9367 43.1936C36.9367 43.1936 35.2936 46.4798 36.3715 48.9247C36.3715 48.9247 25.4614 48.9247 22.6878 48.2806C21.6598 48.1681 20.6846 47.7671 19.8749 47.1239C19.2871 46.03 19.1055 44.7635 19.3622 43.5485C19.998 39.2438 20.947 34.9911 22.2015 30.8244C23.1742 27.8537 24.0155 23.8051 27.6828 24.6332C31.3502 25.4614 30.6141 31.7971 29.4048 34.4918C28.1955 37.1865 25.6848 42.6547 25.6848 42.6547L36.9367 43.1936Z" fill="#438BE3"/>
<path d="M67.6692 28.9185L70.5742 27.9063C70.5742 27.9063 71.0211 25.7374 71.1657 25.3957C71.963 24.8334 72.8125 24.3492 73.7026 23.9498C73.9392 23.8052 74.6753 23.7263 74.7674 24.1338L76.9362 22.8193C77.8301 22.3198 79.2234 21.6757 79.5652 22.2278C79.9069 22.7799 79.5652 22.9508 78.8291 23.4371L76.2001 25.1065L76.5682 25.2379C77.1713 24.8964 77.8106 24.6231 78.4742 24.423C78.6618 24.4443 78.8358 24.5311 78.9657 24.6682C79.0955 24.8053 79.1728 24.9837 79.184 25.1722C79.2056 25.5256 79.1518 25.8796 79.0262 26.2107C79.0262 26.2107 79.6572 26.3815 79.5915 26.9073C79.5424 27.2891 79.3554 27.6397 79.0657 27.8932C78.8025 28.061 78.514 28.1852 78.2113 28.2612C78.3815 28.3581 78.5691 28.4206 78.7634 28.4453C78.9737 28.4453 79.6309 28.7082 79.4732 29.1419C79.3154 29.5757 79.0525 29.8649 78.2376 29.8649C77.4033 29.874 76.5866 30.1055 75.8715 30.5353C74.9841 30.8968 74.0291 31.0627 73.0717 31.0216C72.1558 31.0932 71.2627 31.3433 70.4427 31.7577C69.6146 32.1521 68.9705 32.507 68.9705 32.507L67.6692 28.9185Z" fill="#FFCDA8"/>
<path d="M72.9139 26.2895C72.9139 26.2895 72.1515 26.5655 72.0595 26.973C71.9675 27.3805 72.4407 27.9589 72.3881 28.511C72.3941 28.6963 72.4422 28.8778 72.5288 29.0417C72.6153 29.2057 72.738 29.3478 72.8876 29.4574C72.6641 29.8386 73.1373 30.7719 73.8472 30.7719C74.3074 30.7396 74.7555 30.6097 75.1616 30.3907C75.2722 29.91 75.2402 29.4075 75.0696 28.9447C74.7673 28.5373 74.3072 28.8659 74.8856 28.2086C75.464 27.5514 76.016 27.0256 75.9372 26.2764C75.8969 26.0877 75.9035 25.892 75.9561 25.7065C76.0088 25.5209 76.1061 25.351 76.2395 25.2116L76.6076 25.3431C76.6076 25.3431 77.3042 24.975 77.922 24.7253C78.0009 24.8567 78.1192 25.1065 77.922 25.2642C77.7249 25.422 77.0282 26.0135 77.1991 26.5787C77.2574 26.8236 77.3906 27.0441 77.5803 27.2096C77.5803 27.2096 76.6996 27.604 77.0676 28.0903C77.4357 28.5767 78.2375 28.419 78.2375 28.419C78.342 28.478 78.452 28.5264 78.5661 28.5635C78.2244 28.6556 77.6329 28.8527 77.4883 29.1419C77.3437 29.4311 77.3174 29.97 77.4883 30.0883C76.8985 30.1658 76.333 30.3722 75.832 30.693C74.9446 31.0545 73.9896 31.2204 73.0322 31.1794C72.1163 31.251 71.2232 31.501 70.4032 31.9155C69.5751 32.3098 68.931 32.6647 68.931 32.6647L68.6418 31.8234C69.5681 31.1154 70.3341 30.2195 70.8896 29.1945C70.8115 28.7861 70.7106 28.3823 70.5873 27.9852C70.5873 27.9852 70.745 27.2228 70.9027 26.5393C71.1919 26.4341 71.6914 26.2501 72.1121 26.066C72.1905 26.0469 72.2623 26.0068 72.3198 25.95C72.3773 25.8933 72.4184 25.822 72.4386 25.7438C72.4588 25.6656 72.4575 25.5834 72.4347 25.5059C72.4119 25.4284 72.3686 25.3585 72.3092 25.3037L73.4134 25.6323C73.9107 25.4457 74.3831 25.1985 74.8199 24.8962C74.3967 25.1908 73.9887 25.5067 73.5974 25.8426C73.3897 26.0203 73.16 26.1705 72.9139 26.2895Z" fill="#D9A782"/>
<path d="M69.4963 28.0509L70.3639 27.7354L71.6126 32.3229L70.4033 32.7304L69.4963 28.0509Z" fill="#EEF5F9"/>
<path d="M47.6892 27.7617C47.3868 25.1327 44.7053 19.3096 43.7457 18.4158C45.2036 18.8124 46.5259 19.5986 47.5708 20.6898C48.491 21.6757 54.2747 27.9194 55.3263 28.8133C56.3778 29.7071 58.2575 31.1005 58.2575 31.1005C58.2575 31.1005 60.6893 30.3381 63.1605 29.786C65.6317 29.2339 69.7329 27.9063 69.7329 27.9063L71.376 33.5717C71.376 33.5717 62.4901 36.7395 60.0584 37.6597C59.1001 38.0862 58.0332 38.2052 57.0046 38.0004C55.9759 37.7956 55.0359 37.2771 54.3141 36.5161C52.9996 35.4119 49.5557 32.5727 47.8863 31.2582C47.8917 30.0898 47.8258 28.9221 47.6892 27.7617Z" fill="#367ED6"/>
<path d="M47.6891 27.7617C47.3314 25.8898 46.7396 24.0703 45.9277 22.3461C46.6023 22.8635 47.1998 23.4743 47.7023 24.16C49.2534 26.3421 51.041 29.4179 52.671 31.6131C54.3009 33.8083 57.1139 35.6223 57.5871 37.8437C56.3209 37.826 55.1087 37.3279 54.1958 36.4504C52.8813 35.3462 49.4374 32.507 47.768 31.1925C47.81 30.0483 47.7837 28.9027 47.6891 27.7617Z" fill="#1D65BD"/>
<path d="M72.3618 54.5244C72.3618 54.5244 73.6763 55.1422 73.5317 55.4446C73.3871 55.7469 72.8482 56.3384 72.8745 56.4041C72.9008 56.4698 73.1111 57.0351 73.1242 57.0745C73.1374 57.1139 73.2425 57.8238 73.2425 57.8238C73.2425 57.8238 74.281 57.8238 74.3204 57.9026C74.3263 58.0513 74.2994 58.1994 74.2415 58.3364L74.3993 58.9936C74.8109 59.0756 75.2369 59.0484 75.6349 58.9148C76.279 58.7044 78.4347 58.1655 78.4347 58.1655L80.9322 58.2444L82.1152 55.0108H79.1708C79.1708 55.0108 78.0798 53.4334 77.6329 52.855C77.0277 52.3263 76.3144 51.936 75.5428 51.7114C75.1222 51.5274 74.1495 51.9349 73.7946 52.1847C73.4397 52.4344 73.3477 52.9208 73.7946 52.9339C74.2405 52.9155 74.6822 52.8404 75.1091 52.7104C75.1091 52.7104 76.1607 53.2362 75.9372 53.5123C75.0045 53.7771 74.0411 53.9185 73.0716 53.9329L72.3618 54.5244Z" fill="#F2A983"/>
<path d="M73.2425 57.8369C73.2425 57.8369 73.1374 57.1139 73.1242 57.0876C73.1111 57.0613 72.8876 56.4698 72.8745 56.4172C72.8613 56.3647 73.3871 55.76 73.5317 55.4577C73.6763 55.1553 72.3618 54.5375 72.3618 54.5375L73.0059 53.946C73.9754 53.9316 74.9388 53.7902 75.8715 53.5254C76.0949 53.2494 75.0433 52.7236 75.0433 52.7236C74.6164 52.8535 74.1747 52.9286 73.7289 52.947C73.5186 52.947 73.4265 52.8287 73.4265 52.6841C73.6488 52.7172 73.8747 52.7172 74.0969 52.6841C74.5422 52.6113 74.9816 52.5059 75.4114 52.3687C75.7331 52.6259 76.0125 52.9319 76.2395 53.2756C76.3836 53.9446 76.6087 54.5935 76.9099 55.2079C77.1379 55.6204 77.4803 55.9582 77.8958 56.1806C77.8958 56.1806 76.0686 56.3778 76.0818 57.0745C76.0949 57.7711 76.2132 58.2049 76.831 58.0603C77.5458 57.7835 78.2288 57.431 78.8685 57.0087L81.2871 57.1928L80.9059 58.2444L78.4084 58.1655C78.4084 58.1655 76.2527 58.7044 75.6086 58.9147C75.2106 59.0484 74.7847 59.0756 74.373 58.9936L74.2152 58.3364C74.2731 58.1993 74.3 58.0512 74.2941 57.9026C74.281 57.8369 73.2425 57.8369 73.2425 57.8369Z" fill="#D9A782"/>
<path d="M79.8806 54.8399L79.6835 58.5599L82.181 58.7307L82.6279 54.7742L79.8806 54.8399Z" fill="#102942"/>
<path d="M74.1101 61.6489C74.1101 61.6489 74.1101 61.0048 74.281 60.9522C74.4519 60.8996 76.6208 60.2424 77.1334 60.1241C77.646 60.0058 78.9474 59.7955 78.9999 60.2424C79.0525 60.6893 77.1728 61.0179 77.1728 61.0179V61.6489C77.1728 61.6489 78.2507 61.3202 78.5662 61.2545C78.8816 61.1888 79.7229 61.1362 79.7755 61.4123C79.8281 61.6883 78.9868 61.9512 78.461 62.1221C77.9352 62.293 77.002 62.569 77.002 62.569V62.7793C77.002 62.7793 78.2376 62.569 78.6976 62.4507C79.1577 62.3324 79.9069 62.0958 80.0121 62.2798C80.1173 62.4638 80.4459 62.7399 79.1314 63.1999C77.8169 63.66 76.8179 63.8703 76.7916 63.9623C76.7653 64.0544 76.6996 64.2778 76.7916 64.3172C76.8836 64.3567 76.9888 64.4093 77.7118 64.1989C78.2832 63.9845 78.867 63.8046 79.46 63.66C79.5915 63.66 79.9464 63.8309 79.5915 64.1464C78.7422 64.7068 77.7978 65.1076 76.8048 65.3294C76.2396 65.29 74.1101 61.6489 74.1101 61.6489Z" fill="#D9A782"/>
<path d="M78.1981 65.842L77.7775 66.4204L88.9111 61.4648L89.3317 60.8996L78.1981 65.842Z" fill="#AEC5D2"/>
<path d="M71.652 50.4758L77.7774 66.4204L78.1981 65.842L72.0726 49.8975L71.652 50.4758Z" fill="#AEC5D2"/>
<path d="M72.0726 49.8975L78.1981 65.842L89.3317 60.8996L82.8908 45.77L72.0726 49.8975Z" fill="#C7DEEB"/>
<path d="M85.7827 124.586C83.811 125.9 82.2862 130.015 81.8392 131.066C81.7372 131.432 81.4998 131.746 81.1752 131.944C80.8507 132.141 80.4631 132.208 80.091 132.131C79.7229 131.973 80.6956 131.526 80.6956 131.526C80.9916 129.989 81.0669 128.418 80.9191 126.86C80.9197 125.312 81.0649 123.767 81.3529 122.246C81.5238 120.564 81.4843 114.057 81.4843 114.057H87.2549C87.2549 114.057 86.7291 116.081 86.3742 118.395C86.0193 120.708 85.7827 124.586 85.7827 124.586Z" fill="#B3815C"/>
<path opacity="0.5" d="M85.7826 124.586C84.7797 125.392 83.9748 126.417 83.4297 127.583C83.2719 125.532 83.2194 122.811 83.2194 122.811L86.1243 120.498C85.914 122.522 85.7826 124.586 85.7826 124.586Z" fill="#B0795B"/>
<path d="M93.0911 124.875C93.1419 125.347 93.3091 125.798 93.5775 126.19C91.3954 126.728 90.541 129.712 90.3044 130.646C90.0678 131.579 89.6472 132.433 89.266 132.381C88.8848 132.328 89.1871 131.881 89.3843 131.697C89.5815 131.513 89.5552 131.066 89.5552 131.066C89.6393 129.941 89.5417 128.809 89.266 127.714C89.0918 126.593 89.017 125.458 89.0425 124.323C88.7355 122.854 88.3539 121.402 87.8989 119.972C87.5572 118.658 86.5845 113.952 86.5845 113.952L94.2873 113.413C94.3313 114.816 94.1809 116.218 93.8404 117.58C93.2974 119.972 93.0459 122.422 93.0911 124.875Z" fill="#B3815C"/>
<path d="M93.6564 126.084C94.3477 126.435 94.9887 126.877 95.5624 127.399C95.9197 127.658 96.1703 128.039 96.267 128.469C96.3638 128.9 96.3002 129.351 96.0881 129.739C95.6276 130.801 95.3904 131.946 95.3915 133.104C95.5361 134.182 95.9173 136.219 95.9173 136.219L95.7069 136.429C95.5468 136.406 95.3886 136.371 95.2337 136.324C94.963 135.002 94.5211 133.72 93.9193 132.512C93.7729 132.35 93.5904 132.224 93.3865 132.145C93.1826 132.066 92.963 132.037 92.7454 132.058C92.5279 132.08 92.3185 132.153 92.1342 132.27C91.9499 132.388 91.7959 132.547 91.6847 132.736C90.8697 133.735 89.358 135.365 88.5168 135.286C87.6755 135.207 86.6239 133.695 86.2296 132.736C85.8352 131.776 85.8484 131.421 86.5976 131.171C87.5733 131.037 88.5572 130.971 89.5421 130.974C89.5421 130.974 89.5421 131.421 89.3712 131.605C89.2003 131.789 88.8585 132.236 89.2529 132.289C89.6472 132.341 90.0547 131.513 90.2913 130.554C90.5279 129.594 91.4218 126.571 93.6564 126.084Z" fill="#001135"/>
<path d="M91.6977 132.762C91.801 132.589 91.9406 132.44 92.1069 132.326C92.2732 132.213 92.4622 132.136 92.6609 132.102C92.8595 132.069 93.0632 132.078 93.2577 132.131C93.4523 132.184 93.6331 132.278 93.7877 132.407C93.1039 133.222 92.3072 133.934 91.4217 134.523C90.6323 135.015 89.7225 135.279 88.7927 135.286C89.9507 134.691 90.9474 133.825 91.6977 132.762Z" fill="#00001C"/>
<path d="M86.6108 131.185C87.5864 131.05 88.5703 130.985 89.5552 130.987C89.5691 131.172 89.5375 131.357 89.4632 131.526C89.3511 131.624 89.2614 131.745 89.2003 131.881C89.2003 132 89.2003 132.118 89.2003 132.17C89.2667 132.995 89.5477 133.788 90.0152 134.471C89.6345 134.871 89.1295 135.13 88.5825 135.207C87.7543 135.128 86.6896 133.616 86.2953 132.657C85.9009 131.697 85.8615 131.369 86.6108 131.185Z" fill="#001135"/>
<path d="M97.9678 73.742C97.9678 73.742 100.36 79.7623 99.9001 83.4823C99.7787 84.837 99.2707 86.1284 98.4364 87.2027C97.6022 88.277 96.4768 89.089 95.1942 89.542C93.3262 92.4549 91.7332 95.5353 90.4359 98.7433C89.2134 102.398 87.1497 115.739 86.8999 118.198C86.6502 120.656 86.2427 123.731 86.2427 123.731C84.2543 124.236 82.2274 124.575 80.1829 124.744C80.1829 124.744 81.3791 115.463 80.827 110.692C80.275 105.92 78.8553 101.937 78.6844 99.9658C78.8539 97.1344 79.5821 94.3646 80.827 91.816C81.6815 90.3044 90.9616 74.7279 90.9616 74.7279L97.9678 73.742Z" fill="#003E96"/>
<path d="M94.2873 74.9251C95.0827 77.6897 95.3722 80.5753 95.1417 83.4429C94.8525 88.4904 92.3287 89.7655 92.3287 89.7655C92.3287 89.7655 92.6179 95.3257 92.4733 98.8091C92.3287 102.292 92.3287 104.948 92.9596 106.696C93.9795 109.316 94.5183 112.1 94.5502 114.911C94.3924 117.908 93.3671 122.798 94.1032 125.177C92.9597 125.9 91.7269 126.47 90.4359 126.873C89.8985 127.051 89.3305 127.118 88.7665 127.07C88.6823 124.854 88.374 122.652 87.8463 120.498C87.0971 118.198 85.9929 110.468 85.0728 107.432C84.1527 104.396 80.3275 93.6958 79.8149 89.0294C79.3023 84.363 81.6683 74.0838 81.6683 74.0838L94.2873 74.9251Z" fill="#0F57AF"/>
<path d="M95.628 46.6376C96.8274 46.1029 98.1566 45.9293 99.4531 46.1381C101.491 46.5324 101.819 48.7013 101.569 51.6588C101.32 54.6164 98.9405 62.1747 97.9283 64.935C97.1946 66.4501 96.9954 68.169 97.3631 69.8117C97.6129 71.0474 99.9921 78.5661 99.9921 78.5661C99.9921 78.5661 99.532 79.5126 93.8403 81.1031C86.6764 83.1142 80.6956 82.4176 79.7754 80.7482L82.1021 72.7562C82.1021 72.7562 82.5227 67.1039 82.4307 66.6439C82.3387 66.1838 79.7097 63.1736 79.6308 60.8865C79.552 58.5993 83.3771 53.6043 83.3771 53.6043L86.006 52.1189C86.006 52.1189 94.5238 48.6356 95.628 46.6376Z" fill="#367ED6"/>
<path d="M79.736 80.7482L82.0626 72.7562C82.0626 72.7562 82.4833 67.1039 82.3913 66.6439C82.2992 66.1838 79.6703 63.1737 79.5914 60.8865C79.5914 59.572 80.6824 57.5477 81.7209 55.9309L86.9788 58.1129C86.9788 58.1129 88.2933 61.5437 89.0031 63.9886C89.7129 66.4336 92.6179 70.7582 91.9606 72.559C91.4348 74.0049 89.2134 78.5399 88.9505 82.1152C84.1264 82.8119 80.4196 82.0495 79.736 80.7482Z" fill="#1D65BD"/>
<path d="M87.1628 50.8176C87.4368 49.3264 87.4944 47.8035 87.3337 46.2958C86.9656 44.9813 86.5582 44.7842 86.0192 44.6001C85.4803 44.4161 84.7047 44.6001 83.9161 42.5233C83.4683 41.3285 83.3237 40.0413 83.4954 38.777C83.3449 38.0265 83.3449 37.2535 83.4954 36.503C83.732 35.7011 84.3104 32.691 86.8079 31.9023C87.9459 31.5293 89.1506 31.4043 90.341 31.5358C91.5314 31.6673 92.6798 32.0523 93.7089 32.6647C94.5196 33.3376 95.1497 34.202 95.5422 35.1798C95.9347 36.1575 96.0771 37.2177 95.9567 38.2644C95.7069 40.5121 94.353 41.7872 94.169 43.312C94.1238 44.9936 94.5815 46.6504 95.4834 48.0704C96.2853 49.3848 94.169 50.8176 92.8545 51.2908C90.9682 51.8821 88.9255 51.7123 87.1628 50.8176Z" fill="#FFCDA8"/>
<path d="M86.3215 42.6153C86.5197 41.6071 86.6645 40.5891 86.7553 39.5657L89.3054 41.9317C89.3054 41.9317 88.5167 47.5577 89.8969 50.1735C90.02 50.3945 90.0847 50.6434 90.0847 50.8964C90.0847 51.1495 90.02 51.3984 89.8969 51.6194C88.9481 51.5226 88.0255 51.2507 87.1759 50.8176C87.4499 49.3264 87.5074 47.8034 87.3468 46.2958C86.9787 44.9813 86.5712 44.7841 86.0323 44.6001C85.7284 44.5387 85.4328 44.4416 85.1516 44.3109C85.4507 44.1216 85.7085 43.8738 85.9096 43.5825C86.1106 43.2911 86.2507 42.9621 86.3215 42.6153Z" fill="#D9A782"/>
<path d="M86.0192 42.7599C86.0981 42.9176 87.1103 43.1148 87.1234 41.314C87.1365 39.5131 85.9798 38.9873 85.8878 40.2887C85.8287 41.1147 85.8729 41.9448 86.0192 42.7599Z" fill="#F2A983"/>
<path d="M82.9434 34.9913C83.4166 32.9013 85.8352 28.8264 93.1043 31.2582C94.4711 31.9276 95.5897 33.0142 96.2985 34.361C97.0074 35.7078 97.2697 37.245 97.0477 38.7507C96.7853 40.2888 96.2795 41.7753 95.5492 43.1542C95.124 44.0615 94.8191 45.0204 94.6422 46.0066C93.9624 46.4712 93.1786 46.7611 92.36 46.8505C91.5415 46.9399 90.7136 46.8261 89.9495 46.5192C89.7146 46.4089 89.5123 46.2395 89.3625 46.0275C89.2127 45.8155 89.1206 45.5682 89.0951 45.3099C88.9643 45.4958 88.8145 45.6676 88.6482 45.8226C88.6597 45.1822 88.6377 44.5416 88.5825 43.9034C88.503 44.3392 88.3377 44.7547 88.0961 45.1259C88.2358 44.4097 88.2358 43.6732 88.0961 42.957C87.9705 43.4056 87.7509 43.8222 87.452 44.1795C87.632 43.7007 87.7212 43.1925 87.7149 42.681C87.3525 43.0505 86.8991 43.318 86.4004 43.4565C86.7072 42.6054 86.9231 41.7241 87.0445 40.8276C86.6799 41.816 86.1656 42.7425 85.5197 43.5748C85.9978 42.5955 86.3257 41.5497 86.4924 40.4727C86.1812 40.9903 85.8295 41.4825 85.4409 41.9449C85.7241 41.3741 85.8596 40.7414 85.8352 40.1046C85.6867 40.3779 85.4909 40.6227 85.2568 40.8276C85.3535 40.3593 85.3535 39.8762 85.2568 39.4079C85.1679 39.8776 84.9166 40.301 84.547 40.6041C84.5867 39.5092 84.2834 38.4292 83.6795 37.5151C83.6764 38.2796 83.8956 39.0286 84.3104 39.6708C83.8691 39.3103 83.5067 38.8629 83.2457 38.3564L83.1668 38.6587C82.7013 37.4918 82.623 36.2061 82.9434 34.9913Z" fill="#412999"/>
<path d="M87.4126 44.2058C87.5926 43.727 87.6818 43.2188 87.6755 42.7073C87.3131 43.0769 86.8597 43.3444 86.361 43.4828C86.6678 42.6317 86.8837 41.7505 87.0051 40.8539C86.6405 41.8423 86.1262 42.7688 85.4803 43.6011C85.9584 42.6218 86.2863 41.576 86.453 40.499C86.1532 41.0062 85.8149 41.4896 85.4409 41.9449C85.7241 41.3741 85.8597 40.7414 85.8352 40.1046C85.6867 40.3779 85.4909 40.6227 85.2569 40.8276C85.3536 40.3593 85.3536 39.8762 85.2569 39.408C85.1679 39.8776 84.9166 40.301 84.547 40.6041C84.5868 39.5092 84.2835 38.4293 83.6795 37.5151C83.6764 38.2797 83.8956 39.0286 84.3104 39.6709C83.8691 39.3104 83.5067 38.8629 83.2457 38.3564L83.1669 38.6587C82.7015 37.5449 82.5914 36.3147 82.8514 35.1359C82.7548 36.0304 82.886 36.9347 83.2326 37.7649C83.146 37.2563 83.1774 36.7346 83.3246 36.2401C83.6751 36.7758 83.9828 37.3384 84.2447 37.9226C84.5206 38.5274 84.7236 39.1628 84.8494 39.8155C84.8494 39.8155 84.3236 36.963 84.5339 37.1865C84.7442 37.41 86.3084 39.3291 86.085 40.2755C86.1756 39.6445 86.2108 39.0067 86.1901 38.3695C86.7891 39.4683 87.118 40.6939 87.1497 41.9449C87.4114 41.4629 87.5214 40.9131 87.4652 40.3675C88.1791 41.5365 88.6944 42.8157 88.99 44.1532L89.174 43.2199C89.1961 44.4187 89.4787 45.5983 90.0021 46.677L89.8181 46.585C89.5831 46.4747 89.3809 46.3052 89.2311 46.0932C89.0813 45.8813 88.9892 45.634 88.9637 45.3757C88.8328 45.5616 88.6831 45.7334 88.5168 45.8883C88.5283 45.2479 88.5063 44.6073 88.451 43.9692C88.3716 44.4049 88.2063 44.8205 87.9647 45.1917C88.1044 44.4754 88.1044 43.739 87.9647 43.0228C87.8616 43.4501 87.6739 43.8524 87.4126 44.2058Z" fill="#341C72"/>
<path d="M89.0688 44.5738L89.7786 43.0885C89.8717 43.6629 90.1066 44.2051 90.4622 44.6658L90.2781 43.4828C90.507 43.9142 90.7754 44.3235 91.08 44.7053V43.7589L91.5663 44.7447C91.7778 44.4959 91.9426 44.2109 92.0527 43.9034L92.1973 44.9024C92.1973 44.9024 93.3409 44.2584 93.5117 43.4302C93.6297 43.7992 93.6743 44.1877 93.6432 44.5738C93.9636 43.7063 94.3549 42.8666 94.8131 42.0632C95.305 41.3473 95.6285 40.5295 95.7595 39.6708C95.818 40.2424 95.7825 40.8196 95.6543 41.3797C96.0121 40.2192 96.1153 38.9951 95.9567 37.7911C96.3397 37.8166 96.7145 37.9147 97.0608 38.0803C97.0739 38.3036 97.0739 38.5274 97.0608 38.7507C96.7985 40.2888 96.2926 41.7753 95.5623 43.1542C95.1326 44.0609 94.8233 45.0198 94.6422 46.0066C93.9624 46.4712 93.1786 46.7611 92.36 46.8505C91.5415 46.9399 90.7136 46.8261 89.9495 46.5192C89.7146 46.4089 89.5123 46.2395 89.3625 46.0275C89.2127 45.8155 89.1206 45.5682 89.0951 45.3099L89.0162 45.4019L89.0688 44.5738Z" fill="#341C72"/>
<path d="M93.6694 46.5192C94.0115 45.0032 94.523 43.5305 95.1942 42.1289L95.1154 43.4434C95.1154 43.4434 95.3388 42.7335 96.1538 40.3938C96.5643 38.7697 96.3287 37.0497 95.4966 35.5959C95.949 36.0119 96.2497 36.5671 96.351 37.1733C96.3195 36.3486 96.077 35.5457 95.6467 34.8415C95.2163 34.1373 94.6125 33.5552 93.8929 33.151C94.5721 33.35 95.1705 33.7597 95.6017 34.3209C95.2285 33.3588 94.6902 32.4691 94.0112 31.692C95.1011 32.4845 95.9579 33.5553 96.4921 34.7925C97.0263 36.0297 97.2182 37.3877 97.0476 38.7244C96.7853 40.2625 96.2794 41.749 95.5491 43.1279C95.1218 44.0435 94.8169 45.0114 94.6421 46.0066C94.3367 46.211 94.0107 46.3828 93.6694 46.5192Z" fill="#341C72"/>
<path d="M94.0638 46.9924C91.6562 47.9416 89.3039 49.0255 87.0182 50.2392L85.8615 52.04C85.8615 52.04 91.4874 52.6053 94.8262 50.7256C98.8747 48.5041 96.8767 47.1765 96.8767 47.1765L95.7069 46.2958L94.0638 46.9924Z" fill="#5098F0"/>
<path d="M85.8221 124.56C86.5933 124.88 87.291 125.354 87.8727 125.953C88.1417 126.374 88.3214 126.845 88.4005 127.338C88.4797 127.831 88.4566 128.335 88.3327 128.819C88.0858 129.936 87.9711 131.079 87.991 132.223C88.0698 133.13 88.4247 135.325 88.4247 135.325H87.8858C87.8858 135.325 87.2943 130.974 86.5713 130.725C85.8484 130.475 84.9677 130.448 84.1396 131.802C83.3114 133.156 81.9444 135.233 80.3407 134.957C78.7371 134.681 77.0808 132.696 77.3437 132.328C77.6066 131.96 80.8139 131.618 80.8139 131.618C80.8139 131.618 79.8412 132.065 80.2093 132.223C80.5814 132.3 80.9689 132.233 81.2935 132.036C81.6181 131.838 81.8555 131.524 81.9575 131.158C82.2861 130.015 83.8241 125.861 85.8221 124.56Z" fill="#0D1E42"/>
<path d="M84.1264 131.776C84.8757 130.567 85.5987 130.462 86.2953 130.633C85.8446 131.711 85.2034 132.699 84.4025 133.551C83.3569 134.307 82.135 134.782 80.8534 134.931C82.1679 134.76 83.3246 132.985 84.1264 131.776Z" fill="#00001C"/>
<path d="M77.1071 65.7237C76.9463 65.169 76.8753 64.5921 76.8968 64.0149C77.0019 63.4628 77.7117 60.6367 77.7775 59.9926C77.8432 59.3485 77.6723 58.5861 77.2122 58.5467C76.7522 58.5072 76.5681 59.8612 76.4367 60.4264C76.3052 60.9916 76.0029 61.3597 75.6349 61.2939C75.2668 61.2282 74.4518 60.8339 73.9523 61.0705C73.7321 61.1833 73.5549 61.3653 73.4481 61.5885C73.3412 61.8117 73.3106 62.0638 73.3608 62.3061C73.3521 62.8081 73.4368 63.3073 73.6106 63.7783C73.8603 64.2646 74.1626 65.6974 74.2941 65.934C74.4255 66.1706 75.5034 67.6428 75.5034 67.6428L77.1071 65.7237Z" fill="#FFCDA8"/>
<path d="M75.0434 54.3404C75.0434 54.2089 74.9514 54.0906 74.5044 54.0643C74.0575 54.038 72.3619 53.7751 72.1384 54.0643C71.9149 54.3535 71.8624 54.7347 72.1384 54.8924C72.8277 54.984 73.526 54.984 74.2153 54.8924C74.4782 54.8661 75.0434 54.7347 75.0434 54.3404Z" fill="#FFCDA8"/>
<path d="M75.7268 55.4051C75.7268 55.1553 75.4639 54.9976 74.8067 55.129C74.1495 55.2605 71.9543 55.5102 72.0726 56.2201C72.1909 56.9299 72.743 56.8116 73.0322 56.7459C73.3213 56.6801 75.201 55.9966 75.3719 55.944C75.4741 55.8945 75.561 55.8182 75.6235 55.7234C75.686 55.6285 75.7217 55.5186 75.7268 55.4051Z" fill="#FFCDA8"/>
<path d="M75.9241 56.3384C75.8135 56.2216 75.67 56.1414 75.5125 56.1085C75.3551 56.0756 75.1914 56.0916 75.0434 56.1544C74.2066 56.3738 73.3958 56.6822 72.6247 57.0745C72.5526 57.1809 72.5209 57.3097 72.5354 57.4374C72.5499 57.5652 72.6095 57.6835 72.7036 57.7712C73.1468 57.8439 73.6014 57.7939 74.0181 57.6266C74.4519 57.482 76.2395 56.759 75.9241 56.3384Z" fill="#FFCDA8"/>
<path d="M75.832 57.7449C75.74 57.5608 75.4771 57.6265 75.0433 57.8237C74.6095 58.0209 73.5317 58.4284 73.5843 58.6913C73.6368 58.9542 73.8603 59.1119 74.2415 59.033C74.6227 58.9542 76.108 58.3232 75.832 57.7449Z" fill="#FFCDA8"/>
<path d="M86.7553 57.2059C86.361 55.8915 84.5602 52.9602 83.1011 53.7357C81.642 54.5113 80.9585 56.0492 81.2608 59.4011C81.5632 62.753 82.1153 70.2981 82.1153 70.2981L77.1071 65.3294C77.1071 65.3294 74.4782 65.3294 75.1354 68.5498C75.1354 68.5498 80.8796 76.5681 81.6158 77.4751C82.3519 78.3821 85.5592 80.2618 86.4399 78.1981C87.3206 76.1344 88.1881 62.1878 86.7553 57.2059Z" fill="#367ED6"/>
<path d="M75.4377 66.197C75.6362 65.9397 75.8884 65.7288 76.1767 65.5789C76.465 65.4291 76.7825 65.3439 77.1071 65.3294L82.089 70.2981C82.089 70.2981 82.4176 74.5044 81.9575 74.373C79.6417 71.7644 77.4654 69.0353 75.4377 66.197Z" fill="#5098F0"/>
</g>
<defs>
<linearGradient id="paint0_linear_6_2145" x1="0" y1="138.191" x2="175.246" y2="138.191" gradientUnits="userSpaceOnUse">
<stop offset="0.4" stop-color="#044CA4"/>
<stop offset="0.56" stop-color="#1D65BD"/>
</linearGradient>
<clipPath id="clip0_6_2145">
<rect width="175.246" height="171" fill="white"/>
</clipPath>
</defs>
</svg>
