<svg width="55" height="45" viewBox="0 0 55 45" fill="none" xmlns="http://www.w3.org/2000/svg">
<g clip-path="url(#clip0_171_309)">
<path d="M55 0.670273C54.8512 1.31771 54.7162 1.96869 54.5506 2.61208C53.8117 5.48256 52.6142 8.15678 51.0345 10.6686C49.918 12.4486 48.6278 14.094 47.1031 15.5477C45.4302 17.144 43.5687 18.4622 41.3368 19.1931C40.5021 19.4667 39.6384 19.6868 38.767 19.6357C37.0971 19.5375 35.5174 19.1228 34.2109 17.9973C34.032 17.8431 33.9703 17.9012 33.8796 18.0661C33.1591 19.3812 32.6827 20.7768 32.4019 22.2431C32.2607 23.0125 32.1649 23.7894 32.115 24.5699C31.9759 24.1445 31.9315 23.7024 31.8933 23.2644C31.7771 21.9356 31.7756 20.6083 32.0324 19.2912C32.2174 18.3428 32.5089 17.4324 32.996 16.5902C33.0694 16.4632 33.152 16.3484 32.9695 16.228C32.2016 15.7222 31.7776 14.9802 31.7068 14.1036C31.5641 12.3272 31.6813 10.5675 32.4452 8.91449C33.1239 7.44764 34.2797 6.4087 35.6265 5.56096C37.7937 4.19831 40.1892 3.46994 42.6933 3.03949C44.0732 2.80227 45.4694 2.70616 46.857 2.53672C48.9376 2.28381 50.9183 1.68898 52.8119 0.798749C53.3485 0.545843 53.8672 0.255507 54.4283 0.0582411C54.6321 -0.0145957 54.8451 -0.0560722 55 0.164967V0.670273Z" fill="#95D63D"/>
<path d="M28.6319 33.2648C29.7163 33.6745 30.7558 34.1535 31.8142 34.5855C32.9501 35.0488 34.1359 35.2637 35.3553 35.3305C37.7829 35.4635 40.1815 35.201 42.5617 34.764C44.1623 34.4701 45.5325 33.72 46.7214 32.6092C47.8547 31.5501 49.1724 30.8131 50.7312 30.5506C51.7183 30.3842 52.6401 30.5243 53.4732 31.1004C53.9319 31.4186 54.1744 31.8662 54.2294 32.4155C54.258 32.7003 54.1464 32.9446 53.9874 33.1692C53.8203 33.4131 53.629 33.6396 53.4162 33.8454C53.3046 33.9502 53.3229 33.9972 53.4671 34.0407C53.8778 34.1727 54.1994 34.4039 54.2677 34.8621C54.3074 35.1282 54.2289 35.3801 54.1148 35.6208C53.9522 35.9688 53.7071 36.2617 53.4523 36.5404C52.451 37.6158 51.3187 38.5379 50.0978 39.3547C48.726 40.2723 47.3634 41.203 45.9815 42.1043C45.1152 42.6693 44.176 43.0972 43.135 43.1999C41.8513 43.3269 40.5784 43.5176 39.3055 43.7159C37.63 43.9763 35.9561 44.2464 34.2801 44.5004C32.7885 44.7265 31.2975 44.944 29.7846 44.9971C28.743 45.034 27.7652 44.8226 26.8112 44.4351C25.3895 43.8568 23.9844 43.2416 22.596 42.5894C19.9197 41.3335 17.2536 40.0558 14.5784 38.7958C13.2285 38.161 11.8669 37.551 10.3947 37.2359C9.94758 37.1373 9.49306 37.0751 9.03571 37.0498C8.29988 37.0144 7.81527 36.5359 7.801 35.8065C7.79336 35.419 7.801 35.0316 7.801 34.6431C7.801 31.4774 7.801 28.3114 7.801 25.145C7.801 24.4632 8.07414 24.1147 8.73455 23.9133C10.6271 23.3372 12.5487 22.8855 14.5106 22.6139C15.6272 22.4604 16.7509 22.3631 17.8773 22.3226C19.5289 22.2614 21.1641 22.3544 22.7841 22.6812C24.3724 23.0014 25.8869 23.5411 27.3478 24.231C27.9909 24.5345 28.6462 24.8198 29.2659 25.1672C30.2768 25.7343 31.3796 25.9098 32.5078 26.0271C34.5884 26.2456 36.6863 26.3271 38.7506 26.6811C40.1051 26.9152 41.4355 27.2707 42.7253 27.7433C44.6469 28.4439 44.9307 30.1814 44.3666 31.6689C44.2223 32.0308 44.0219 32.3681 43.7724 32.6684C43.2481 33.326 42.5179 33.5187 41.7341 33.6158C40.4566 33.7741 39.1796 33.6993 37.9006 33.6305C36.7067 33.5662 35.5173 33.459 34.327 33.3578C33.4744 33.285 32.6229 33.1955 31.7725 33.1004C30.922 33.0053 30.0796 33.1004 29.2368 33.1859C29.0335 33.2061 28.8332 33.2385 28.6319 33.2648Z" fill="#74CB00"/>
<path d="M30.4215 24.2283C30.349 22.8852 30.0116 21.5694 29.4284 20.3553C29.3738 20.242 29.3163 20.1424 29.2144 20.3245C28.8347 21.0033 28.2095 21.3432 27.4792 21.4904C25.418 21.9066 23.4913 21.5809 21.7078 20.4347C20.2937 19.5243 19.2425 18.2982 18.3624 16.8941C16.8276 14.4434 15.783 11.7854 14.9304 9.04184C14.7923 8.60027 14.6405 8.16122 14.5737 7.70094C14.5569 7.58713 14.5151 7.45309 14.6415 7.37823C14.7551 7.31146 14.8525 7.40099 14.9437 7.45713C15.5832 7.8542 16.2079 8.27503 16.901 8.58256C17.8284 8.99429 18.8129 9.13896 19.8101 9.25833C22.1256 9.53298 24.4356 9.84305 26.6894 10.4647C27.7442 10.7555 28.7231 11.1728 29.4763 11.9963C30.475 13.0875 31.0295 14.3689 31.1395 15.8405C31.1705 16.3441 31.1506 16.8496 31.0799 17.3493C30.9968 18.0099 30.7049 18.5349 30.0608 18.8096C29.8748 18.889 29.8671 18.9866 29.9461 19.1636C30.5255 20.4626 30.7049 21.8257 30.58 23.2344C30.5576 23.4873 30.5387 23.7372 30.5143 23.9881C30.5061 24.0665 30.5178 24.156 30.4215 24.2283Z" fill="#95D63D"/>
<path d="M6.23924 30.4544C6.23924 33.0816 6.23924 35.7088 6.23924 38.336C6.23924 39.1281 5.79489 39.5717 4.99435 39.5732C3.74691 39.5762 2.49743 39.5606 1.25254 39.5793C0.524863 39.5899 0 39.0401 0 38.3294C0.0178351 33.075 0.00968193 27.8197 0.00968193 22.5663C0.00968193 21.7666 0.446388 21.3296 1.2454 21.3291C2.50966 21.3291 3.77443 21.3488 5.03817 21.32C5.19802 21.3173 5.35678 21.3466 5.50498 21.4061C5.65319 21.4656 5.78781 21.5541 5.90084 21.6664C6.01386 21.7786 6.10297 21.9123 6.16286 22.0594C6.22275 22.2065 6.25219 22.3641 6.24943 22.5228C6.22395 25.1662 6.23924 27.8106 6.23924 30.4544Z" fill="#74CB00"/>
</g>
<defs>
<clipPath id="clip0_171_309">
<rect width="55" height="45" fill="white"/>
</clipPath>
</defs>
</svg>
