<svg width="131" height="113" viewBox="0 0 131 113" fill="none" xmlns="http://www.w3.org/2000/svg">
<g clip-path="url(#clip0_188_1282)">
<path d="M82.6601 108.43C83.0981 108.687 83.1025 109.103 82.6601 109.359L77.5047 112.363C77.0668 112.619 76.3529 112.615 75.9124 112.363L70.7339 109.338C70.296 109.08 70.2916 108.664 70.7339 108.408L75.8924 105.405C76.3304 105.153 77.0443 105.153 77.4853 105.409L82.6601 108.43Z" fill="#E0E5F8"/>
<path d="M111.822 99.2982C112.595 99.7501 112.598 100.479 111.828 100.928L102.784 106.194C102.015 106.642 100.765 106.639 99.992 106.187L90.9137 100.879C90.1411 100.428 90.1379 99.6984 90.9081 99.2504L99.9513 93.9845C100.721 93.5364 101.972 93.5396 102.744 93.9908L111.822 99.2982Z" fill="#E0E5F8"/>
<path d="M64.635 57.4979C65.6573 58.0953 65.6605 59.0614 64.6419 59.655L52.6682 66.6268C51.649 67.2204 49.9935 67.216 48.9712 66.6186L36.9505 59.5913C35.9275 58.9933 35.9238 58.0272 36.943 57.4342L48.9167 50.4618C49.9359 49.8688 51.5914 49.8726 52.6143 50.4706L64.635 57.4979Z" fill="#E0E5F8"/>
<path d="M27.4268 91.1117C27.8754 91.3738 27.8766 91.7973 27.4299 92.057L22.1819 95.1127C21.7352 95.3724 21.0101 95.3711 20.5615 95.109L15.2929 92.0286C14.8449 91.7664 14.843 91.3436 15.2897 91.0833L20.5377 88.0275C20.9844 87.7673 21.7102 87.7691 22.1588 88.0313L27.4268 91.1117Z" fill="#E0E5F8"/>
<path d="M98.6581 109.791C99.0016 109.991 99.0022 110.315 98.6581 110.514L94.6432 112.852C94.3016 113.051 93.7467 113.049 93.4038 112.852L89.3734 110.496C89.0299 110.295 89.0286 109.972 89.3734 109.772L93.3882 107.435C93.7298 107.236 94.2848 107.237 94.6276 107.435L98.6581 109.791Z" fill="#E0E5F8"/>
<path d="M129.192 67.6142L113.978 76.4665L94.358 87.8836L53.6811 111.551C52.3863 112.305 50.917 112.702 49.4213 112.702C47.9256 112.702 46.4563 112.305 45.1616 111.551L24.3773 99.4123L14.0265 93.3625C13.5053 93.06 13.0747 92.6214 12.7802 92.093C12.4856 91.5647 12.338 90.9661 12.3529 90.3603C12.3677 89.7545 12.5445 89.164 12.8646 88.651C13.1847 88.1379 13.6362 87.7213 14.1717 87.445L34.4579 75.6857L73.6113 52.9906L90.5515 43.171C91.7618 42.5451 93.1084 42.2345 94.4685 42.2675C95.8286 42.3005 97.1588 42.6762 98.3378 43.3601L108.816 49.4547L109.422 49.8082L108.256 50.4875C107.972 50.652 107.737 50.8887 107.573 51.1739C107.409 51.4591 107.323 51.7827 107.323 52.1122C107.323 52.4416 107.409 52.7652 107.573 53.0504C107.737 53.3356 107.972 53.5724 108.256 53.7368C108.999 54.1691 109.842 54.3966 110.7 54.3966C111.558 54.3966 112.401 54.1691 113.144 53.7368L114.66 52.8545L120.406 56.1945L129.192 61.3029C131.603 62.7113 131.603 66.2127 129.192 67.6142Z" fill="#E0E5F8"/>
<path d="M13.3095 81.1357L13.3195 77.7119L130.046 52.29V55.3307C130.046 55.9019 129.897 56.463 129.613 56.9576C129.329 57.4522 128.922 57.8629 128.43 58.1483L54.323 101.246C52.942 102.049 51.3754 102.472 49.7808 102.472C48.1861 102.472 46.6196 102.049 45.2385 101.246L14.6334 83.4485C14.2304 83.2142 13.8958 82.8771 13.6634 82.471C13.431 82.065 13.3089 81.6044 13.3095 81.1357Z" fill="#1D1C1A"/>
<path d="M90.2493 31.475L15.0964 75.0388C12.7765 76.2361 12.6958 79.549 14.9538 80.8624L45.5901 98.7547C46.8645 99.4963 48.3103 99.8867 49.782 99.8867C51.2538 99.8867 52.6996 99.4963 53.9739 98.7547L128.27 55.5237C130.641 54.1442 130.641 50.6977 128.27 49.3188L97.9086 31.6647C96.7493 30.9909 95.4409 30.6205 94.1029 30.5874C92.7649 30.5543 91.44 30.8594 90.2493 31.475Z" fill="#1D1C1A"/>
<path opacity="0.2" d="M90.2493 31.475L15.0964 75.0388C12.7765 76.2361 12.6958 79.549 14.9538 80.8624L45.5901 98.7547C46.8645 99.4963 48.3103 99.8867 49.782 99.8867C51.2538 99.8867 52.6996 99.4963 53.9739 98.7547L128.27 55.5237C130.641 54.1442 130.641 50.6977 128.27 49.3188L97.9086 31.6647C96.7493 30.9909 95.4409 30.6205 94.1029 30.5874C92.7649 30.5543 91.44 30.8594 90.2493 31.475Z" fill="url(#paint0_linear_188_1282)"/>
<path d="M125.841 55.9389L111.514 64.2757L93.0347 75.028L54.7303 97.3166C53.511 98.0267 52.1274 98.4006 50.7189 98.4006C49.3105 98.4006 47.9269 98.0267 46.7076 97.3166L27.134 85.8849L17.3857 80.1918C16.8947 79.9069 16.4891 79.4939 16.2117 78.9963C15.9343 78.4987 15.7952 77.9349 15.8093 77.3644C15.8233 76.7938 15.9899 76.2377 16.2914 75.7545C16.593 75.2714 17.0183 74.8791 17.5227 74.619L36.6264 63.5428L73.4987 42.1699L89.4529 32.9219C90.5928 32.3328 91.8611 32.0406 93.142 32.0721C94.4228 32.1036 95.6754 32.4577 96.7855 33.1021L106.653 38.8412L107.224 39.1746L106.125 39.8143C105.858 39.9689 105.636 40.1918 105.482 40.4603C105.328 40.7289 105.246 41.0337 105.246 41.344C105.246 41.6543 105.328 41.9592 105.482 42.2277C105.636 42.4963 105.858 42.7192 106.125 42.8738C106.825 43.2813 107.619 43.4958 108.427 43.4958C109.236 43.4958 110.03 43.2813 110.729 42.8738L112.157 42.0432L117.568 45.1891L125.842 50C128.111 51.3221 128.111 54.6193 125.841 55.9389Z" fill="url(#paint1_linear_188_1282)"/>
<path d="M107.189 42.0634C106.509 41.6677 106.509 41.0205 107.189 40.6247C107.87 40.2289 108.983 40.2296 109.662 40.6247C110.342 41.0198 110.342 41.6677 109.662 42.0634C108.982 42.4592 107.87 42.4586 107.189 42.0634Z" fill="#64645C"/>
<path d="M100.31 72.5587L94.7415 75.7954C94.5895 75.8838 94.4632 76.0109 94.3753 76.164C94.2875 76.3171 94.2411 76.4908 94.241 76.6676C94.2409 76.7399 94.2597 76.8109 94.2956 76.8736C94.3314 76.9362 94.383 76.9883 94.4452 77.0244C94.5073 77.0606 94.5779 77.0796 94.6497 77.0796C94.7214 77.0796 94.792 77.0605 94.8541 77.0243L100.422 73.787C100.574 73.6986 100.701 73.5716 100.788 73.4186C100.876 73.2657 100.923 73.0921 100.923 72.9154C100.923 72.8431 100.904 72.7721 100.868 72.7094C100.832 72.6468 100.781 72.5947 100.719 72.5586C100.657 72.5224 100.586 72.5034 100.514 72.5034C100.442 72.5034 100.372 72.5225 100.31 72.5587Z" fill="#64645C"/>
<path d="M113.49 64.8215L102.811 71.0308C102.609 71.148 102.441 71.3167 102.325 71.52C102.208 71.7232 102.147 71.9538 102.147 72.1884C102.147 72.2414 102.161 72.2934 102.187 72.3393C102.213 72.3851 102.251 72.4232 102.296 72.4497C102.342 72.4762 102.394 72.4902 102.446 72.4902C102.499 72.4903 102.55 72.4764 102.596 72.45L113.806 65.9325C113.927 65.8623 114.028 65.7613 114.098 65.6396C114.168 65.518 114.205 65.38 114.206 65.2393C114.206 65.1547 114.185 65.0714 114.143 64.998C114.101 64.9245 114.041 64.8634 113.968 64.821C113.896 64.7786 113.813 64.7563 113.729 64.7563C113.645 64.7564 113.562 64.7789 113.49 64.8215Z" fill="#64645C"/>
<path d="M125.771 57.688L115.091 63.9011C114.89 64.0183 114.722 64.187 114.605 64.3902C114.489 64.5935 114.428 64.824 114.428 65.0587C114.428 65.1117 114.442 65.1637 114.468 65.2095C114.494 65.2554 114.532 65.2935 114.577 65.32C114.623 65.3465 114.675 65.3605 114.727 65.3605C114.78 65.3605 114.831 65.3467 114.877 65.3202L126.086 58.8028C126.207 58.7326 126.308 58.6316 126.378 58.5099C126.448 58.3883 126.485 58.2502 126.485 58.1096C126.486 58.0249 126.465 57.9415 126.424 57.8678C126.382 57.7941 126.322 57.7327 126.25 57.6899C126.177 57.6471 126.094 57.6244 126.01 57.624C125.926 57.6237 125.844 57.6458 125.771 57.688Z" fill="#64645C"/>
<path d="M22.8364 86.1944L33.5156 92.4037C33.7175 92.5209 33.8851 92.6897 34.0016 92.8929C34.1182 93.0961 34.1795 93.3267 34.1795 93.5614C34.1794 93.6143 34.1656 93.6663 34.1393 93.7122C34.113 93.7581 34.0752 93.7962 34.0297 93.8226C33.9842 93.8491 33.9326 93.8631 33.88 93.8632C33.8275 93.8632 33.7758 93.8493 33.7302 93.8229L22.5191 87.3055C22.3981 87.2353 22.2975 87.1343 22.2275 87.0127C22.1574 86.891 22.1203 86.7529 22.12 86.6123C22.1193 86.5275 22.1409 86.4442 22.1827 86.3706C22.2244 86.297 22.2847 86.2359 22.3575 86.1935C22.4303 86.151 22.513 86.1287 22.5971 86.1289C22.6812 86.1291 22.7637 86.1517 22.8364 86.1944Z" fill="#64645C"/>
<path opacity="0.2" d="M127.535 53.2149C127.498 53.7747 127.325 54.3165 127.029 54.792C126.734 55.2675 126.326 55.6619 125.842 55.9399L93.0347 75.0277L27.1346 85.8871L17.385 80.1921C17.3275 80.1593 17.2705 80.1221 17.2155 80.085C17.1776 80.0623 17.1414 80.0368 17.1072 80.0087C17.0765 79.9896 17.0471 79.9686 17.019 79.9457C17.0141 79.9422 17.0094 79.9382 17.0053 79.9337C16.9558 79.8969 16.9088 79.8569 16.8645 79.814C16.8479 79.8029 16.8328 79.7898 16.8194 79.7749C16.7825 79.7421 16.7475 79.7119 16.7131 79.6722C16.7007 79.6622 16.6897 79.6506 16.6805 79.6375C16.6472 79.606 16.6158 79.5723 16.5867 79.5367C16.5623 79.5096 16.5398 79.4831 16.5173 79.4541C16.507 79.4437 16.4979 79.4321 16.4904 79.4195C16.4608 79.3857 16.4337 79.3499 16.409 79.3124C16.2621 79.1118 16.1406 78.8935 16.0474 78.6626C16.0249 78.6072 16.0023 78.5517 15.9848 78.4937C15.9686 78.4465 15.9523 78.3973 15.9398 78.3501C15.9333 78.3325 15.9279 78.3147 15.9235 78.2965C15.9135 78.2637 15.9054 78.2303 15.8991 78.1994C15.8893 78.1645 15.8817 78.1289 15.8766 78.0929C15.8679 78.0582 15.861 78.0231 15.8559 77.9877C15.8538 77.9784 15.8525 77.9689 15.8522 77.9593C15.8415 77.9077 15.8359 77.8541 15.8297 77.803C15.7548 77.1621 15.877 76.5134 16.1796 75.9446C16.4822 75.3758 16.9508 74.9141 17.5221 74.6218L36.6258 63.5463L117.567 45.1895L125.84 50.0003C126.396 50.3196 126.85 50.7911 127.15 51.3602C127.45 51.9293 127.584 52.5724 127.535 53.2149Z" fill="url(#paint2_linear_188_1282)"/>
<g opacity="0.38">
<path d="M94.6364 50.5237C102.764 55.2502 102.807 62.9145 94.7315 67.6416C86.6555 72.3687 73.5218 72.368 65.3927 67.6416C57.2636 62.9152 57.2217 55.2508 65.297 50.5244C73.3723 45.7979 86.5079 45.7967 94.6364 50.5237Z" fill="white"/>
</g>
<g opacity="0.38">
<path d="M91.7021 52.2429C98.1982 56.0209 98.2326 62.147 91.7778 65.9249C85.3229 69.7029 74.8225 69.7061 68.3276 65.9249C61.8327 62.1438 61.7964 56.0196 68.2507 52.2429C74.7049 48.4662 85.2046 48.4618 91.7021 52.2429Z" fill="white"/>
</g>
<g opacity="0.67">
<path d="M89.1 52.9254C94.1496 55.8621 94.1765 60.6238 89.1588 63.5611C84.141 66.4984 75.98 66.4978 70.9297 63.5611C65.8795 60.6244 65.8526 55.8621 70.8672 52.9254C75.8818 49.9887 84.0491 49.9881 89.1 52.9254Z" fill="white"/>
</g>
<g opacity="0.38">
<path d="M74.3014 79.7702C74.7124 80.0096 74.7143 80.4003 74.3064 80.6367L68.5341 84.0151C68.1262 84.254 67.4611 84.2546 67.0494 84.0151L38.1993 67.2376C37.7876 66.9981 37.7864 66.6074 38.1943 66.3717L43.9666 62.9926C44.3745 62.7538 45.0396 62.7538 45.4506 62.9926L74.3014 79.7702Z" fill="white"/>
</g>
<g opacity="0.38">
<path d="M62.3214 86.9423C62.7324 87.1817 62.7343 87.5725 62.3264 87.8081L56.5541 91.1885C56.1455 91.4273 55.4811 91.4273 55.0694 91.1885L26.2193 74.409C25.8076 74.1702 25.8057 73.7789 26.2143 73.5432L31.9866 70.1647C32.3945 69.9259 33.0595 69.9252 33.4706 70.1647L62.3214 86.9423Z" fill="white"/>
</g>
<path d="M48.3199 23.4813C47.9977 23.2923 47.5509 23.3194 47.0585 23.6074L37.9484 28.9035C36.9686 29.4707 36.1778 30.8533 36.1809 31.987L36.211 42.5314C36.211 43.0941 36.4093 43.4905 36.7278 43.6764L38.1968 44.5366C37.8783 44.3476 37.6813 43.9543 37.6794 43.3909L37.65 32.8466C37.65 31.7123 38.4377 30.3334 39.4174 29.7637L48.5276 24.4657C49.02 24.179 49.4661 24.1506 49.7889 24.3397L48.3199 23.4813Z" fill="url(#paint3_linear_188_1282)"/>
<path d="M48.5276 24.4657C49.5067 23.8986 50.3032 24.3529 50.3063 25.4866L50.3357 36.031C50.3388 37.1653 49.548 38.5448 48.5689 39.1139L39.4587 44.4119C38.479 44.9791 37.6831 44.5247 37.6794 43.391L37.65 32.8466C37.65 31.7123 38.4377 30.3334 39.4174 29.7637L48.5276 24.4657Z" fill="url(#paint4_linear_188_1282)"/>
<path d="M43.3691 31.5506C42.8172 31.8713 42.3161 32.4234 41.9557 33.0517C41.5953 33.68 41.3726 34.3914 41.3751 35.0292C41.3751 35.212 41.504 35.2857 41.6617 35.1937C41.7447 35.1395 41.8138 35.0662 41.8633 34.9799C41.9128 34.8936 41.9413 34.7966 41.9463 34.6971C41.9463 34.2389 42.1034 33.7354 42.3618 33.2842C42.6202 32.833 42.9755 32.4423 43.3709 32.2129C43.4541 32.1586 43.5233 32.0853 43.5727 31.9988C43.6222 31.9124 43.6506 31.8153 43.6556 31.7157C43.655 31.5323 43.5267 31.4592 43.3691 31.5506Z" fill="white"/>
<path d="M48.659 35.8453C48.6339 35.7844 48.59 35.7331 48.5338 35.6991L46.7295 34.6637C46.697 34.649 46.6612 34.643 46.6257 34.6466C46.5903 34.6501 46.5563 34.663 46.5274 34.6839C46.443 34.7371 46.3734 34.811 46.3253 34.8988L46.2421 35.0444L45.7985 34.7923C46.2508 33.8974 46.5224 32.925 46.5199 32.0403C46.5199 31.037 46.162 30.3299 45.5914 30.0028C45.0208 29.6758 44.2331 29.7256 43.3659 30.2297C42.4988 30.7339 41.7123 31.6004 41.1461 32.5885C40.5799 33.5767 40.2295 34.6908 40.2295 35.6941C40.2295 36.6974 40.5868 37.4044 41.1574 37.7315C41.728 38.0586 42.515 38.0094 43.3835 37.5046C44.1474 37.0635 44.8487 36.335 45.3924 35.4924L45.836 35.7445L45.7522 35.8907C45.6414 36.0842 45.6421 36.2934 45.7522 36.3583L47.5566 37.3937C47.6139 37.425 47.6796 37.4371 47.7443 37.4284C47.8205 37.4184 47.8938 37.3924 47.9595 37.3521C48.0389 37.305 48.1111 37.2466 48.1741 37.1788C48.2462 37.1024 48.3092 37.0178 48.3618 36.9267L48.5282 36.6356C48.6312 36.4641 48.6885 36.2688 48.6946 36.0684C48.6981 35.9924 48.686 35.9164 48.659 35.8453ZM43.3841 36.8429C42.6727 37.2563 42.0302 37.2967 41.5628 37.032C41.0954 36.7673 40.8058 36.1882 40.8033 35.3651C40.8008 34.5421 41.0867 33.6327 41.554 32.8223C42.0214 32.0119 42.6589 31.3099 43.3684 30.892C44.0779 30.4742 44.7217 30.4383 45.1897 30.7068C45.6577 30.9752 45.9461 31.5506 45.9486 32.3736C45.9486 33.1796 45.6771 34.0682 45.2304 34.866C45.2189 34.882 45.2082 34.8987 45.1985 34.9158C45.1889 34.9326 45.1801 34.9496 45.1722 34.9669C44.7086 35.7527 44.0804 36.4377 43.3841 36.8429ZM47.9632 36.6929L46.3609 35.7741L46.4373 35.6412L46.4448 35.6279C46.4472 35.6246 46.4493 35.621 46.451 35.6172L46.528 35.483L48.1297 36.4024L47.9632 36.6929Z" fill="white"/>
<path d="M111.092 12.6002L101.982 7.3028C101.489 7.01606 101.043 6.98771 100.72 7.17676L99.2506 8.03634C99.5734 7.84729 100.02 7.87438 100.513 8.16238L109.622 13.4598C110.602 14.0269 111.393 15.4102 111.39 16.5439L111.361 27.0876C111.361 27.6504 111.161 28.0468 110.843 28.2333L112.312 27.3731C112.63 27.184 112.828 26.7908 112.829 26.2274L112.859 15.6837C112.863 14.5512 112.071 13.1711 111.092 12.6002Z" fill="url(#paint5_linear_188_1282)"/>
<path d="M109.625 13.4627C110.604 14.0299 111.395 15.4163 111.391 16.5475L111.356 27.0912C111.353 28.2256 110.556 28.6818 109.576 28.1115L100.469 22.8091C99.4908 22.2388 98.7 20.8555 98.7037 19.7212L98.7388 9.17808C98.7425 8.04373 99.5396 7.58748 100.519 8.1578L109.625 13.4627Z" fill="url(#paint6_linear_188_1282)"/>
<path d="M104.974 16.0164L105.203 16.1494C105.254 16.1814 105.295 16.2259 105.324 16.2786C105.355 16.3296 105.372 16.3878 105.374 16.4475C105.376 16.4689 105.373 16.4905 105.364 16.5101C105.355 16.5297 105.341 16.5464 105.323 16.5584C105.304 16.5676 105.282 16.5713 105.261 16.5692C105.239 16.5671 105.219 16.5592 105.202 16.5464L104.973 16.4135C104.932 16.3878 104.897 16.3534 104.87 16.3126C104.841 16.2715 104.82 16.2251 104.808 16.1759C104.771 16.0126 104.673 15.8701 104.534 15.7789C104.509 15.764 104.482 15.7527 104.454 15.7455C104.302 15.7095 104.215 15.8425 104.259 16.0442C104.308 16.2575 104.397 16.4593 104.522 16.6391C104.601 16.7561 104.695 16.8621 104.801 16.9542C104.812 17.038 104.839 17.1188 104.881 17.1917C104.93 17.2792 104.999 17.3529 105.084 17.406C105.113 17.4269 105.147 17.4398 105.182 17.4434C105.218 17.4471 105.254 17.4413 105.286 17.4268C105.31 17.411 105.33 17.3899 105.344 17.365C105.358 17.3402 105.366 17.3123 105.368 17.2837C105.425 17.3053 105.487 17.3144 105.549 17.3106C105.61 17.3068 105.67 17.2902 105.725 17.2617C105.859 17.1854 105.944 17.0165 105.944 16.7796C105.931 16.5208 105.857 16.2688 105.728 16.0444C105.599 15.82 105.42 15.6294 105.204 15.4883L104.975 15.3554C104.925 15.3238 104.883 15.2806 104.854 15.2293C104.823 15.1782 104.805 15.1198 104.804 15.0598C104.802 15.0384 104.805 15.0167 104.814 14.9971C104.823 14.9776 104.837 14.9609 104.855 14.9489C104.875 14.9399 104.896 14.9363 104.917 14.9384C104.938 14.9405 104.959 14.9483 104.976 14.9609L105.205 15.0938C105.245 15.1187 105.279 15.1518 105.306 15.1909C105.335 15.2311 105.356 15.2764 105.368 15.3245C105.407 15.4824 105.503 15.6196 105.638 15.7083C105.667 15.7251 105.697 15.7372 105.729 15.7442C105.879 15.7732 105.961 15.6326 105.911 15.4291C105.859 15.2222 105.769 15.0268 105.646 14.8525C105.569 14.7413 105.479 14.6403 105.377 14.5519C105.366 14.4683 105.338 14.3877 105.296 14.3149C105.248 14.2273 105.178 14.1533 105.094 14.1C105.065 14.0791 105.031 14.0662 104.996 14.0626C104.96 14.0589 104.924 14.0647 104.891 14.0792C104.868 14.0951 104.848 14.1163 104.834 14.1411C104.82 14.1659 104.812 14.1937 104.81 14.2223C104.752 14.2011 104.691 14.1921 104.629 14.1959C104.568 14.1997 104.508 14.2162 104.453 14.2443C104.318 14.3212 104.234 14.4901 104.233 14.7258C104.242 14.9854 104.316 15.2385 104.45 15.4606C104.575 15.6876 104.755 15.8789 104.974 16.0164Z" fill="white"/>
<path d="M109.294 22.4391C109.225 22.2169 109.119 22.0081 108.981 21.8215C108.855 21.6459 108.695 21.4972 108.511 21.3841C108.41 21.323 108.298 21.2837 108.181 21.2688L105.923 21.0482C105.932 20.9939 105.937 20.9389 105.936 20.8838C105.927 20.5842 105.84 20.2923 105.686 20.0361C105.542 19.7732 105.333 19.5518 105.08 19.3927L103.733 18.6075C103.643 18.4897 103.478 18.2792 103.279 18.0466C103.127 17.8714 102.956 17.683 102.778 17.5097C102.611 17.3417 102.425 17.1937 102.224 17.0686C102.062 16.9731 101.883 16.9123 101.697 16.8902C101.502 16.8682 101.304 16.8873 101.116 16.9463C101.033 16.9706 100.953 17.0037 100.877 17.0453C100.848 17.0659 100.825 17.0938 100.81 17.1262C100.795 17.1586 100.789 17.1944 100.792 17.2299L100.784 20.2069C100.789 20.3065 100.818 20.4035 100.867 20.4899C100.917 20.5763 100.986 20.6497 101.069 20.7041L105.642 23.3629C105.684 23.3902 105.734 23.4037 105.785 23.4014L109.221 23.0806C109.31 23.0724 109.364 22.9961 109.364 22.8777C109.363 22.7287 109.339 22.5809 109.294 22.4391ZM105.565 22.6546L101.356 20.2063L101.363 17.707C101.444 17.6745 101.528 17.6506 101.614 17.6358C101.715 17.6178 101.818 17.6149 101.92 17.6269C102.028 17.6407 102.132 17.6756 102.227 17.7296C102.361 17.8165 102.486 17.9182 102.598 18.0328C102.815 18.248 103.02 18.4754 103.212 18.714C103.297 18.8186 103.369 18.9106 103.418 18.9749C103.443 19.0064 103.462 19.0323 103.492 19.0732C103.535 19.1328 103.589 19.1831 103.651 19.2213L105.08 20.0519C105.163 20.1061 105.232 20.1794 105.282 20.2659C105.332 20.3523 105.36 20.4494 105.365 20.5491C105.369 20.5848 105.363 20.6208 105.348 20.6533C105.333 20.6859 105.31 20.7139 105.281 20.7344C105.248 20.7494 105.212 20.7554 105.176 20.7517C105.141 20.7481 105.107 20.7349 105.078 20.7136L103.364 19.7166C103.205 19.6246 103.077 19.6984 103.077 19.8811C103.082 19.9808 103.11 20.0778 103.16 20.1643C103.209 20.2507 103.279 20.3241 103.362 20.3783L104.146 20.834L105.076 21.3753L105.648 21.7074C105.681 21.728 105.719 21.7409 105.757 21.7452L108.399 22.008C108.439 22.0124 108.478 22.0258 108.512 22.0471C108.594 22.0996 108.662 22.1717 108.709 22.2569C108.728 22.2889 108.744 22.3222 108.757 22.3565L105.565 22.6546Z" fill="white"/>
<path d="M105.082 18.4018C105.712 18.7686 106.287 18.8051 106.701 18.5669C107.115 18.3287 107.374 17.8151 107.376 17.0847C107.378 16.3543 107.126 15.5426 106.711 14.8242C106.297 14.1058 105.727 13.4756 105.097 13.1088C104.466 12.7421 103.893 12.7061 103.478 12.9443C103.063 13.1826 102.806 13.6962 102.804 14.4259C102.802 15.1557 103.054 15.9686 103.467 16.6864C103.881 17.4042 104.452 18.0319 105.082 18.4018ZM103.881 13.647C104.194 13.4687 104.621 13.4951 105.095 13.773C105.569 14.051 105.996 14.5192 106.306 15.0599C106.616 15.6006 106.807 16.2056 106.807 16.7545C106.807 17.3034 106.613 17.6872 106.3 17.8661C105.988 18.0451 105.561 18.0186 105.087 17.7401C104.612 17.4615 104.186 16.9946 103.875 16.4532C103.565 15.9119 103.375 15.3076 103.375 14.758C103.375 14.2085 103.569 13.8228 103.881 13.6439V13.647Z" fill="white"/>
<path d="M22.1525 20.4529C22.7607 20.0994 23.2549 20.383 23.2568 21.0869L23.2743 27.6339C23.2743 28.3378 22.7851 29.1949 22.1769 29.5484L16.5204 32.838C15.9123 33.1916 15.418 32.908 15.4161 32.2041L15.398 25.657C15.398 24.9531 15.8866 24.096 16.4947 23.7425L22.1525 20.4529Z" fill="#E0E5F8"/>
<path d="M32.8124 23.3442C33.2554 23.0864 33.6158 23.2938 33.617 23.8068L33.6308 28.5779C33.6308 29.0909 33.2741 29.7123 32.8312 29.9732L28.7088 32.3679C28.2652 32.6256 27.9054 32.4189 27.9035 31.906L27.8904 27.1342C27.8904 26.6212 28.247 25.9998 28.69 25.7395L32.8124 23.3442Z" fill="#E0E5F8"/>
<path d="M30.2497 10.1648C30.5263 10.0041 30.7502 10.1333 30.7502 10.4534L30.7584 13.4323C30.7584 13.7531 30.5363 14.1425 30.2579 14.3039L27.6839 15.8006C27.4074 15.9613 27.1834 15.8321 27.1834 15.5119L27.1753 12.533C27.1753 12.2129 27.398 11.8228 27.6758 11.6621L30.2497 10.1648Z" fill="#E0E5F8"/>
<path d="M92.5842 1.98649C92.9352 2.19005 93.218 2.68474 93.2168 3.09059L93.2043 6.86543C93.2043 7.27064 92.9171 7.4326 92.5667 7.23031L89.3064 5.33217C88.9561 5.12799 88.6733 4.63329 88.6745 4.22745L88.687 0.453242C88.687 0.0473993 88.9736 -0.113929 89.3246 0.0877314L92.5842 1.98649Z" fill="#E0E5F8"/>
<path d="M95.3534 13.0202C95.4505 13.084 95.5312 13.17 95.5891 13.2712C95.6469 13.3724 95.6802 13.4859 95.6862 13.6025L95.68 15.5908C95.68 15.8044 95.5286 15.8908 95.344 15.7798L93.6266 14.7797C93.5295 14.7161 93.4487 14.6302 93.3909 14.5291C93.333 14.428 93.2997 14.3146 93.2937 14.1981L93.3006 12.2098C93.3006 11.9962 93.4514 11.9098 93.636 12.0176L95.3534 13.0202Z" fill="#E0E5F8"/>
<g opacity="0.4">
<path d="M21.1602 65.4766L21.0977 47.0605L18.3129 47.0694L18.3755 65.4854C18.3705 65.7003 18.5062 65.9152 18.7834 66.0772C19.3271 66.3923 20.2136 66.3923 20.7548 66.0709C21.0326 65.9045 21.1671 65.6883 21.1602 65.4766Z" fill="url(#paint7_linear_188_1282)"/>
<path d="M19.7105 47.8811C20.4803 47.8785 21.1032 47.5099 21.1017 47.0578C21.1002 46.6057 20.4749 46.2413 19.7051 46.2439C18.9352 46.2465 18.3123 46.615 18.3138 47.0671C18.3153 47.5193 18.9406 47.8837 19.7105 47.8811Z" fill="url(#paint8_linear_188_1282)"/>
</g>
<g opacity="0.4">
<path d="M27.1221 62.0111L27.047 38.9077L24.2628 38.9172L24.3379 62.0168C24.3323 62.231 24.4681 62.4466 24.7459 62.6085C25.2889 62.9236 26.1761 62.9236 26.7173 62.6016C26.9945 62.4384 27.129 62.2222 27.1221 62.0111Z" fill="url(#paint9_linear_188_1282)"/>
<path d="M25.6579 39.7278C26.4278 39.7252 27.0507 39.3566 27.0492 38.9045C27.0477 38.4524 26.4224 38.088 25.6526 38.0906C24.8827 38.0931 24.2598 38.4617 24.2613 38.9138C24.2628 39.3659 24.8881 39.7304 25.6579 39.7278Z" fill="url(#paint10_linear_188_1282)"/>
</g>
<g opacity="0.4">
<path d="M9.02318 72.488L8.94685 49.3853L6.16206 49.3941L6.23714 72.4975C6.23151 72.7117 6.36728 72.9273 6.64507 73.0892C7.18814 73.4043 8.07531 73.4043 8.61588 73.0823C8.89555 72.9184 9.03006 72.7023 9.02318 72.488Z" fill="url(#paint11_linear_188_1282)"/>
<path d="M7.55861 50.2087C8.32847 50.2062 8.95135 49.8376 8.94986 49.3855C8.94838 48.9334 8.32308 48.5689 7.55322 48.5715C6.78336 48.5741 6.16048 48.9427 6.16197 49.3948C6.16345 49.8469 6.78875 50.2113 7.55861 50.2087Z" fill="url(#paint12_linear_188_1282)"/>
</g>
<g opacity="0.4">
<path d="M2.8242 76.32L2.78353 63.7622L-0.00062561 63.7717L0.0406675 76.3288C0.0350366 76.5437 0.170804 76.7586 0.448594 76.9206C0.991661 77.2357 1.87884 77.2357 2.42003 76.9136C2.69719 76.7504 2.83108 76.5343 2.8242 76.32Z" fill="url(#paint13_linear_188_1282)"/>
<path d="M1.39386 64.5852C2.16372 64.5826 2.7866 64.214 2.78511 63.7619C2.78363 63.3098 2.15833 62.9454 1.38847 62.948C0.618614 62.9506 -0.00427127 63.3191 -0.00278282 63.7712C-0.00129436 64.2234 0.624004 64.5878 1.39386 64.5852Z" fill="url(#paint14_linear_188_1282)"/>
</g>
<g opacity="0.4">
<path d="M15.199 69.0689L15.1014 38.9351L12.3172 38.9445L12.4142 69.0777C12.4092 69.2926 12.545 69.5075 12.8221 69.6694C13.3652 69.9845 14.2524 69.9845 14.7936 69.6631C15.0714 69.498 15.2034 69.2819 15.199 69.0689Z" fill="url(#paint15_linear_188_1282)"/>
<path d="M13.7119 39.7576C14.4817 39.755 15.1046 39.3864 15.1031 38.9343C15.1017 38.4822 14.4764 38.1178 13.7065 38.1203C12.9366 38.1229 12.3138 38.4915 12.3152 38.9436C12.3167 39.3957 12.942 39.7601 13.7119 39.7576Z" fill="url(#paint16_linear_188_1282)"/>
</g>
<path d="M77.82 84.6343C74.8494 86.373 70.0188 86.373 67.0288 84.6343L35.6066 66.3588C34.105 65.4841 33.3511 64.3359 33.3542 63.189L33.3498 64.7014C33.3498 65.8477 34.1006 66.9966 35.6022 67.8713L67.0244 86.1468C70.0138 87.8855 74.8451 87.8855 77.815 86.1468C79.2903 85.2828 80.0292 84.1529 80.0324 83.021L80.0367 81.5086C80.0342 82.6429 79.2953 83.7735 77.82 84.6343Z" fill="url(#paint17_linear_188_1282)"/>
<path d="M77.7844 78.3413C80.7744 80.0799 80.7875 82.8988 77.8201 84.6369C74.8526 86.3749 70.0188 86.3755 67.0288 84.6369L35.6066 66.3613C32.6178 64.6233 32.6034 61.8044 35.5715 60.0657C38.5396 58.327 43.3735 58.327 46.3628 60.0657L77.7844 78.3413Z" fill="url(#paint18_linear_188_1282)"/>
<path d="M46.8433 64.2402C47.5897 64.6737 47.641 65.3279 46.8784 65.774C46.1157 66.2202 44.9945 66.1931 44.2506 65.7589L43.7551 65.4703L42.6433 66.1213L41.6892 65.5667L45.3937 63.397L46.8433 64.2402ZM45.149 65.2315C45.2693 65.2936 45.4029 65.325 45.5381 65.323C45.6733 65.3209 45.8059 65.2853 45.9242 65.2195C46.157 65.0834 46.1507 64.8937 45.9374 64.7702L45.4418 64.4815L44.6529 64.9435L45.149 65.2315Z" fill="white"/>
<path d="M55.5424 69.2986L52.0018 69.903L50.5772 70.7367L49.6237 70.1822L51.0377 69.3547L52.0725 67.2808L53.1436 67.904L52.4329 69.0913L54.4713 68.676L55.5424 69.2986Z" fill="white"/>
<path d="M50.8087 66.5481L48.3336 69.4344L47.3051 68.8357L47.6804 68.4299L46.4385 67.7077L45.7434 67.9276L44.7098 67.3264L49.6481 65.8726L50.8087 66.5481ZM48.2504 67.8085L49.132 66.8506L47.4984 67.3718L48.2504 67.8085Z" fill="white"/>
<path d="M71.8269 78.7688L67.0801 80.3342L66.0728 79.7487L67.5681 78.177L64.8784 79.0542L63.8711 78.4682L66.5333 75.6909L67.5625 76.289L65.8025 77.9911L68.8044 77.0112L69.5558 77.4485L67.8872 79.203L70.8034 78.1739L71.8269 78.7688Z" fill="white"/>
<path d="M64.1345 74.2029C65.2219 74.8331 65.2482 75.8332 64.1577 76.4716C63.0671 77.11 61.356 77.098 60.2686 76.4659C59.1812 75.8338 59.1543 74.835 60.2455 74.1972C61.3366 73.5595 63.0471 73.5702 64.1345 74.2029ZM61.1939 75.9233C61.7645 76.2548 62.6148 76.2674 63.2079 75.9233C63.801 75.5792 63.7773 75.0801 63.2079 74.7487C62.6386 74.4172 61.7871 74.4046 61.1939 74.7487C60.6008 75.0927 60.6246 75.5919 61.1939 75.924V75.9233Z" fill="white"/>
<path d="M61.1176 72.5411L57.4106 74.7109L56.6755 74.283L57.2229 72.4264L55.3591 73.5179L54.405 72.9627L58.112 70.793L58.8527 71.224L58.3053 73.0806L60.1691 71.9897L61.1176 72.5411Z" fill="white"/>
<path d="M111.116 90.5999V92.7381C111.129 93.4162 110.901 94.0949 110.428 94.7258C110.091 95.1707 109.685 95.5579 109.226 95.8727C109.062 95.9887 108.883 96.1021 108.697 96.2105C108.114 96.5452 107.497 96.8156 106.856 97.0171C105.91 97.3183 104.932 97.5086 103.942 97.5843C103.153 97.6498 102.361 97.6498 101.572 97.5843C100.582 97.5049 99.6039 97.3105 98.6581 97.0052C98.0345 96.8052 97.4331 96.5405 96.8637 96.2155C96.6579 96.0952 96.4645 95.9716 96.2856 95.8431C95.827 95.5227 95.4221 95.1306 95.0862 94.6816C95.0638 94.6541 95.0429 94.6252 95.0237 94.5953C94.612 94.0036 94.4043 93.3721 94.4018 92.7432V90.6049H95.2151C95.6563 90.0774 96.1856 89.6317 96.7792 89.2878C99.9888 87.3695 105.312 87.3695 108.612 89.2878C109.29 89.683 109.829 90.1292 110.231 90.6049L111.116 90.5999Z" fill="url(#paint19_linear_188_1282)"/>
<path d="M111.116 90.6514C111.116 91.315 110.889 91.9748 110.428 92.5874C110.092 93.0327 109.686 93.4201 109.226 93.7343C109.062 93.8503 108.884 93.9644 108.698 94.0721C108.116 94.406 107.5 94.6772 106.862 94.8813C105.915 95.1797 104.937 95.3685 103.947 95.444C103.328 95.4938 102.706 95.5039 102.086 95.4743C101.916 95.4661 101.746 95.4548 101.577 95.4409C101.494 95.434 101.408 95.4258 101.326 95.4163C101.032 95.3873 100.74 95.347 100.451 95.2991C99.845 95.2003 99.2478 95.0548 98.6643 94.8636C98.2928 94.7436 97.9286 94.6013 97.5738 94.4376C97.3298 94.3242 97.0946 94.2032 96.87 94.0721C96.6648 93.9536 96.472 93.8282 96.2925 93.6997C95.8342 93.3807 95.4292 92.9903 95.0925 92.5433C94.6476 91.9396 94.4199 91.293 94.408 90.6445V90.5897C94.408 89.9198 94.6326 89.2512 95.0925 88.6266C95.4879 88.0885 96.0529 87.5843 96.7893 87.1444C98.0005 86.4204 99.5134 85.9698 101.106 85.7933C102.449 85.644 103.805 85.6865 105.135 85.9194C105.899 86.0531 106.648 86.2615 107.371 86.5414C107.804 86.71 108.223 86.9114 108.626 87.1438C108.902 87.3035 109.167 87.4811 109.42 87.6757C109.806 87.9683 110.148 88.3151 110.437 88.7054C110.883 89.3098 111.11 89.9563 111.121 90.596C111.116 90.6174 111.116 90.6351 111.116 90.6514Z" fill="url(#paint20_linear_188_1282)"/>
<path d="M97.4462 93.7325C94.5112 92.0253 94.4781 89.2134 97.373 87.4829C100.268 85.7524 105.069 85.7524 108.047 87.4829C111.025 89.2134 111.056 92.0253 108.12 93.7325C105.185 95.4397 100.382 95.4397 97.4462 93.7325Z" fill="url(#paint21_linear_188_1282)"/>
<path d="M111.116 90.6001V90.6518C111.117 90.6346 111.117 90.6173 111.116 90.6001Z" fill="url(#paint22_linear_188_1282)"/>
<path d="M98.5405 87.525C98.6781 87.433 98.9202 87.4355 99.0817 87.53L100.505 88.3612C100.671 88.3172 100.84 88.2846 101.01 88.2636C101.36 88.2192 101.715 88.2118 102.067 88.2415C102.477 88.2749 102.784 88.5276 102.711 88.7734C102.674 88.8853 102.598 88.9801 102.497 89.0406C102.335 89.1398 102.152 89.1986 101.963 89.212C101.907 89.2185 101.85 89.2215 101.793 89.2208C101.557 89.2185 101.321 89.2551 101.096 89.3292C100.954 89.3782 100.818 89.4449 100.693 89.5277C100.651 89.5556 100.61 89.5861 100.572 89.6191C100.428 89.7376 100.355 89.8592 100.347 89.9815C100.344 90.031 100.353 90.0805 100.373 90.1258C100.424 90.2348 100.51 90.3236 100.616 90.3779C100.746 90.453 100.889 90.5 101.037 90.5159C101.13 90.527 101.224 90.5282 101.316 90.5196C101.517 90.4985 101.716 90.4595 101.91 90.4031C102.092 90.3539 102.304 90.289 102.536 90.214L102.578 90.2001C102.783 90.1314 102.943 90.0798 103.053 90.0451C103.112 90.0256 103.185 90.0041 103.268 89.9821C103.351 89.96 103.447 89.9323 103.556 89.9039C103.732 89.8546 103.911 89.8165 104.092 89.7899C104.232 89.7722 104.405 89.7584 104.611 89.7502C104.797 89.7405 104.983 89.7495 105.166 89.7773C105.347 89.8101 105.526 89.8564 105.7 89.9159C105.896 89.9814 106.085 90.0672 106.264 90.1718C106.852 90.5159 107.137 90.9097 107.117 91.3534C107.101 91.6147 107 91.8635 106.83 92.0617L107.908 92.6919C108.069 92.7858 108.09 92.9364 107.952 93.0284C107.813 93.1204 107.572 93.1179 107.411 93.024L106.429 92.4505C106.364 92.5029 106.29 92.5545 106.215 92.6049C106.128 92.6629 106.041 92.7165 105.951 92.7675L106.935 93.3423C107.096 93.4362 107.116 93.5868 106.979 93.6788C106.841 93.7708 106.598 93.7683 106.438 93.6744L105.358 93.0442C105.06 93.1519 104.752 93.2257 104.439 93.2641C104.027 93.3161 103.611 93.3136 103.2 93.2566C102.817 93.2042 102.557 92.9642 102.625 92.7335C102.675 92.6192 102.758 92.5228 102.864 92.4568C103.095 92.3165 103.363 92.249 103.633 92.2628C103.753 92.2653 103.873 92.2598 103.992 92.2464C104.241 92.2188 104.484 92.1502 104.711 92.0434C104.818 91.9925 104.921 91.934 105.02 91.8683C105.089 91.8222 105.145 91.7781 105.201 91.734C105.383 91.5866 105.478 91.4467 105.487 91.3181C105.488 91.3049 105.488 91.2916 105.487 91.2784C105.481 91.1278 105.392 91.0005 105.213 90.8959C105.021 90.7859 104.802 90.7351 104.582 90.7497C104.533 90.7509 104.484 90.7551 104.436 90.7623C104.219 90.7968 104.005 90.8473 103.796 90.9135C103.605 90.9702 103.384 91.0396 103.143 91.1278C102.875 91.2204 102.652 91.2904 102.45 91.3458C102.379 91.3654 102.313 91.383 102.248 91.3994C101.97 91.465 101.689 91.5109 101.405 91.5368C101.095 91.5641 100.782 91.5428 100.479 91.4738C100.165 91.401 99.8633 91.2803 99.5853 91.1158C99.0089 90.7797 98.724 90.3953 98.7307 89.9626C98.7347 89.7241 98.8133 89.493 98.9553 89.3021L97.6114 88.5169C97.4493 88.4224 97.4293 88.2718 97.5669 88.1797C97.7046 88.0877 97.9467 88.0903 98.1088 88.1848L99.3507 88.9101C99.3901 88.8799 99.4301 88.8471 99.4758 88.8207C99.5956 88.74 99.7211 88.6682 99.8512 88.6058L98.5855 87.8665C98.4253 87.7676 98.4047 87.617 98.5405 87.525Z" fill="url(#paint23_linear_188_1282)"/>
<path opacity="0.25" d="M105.131 85.9202L100.449 95.2993C99.8431 95.2006 99.2459 95.055 98.6625 94.8639C98.2909 94.7438 97.9267 94.6016 97.5719 94.4379L101.102 85.7936C102.444 85.6445 103.801 85.6871 105.131 85.9202Z" fill="white"/>
<path opacity="0.25" d="M109.416 87.6765L102.086 95.4738C101.916 95.4656 101.746 95.4543 101.577 95.4404C101.494 95.4335 101.408 95.4253 101.326 95.4158L107.368 86.5415C107.801 86.7102 108.221 86.9116 108.623 87.144C108.899 87.3039 109.163 87.4818 109.416 87.6765Z" fill="white"/>
<path d="M107.906 87.0292V89.1675C107.919 89.8456 107.691 90.5236 107.218 91.1551C106.881 91.5998 106.475 91.9871 106.016 92.302C105.852 92.418 105.674 92.5314 105.488 92.6398C104.904 92.9742 104.287 93.2446 103.646 93.4465C102.7 93.7473 101.722 93.9377 100.733 94.0136C99.9439 94.0785 99.151 94.0785 98.3621 94.0136C97.372 93.9343 96.3942 93.7397 95.4485 93.4339C94.8249 93.2341 94.2235 92.9697 93.6541 92.6449C93.4483 92.5239 93.2549 92.4004 93.076 92.2724C92.6175 91.9519 92.2126 91.5598 91.8766 91.111C91.8547 91.0839 91.8322 91.0543 91.8141 91.0247C91.403 90.4323 91.1947 89.8015 91.1922 89.1725V87.0292H92.0055C92.4474 86.5012 92.9779 86.0554 93.5728 85.7121C96.7824 83.7932 102.105 83.7932 105.406 85.7121C106.084 86.1066 106.623 86.5528 107.024 87.0292H107.906Z" fill="url(#paint24_linear_188_1282)"/>
<path d="M107.906 87.0783C107.906 87.7413 107.679 88.4017 107.218 89.0137C106.882 89.459 106.476 89.8464 106.016 90.1606C105.852 90.2766 105.674 90.3913 105.488 90.4984C104.904 90.8328 104.287 91.1043 103.647 91.3082C102.7 91.6064 101.722 91.795 100.733 91.8703C100.114 91.9204 99.4919 91.9305 98.8714 91.9006C98.7019 91.8924 98.5317 91.8817 98.3621 91.8678C98.2789 91.8609 98.1938 91.8527 98.1119 91.8426C97.8172 91.8136 97.5244 91.7739 97.236 91.7254C96.6304 91.6273 96.0334 91.4817 95.4503 91.2899C95.0786 91.1698 94.7142 91.0276 94.3592 90.8639C94.1158 90.7511 93.88 90.6295 93.656 90.4984C93.4501 90.3799 93.2574 90.2545 93.0779 90.1266C92.6196 89.8073 92.2145 89.4168 91.8779 88.9695C91.433 88.3658 91.2059 87.7192 91.1934 87.0714V87.016C91.1934 86.3461 91.418 85.6774 91.8779 85.0529C92.2733 84.5154 92.8382 84.0106 93.5746 83.5707C94.7859 82.8472 96.2987 82.396 97.8917 82.2196C99.2341 82.0703 100.591 82.1127 101.921 82.3456C102.685 82.4796 103.433 82.6877 104.156 82.967C104.589 83.1358 105.009 83.3372 105.411 83.5694C105.687 83.7291 105.953 83.907 106.205 84.102C106.591 84.3946 106.934 84.7413 107.222 85.1317C107.668 85.7354 107.896 86.382 107.906 87.0223C107.906 87.0437 107.906 87.062 107.906 87.0783Z" fill="url(#paint25_linear_188_1282)"/>
<path d="M94.2347 90.1592C91.2991 88.452 91.266 85.6395 94.1609 83.909C97.0558 82.1785 101.856 82.1791 104.835 83.909C107.813 85.6388 107.844 88.452 104.908 90.1592C101.973 91.8664 97.1697 91.8664 94.2347 90.1592Z" fill="url(#paint26_linear_188_1282)"/>
<path d="M107.906 87.0293V87.081C107.908 87.0638 107.908 87.0465 107.906 87.0293Z" fill="url(#paint27_linear_188_1282)"/>
<path d="M95.3309 83.9512C95.4685 83.8592 95.7106 83.8618 95.872 83.9563L97.296 84.7875C97.4618 84.7437 97.6302 84.7113 97.8003 84.6905C98.151 84.6456 98.5054 84.638 98.8577 84.6678C99.2675 84.7012 99.5747 84.9539 99.5015 85.1997C99.464 85.3117 99.3881 85.4066 99.2875 85.4675C99.1254 85.5665 98.9423 85.6253 98.7532 85.6389C98.6969 85.6452 98.6403 85.6479 98.5836 85.6471C98.347 85.6448 98.1116 85.6814 97.8867 85.7555C97.7445 85.8043 97.6091 85.8712 97.4837 85.9546C97.4413 85.9821 97.4008 86.0124 97.3624 86.0454C97.2185 86.1645 97.1452 86.2855 97.1377 86.4084C97.1345 86.4576 97.1433 86.507 97.1634 86.552C97.2142 86.6614 97.3002 86.7502 97.4074 86.8041C97.5364 86.8795 97.6796 86.9267 97.8278 86.9428C97.9205 86.9539 98.014 86.9551 98.1069 86.9465C98.3078 86.9251 98.5065 86.8861 98.7006 86.83C98.8827 86.7802 99.0942 86.7159 99.3263 86.6409L99.3688 86.627C99.5734 86.5583 99.733 86.5067 99.8437 86.4726C99.9063 86.4531 99.9757 86.431 100.058 86.4096L100.347 86.3315C100.523 86.2821 100.702 86.244 100.882 86.2174C101.022 86.2004 101.195 86.1859 101.402 86.1777C101.587 86.1678 101.773 86.1771 101.957 86.2054C102.138 86.2381 102.317 86.2842 102.491 86.3434C102.687 86.4094 102.876 86.4953 103.055 86.5999C103.643 86.9436 103.927 87.3373 103.907 87.7809C103.891 88.0425 103.791 88.2915 103.621 88.4899L104.699 89.1201C104.86 89.214 104.88 89.3646 104.742 89.4566C104.604 89.5486 104.362 89.5461 104.201 89.4528L103.22 88.8787C103.157 88.931 103.081 88.9827 103.005 89.0337C102.918 89.0917 102.832 89.1453 102.741 89.1957L103.726 89.7704C103.886 89.8643 103.907 90.0149 103.769 90.1076C103.631 90.2002 103.389 90.1971 103.228 90.1032L102.148 89.473C101.851 89.5806 101.542 89.6546 101.229 89.6935C100.818 89.7452 100.402 89.7427 99.9913 89.686C99.6078 89.6337 99.3476 89.3936 99.4151 89.1623C99.4656 89.0483 99.5489 88.9521 99.6541 88.8863C99.8855 88.7457 100.153 88.6779 100.423 88.6915C100.543 88.6946 100.663 88.6893 100.782 88.6758C101.031 88.6479 101.274 88.5793 101.501 88.4729C101.608 88.422 101.712 88.3632 101.81 88.297C101.879 88.2517 101.935 88.2069 101.992 88.1634C102.173 88.0153 102.269 87.8761 102.277 87.7469C102.278 87.7337 102.278 87.7204 102.277 87.7072C102.272 87.5566 102.182 87.4299 102.003 87.3253C101.812 87.2156 101.592 87.1645 101.372 87.1784C101.325 87.1784 101.277 87.1847 101.226 87.1911C101.01 87.2256 100.796 87.2761 100.586 87.3423C100.395 87.3996 100.175 87.4683 99.9332 87.5572C99.6654 87.6492 99.442 87.7192 99.2399 87.7752C99.1705 87.7948 99.1035 87.8124 99.0385 87.8288C98.7609 87.8944 98.4791 87.9403 98.1951 87.9662C97.8851 87.9935 97.5727 87.9722 97.2691 87.9032C96.9548 87.8309 96.6534 87.7102 96.3757 87.5452C95.8001 87.2091 95.5152 86.8247 95.5211 86.392C95.5253 86.1537 95.6038 85.9229 95.7457 85.7322L94.4018 84.9469C94.2397 84.8524 94.2197 84.7018 94.3573 84.6098C94.495 84.5178 94.7371 84.5203 94.8992 84.6148L96.1411 85.3402C96.1805 85.3099 96.2205 85.2803 96.2662 85.2507C96.386 85.17 96.5115 85.0982 96.6416 85.0358L95.3759 84.2966C95.2132 84.1932 95.1926 84.0439 95.3309 83.9512Z" fill="url(#paint28_linear_188_1282)"/>
<path opacity="0.25" d="M101.919 82.3469L97.236 91.7254C96.6304 91.6273 96.0334 91.4817 95.4504 91.2899C95.0786 91.1698 94.7142 91.0276 94.3592 90.8639L97.8891 82.2196C99.2317 82.0707 100.588 82.1136 101.919 82.3469Z" fill="white"/>
<path opacity="0.25" d="M106.203 84.1032L98.8739 91.9006C98.7044 91.8924 98.5342 91.8817 98.3646 91.8678C98.2814 91.8609 98.1963 91.8527 98.1144 91.8426L104.156 82.9683C104.588 83.1371 105.008 83.3384 105.411 83.5707C105.686 83.7304 105.951 83.9083 106.203 84.1032Z" fill="white"/>
<path d="M111.116 84.2299V86.3681C111.129 87.0462 110.901 87.7243 110.428 88.3558C110.091 88.8005 109.685 89.1878 109.226 89.5027C109.062 89.618 108.883 89.7315 108.697 89.8405C108.115 90.1746 107.5 90.4449 106.862 90.6465C105.915 90.9474 104.938 91.1377 103.948 91.2137C103.159 91.2786 102.366 91.2786 101.577 91.2137C100.587 91.134 99.6095 90.9395 98.6637 90.6339C98.0401 90.4341 97.4388 90.1697 96.8693 89.8449C96.6635 89.7239 96.4702 89.6004 96.2912 89.4725C95.8329 89.1517 95.4281 88.7597 95.0918 88.311C95.0696 88.2833 95.0487 88.2545 95.0293 88.2247C94.6176 87.6323 94.4099 87.0009 94.4074 86.3726V84.2343H95.2207C95.6616 83.7065 96.191 83.2607 96.7849 82.9172C99.9945 80.9983 105.318 80.9983 108.618 82.9172C109.296 83.3117 109.835 83.7579 110.236 84.2343L111.116 84.2299Z" fill="url(#paint29_linear_188_1282)"/>
<path d="M111.116 84.2815C111.116 84.9444 110.889 85.6049 110.428 86.2168C110.092 86.6621 109.686 87.0495 109.226 87.3637C109.062 87.4797 108.884 87.5944 108.698 87.7015C108.114 88.0359 107.497 88.3072 106.857 88.5107C105.91 88.8091 104.932 88.9979 103.943 89.0734C103.324 89.1235 102.702 89.1337 102.082 89.1037C101.912 89.0955 101.742 89.0848 101.572 89.0709C101.489 89.064 101.404 89.0558 101.322 89.0457C101.028 89.0167 100.735 88.977 100.446 88.9285C99.8405 88.83 99.2433 88.6845 98.66 88.493C98.2884 88.373 97.9242 88.2307 97.5694 88.067C97.3254 87.9542 97.0902 87.8326 96.8656 87.7015C96.6604 87.583 96.4677 87.4576 96.2881 87.3297C95.8298 87.0105 95.4247 86.6199 95.0881 86.1727C94.6433 85.569 94.4155 84.9224 94.4036 84.2745V84.2191C94.4036 83.5492 94.6282 82.8806 95.0881 82.256C95.4835 81.7185 96.0485 81.2137 96.7849 80.7738C97.9961 80.0504 99.509 79.5992 101.102 79.4227C102.444 79.2734 103.801 79.3159 105.131 79.5487C105.894 79.6826 106.643 79.8907 107.367 80.1701C107.799 80.339 108.219 80.5404 108.622 80.7726C108.898 80.9322 109.163 81.1101 109.416 81.3051C109.802 81.5977 110.144 81.9445 110.432 82.3348C110.878 82.9385 111.106 83.5851 111.117 84.2254C111.116 84.2468 111.116 84.2645 111.116 84.2815Z" fill="url(#paint30_linear_188_1282)"/>
<path d="M97.4462 87.3628C94.5112 85.6556 94.4781 82.8431 97.373 81.1126C100.268 79.3821 105.069 79.3827 108.047 81.1126C111.025 82.8425 111.056 85.6556 108.12 87.3628C105.185 89.07 100.382 89.0694 97.4462 87.3628Z" fill="url(#paint31_linear_188_1282)"/>
<path d="M111.116 84.23V84.2817C111.117 84.2645 111.117 84.2472 111.116 84.23Z" fill="url(#paint32_linear_188_1282)"/>
<path d="M98.5405 81.1544C98.6781 81.0624 98.9202 81.0649 99.0817 81.1594L100.505 81.9906C100.671 81.9466 100.84 81.914 101.01 81.893C101.36 81.8486 101.715 81.8412 102.067 81.8709C102.477 81.9043 102.784 82.157 102.711 82.4028C102.674 82.5147 102.598 82.6095 102.497 82.67C102.335 82.7692 102.152 82.8282 101.963 82.842C101.906 82.8483 101.85 82.8511 101.793 82.8502C101.557 82.8479 101.321 82.8845 101.096 82.9586C100.954 83.0075 100.818 83.0744 100.693 83.1577C100.651 83.1854 100.61 83.2157 100.572 83.2485C100.428 83.3676 100.355 83.4886 100.347 83.6109C100.344 83.6603 100.353 83.7099 100.373 83.7552C100.424 83.8644 100.509 83.9532 100.616 84.0072C100.746 84.0826 100.889 84.1298 101.037 84.1459C101.13 84.1557 101.224 84.1557 101.316 84.1459C101.517 84.125 101.716 84.0862 101.91 84.0299C102.092 83.9801 102.304 83.9152 102.536 83.8377L102.578 83.8239C102.783 83.7552 102.943 83.7035 103.053 83.6695C103.112 83.6493 103.185 83.6279 103.268 83.6064C103.351 83.585 103.447 83.5567 103.556 83.5283C103.732 83.4789 103.911 83.4408 104.092 83.4142C104.232 83.3972 104.405 83.3827 104.611 83.3745C104.797 83.3648 104.983 83.3739 105.166 83.4016C105.347 83.4347 105.526 83.481 105.7 83.5403C105.896 83.606 106.085 83.6919 106.264 83.7968C106.852 84.14 107.137 84.5337 107.117 84.9777C107.101 85.2393 107 85.4883 106.83 85.6867L107.908 86.3169C108.069 86.4108 108.09 86.5614 107.952 86.6534C107.813 86.7454 107.572 86.7429 107.411 86.649L106.429 86.0755C106.364 86.1278 106.29 86.1795 106.215 86.2306C106.128 86.2885 106.041 86.3415 105.951 86.3925L106.935 86.9672C107.096 87.0611 107.116 87.2118 106.979 87.3038C106.841 87.3958 106.598 87.3933 106.438 87.3L105.358 86.6698C105.06 86.7775 104.752 86.8513 104.439 86.8897C104.027 86.942 103.611 86.9396 103.2 86.8828C102.817 86.8299 102.557 86.5904 102.625 86.3591C102.675 86.2449 102.758 86.1486 102.864 86.0825C103.095 85.9424 103.363 85.8749 103.633 85.8884C103.753 85.8914 103.873 85.8861 103.992 85.8726C104.241 85.8447 104.484 85.7762 104.711 85.6697C104.818 85.6185 104.921 85.5598 105.02 85.4939C105.089 85.4485 105.145 85.4037 105.201 85.3603C105.383 85.2122 105.478 85.0729 105.487 84.9437C105.488 84.9305 105.488 84.9172 105.487 84.904C105.481 84.7534 105.392 84.6261 105.213 84.5221C105.021 84.4124 104.802 84.3614 104.582 84.3753C104.533 84.3768 104.484 84.381 104.436 84.3879C104.219 84.4224 104.005 84.4729 103.796 84.5391C103.605 84.5965 103.384 84.6652 103.143 84.7534C102.875 84.846 102.652 84.916 102.45 84.9714C102.379 84.9916 102.313 85.0092 102.248 85.0256C101.97 85.0912 101.689 85.1371 101.405 85.163C101.095 85.19 100.782 85.1687 100.479 85.1C100.164 85.0278 99.863 84.907 99.5853 84.742C99.0089 84.4059 98.724 84.0215 98.7307 83.5888C98.7347 83.3503 98.8133 83.1193 98.9553 82.9284L97.6114 82.1438C97.4493 82.0492 97.4293 81.8986 97.5669 81.806C97.7046 81.7134 97.9467 81.7165 98.1088 81.811L99.3538 82.5357C99.3932 82.5055 99.4333 82.4727 99.4789 82.4463C99.5988 82.3656 99.7242 82.2938 99.8543 82.2314L98.5886 81.4922C98.4253 81.3976 98.4047 81.2464 98.5405 81.1544Z" fill="url(#paint33_linear_188_1282)"/>
<path opacity="0.25" d="M105.131 79.55L100.449 88.9285C99.843 88.83 99.2458 88.6845 98.6625 88.493C98.2909 88.373 97.9267 88.2307 97.5719 88.067L101.102 79.4227C102.444 79.2738 103.801 79.3167 105.131 79.55Z" fill="white"/>
<path opacity="0.25" d="M109.416 81.3064L102.086 89.1037C101.916 89.0955 101.746 89.0848 101.577 89.0709C101.494 89.064 101.408 89.0558 101.326 89.0457L107.368 80.1714C107.801 80.3403 108.221 80.5417 108.623 80.7738C108.899 80.9335 109.164 81.1114 109.416 81.3064Z" fill="white"/>
<path d="M111.116 81.0652V83.2035C111.129 83.8815 110.901 84.5596 110.428 85.1911C110.091 85.6357 109.685 86.023 109.225 86.338C109.061 86.454 108.883 86.5674 108.697 86.6758C108.113 87.0104 107.496 87.2808 106.855 87.4824C105.909 87.7833 104.931 87.9736 103.942 88.0496C103.153 88.1145 102.36 88.1145 101.572 88.0496C100.582 87.9703 99.6038 87.7757 98.6581 87.4698C98.0341 87.2704 97.4325 87.006 96.8631 86.6808C96.6572 86.5598 96.4639 86.4363 96.2856 86.3084C95.8268 85.988 95.4217 85.5959 95.0856 85.147C95.0637 85.1199 95.0418 85.0902 95.023 85.0606C94.612 84.4682 94.4036 83.8374 94.4011 83.2085V81.0703H95.2145C95.6554 80.5425 96.1848 80.0968 96.7786 79.7532C99.9888 77.8342 105.311 77.8342 108.612 79.7532C109.29 80.1477 109.829 80.5938 110.231 81.0703L111.116 81.0652Z" fill="url(#paint34_linear_188_1282)"/>
<path d="M111.116 81.1166C111.116 81.7795 110.889 82.44 110.428 83.0519C110.092 83.4974 109.686 83.8848 109.226 84.1988C109.061 84.3148 108.884 84.4295 108.697 84.5366C108.115 84.8709 107.5 85.1423 106.862 85.3464C105.915 85.6447 104.937 85.8333 103.947 85.9085C103.328 85.9587 102.706 85.9688 102.086 85.9388C101.916 85.9304 101.747 85.9195 101.577 85.906C101.494 85.8991 101.408 85.8909 101.326 85.8808C101.032 85.8518 100.739 85.8121 100.451 85.7636C99.8452 85.6653 99.2484 85.5195 98.6656 85.3275C98.2938 85.2074 97.9295 85.0652 97.5745 84.9015C97.3311 84.7887 97.0958 84.6671 96.8712 84.536C96.666 84.4175 96.4727 84.2921 96.2937 84.1642C95.8351 83.8451 95.4298 83.4546 95.0931 83.0072C94.6483 82.4034 94.4212 81.7569 94.4086 81.109V81.0536C94.4086 80.3837 94.6333 79.715 95.0931 79.0905C95.4885 78.553 96.0541 78.0482 96.7905 77.6083C98.0018 76.8849 99.514 76.4336 101.108 76.2572C102.45 76.1079 103.807 76.1503 105.137 76.3832C105.9 76.5172 106.649 76.7253 107.372 77.0046C107.805 77.1733 108.225 77.3746 108.627 77.607C108.903 77.7669 109.168 77.9448 109.421 78.1396C109.807 78.4322 110.15 78.779 110.439 79.1693C110.885 79.773 111.112 80.4196 111.122 81.0599C111.121 81.0789 111.119 81.0978 111.116 81.1166Z" fill="url(#paint35_linear_188_1282)"/>
<path d="M97.4462 84.1978C94.5106 82.4906 94.4775 79.678 97.3724 77.9475C100.267 76.217 105.068 76.2177 108.047 77.9475C111.025 79.6774 111.055 82.4906 108.12 84.1978C105.186 85.9049 100.382 85.9049 97.4462 84.1978Z" fill="url(#paint36_linear_188_1282)"/>
<path d="M111.116 81.0649V81.1166C111.117 81.0994 111.117 81.0821 111.116 81.0649Z" fill="url(#paint37_linear_188_1282)"/>
<path d="M98.5405 77.9904C98.6781 77.8977 98.9202 77.9003 99.0823 77.9948L100.506 78.826C100.671 78.7823 100.84 78.7498 101.01 78.729C101.361 78.6841 101.715 78.6765 102.067 78.7063C102.478 78.7397 102.784 78.9924 102.711 79.2381C102.674 79.35 102.598 79.4449 102.498 79.506C102.336 79.6053 102.152 79.6641 101.963 79.6774C101.906 79.6837 101.85 79.6864 101.793 79.6856C101.557 79.6831 101.321 79.72 101.097 79.7946C100.954 79.8429 100.819 79.9096 100.693 79.9931C100.651 80.0208 100.61 80.0511 100.572 80.0839C100.428 80.203 100.355 80.324 100.347 80.4469C100.344 80.4962 100.353 80.5455 100.374 80.5905C100.424 80.6998 100.51 80.7887 100.617 80.8426C100.746 80.9175 100.889 80.9646 101.037 80.9806C101.13 80.9917 101.224 80.993 101.316 80.9844C101.517 80.9631 101.716 80.9241 101.91 80.8678C102.092 80.818 102.304 80.7538 102.536 80.6788L102.578 80.6649C102.783 80.5962 102.943 80.5445 103.053 80.5105C103.113 80.491 103.185 80.4689 103.268 80.4475C103.35 80.4261 103.448 80.3983 103.556 80.37C103.732 80.3201 103.911 80.2818 104.092 80.2553C104.232 80.2383 104.405 80.2238 104.611 80.2156C104.797 80.2057 104.983 80.215 105.166 80.2433C105.348 80.2758 105.526 80.322 105.701 80.3813C105.897 80.4472 106.086 80.5331 106.264 80.6378C106.852 80.9815 107.137 81.3751 107.117 81.8188C107.101 82.0803 107 82.3294 106.83 82.5277L107.909 83.1579C108.069 83.2518 108.09 83.4024 107.952 83.4945C107.815 83.5865 107.572 83.5839 107.412 83.4907L106.429 82.9166C106.367 82.9689 106.291 83.0205 106.215 83.0716C106.128 83.1296 106.042 83.1831 105.951 83.2336L106.935 83.8083C107.096 83.9022 107.116 84.0528 106.979 84.1454C106.841 84.2381 106.599 84.2349 106.438 84.141L105.36 83.5001C105.063 83.6079 104.755 83.6818 104.441 83.7207C104.03 83.7724 103.614 83.7699 103.203 83.7131C102.82 83.6608 102.56 83.4207 102.627 83.1901C102.678 83.0759 102.761 82.9795 102.866 82.9134C103.098 82.7729 103.365 82.7051 103.635 82.7187C103.755 82.7217 103.875 82.7165 103.994 82.7029C104.243 82.6751 104.486 82.6066 104.713 82.5C104.82 82.449 104.924 82.3904 105.023 82.3248C105.091 82.2788 105.148 82.2341 105.204 82.1906C105.385 82.0425 105.481 81.9032 105.49 81.774C105.491 81.7608 105.491 81.7475 105.49 81.7343C105.484 81.5837 105.394 81.457 105.216 81.3524C105.024 81.2427 104.805 81.1917 104.585 81.2056C104.537 81.2056 104.489 81.2119 104.438 81.2182C104.222 81.2527 104.008 81.3033 103.799 81.3694C103.608 81.4268 103.387 81.4955 103.145 81.5843C102.877 81.6764 102.654 81.7463 102.452 81.8024C102.383 81.8219 102.316 81.8396 102.251 81.856C101.973 81.9216 101.691 81.9675 101.407 81.9933C101.097 82.0206 100.785 81.9994 100.482 81.9303C100.167 81.8582 99.8657 81.7375 99.5878 81.5724C99.0122 81.2363 98.7273 80.8519 98.7331 80.4191C98.7375 80.1808 98.8164 79.95 98.9584 79.7593L97.6139 78.9741C97.4524 78.8796 97.4318 78.729 97.5694 78.6369C97.7071 78.5449 97.9492 78.5475 98.1113 78.642L99.3538 79.3673C99.3926 79.3371 99.4326 79.3043 99.4789 79.2778C99.5987 79.1971 99.7242 79.1253 99.8543 79.063L98.588 78.3237C98.4247 78.233 98.4047 78.0805 98.5405 77.9904Z" fill="url(#paint38_linear_188_1282)"/>
<path opacity="0.25" d="M105.131 76.3851L100.449 85.7636C99.844 85.6653 99.2478 85.5194 98.6656 85.3275C98.2938 85.2075 97.9294 85.0652 97.5744 84.9015L101.104 76.2572C102.446 76.1088 103.802 76.1519 105.131 76.3851Z" fill="white"/>
<path opacity="0.25" d="M109.415 78.1436L102.085 85.9391C101.916 85.9307 101.746 85.9197 101.576 85.9063C101.493 85.8994 101.408 85.8912 101.326 85.8811L107.366 77.0093C107.799 77.1779 108.218 77.3793 108.621 77.6117C108.897 77.7714 109.162 77.9491 109.415 78.1436Z" fill="white"/>
<path d="M111.116 77.2411V79.3794C111.129 80.0575 110.901 80.7355 110.428 81.367C110.091 81.8116 109.685 82.1989 109.225 82.5139C109.061 82.6299 108.883 82.7433 108.697 82.8517C108.115 83.1859 107.5 83.4562 106.862 83.6577C105.915 83.9586 104.938 84.1489 103.948 84.2249C103.159 84.2898 102.367 84.2898 101.578 84.2249C100.588 84.1456 99.6101 83.951 98.6643 83.6451C98.0405 83.4455 97.4389 83.1811 96.8693 82.8561C96.6635 82.7351 96.4702 82.6116 96.2919 82.4837C95.8332 82.1631 95.4281 81.7711 95.0918 81.3222C95.07 81.2952 95.0481 81.2655 95.0293 81.2359C94.6182 80.6435 94.4099 80.0127 94.4074 79.3838V77.2456H95.2207C95.6617 76.7178 96.1911 76.2721 96.7849 75.9285C99.9951 74.0095 105.318 74.0095 108.618 75.9285C109.297 76.323 109.835 76.7691 110.237 77.2456L111.116 77.2411Z" fill="url(#paint39_linear_188_1282)"/>
<path d="M111.116 77.2927C111.116 77.9557 110.889 78.6161 110.428 79.228C110.092 79.6735 109.686 80.0609 109.226 80.375C109.061 80.4909 108.884 80.6056 108.697 80.7127C108.114 81.0473 107.497 81.3188 106.857 81.5225C105.91 81.8208 104.932 82.0094 103.942 82.0847C103.323 82.1348 102.701 82.1449 102.081 82.1149C101.911 82.1069 101.742 82.096 101.572 82.0821C101.489 82.0752 101.403 82.067 101.321 82.0569C101.027 82.0279 100.734 81.9882 100.446 81.9397C99.8398 81.8417 99.2426 81.6961 98.6593 81.5043C98.2875 81.3842 97.9232 81.2419 97.5682 81.0782C97.3248 80.9654 97.0896 80.8438 96.865 80.7127C96.6597 80.5943 96.4664 80.4689 96.2875 80.3409C95.8288 80.0219 95.4236 79.6313 95.0869 79.1839C94.642 78.5802 94.4149 77.9336 94.4024 77.2858V77.2303C94.4024 76.5604 94.627 75.8918 95.0869 75.2673C95.4823 74.7297 96.0479 74.2249 96.7842 73.7851C97.9955 73.0616 99.5077 72.6104 101.101 72.4339C102.444 72.2847 103.8 72.3271 105.131 72.56C105.894 72.6939 106.643 72.902 107.366 73.1813C107.799 73.35 108.218 73.5514 108.621 73.7838C108.897 73.9434 109.162 74.1213 109.415 74.3163C109.801 74.609 110.144 74.9557 110.432 75.346C110.878 75.9498 111.105 76.5963 111.116 77.2366C111.117 77.2553 111.117 77.274 111.116 77.2927Z" fill="url(#paint40_linear_188_1282)"/>
<path d="M97.4462 80.374C94.5106 78.6669 94.4775 75.8543 97.3724 74.1238C100.267 72.3933 105.068 72.3939 108.047 74.1238C111.025 75.8537 111.055 78.6669 108.12 80.374C105.186 82.0812 100.382 82.0812 97.4462 80.374Z" fill="url(#paint41_linear_188_1282)"/>
<path d="M111.116 77.2412V77.2929C111.117 77.2757 111.117 77.2584 111.116 77.2412Z" fill="url(#paint42_linear_188_1282)"/>
<path d="M98.5405 74.1656C98.6781 74.0736 98.9202 74.0761 99.0823 74.1706L100.506 75.0019C100.671 74.9582 100.84 74.9256 101.01 74.9042C101.361 74.8598 101.715 74.8524 102.067 74.8821C102.478 74.9155 102.784 75.1682 102.711 75.414C102.674 75.5259 102.598 75.6207 102.498 75.6818C102.335 75.7809 102.152 75.8396 101.963 75.8533C101.906 75.8596 101.85 75.8623 101.793 75.8614C101.557 75.8591 101.322 75.8957 101.097 75.9698C100.954 76.0186 100.819 76.0856 100.693 76.169C100.651 76.1966 100.61 76.2269 100.572 76.2597C100.428 76.3788 100.355 76.4998 100.347 76.6227C100.344 76.6721 100.353 76.7214 100.374 76.7664C100.424 76.8759 100.51 76.9648 100.617 77.0185C100.746 77.0939 100.889 77.1411 101.037 77.1571C101.13 77.1673 101.224 77.1673 101.316 77.1571C101.517 77.1364 101.716 77.0976 101.91 77.0412C102.092 76.9914 102.304 76.9271 102.536 76.8521L102.578 76.8382C102.783 76.7696 102.943 76.7179 103.053 76.6838C103.113 76.6637 103.185 76.6422 103.268 76.6208L103.556 76.5427C103.732 76.4933 103.911 76.4552 104.092 76.4286C104.232 76.4116 104.405 76.3971 104.611 76.3889C104.797 76.379 104.983 76.3883 105.166 76.4166C105.348 76.4492 105.526 76.4953 105.701 76.5547C105.897 76.6205 106.086 76.7064 106.264 76.8111C106.852 77.1544 107.137 77.548 107.117 77.9921C107.101 78.2537 107 78.5027 106.83 78.7011L107.909 79.3313C108.069 79.4252 108.09 79.5758 107.952 79.6678C107.815 79.7598 107.572 79.7573 107.412 79.6634L106.429 79.0899C106.367 79.1422 106.291 79.1939 106.215 79.2449C106.128 79.3029 106.042 79.3565 105.951 79.4069L106.935 79.9816C107.096 80.0755 107.116 80.2261 106.979 80.3188C106.841 80.4114 106.599 80.4083 106.438 80.3144L105.358 79.6842C105.06 79.7919 104.752 79.8659 104.438 79.9047C104.027 79.9564 103.611 79.9539 103.201 79.8972C102.817 79.8449 102.557 79.6048 102.625 79.3735C102.676 79.2597 102.759 79.1636 102.864 79.0975C103.095 78.9569 103.363 78.8891 103.633 78.9027C103.753 78.9058 103.873 78.9005 103.992 78.887C104.241 78.8592 104.484 78.7906 104.711 78.6841C104.818 78.633 104.921 78.5743 105.02 78.5082C105.089 78.4629 105.145 78.4181 105.202 78.3746C105.383 78.2266 105.479 78.0873 105.487 77.9581C105.488 77.9449 105.488 77.9316 105.487 77.9184C105.481 77.7678 105.392 77.6405 105.213 77.5365C105.021 77.4268 104.802 77.3758 104.582 77.3897C104.534 77.3897 104.487 77.396 104.436 77.4023C104.219 77.4368 104.006 77.4873 103.797 77.5535C103.605 77.6109 103.385 77.6795 103.143 77.7684C102.875 77.8604 102.652 77.9304 102.45 77.9858C102.38 78.006 102.313 78.0236 102.248 78.04C101.971 78.1057 101.689 78.1516 101.405 78.1774C101.095 78.2047 100.783 78.1834 100.479 78.1144C100.165 78.0423 99.8632 77.9216 99.5853 77.7564C99.0097 77.4203 98.7248 77.0359 98.7307 76.6032C98.7351 76.3649 98.8139 76.134 98.9559 75.9434L97.6114 75.1582C97.4499 75.0636 97.4293 74.913 97.5669 74.821C97.7046 74.729 97.9467 74.7315 98.1088 74.826L99.3538 75.547C99.3926 75.5167 99.4326 75.484 99.4789 75.4575C99.5987 75.3767 99.7242 75.3049 99.8543 75.2426L98.588 74.5034C98.4247 74.4089 98.4047 74.2582 98.5405 74.1656Z" fill="url(#paint43_linear_188_1282)"/>
<path opacity="0.25" d="M105.131 72.5612L100.449 81.9397C99.8429 81.8417 99.2457 81.6961 98.6625 81.5043C98.2907 81.3842 97.9263 81.2419 97.5713 81.0782L101.101 72.4339C102.444 72.2851 103.8 72.3279 105.131 72.5612Z" fill="white"/>
<path opacity="0.25" d="M109.415 74.3179L102.085 82.114C101.916 82.106 101.746 82.095 101.576 82.0812C101.493 82.0743 101.408 82.0661 101.326 82.056L107.367 73.1816C107.8 73.3503 108.22 73.5517 108.622 73.7841C108.898 73.9442 109.163 74.1225 109.415 74.3179Z" fill="white"/>
<path d="M96.7261 101.404V103.54C96.7379 104.218 96.5102 104.896 96.0378 105.528C95.7006 105.972 95.2946 106.36 94.8353 106.675C94.6714 106.791 94.4925 106.904 94.3066 107.012C93.7234 107.347 93.106 107.617 92.4654 107.819C91.5189 108.12 90.5413 108.31 89.5517 108.386C88.763 108.452 87.9704 108.452 87.1817 108.386C86.1915 108.307 85.2138 108.112 84.268 107.806C83.6441 107.607 83.0425 107.343 82.473 107.017C82.2678 106.896 82.0739 106.773 81.8956 106.645C81.4369 106.324 81.0319 105.932 80.6956 105.484C80.6737 105.457 80.6518 105.427 80.633 105.397C80.2219 104.806 80.0136 104.174 80.0111 103.545V101.404H80.8244C81.2655 100.876 81.7949 100.43 82.3886 100.087C85.5988 98.1677 90.9219 98.1677 94.2222 100.087C94.9004 100.481 95.4391 100.928 95.8408 101.404H96.7261Z" fill="url(#paint44_linear_188_1282)"/>
<path d="M96.7261 101.455C96.7261 102.118 96.4989 102.779 96.0378 103.391C95.7016 103.836 95.2956 104.224 94.836 104.538C94.6714 104.654 94.4937 104.768 94.3079 104.876C93.7255 105.209 93.11 105.479 92.4716 105.683C91.5247 105.981 90.5472 106.17 89.558 106.245C88.9386 106.295 88.3167 106.305 87.696 106.275C87.5262 106.267 87.3565 106.256 87.1867 106.242C87.1035 106.235 87.0184 106.227 86.9365 106.217C86.6424 106.189 86.349 106.148 86.0605 106.101C85.4548 106.002 84.8576 105.856 84.2743 105.664C83.9025 105.544 83.5382 105.402 83.1832 105.238C82.9398 105.126 82.7045 105.004 82.4799 104.874C82.2747 104.755 82.0814 104.629 81.9024 104.501C81.4438 104.182 81.0385 103.792 80.7018 103.344C80.257 102.74 80.0299 102.094 80.0173 101.446V101.391C80.0173 100.721 80.242 100.052 80.7018 99.4275C81.0972 98.89 81.6628 98.3852 82.3992 97.9453C83.6105 97.2218 85.1227 96.7713 86.7162 96.5948C88.0587 96.4452 89.4154 96.4876 90.7461 96.7208C91.5092 96.8548 92.2576 97.0629 92.9809 97.3422C93.4137 97.5109 93.8333 97.7123 94.236 97.9447C94.5117 98.1047 94.7769 98.2826 95.0299 98.4772C95.4162 98.7696 95.7588 99.1164 96.0472 99.5069C96.4933 100.111 96.7204 100.757 96.7317 101.397C96.7261 101.421 96.7261 101.439 96.7261 101.455Z" fill="url(#paint45_linear_188_1282)"/>
<path d="M83.0555 104.536C80.12 102.829 80.0868 100.017 82.9817 98.2869C85.8766 96.557 90.6772 96.5564 93.656 98.2869C96.6347 100.017 96.6647 102.829 93.7298 104.536C90.7949 106.244 85.9911 106.244 83.0555 104.536Z" fill="url(#paint46_linear_188_1282)"/>
<path d="M96.7261 101.404V101.455C96.7273 101.438 96.7273 101.421 96.7261 101.404Z" fill="url(#paint47_linear_188_1282)"/>
<path d="M84.1504 98.329C84.2881 98.2364 84.5302 98.2395 84.6922 98.3334L86.1156 99.1653C86.2813 99.121 86.4497 99.0884 86.6199 99.0676C86.9706 99.023 87.325 99.0154 87.6772 99.0449C88.0877 99.0783 88.3942 99.331 88.321 99.5768C88.2838 99.6888 88.2082 99.7837 88.1077 99.8446C87.9455 99.9439 87.7621 100.003 87.5727 100.016C87.5165 100.022 87.4598 100.025 87.4032 100.024C87.1667 100.022 86.9314 100.059 86.7068 100.133C86.5644 100.182 86.4287 100.248 86.3033 100.332C86.2611 100.36 86.2206 100.39 86.1819 100.422C86.038 100.542 85.9648 100.663 85.9573 100.785C85.9543 100.835 85.9633 100.885 85.9836 100.93C86.0343 101.039 86.12 101.128 86.227 101.182C86.3561 101.257 86.4993 101.304 86.6474 101.32C86.74 101.331 86.8336 101.332 86.9265 101.324C87.1276 101.302 87.3264 101.263 87.5208 101.207C87.7029 101.157 87.9137 101.093 88.1465 101.018L88.1884 101.004C88.393 100.935 88.5525 100.884 88.6633 100.85C88.7227 100.83 88.7953 100.808 88.8779 100.787C88.9605 100.765 89.0581 100.738 89.1663 100.709C89.3422 100.659 89.5211 100.621 89.7019 100.595C89.842 100.578 90.0147 100.563 90.2211 100.555C90.4066 100.545 90.5925 100.555 90.7761 100.583C90.9576 100.615 91.1365 100.661 91.311 100.721C91.507 100.787 91.6958 100.872 91.8741 100.977C92.4622 101.32 92.7465 101.714 92.7269 102.158C92.711 102.42 92.6103 102.669 92.4403 102.867L93.519 103.497C93.6791 103.591 93.6998 103.742 93.5621 103.834C93.4245 103.926 93.1824 103.923 93.0216 103.83L92.0393 103.256C91.9767 103.308 91.901 103.36 91.8247 103.411C91.7384 103.469 91.652 103.522 91.5613 103.573L92.5455 104.148C92.7062 104.241 92.7263 104.393 92.5886 104.485C92.451 104.577 92.2088 104.574 92.0481 104.48L90.9675 103.85C90.6706 103.958 90.3625 104.032 90.0491 104.071C89.6378 104.122 89.2216 104.12 88.8109 104.063C88.4274 104.011 88.1671 103.771 88.2353 103.54C88.2853 103.426 88.3684 103.329 88.4737 103.263C88.7054 103.123 88.9732 103.055 89.2432 103.069C89.363 103.072 89.4827 103.066 89.6017 103.053C89.8509 103.025 90.0939 102.956 90.3212 102.85C90.4283 102.799 90.5316 102.741 90.6303 102.675C90.6985 102.629 90.7555 102.584 90.8118 102.541C90.9926 102.392 91.0889 102.253 91.0971 102.124C91.098 102.111 91.098 102.098 91.0971 102.084C91.0908 101.934 91.0013 101.807 90.8224 101.702C90.6309 101.593 90.4116 101.542 90.1917 101.556C90.143 101.557 90.0943 101.561 90.046 101.568C89.8295 101.601 89.6156 101.649 89.4059 101.712C89.2145 101.77 88.9942 101.839 88.7521 101.927C88.4843 102.019 88.261 102.089 88.0589 102.145C87.9894 102.165 87.9225 102.183 87.8581 102.199C87.5802 102.265 87.2982 102.311 87.014 102.336C86.7042 102.364 86.3921 102.342 86.0887 102.273C85.7744 102.201 85.4731 102.081 85.1953 101.916C84.6188 101.58 84.3337 101.196 84.34 100.763C84.3443 100.524 84.4231 100.293 84.5652 100.102L83.2226 99.3178C83.0612 99.2232 83.0405 99.0726 83.1782 98.9806C83.3158 98.8886 83.5586 98.8911 83.72 98.9857L84.9625 99.711C85.0013 99.6808 85.0414 99.648 85.0877 99.6215C85.2075 99.5409 85.333 99.4691 85.463 99.4066L84.1967 98.6674C84.0347 98.5716 84.014 98.421 84.1504 98.329Z" fill="url(#paint48_linear_188_1282)"/>
<path opacity="0.25" d="M90.7404 96.7242L86.058 106.103C85.4523 106.005 84.8551 105.859 84.2718 105.667C83.9 105.547 83.5357 105.405 83.1807 105.241L86.7106 96.5975C88.0531 96.4481 89.4098 96.4907 90.7404 96.7242Z" fill="white"/>
<path opacity="0.25" d="M95.0243 98.4802L87.6947 106.278C87.525 106.269 87.3552 106.258 87.1855 106.245C87.1023 106.238 87.0172 106.23 86.9352 106.22L92.9765 97.3452C93.4093 97.5139 93.8289 97.7153 94.2316 97.9477C94.5069 98.1078 94.7717 98.2857 95.0243 98.4802Z" fill="white"/>
<path d="M94.4055 97.5799V99.7181C94.418 100.396 94.1903 101.074 93.7173 101.706C93.3803 102.15 92.9745 102.538 92.5154 102.853C92.3515 102.969 92.1726 103.082 91.9861 103.19C91.403 103.525 90.7859 103.795 90.1454 103.997C89.1988 104.298 88.2209 104.488 87.2311 104.564C86.4425 104.629 85.6498 104.629 84.8612 104.564C83.871 104.485 82.8932 104.29 81.9475 103.984C81.3237 103.785 80.7224 103.521 80.1531 103.195C79.9473 103.074 79.7539 102.951 79.575 102.823C79.1165 102.503 78.7117 102.11 78.3756 101.662C78.3532 101.634 78.3323 101.605 78.3131 101.575C77.9014 100.983 77.6937 100.352 77.6912 99.7231V97.5849H78.5045C78.9453 97.057 79.4748 96.6112 80.0687 96.2678C83.2783 94.3489 88.6013 94.3489 91.9016 96.2678C92.5799 96.6623 93.1185 97.1085 93.5202 97.5849L94.4055 97.5799Z" fill="url(#paint49_linear_188_1282)"/>
<path d="M94.4049 97.6316C94.4049 98.2945 94.1778 98.955 93.7167 99.5669C93.3805 100.012 92.9746 100.4 92.5148 100.714C92.3509 100.83 92.1726 100.944 91.9867 101.052C91.4031 101.386 90.7862 101.657 90.1461 101.861C89.199 102.16 88.2212 102.348 87.2318 102.424C86.6126 102.474 85.9909 102.484 85.3704 102.454C85.2003 102.446 85.0305 102.435 84.8612 102.421C84.7779 102.414 84.6929 102.406 84.6109 102.396C84.3168 102.367 84.024 102.327 83.735 102.279C83.1292 102.181 82.532 102.035 81.9487 101.843C81.5772 101.723 81.213 101.581 80.8582 101.417C80.6142 101.304 80.379 101.183 80.1544 101.052C79.9492 100.933 79.7565 100.808 79.5769 100.68C79.1186 100.361 78.7135 99.97 78.3769 99.5228C77.932 98.919 77.7043 98.2725 77.6924 97.6246V97.5692C77.6924 96.8993 77.917 96.2307 78.3769 95.6061C78.7723 95.0686 79.3373 94.5638 80.0737 94.1239C81.2849 93.4005 82.7978 92.9493 84.3907 92.7728C85.7329 92.6235 87.0894 92.666 88.4199 92.8988C89.1832 93.0327 89.9319 93.2408 90.6553 93.5202C91.0881 93.6891 91.5076 93.8905 91.9104 94.1227C92.1865 94.2823 92.4517 94.4602 92.7044 94.6552C93.0903 94.9478 93.4327 95.2945 93.721 95.6849C94.1671 96.2886 94.3949 96.9352 94.4055 97.5755C94.4049 97.5969 94.4049 97.6164 94.4049 97.6316Z" fill="url(#paint50_linear_188_1282)"/>
<path d="M80.7331 100.712C77.7982 99.0052 77.765 96.1927 80.6593 94.4622C83.5535 92.7317 88.3548 92.7323 91.3335 94.4622C94.3123 96.1921 94.3429 99.0052 91.4074 100.712C88.4718 102.42 83.6687 102.42 80.7331 100.712Z" fill="url(#paint51_linear_188_1282)"/>
<path d="M94.4055 97.5801V97.6318C94.4068 97.6145 94.4068 97.5973 94.4055 97.5801Z" fill="url(#paint52_linear_188_1282)"/>
<path d="M81.8299 94.5045C81.9675 94.4125 82.2096 94.415 82.3711 94.5095L83.7944 95.3407C83.9604 95.2969 84.129 95.2645 84.2993 95.2437C84.6498 95.1988 85.004 95.1912 85.3561 95.221C85.7665 95.2544 86.0731 95.5071 86.0005 95.7529C85.963 95.8649 85.8871 95.9599 85.7865 96.0207C85.6245 96.12 85.4413 96.1787 85.2522 96.1921C85.1959 96.1984 85.1393 96.2012 85.0826 96.2003C84.846 96.1979 84.6105 96.2347 84.3857 96.3093C84.2433 96.3578 84.1076 96.4245 83.9821 96.5078C83.94 96.5355 83.8997 96.5658 83.8614 96.5986C83.7175 96.7177 83.6443 96.8387 83.6368 96.9616C83.6335 97.0109 83.6423 97.0602 83.6624 97.1053C83.7133 97.2143 83.799 97.303 83.9058 97.3573C84.0351 97.4322 84.1785 97.4792 84.3269 97.4954C84.4195 97.5065 84.513 97.5077 84.6059 97.4991C84.8068 97.4777 85.0055 97.4387 85.1996 97.3826C85.3817 97.3328 85.5932 97.2685 85.8253 97.1935L85.8672 97.1796C86.0718 97.1109 86.232 97.0593 86.3427 97.0252C86.4015 97.0057 86.4741 96.9836 86.5573 96.9622C86.6405 96.9408 86.7369 96.9131 86.8451 96.8847C87.0212 96.8349 87.2003 96.7966 87.3813 96.77C87.5214 96.753 87.6941 96.7385 87.9006 96.7303C88.086 96.7204 88.272 96.7297 88.4555 96.758C88.6368 96.7906 88.8154 96.8367 88.9899 96.896C89.1858 96.9618 89.3745 97.0477 89.5529 97.1525C90.1419 97.4962 90.4264 97.8899 90.4063 98.3335C90.3904 98.595 90.2897 98.8441 90.1198 99.0425L91.1978 99.6727C91.3586 99.7666 91.3792 99.9172 91.241 100.009C91.1027 100.101 90.8612 100.099 90.7004 100.005L89.7187 99.4313C89.6562 99.4836 89.5798 99.5353 89.5041 99.5863C89.4172 99.6443 89.3308 99.6979 89.2401 99.7483L90.2243 100.323C90.3851 100.417 90.4057 100.568 90.2681 100.66C90.1304 100.753 89.8877 100.75 89.7275 100.656L88.647 100.026C88.3497 100.133 88.0415 100.207 87.7279 100.246C87.3166 100.298 86.9004 100.295 86.4897 100.239C86.1062 100.186 85.8466 99.9462 85.9141 99.7155C85.9644 99.6012 86.0477 99.5048 86.1531 99.4389C86.3845 99.2983 86.6522 99.2305 86.9221 99.2441C87.042 99.2472 87.162 99.2419 87.2812 99.2284C87.5302 99.2005 87.773 99.1319 88.0001 99.0255C88.1072 98.9746 88.2105 98.9158 88.3091 98.8496C88.378 98.8043 88.4343 98.7595 88.4906 98.716C88.672 98.5679 88.7677 98.4287 88.7765 98.2995C88.7774 98.2863 88.7774 98.273 88.7765 98.2598C88.7709 98.1092 88.6814 97.9825 88.5025 97.8779C88.3107 97.7682 88.0913 97.7171 87.8712 97.731C87.8236 97.731 87.7761 97.7373 87.7254 97.7437C87.5087 97.7782 87.2947 97.8287 87.0854 97.8949C86.8939 97.9522 86.6737 98.0209 86.4316 98.1098C86.1644 98.2018 85.941 98.2718 85.739 98.3278C85.6689 98.3474 85.6026 98.365 85.5375 98.3814C85.2599 98.447 84.9781 98.4929 84.6941 98.5188C84.3841 98.5461 84.0717 98.5248 83.7681 98.4558C83.4538 98.3835 83.1524 98.2628 82.8747 98.0978C82.2987 97.7617 82.0138 97.3773 82.0201 96.9446C82.0243 96.7063 82.1029 96.4755 82.2447 96.2848L80.9008 95.4995C80.7387 95.405 80.7187 95.2544 80.8564 95.1624C80.994 95.0704 81.2361 95.0729 81.3982 95.1674L82.6401 95.8928C82.6795 95.8625 82.7195 95.8298 82.7652 95.8033C82.885 95.7226 83.0105 95.6508 83.1406 95.5884L81.8743 94.8435C81.7104 94.7477 81.6916 94.5971 81.8299 94.5045Z" fill="url(#paint53_linear_188_1282)"/>
<path opacity="0.25" d="M88.418 92.9003L83.7356 102.28C83.1298 102.182 82.5326 102.036 81.9494 101.845C81.5778 101.725 81.2136 101.582 80.8589 101.419L84.3888 92.7743C85.7311 92.625 87.0875 92.6674 88.418 92.9003Z" fill="white"/>
<path opacity="0.25" d="M92.7025 94.6544L85.373 102.452C85.2028 102.444 85.033 102.433 84.8637 102.419C84.7805 102.412 84.6954 102.404 84.6134 102.394L90.6535 93.52C91.0862 93.6889 91.5057 93.8903 91.9085 94.1225C92.1846 94.2819 92.4498 94.4596 92.7025 94.6544Z" fill="white"/>
<path d="M109.372 33.1383L60.6659 4.81378C60.1028 4.48608 59.5923 4.45584 59.2269 4.67136L57.7741 5.52212C58.1426 5.30659 58.65 5.33684 59.2131 5.66454L107.919 33.9891C109.038 34.6394 109.942 36.2174 109.939 37.5118L109.856 66.7526C109.856 67.3961 109.629 67.8485 109.265 68.0615L110.718 67.2108C111.082 66.9978 111.308 66.5453 111.309 65.9019L111.391 36.6648C111.395 35.3667 110.49 33.7887 109.372 33.1383Z" fill="url(#paint54_linear_188_1282)"/>
<path d="M107.919 33.9894C109.038 34.6397 109.942 36.2177 109.939 37.5121L109.856 66.753C109.852 68.048 108.943 68.5704 107.823 67.9194L59.1168 39.5918C57.9981 38.9414 57.094 37.3634 57.0978 36.0684L57.1798 6.83134C57.1835 5.5363 58.0938 5.01387 59.2125 5.66486L107.919 33.9894Z" fill="url(#paint55_linear_188_1282)"/>
<path d="M89.7331 25.957C90.3857 26.3351 90.9137 27.2571 90.9119 28.0133C90.91 28.7695 90.3782 29.0733 89.7231 28.6939L80.7093 23.4501C80.0561 23.072 79.5287 22.15 79.5306 21.3944C79.5325 20.6388 80.0637 20.3332 80.7193 20.7132L89.7331 25.957Z" fill="#B5EAFF"/>
<path d="M82.1727 39.0845C82.6645 39.3707 83.0624 40.0645 83.0605 40.6342L83.0512 43.9666C83.0512 44.5338 82.6495 44.7651 82.1577 44.479L73.6707 39.544C73.179 39.2578 72.7817 38.5646 72.7835 37.9956L72.7929 34.6625C72.7929 34.0953 73.194 33.8634 73.6857 34.1495L82.1727 39.0845Z" fill="#B5EAFF"/>
<path d="M90.1936 51.9356C90.5483 52.1417 90.8349 52.6421 90.8336 53.053C90.8324 53.4639 90.544 53.6283 90.1892 53.4223L79.7145 47.3302C79.3598 47.1241 79.0732 46.6244 79.0745 46.2142C79.0757 45.8039 79.3635 45.6375 79.7189 45.8442L90.1936 51.9356Z" fill="#B5EAFF"/>
<path d="M94.7809 46.4166C95.2727 46.7027 95.67 47.3965 95.6687 47.9656L95.6624 51.2974C95.6624 51.8646 95.2608 52.0959 94.769 51.8097L86.2776 46.876C85.7859 46.5899 85.388 45.8967 85.3892 45.3276L85.3986 41.9945C85.3986 41.4274 85.8009 41.1955 86.2927 41.4816L94.7809 46.4166Z" fill="#B5EAFF"/>
<path d="M107.389 53.7489C107.881 54.035 108.279 54.7288 108.277 55.2979L108.267 58.631C108.267 59.1981 107.866 59.4294 107.374 59.1433L98.8877 54.2083C98.3953 53.9222 97.998 53.229 97.9999 52.6599L98.0093 49.3268C98.0093 48.7597 98.4103 48.5271 98.9027 48.8139L107.389 53.7489Z" fill="#B5EAFF"/>
<path d="M76.9185 44.2161C77.2732 44.4221 77.5598 44.9219 77.5585 45.3328C77.5573 45.7437 77.2689 45.9081 76.9141 45.7021L60.8023 36.3324C60.4475 36.1263 60.161 35.6266 60.1622 35.2163C60.1635 34.8061 60.4519 34.6397 60.806 34.8458L76.9185 44.2161Z" fill="#B5EAFF"/>
<path d="M69.5646 31.752C70.0569 32.0388 70.4542 32.732 70.4524 33.3017L70.443 36.6341C70.443 37.2013 70.0413 37.4332 69.5489 37.1471L61.0638 32.2121C60.5714 31.9253 60.1741 31.2321 60.1754 30.6631L60.1848 27.33C60.1848 26.7628 60.5864 26.5309 61.0788 26.817L69.5646 31.752Z" fill="#B5EAFF"/>
<path d="M69.0678 19.3405L69.0603 22.0799L64.9648 19.6984L64.9723 16.959L69.0678 19.3405Z" fill="url(#paint56_linear_188_1282)"/>
<path d="M64.4868 22.9785L64.4786 25.718L61.5737 24.0284C60.7873 23.569 60.1522 22.4624 60.1547 21.5524V20.4609L64.4868 22.9785Z" fill="url(#paint57_linear_188_1282)"/>
<path d="M64.4949 19.9683L64.488 22.4367L60.1591 19.9198L60.1666 17.4507L64.4949 19.9683Z" fill="url(#paint58_linear_188_1282)"/>
<path d="M69.0496 25.6325L69.0421 28.3719L64.9466 25.9904L64.9547 23.251L69.0496 25.6325Z" fill="url(#paint59_linear_188_1282)"/>
<path d="M64.5049 16.6868L64.4974 19.4262L60.1685 16.9092L60.1716 15.8177C60.1716 14.9077 60.8135 14.5403 61.6 14.9985L64.5049 16.6868Z" fill="url(#paint60_linear_188_1282)"/>
<path d="M69.0584 22.6217L69.0515 25.0902L64.956 22.7087L64.9629 20.2402L69.0584 22.6217Z" fill="url(#paint61_linear_188_1282)"/>
<path d="M73.8465 28.4218V29.5133C73.8465 30.4232 73.2052 30.7906 72.4182 30.3325L69.5101 28.6442L69.5183 25.9048L73.8465 28.4218Z" fill="url(#paint62_linear_188_1282)"/>
<path d="M73.8553 25.411L73.8484 27.8801L69.5195 25.3625L69.5264 22.894L73.8553 25.411Z" fill="url(#paint63_linear_188_1282)"/>
<path d="M72.4407 21.3004C73.2271 21.7579 73.8622 22.8664 73.8597 23.7764V24.8679L69.5314 22.3503L69.5389 19.6108L72.4407 21.3004Z" fill="url(#paint64_linear_188_1282)"/>
<path d="M76.4505 18.2326C77.1037 18.6107 77.6311 19.5327 77.6286 20.2889C77.6261 21.0451 77.0956 21.3489 76.4399 20.9695L61.3616 12.2017C60.7122 11.8217 60.1879 10.9022 60.1879 10.146C60.1879 9.38975 60.721 9.08537 61.3766 9.46537L76.4505 18.2326Z" fill="#B5EAFF"/>
</g>
<defs>
<linearGradient id="paint0_linear_188_1282" x1="13.3077" y1="65.2349" x2="130.046" y2="65.2349" gradientUnits="userSpaceOnUse">
<stop stop-color="#F5F5F5"/>
<stop offset="1" stop-color="#CBD4EC"/>
</linearGradient>
<linearGradient id="paint1_linear_188_1282" x1="89.8745" y1="36.4238" x2="41.4214" y2="112.056" gradientUnits="userSpaceOnUse">
<stop stop-color="#92D5F7"/>
<stop offset="1" stop-color="#4F39E3"/>
</linearGradient>
<linearGradient id="paint2_linear_188_1282" x1="66.2067" y1="51.5235" x2="78.2058" y2="81.0539" gradientUnits="userSpaceOnUse">
<stop stop-color="#F5F5F5"/>
<stop offset="1" stop-color="white"/>
</linearGradient>
<linearGradient id="paint3_linear_188_1282" x1="44.8187" y1="22.9589" x2="36.5017" y2="45.0316" gradientUnits="userSpaceOnUse">
<stop stop-color="#48E4FF"/>
<stop offset="0.45" stop-color="#2B98E0"/>
<stop offset="1" stop-color="#2064A3"/>
</linearGradient>
<linearGradient id="paint4_linear_188_1282" x1="48.1703" y1="24.6504" x2="40.8168" y2="41.6333" gradientUnits="userSpaceOnUse">
<stop stop-color="#C7FFF5"/>
<stop offset="0.32" stop-color="#77BBF7"/>
<stop offset="1" stop-color="#3B8DEB"/>
</linearGradient>
<linearGradient id="paint5_linear_188_1282" x1="105.189" y1="7.64499" x2="109.431" y2="27.278" gradientUnits="userSpaceOnUse">
<stop stop-color="#FFE148"/>
<stop offset="0.45" stop-color="#CF8C29"/>
<stop offset="1" stop-color="#C48527"/>
</linearGradient>
<linearGradient id="paint6_linear_188_1282" x1="104.072" y1="8.57435" x2="106.103" y2="28.1904" gradientUnits="userSpaceOnUse">
<stop stop-color="#FFF0C7"/>
<stop offset="0.32" stop-color="#F7D377"/>
<stop offset="1" stop-color="#EBA43B"/>
</linearGradient>
<linearGradient id="paint7_linear_188_1282" x1="19.7651" y1="62.7652" x2="19.6719" y2="34.8838" gradientUnits="userSpaceOnUse">
<stop stop-color="#2AB7FA"/>
<stop offset="1" stop-color="#2262B9"/>
</linearGradient>
<linearGradient id="paint8_linear_188_1282" x1="19.7152" y1="47.5994" x2="19.7073" y2="45.2305" gradientUnits="userSpaceOnUse">
<stop stop-color="#2AB7FA"/>
<stop offset="1" stop-color="#2262B9"/>
</linearGradient>
<linearGradient id="paint9_linear_188_1282" x1="25.7233" y1="58.4334" x2="25.6075" y2="23.7631" gradientUnits="userSpaceOnUse">
<stop stop-color="#2AB7FA"/>
<stop offset="1" stop-color="#2262B9"/>
</linearGradient>
<linearGradient id="paint10_linear_188_1282" x1="25.662" y1="39.4461" x2="25.6541" y2="37.0772" gradientUnits="userSpaceOnUse">
<stop stop-color="#2AB7FA"/>
<stop offset="1" stop-color="#2262B9"/>
</linearGradient>
<linearGradient id="paint11_linear_188_1282" x1="7.62504" y1="68.9141" x2="7.50923" y2="34.2438" gradientUnits="userSpaceOnUse">
<stop stop-color="#2AB7FA"/>
<stop offset="1" stop-color="#2262B9"/>
</linearGradient>
<linearGradient id="paint12_linear_188_1282" x1="7.56331" y1="49.927" x2="7.5554" y2="47.5582" gradientUnits="userSpaceOnUse">
<stop stop-color="#2AB7FA"/>
<stop offset="1" stop-color="#2262B9"/>
</linearGradient>
<linearGradient id="paint13_linear_188_1282" x1="1.43254" y1="74.6933" x2="1.36776" y2="55.2987" gradientUnits="userSpaceOnUse">
<stop stop-color="#2AB7FA"/>
<stop offset="1" stop-color="#2262B9"/>
</linearGradient>
<linearGradient id="paint14_linear_188_1282" x1="1.39919" y1="64.3041" x2="1.39128" y2="61.9353" gradientUnits="userSpaceOnUse">
<stop stop-color="#2AB7FA"/>
<stop offset="1" stop-color="#2262B9"/>
</linearGradient>
<linearGradient id="paint15_linear_188_1282" x1="13.7966" y1="64.1944" x2="13.6468" y2="19.3402" gradientUnits="userSpaceOnUse">
<stop stop-color="#2AB7FA"/>
<stop offset="1" stop-color="#2262B9"/>
</linearGradient>
<linearGradient id="paint16_linear_188_1282" x1="13.716" y1="39.4759" x2="13.7081" y2="37.107" gradientUnits="userSpaceOnUse">
<stop stop-color="#2AB7FA"/>
<stop offset="1" stop-color="#2262B9"/>
</linearGradient>
<linearGradient id="paint17_linear_188_1282" x1="33.3498" y1="75.322" x2="80.0374" y2="75.322" gradientUnits="userSpaceOnUse">
<stop stop-color="#487FFF"/>
<stop offset="0.45" stop-color="#2B49E0"/>
<stop offset="1" stop-color="#202FA3"/>
</linearGradient>
<linearGradient id="paint18_linear_188_1282" x1="33.3542" y1="72.3526" x2="80.0374" y2="72.3526" gradientUnits="userSpaceOnUse">
<stop stop-color="#619FFF"/>
<stop offset="0.39" stop-color="#4879F7"/>
<stop offset="1" stop-color="#304ED9"/>
</linearGradient>
<linearGradient id="paint19_linear_188_1282" x1="96.9194" y1="89.7038" x2="100.839" y2="91.7212" gradientUnits="userSpaceOnUse">
<stop stop-color="#FFBD00"/>
<stop offset="0.26" stop-color="#FFE7B3"/>
<stop offset="0.5" stop-color="#FFA100"/>
<stop offset="1" stop-color="#C27A00"/>
</linearGradient>
<linearGradient id="paint20_linear_188_1282" x1="104.44" y1="94.4521" x2="102.888" y2="90.9622" gradientUnits="userSpaceOnUse">
<stop stop-color="#FFE087"/>
<stop offset="1" stop-color="#BD8C00"/>
</linearGradient>
<linearGradient id="paint21_linear_188_1282" x1="102.309" y1="89.9161" x2="111.255" y2="103.617" gradientUnits="userSpaceOnUse">
<stop stop-color="#FFC31B"/>
<stop offset="1" stop-color="#FFEBB3"/>
</linearGradient>
<linearGradient id="paint22_linear_188_1282" x1="111.122" y1="90.6039" x2="111.113" y2="90.6467" gradientUnits="userSpaceOnUse">
<stop stop-color="#F6F6F6"/>
<stop offset="1" stop-color="#8EBCE0"/>
</linearGradient>
<linearGradient id="paint23_linear_188_1282" x1="102.762" y1="85.8197" x2="102.762" y2="85.9653" gradientUnits="userSpaceOnUse">
<stop stop-color="#B06600"/>
<stop offset="1" stop-color="#D97E00"/>
</linearGradient>
<linearGradient id="paint24_linear_188_1282" x1="93.7079" y1="86.1306" x2="97.6264" y2="88.148" gradientUnits="userSpaceOnUse">
<stop stop-color="#FFBD00"/>
<stop offset="0.26" stop-color="#FFE7B3"/>
<stop offset="0.5" stop-color="#FFA100"/>
<stop offset="1" stop-color="#C27A00"/>
</linearGradient>
<linearGradient id="paint25_linear_188_1282" x1="101.228" y1="90.8784" x2="99.6755" y2="87.3885" gradientUnits="userSpaceOnUse">
<stop stop-color="#FFE087"/>
<stop offset="1" stop-color="#BD8C00"/>
</linearGradient>
<linearGradient id="paint26_linear_188_1282" x1="99.0967" y1="86.3421" x2="108.043" y2="100.043" gradientUnits="userSpaceOnUse">
<stop stop-color="#FFC31B"/>
<stop offset="1" stop-color="#FFEBB3"/>
</linearGradient>
<linearGradient id="paint27_linear_188_1282" x1="107.91" y1="87.0299" x2="107.901" y2="87.0734" gradientUnits="userSpaceOnUse">
<stop stop-color="#F6F6F6"/>
<stop offset="1" stop-color="#8EBCE0"/>
</linearGradient>
<linearGradient id="paint28_linear_188_1282" x1="99.5496" y1="82.246" x2="99.5496" y2="82.3922" gradientUnits="userSpaceOnUse">
<stop stop-color="#FAD6C7"/>
<stop offset="1" stop-color="#E4857F"/>
</linearGradient>
<linearGradient id="paint29_linear_188_1282" x1="96.9194" y1="83.3338" x2="100.838" y2="85.3512" gradientUnits="userSpaceOnUse">
<stop stop-color="#FFBD00"/>
<stop offset="0.26" stop-color="#FFE7B3"/>
<stop offset="0.5" stop-color="#FFA100"/>
<stop offset="1" stop-color="#C27A00"/>
</linearGradient>
<linearGradient id="paint30_linear_188_1282" x1="104.44" y1="88.0815" x2="102.888" y2="84.5916" gradientUnits="userSpaceOnUse">
<stop stop-color="#FFE087"/>
<stop offset="1" stop-color="#BD8C00"/>
</linearGradient>
<linearGradient id="paint31_linear_188_1282" x1="102.309" y1="83.5457" x2="111.255" y2="97.2463" gradientUnits="userSpaceOnUse">
<stop stop-color="#FFC31B"/>
<stop offset="1" stop-color="#FFEBB3"/>
</linearGradient>
<linearGradient id="paint32_linear_188_1282" x1="111.122" y1="84.2331" x2="111.113" y2="84.276" gradientUnits="userSpaceOnUse">
<stop stop-color="#F6F6F6"/>
<stop offset="1" stop-color="#8EBCE0"/>
</linearGradient>
<linearGradient id="paint33_linear_188_1282" x1="102.762" y1="79.4491" x2="102.762" y2="79.5953" gradientUnits="userSpaceOnUse">
<stop stop-color="#FAD6C7"/>
<stop offset="1" stop-color="#E4857F"/>
</linearGradient>
<linearGradient id="paint34_linear_188_1282" x1="96.9194" y1="80.1691" x2="100.839" y2="82.1865" gradientUnits="userSpaceOnUse">
<stop stop-color="#FFBD00"/>
<stop offset="0.26" stop-color="#FFE7B3"/>
<stop offset="0.5" stop-color="#FFA100"/>
<stop offset="1" stop-color="#C27A00"/>
</linearGradient>
<linearGradient id="paint35_linear_188_1282" x1="104.44" y1="84.9166" x2="102.887" y2="81.4267" gradientUnits="userSpaceOnUse">
<stop stop-color="#FFE087"/>
<stop offset="1" stop-color="#BD8C00"/>
</linearGradient>
<linearGradient id="paint36_linear_188_1282" x1="102.309" y1="80.3807" x2="111.255" y2="94.0819" gradientUnits="userSpaceOnUse">
<stop stop-color="#FFC31B"/>
<stop offset="1" stop-color="#FFEBB3"/>
</linearGradient>
<linearGradient id="paint37_linear_188_1282" x1="111.122" y1="81.0681" x2="111.112" y2="81.1116" gradientUnits="userSpaceOnUse">
<stop stop-color="#F6F6F6"/>
<stop offset="1" stop-color="#8EBCE0"/>
</linearGradient>
<linearGradient id="paint38_linear_188_1282" x1="102.762" y1="76.2844" x2="102.762" y2="76.4306" gradientUnits="userSpaceOnUse">
<stop stop-color="#B06600"/>
<stop offset="1" stop-color="#D97E00"/>
</linearGradient>
<linearGradient id="paint39_linear_188_1282" x1="96.9194" y1="76.345" x2="100.838" y2="78.3624" gradientUnits="userSpaceOnUse">
<stop stop-color="#FFBD00"/>
<stop offset="0.26" stop-color="#FFE7B3"/>
<stop offset="0.5" stop-color="#FFA100"/>
<stop offset="1" stop-color="#C27A00"/>
</linearGradient>
<linearGradient id="paint40_linear_188_1282" x1="104.44" y1="81.0927" x2="102.887" y2="77.6029" gradientUnits="userSpaceOnUse">
<stop stop-color="#FFE087"/>
<stop offset="1" stop-color="#BD8C00"/>
</linearGradient>
<linearGradient id="paint41_linear_188_1282" x1="102.309" y1="76.557" x2="111.255" y2="90.2575" gradientUnits="userSpaceOnUse">
<stop stop-color="#FFC31B"/>
<stop offset="1" stop-color="#FFEBB3"/>
</linearGradient>
<linearGradient id="paint42_linear_188_1282" x1="111.122" y1="77.2444" x2="111.112" y2="77.2878" gradientUnits="userSpaceOnUse">
<stop stop-color="#F6F6F6"/>
<stop offset="1" stop-color="#8EBCE0"/>
</linearGradient>
<linearGradient id="paint43_linear_188_1282" x1="102.762" y1="72.4603" x2="102.762" y2="72.6065" gradientUnits="userSpaceOnUse">
<stop stop-color="#B06600"/>
<stop offset="1" stop-color="#D97E00"/>
</linearGradient>
<linearGradient id="paint44_linear_188_1282" x1="82.5287" y1="100.508" x2="86.4478" y2="102.525" gradientUnits="userSpaceOnUse">
<stop stop-color="#FFBD00"/>
<stop offset="0.26" stop-color="#FFE7B3"/>
<stop offset="0.5" stop-color="#FFA100"/>
<stop offset="1" stop-color="#C27A00"/>
</linearGradient>
<linearGradient id="paint45_linear_188_1282" x1="90.0491" y1="105.256" x2="88.4963" y2="101.766" gradientUnits="userSpaceOnUse">
<stop stop-color="#FFE087"/>
<stop offset="1" stop-color="#BD8C00"/>
</linearGradient>
<linearGradient id="paint46_linear_188_1282" x1="87.9181" y1="100.719" x2="96.8646" y2="114.421" gradientUnits="userSpaceOnUse">
<stop stop-color="#FFC31B"/>
<stop offset="1" stop-color="#FFEBB3"/>
</linearGradient>
<linearGradient id="paint47_linear_188_1282" x1="96.7317" y1="101.407" x2="96.7215" y2="101.45" gradientUnits="userSpaceOnUse">
<stop stop-color="#F6F6F6"/>
<stop offset="1" stop-color="#8EBCE0"/>
</linearGradient>
<linearGradient id="paint48_linear_188_1282" x1="88.3711" y1="96.6237" x2="88.3711" y2="96.7693" gradientUnits="userSpaceOnUse">
<stop stop-color="#B06600"/>
<stop offset="1" stop-color="#D97E00"/>
</linearGradient>
<linearGradient id="paint49_linear_188_1282" x1="80.2063" y1="96.6837" x2="84.1254" y2="98.7012" gradientUnits="userSpaceOnUse">
<stop stop-color="#FFBD00"/>
<stop offset="0.26" stop-color="#FFE7B3"/>
<stop offset="0.5" stop-color="#FFA100"/>
<stop offset="1" stop-color="#C27A00"/>
</linearGradient>
<linearGradient id="paint50_linear_188_1282" x1="87.7273" y1="101.432" x2="86.1745" y2="97.9417" gradientUnits="userSpaceOnUse">
<stop stop-color="#FFE087"/>
<stop offset="1" stop-color="#BD8C00"/>
</linearGradient>
<linearGradient id="paint51_linear_188_1282" x1="85.5957" y1="96.8954" x2="94.5422" y2="110.597" gradientUnits="userSpaceOnUse">
<stop stop-color="#FFC31B"/>
<stop offset="1" stop-color="#FFEBB3"/>
</linearGradient>
<linearGradient id="paint52_linear_188_1282" x1="94.4093" y1="97.5832" x2="94.3997" y2="97.6267" gradientUnits="userSpaceOnUse">
<stop stop-color="#F6F6F6"/>
<stop offset="1" stop-color="#8EBCE0"/>
</linearGradient>
<linearGradient id="paint53_linear_188_1282" x1="86.0487" y1="92.7992" x2="86.0487" y2="92.9454" gradientUnits="userSpaceOnUse">
<stop stop-color="#B06600"/>
<stop offset="1" stop-color="#D97E00"/>
</linearGradient>
<linearGradient id="paint54_linear_188_1282" x1="66.2792" y1="-1.61542" x2="122.357" y2="65.2325" gradientUnits="userSpaceOnUse">
<stop stop-color="#00ADFF"/>
<stop offset="0.49" stop-color="#00A3F7"/>
<stop offset="1" stop-color="#1D9FE0"/>
</linearGradient>
<linearGradient id="paint55_linear_188_1282" x1="108.132" y1="65.6192" x2="57.0122" y2="6.60474" gradientUnits="userSpaceOnUse">
<stop stop-color="#92D5F7"/>
<stop offset="1" stop-color="#59C2F7"/>
</linearGradient>
<linearGradient id="paint56_linear_188_1282" x1="74.3996" y1="28.3661" x2="61.8777" y2="13.5783" gradientUnits="userSpaceOnUse">
<stop stop-color="#FFBC00"/>
<stop offset="1" stop-color="#FFEBB3"/>
</linearGradient>
<linearGradient id="paint57_linear_188_1282" x1="70.062" y1="32.0388" x2="57.5406" y2="17.2504" gradientUnits="userSpaceOnUse">
<stop stop-color="#FFBC00"/>
<stop offset="1" stop-color="#FFEBB3"/>
</linearGradient>
<linearGradient id="paint58_linear_188_1282" x1="71.4446" y1="30.8681" x2="58.9227" y2="16.0803" gradientUnits="userSpaceOnUse">
<stop stop-color="#FFBC00"/>
<stop offset="1" stop-color="#FFEBB3"/>
</linearGradient>
<linearGradient id="paint59_linear_188_1282" x1="71.3126" y1="30.9803" x2="58.7907" y2="16.1925" gradientUnits="userSpaceOnUse">
<stop stop-color="#FFBC00"/>
<stop offset="1" stop-color="#FFEBB3"/>
</linearGradient>
<linearGradient id="paint60_linear_188_1282" x1="72.9881" y1="29.5609" x2="60.4662" y2="14.7731" gradientUnits="userSpaceOnUse">
<stop stop-color="#FFBC00"/>
<stop offset="1" stop-color="#FFEBB3"/>
</linearGradient>
<linearGradient id="paint61_linear_188_1282" x1="72.8561" y1="29.6729" x2="60.3342" y2="14.8851" gradientUnits="userSpaceOnUse">
<stop stop-color="#FFBC00"/>
<stop offset="1" stop-color="#FFEBB3"/>
</linearGradient>
<linearGradient id="paint62_linear_188_1282" x1="72.7235" y1="29.7855" x2="60.2021" y2="14.9971" gradientUnits="userSpaceOnUse">
<stop stop-color="#FFBC00"/>
<stop offset="1" stop-color="#FFEBB3"/>
</linearGradient>
<linearGradient id="paint63_linear_188_1282" x1="74.267" y1="28.4782" x2="61.7456" y2="13.6898" gradientUnits="userSpaceOnUse">
<stop stop-color="#FFBC00"/>
<stop offset="1" stop-color="#FFEBB3"/>
</linearGradient>
<linearGradient id="paint64_linear_188_1282" x1="75.6497" y1="27.3073" x2="63.1277" y2="12.5196" gradientUnits="userSpaceOnUse">
<stop stop-color="#FFBC00"/>
<stop offset="1" stop-color="#FFEBB3"/>
</linearGradient>
<clipPath id="clip0_188_1282">
<rect width="131" height="113" fill="white"/>
</clipPath>
</defs>
</svg>
