<svg width="45" height="45" viewBox="0 0 45 45" fill="none" xmlns="http://www.w3.org/2000/svg">
<g clip-path="url(#clip0_173_319)">
<path d="M17.1884 30.6754C16.81 30.6754 16.4281 30.709 16.0541 30.6692C14.8508 30.5406 13.8845 29.5665 13.7392 28.3704C13.5989 27.2161 14.3675 25.9943 15.4838 25.5975C16.5781 25.2085 17.9299 25.6834 18.5314 26.691C18.7247 27.0155 18.8585 27.3742 19.0227 27.7155C19.2054 28.0952 19.3793 28.1406 19.6466 27.8229C19.9521 27.4578 20.232 27.072 20.4844 26.6683C20.9486 25.9282 21.3871 25.1722 21.8309 24.4197C22.3319 23.5713 23.191 23.346 24.0539 23.8297C24.938 24.3259 25.8251 24.8185 26.7195 25.2961C27.0012 25.4422 27.2958 25.5618 27.5995 25.6533C27.9311 25.7574 28.0628 25.6447 28.0634 25.2993C28.0634 24.8061 28.0012 24.3055 28.0669 23.8218C28.2467 22.4926 29.5169 21.5233 30.8504 21.6457C32.2061 21.7705 33.2965 22.9409 33.2302 24.261C33.1757 25.3262 32.6844 26.1456 31.6954 26.6191C31.4334 26.7447 31.1596 26.8477 30.9017 26.9807C30.6439 27.1138 30.6041 27.2784 30.8133 27.4801C31.0526 27.7146 31.3149 27.9243 31.5963 28.1061C32.4778 28.6589 33.3696 29.1954 34.2646 29.7264C35.1325 30.2414 35.3654 31.1081 34.8708 31.9939C34.3461 32.9337 33.8287 33.8777 33.3186 34.8257C33.2006 35.0527 33.1041 35.2902 33.0304 35.5352C32.9013 35.9467 33.0183 36.0791 33.443 36.0402C33.7851 36.0083 34.1279 35.9576 34.4706 35.9564C35.7591 35.9511 36.9462 36.9983 37.0584 38.223C37.1869 39.6148 36.2672 40.8779 34.9427 41.131C33.8868 41.3321 32.7077 40.7696 32.143 39.7838C31.9895 39.5165 31.871 39.2295 31.7245 38.9578C31.543 38.6204 31.3756 38.5879 31.1186 38.8738C30.8817 39.1352 30.6682 39.417 30.4806 39.7159C29.9734 40.533 29.4812 41.3599 28.9953 42.19C28.4816 43.0678 27.6258 43.3 26.739 42.8053C25.7615 42.2596 24.7785 41.7238 23.7899 41.1979C23.5511 41.0714 23.2853 40.9873 23.0236 40.9165C22.7911 40.8534 22.662 40.9608 22.6673 41.2047C22.6726 41.4487 22.7089 41.697 22.7401 41.9422C22.9149 43.3088 22.0953 44.5932 20.8363 44.9215C19.6209 45.2386 18.2585 44.5675 17.7522 43.3991C17.263 42.2717 17.7227 40.8251 18.8037 40.1502C19.1017 39.9637 19.43 39.8272 19.7406 39.6611C20.1042 39.4664 20.1411 39.2879 19.8257 39.0201C19.4898 38.7348 19.1335 38.4745 18.7598 38.241C18.0195 37.7785 17.2653 37.3375 16.5112 36.8977C15.6589 36.4004 15.4334 35.5487 15.9153 34.6794C16.4493 33.7163 16.9709 32.7429 17.4887 31.7694C17.5897 31.5733 17.6701 31.3672 17.7286 31.1544C17.8406 30.7653 17.7433 30.6465 17.3473 30.6497C17.2942 30.6497 17.2415 30.6497 17.1884 30.6497V30.6754Z" fill="#E77D00"/>
<path d="M19.4391 27.117C19.0183 26.0961 18.3847 25.3565 17.3467 25.0226C16.625 24.7908 15.9118 24.7654 15.1953 25.035C13.7678 25.5731 12.8789 27.1533 13.1324 28.6553C13.3511 29.9473 14.7356 31.5792 17.0069 31.3081C16.9459 31.4332 16.9026 31.5426 16.843 31.642C16.3173 32.5202 15.7821 33.3924 15.2628 34.2744C14.7524 35.1417 13.9125 35.3659 13.0281 34.8741C12.0261 34.3178 11.0185 33.7721 10.0053 33.237C9.78275 33.119 9.52989 33.0511 9.28381 32.9898C9.06543 32.9352 8.93989 33.0553 8.95079 33.2774C8.96346 33.5325 8.99293 33.7874 9.02741 34.0408C9.26819 35.7962 7.80998 37.1278 6.43222 37.077C5.29112 37.0352 4.22722 36.2464 3.91985 35.1747C3.61865 34.1252 4.09078 32.8668 5.0362 32.2544C5.32353 32.0686 5.64152 31.9299 5.94714 31.7733C6.40629 31.5373 6.43841 31.3559 6.03555 31.0228C5.73631 30.7753 5.42043 30.5486 5.09013 30.3444C4.3401 29.881 3.58005 29.4329 2.81941 28.9875C1.93028 28.4656 1.70925 27.6102 2.21438 26.7117C2.74485 25.766 3.2597 24.8099 3.76837 23.8504C3.88001 23.6303 3.9668 23.3985 4.02712 23.1592C4.11317 22.8406 4.00502 22.7114 3.67082 22.7168C3.29182 22.7235 2.91283 22.7728 2.53502 22.7613C1.28723 22.725 0.206242 21.7489 0.0244075 20.5156C-0.145933 19.3687 0.592897 18.1189 1.69215 17.6941C2.76607 17.2791 4.12585 17.7035 4.75387 18.6802C4.96694 19.0112 5.11076 19.3882 5.2808 19.7448C5.4871 20.1799 5.66392 20.2259 5.96305 19.8492C6.31048 19.4045 6.63318 18.941 6.92969 18.4608C7.33727 17.8118 7.71626 17.1425 8.10498 16.4806C8.58535 15.6626 9.48362 15.4228 10.3153 15.8847C11.2634 16.4109 12.2108 16.9384 13.1683 17.4481C13.4218 17.5829 13.7053 17.6717 13.985 17.7431C14.2234 17.8021 14.3339 17.7009 14.341 17.4516C14.3424 17.2664 14.3318 17.0812 14.3092 16.8974C14.178 15.6207 14.7085 14.5239 15.7199 13.9877C16.663 13.4862 17.8598 13.6632 18.692 14.4263C19.5172 15.1835 19.7418 16.2735 19.3009 17.3331C19.0442 17.9504 18.6107 18.3917 18.0145 18.6776C17.7681 18.7956 17.5135 18.8935 17.2657 19.0106C16.9011 19.1838 16.8643 19.3522 17.1572 19.6206C17.3832 19.8301 17.6281 20.0182 17.8887 20.1826C18.7728 20.7318 19.6626 21.2712 20.5581 21.8005C21.4246 22.3141 21.6556 23.1637 21.164 24.0406C20.6465 24.9642 20.1411 25.8943 19.6286 26.8208C19.5832 26.9049 19.5258 26.9828 19.4391 27.117Z" fill="#E9A556"/>
<path d="M13.6811 17.0125C13.4721 16.9063 13.2877 16.8251 13.1156 16.7228C12.2969 16.2361 11.4838 15.7402 10.6645 15.2544C9.83929 14.7644 9.61384 13.9163 10.0812 13.0753C10.6117 12.1194 11.1347 11.1588 11.6503 10.1937C11.7592 9.98188 11.8472 9.75999 11.9131 9.53113C12.0331 9.13851 11.9261 9.01374 11.5112 9.02141C11.0626 9.02937 10.6088 9.0804 10.1658 9.03262C8.86912 8.89162 7.80434 7.60933 7.90896 6.36038C8.03333 4.8722 9.19153 3.76926 10.5958 3.85717C11.5946 3.9197 12.3782 4.38282 12.8432 5.30258C12.9862 5.58576 13.0973 5.88516 13.2396 6.16864C13.3849 6.45802 13.552 6.49312 13.7701 6.25714C14.0055 6.00652 14.2173 5.73467 14.4028 5.44505C14.9408 4.58489 15.4663 3.71705 15.9795 2.84155C16.5153 1.93359 17.3582 1.71236 18.2768 2.2271C19.2534 2.77282 20.241 3.30113 21.2306 3.82413C21.4304 3.92973 21.6562 3.99669 21.879 4.04714C22.1147 4.10112 22.2367 4.00053 22.2388 3.75599C22.2406 3.49051 22.2149 3.22738 22.1961 2.96308C22.0976 1.58729 22.9635 0.353969 24.2351 0.058988C25.401 -0.21033 26.7071 0.451313 27.2117 1.56664C27.6997 2.64627 27.3213 4.0495 26.3329 4.72854C26.0382 4.9312 25.6954 5.06364 25.3739 5.22706C25.2716 5.27898 25.1632 5.31939 25.0653 5.37809C24.8254 5.52175 24.8001 5.65626 24.9934 5.86599C25.1157 6.00539 25.2558 6.12798 25.4101 6.23059C26.4033 6.85388 27.3962 7.47807 28.4017 8.08071C29.348 8.64767 29.5646 9.44264 29.0256 10.4096C28.4866 11.3765 27.9647 12.3426 27.4472 13.316C27.3322 13.532 27.2529 13.7709 27.186 14.0075C27.1012 14.3078 27.2188 14.4455 27.5329 14.4302C27.7439 14.4196 27.9541 14.3871 28.1639 14.3612C29.559 14.1886 30.8669 15.0216 31.1799 16.2865C31.4799 17.4942 30.8289 18.8192 29.6807 19.3381C28.5821 19.8345 27.1483 19.4107 26.4543 18.3629C26.2509 18.0558 26.1039 17.7116 25.9312 17.3841C25.7249 16.9924 25.5413 16.9526 25.2607 17.2918C24.9697 17.6454 24.7024 18.0179 24.4606 18.4068C24.0121 19.1251 23.5874 19.8584 23.1577 20.5897C22.6567 21.4416 21.7959 21.6711 20.9394 21.1894C20.1016 20.7174 19.2549 20.2634 18.4156 19.7956C18.2387 19.6977 18.079 19.5732 17.8653 19.4304C19.0091 19.0021 19.7426 18.2369 20.0462 17.0859C20.2318 16.3779 20.1903 15.6853 19.8876 15.016C19.2614 13.6317 17.6281 12.8075 16.1888 13.1452C14.5584 13.5264 13.6363 14.9293 13.6811 17.0125Z" fill="#E77D00"/>
<path d="M31.6 27.3673C33.6751 26.6068 34.1407 24.4257 33.7166 23.2116C33.2197 21.7889 31.6808 20.8204 30.1663 21.0266C29.2385 21.1529 28.5368 21.6535 27.9925 22.4001C27.4482 23.1467 27.3103 23.9903 27.4187 24.949C27.1865 24.831 26.9979 24.7449 26.8208 24.6402C26.0251 24.1682 25.2341 23.6853 24.4336 23.2172C23.5651 22.7086 23.3344 21.8284 23.831 20.9508C24.3437 20.0449 24.8365 19.1278 25.339 18.2161C25.3808 18.14 25.4294 18.0686 25.5081 17.9388C26.0581 19.2072 26.9817 19.9573 28.3185 20.1488C28.9618 20.2443 29.6186 20.1201 30.1828 19.7963C31.4524 19.0845 32.152 17.4904 31.7889 16.1311C31.5635 15.2866 31.0395 14.666 30.3216 14.1928C29.5984 13.7161 28.7985 13.6344 27.9318 13.7524C27.9781 13.6639 28.0061 13.6005 28.0411 13.5424C28.6117 12.5984 29.1878 11.6577 29.7525 10.7106C30.2438 9.88608 31.0967 9.64685 31.9289 10.1268C35.3593 12.1049 38.7877 14.0853 42.2142 16.068C43.0453 16.5488 43.2639 17.4137 42.7962 18.2485C42.279 19.1721 41.7674 20.0992 41.2723 21.0346C41.1167 21.3281 41.0021 21.6479 40.9057 21.967C40.8214 22.2467 40.9299 22.3694 41.2252 22.3564C41.577 22.3408 41.9274 22.2862 42.2796 22.2726C43.6379 22.2207 44.8551 23.2679 44.985 24.5912C45.1171 25.936 44.1389 27.2251 42.8107 27.4569C41.8119 27.6313 40.6761 27.103 40.1206 26.1918C39.9559 25.9216 39.8285 25.6284 39.6841 25.3458C39.4625 24.911 39.2827 24.8756 38.9659 25.2537C38.696 25.5791 38.4492 25.923 38.2274 26.2829C37.7665 27.0245 37.325 27.7788 36.8824 28.5319C36.3796 29.3873 35.5296 29.613 34.6641 29.1251C33.8422 28.6616 33.0137 28.2106 32.1903 27.7493C31.9932 27.6398 31.8099 27.5041 31.6 27.3673Z" fill="#E77D00"/>
</g>
<defs>
<clipPath id="clip0_173_319">
<rect width="45" height="45" fill="white"/>
</clipPath>
</defs>
</svg>
