<svg width="43" height="45" viewBox="0 0 43 45" fill="none" xmlns="http://www.w3.org/2000/svg">
<g clip-path="url(#clip0_174_340)">
<path d="M43 37.0974C42.8 37.8047 42.5292 38.481 42.1253 39.1013C41.0755 40.7134 39.5658 41.6752 37.7171 42.1146C35.8503 42.5591 33.9624 42.5608 32.0901 42.1565C30.1723 41.7417 28.602 40.7729 27.5163 39.108C27.1475 38.5467 26.8716 37.9304 26.6989 37.2824C26.6731 37.1741 26.6617 37.063 26.6648 36.9518C26.6648 36.0599 26.6711 35.168 26.6648 34.2762C26.6539 33.0206 27.1866 32.0266 28.1434 31.2486C29.149 30.4312 30.3441 30.0173 31.5873 29.7168C31.7528 29.6771 31.7785 29.7784 31.8147 29.8868L32.8254 32.9001C33.4598 34.7898 34.0949 36.6792 34.7305 38.5681C34.7516 38.63 34.7507 38.707 34.8206 38.7501C34.8834 38.6928 34.8884 38.6125 34.912 38.5409C35.8719 35.6871 36.8306 32.8331 37.7882 29.9788C37.8889 29.6783 37.8893 29.6783 38.1959 29.7549C39.375 30.0479 40.5028 30.4584 41.4642 31.2248C42.3654 31.9438 42.9057 32.8616 42.9705 34.0288C42.9769 34.0768 42.9867 34.1242 43 34.1707V37.0974Z" fill="#8C13AA"/>
<path d="M20.6604 45C20.2848 44.9631 19.9096 44.928 19.5344 44.8886C17.7474 44.6978 16.0012 44.2318 14.3584 43.5075C13.8831 43.2999 13.4185 43.0713 12.9645 42.8216C12.9047 42.7889 12.834 42.768 12.7939 42.6985C12.8255 42.6203 12.9047 42.6257 12.967 42.6102C13.592 42.4533 14.2186 42.3022 14.8427 42.1432C14.9643 42.1102 15.0937 42.1208 15.2082 42.1733C16.6543 42.7873 18.1843 43.1841 19.7479 43.3506C21.9839 43.5975 24.2472 43.381 26.3948 42.7149C26.9504 42.5432 27.4958 42.3404 28.0283 42.1076C28.1296 42.0585 28.2449 42.0462 28.3543 42.0728C28.9931 42.2315 29.6332 42.3867 30.2721 42.5458C30.3226 42.5583 30.403 42.5487 30.414 42.6127C30.4283 42.6931 30.3386 42.7019 30.2876 42.7299C28.268 43.8645 26.0436 44.593 23.7409 44.874C23.3042 44.9288 22.8646 44.9577 22.4262 44.9995L20.6604 45Z" fill="#AB5DBE"/>
<path d="M21.6072 17.0095C21.9744 15.9184 22.3202 14.888 22.6672 13.8584C23.3129 11.9424 23.9573 10.0263 24.6005 8.11006C24.6633 7.92257 24.7386 7.88113 24.9324 7.93052C26.1022 8.22934 27.2258 8.62693 28.1952 9.37106C29.0421 10.0214 29.5756 10.8593 29.7348 11.9198C29.7486 12.0093 29.7559 12.0997 29.7567 12.1902C29.7567 13.2009 29.7689 14.2112 29.7537 15.2215C29.7474 15.6535 29.5575 16.0469 29.379 16.4319C28.418 18.4998 26.7625 19.7244 24.5811 20.2906C23.3085 20.6209 22.0123 20.6727 20.701 20.5991C19.6852 20.5422 18.6943 20.3764 17.7451 20.0132C15.632 19.2063 14.198 17.7502 13.5179 15.5877C13.4547 15.3881 13.4231 15.1798 13.4245 14.9704C13.4278 14.2527 13.4413 13.5345 13.4245 12.8171C13.3781 11.0217 14.2065 9.74522 15.7516 8.88307C16.5588 8.43316 17.4268 8.14313 18.3204 7.92047C18.5309 7.86858 18.5709 7.982 18.6219 8.13392C19.3577 10.3284 20.0954 12.5222 20.8349 14.7155C21.0863 15.4613 21.3368 16.2067 21.6072 17.0095Z" fill="#8C13AA"/>
<path d="M8.19753 38.8803C8.22911 38.7887 8.25901 38.7045 8.28765 38.62L11.163 30.0793C11.2591 29.7943 11.2599 29.7913 11.5442 29.8633C12.7001 30.1563 13.8131 30.5459 14.7666 31.2863C15.8008 32.0915 16.3639 33.1278 16.3407 34.4566C16.3281 35.1877 16.3154 35.9214 16.3458 36.6509C16.3702 37.2368 16.2224 37.7671 15.9874 38.2864C15.1923 40.0442 13.8662 41.2345 12.0672 41.9217C10.9546 42.3465 9.79315 42.5101 8.6098 42.5373C7.34982 42.5662 6.10036 42.4896 4.88711 42.1188C2.6215 41.4287 1.00735 40.0325 0.184904 37.7922C0.0542154 37.4377 -0.00849043 37.0621 3.32675e-05 36.6848C0.0135091 35.9733 3.32677e-05 35.2618 0.00424445 34.5528C0.0076134 33.5111 0.304502 32.5762 1.03051 31.8006C1.58976 31.203 2.27407 30.7862 3.01651 30.4585C3.60607 30.1977 4.22385 30.0123 4.84964 29.8524C5.04714 29.8018 5.13178 29.842 5.19832 30.0416C5.87436 32.0784 6.55629 34.1139 7.24412 36.1482C7.52851 36.9939 7.81305 37.8396 8.09772 38.6853C8.11878 38.7481 8.11878 38.8238 8.19753 38.8803Z" fill="#8C13AA"/>
<path d="M8.10946 21.9086C8.89611 21.9312 9.56484 22.0484 10.1435 22.4749C10.8172 22.9708 11.112 23.6815 11.2847 24.4608C11.3415 24.7186 11.3689 24.9827 11.4089 25.2442C11.419 25.3137 11.419 25.3853 11.4931 25.425C11.7391 25.5602 11.7795 25.8017 11.7732 26.0382C11.7688 26.3313 11.7195 26.622 11.6271 26.9003C11.5719 27.0619 11.4961 27.2113 11.3428 27.3021C11.2405 27.3628 11.2211 27.4662 11.1836 27.5628C10.7625 28.651 10.0714 29.5177 9.0456 30.1087C8.43582 30.4602 7.84752 30.423 7.2588 30.0635C6.28391 29.4679 5.61643 28.6221 5.20542 27.5716C5.15657 27.4461 5.1153 27.3276 4.97886 27.2632C4.9049 27.2204 4.84863 27.1529 4.8201 27.0728C4.64197 26.6626 4.56195 26.2357 4.6247 25.79C4.64197 25.6682 4.69082 25.5506 4.79736 25.4903C4.96286 25.3962 4.98686 25.2505 5.00371 25.086C5.06814 24.4503 5.21427 23.838 5.53516 23.2747C5.99334 22.4678 6.71429 22.0748 7.61338 21.9559C7.80583 21.9304 8.00123 21.8978 8.10946 21.9086Z" fill="#8C13AA"/>
<path d="M21.6236 0.00372689C22.5214 0.0179565 23.3468 0.219264 23.9684 0.926561C24.4215 1.44218 24.6266 2.06703 24.7475 2.72619C24.7702 2.84924 24.7812 2.97437 24.8001 3.09784C24.83 3.29203 24.8313 3.4812 25.0389 3.61555C25.1976 3.71766 25.2023 3.93781 25.1943 4.11777C25.1875 4.41754 25.1363 4.71468 25.0423 4.99959C24.9884 5.15318 24.918 5.29883 24.7656 5.37919C24.6654 5.43234 24.6472 5.52818 24.6144 5.619C24.2775 6.53974 23.7195 7.30939 22.9299 7.89114C21.8738 8.67042 21.2846 8.62229 20.271 7.87188C19.4949 7.29684 18.9512 6.53262 18.6198 5.62653C18.5831 5.51523 18.51 5.41933 18.4122 5.35407C18.066 5.11677 17.839 3.95538 18.1422 3.67246C18.4265 3.40796 18.413 3.10663 18.4694 2.79692C18.5688 2.25285 18.7221 1.72593 19.0211 1.25175C19.4852 0.518924 20.1745 0.157323 21.0138 0.0439047C21.2152 0.00968118 21.4195 -0.00378287 21.6236 0.00372689Z" fill="#8C13AA"/>
<path d="M34.7953 21.8258C35.5398 21.7999 36.214 21.9485 36.8007 22.3833C37.4513 22.865 37.7435 23.5594 37.912 24.316C37.9722 24.5872 38.0017 24.8651 38.0413 25.1405C38.051 25.2108 38.0514 25.2807 38.1255 25.3192C38.3685 25.4448 38.411 25.6787 38.406 25.9089C38.4058 26.2301 38.3488 26.5487 38.2375 26.8502C38.1836 26.9891 38.1112 27.1172 37.9735 27.1888C37.8796 27.2373 37.8653 27.3285 37.8332 27.4118C37.4446 28.4305 36.8146 29.2579 35.899 29.871C35.2013 30.3385 34.5153 30.3674 33.8027 29.9041C32.8847 29.3077 32.2488 28.4924 31.85 27.4863C31.7952 27.3482 31.7464 27.2176 31.5998 27.1431C31.5398 27.1066 31.4925 27.0525 31.4647 26.9883C31.2666 26.5784 31.1949 26.1194 31.2587 25.6691C31.2764 25.5498 31.3219 25.428 31.4348 25.3724C31.6032 25.2887 31.618 25.1468 31.6331 24.9899C31.6862 24.4391 31.8066 23.9042 32.045 23.3995C32.5347 22.3662 33.3888 21.8928 34.5039 21.8254C34.6083 21.8204 34.7136 21.8258 34.7953 21.8258Z" fill="#8C13AA"/>
<path d="M10.4458 14.4318C10.4458 14.6967 10.4408 14.9613 10.4458 15.227C10.4494 15.2891 10.4387 15.3512 10.4144 15.4086C10.3902 15.466 10.3531 15.5171 10.306 15.5581C8.5869 17.1795 7.24718 19.1564 6.38162 21.3491C6.33319 21.4709 6.26834 21.5374 6.13401 21.5676C5.67078 21.6722 5.20755 21.7923 4.74642 21.9053C4.68073 21.9212 4.60156 21.9714 4.54892 21.9162C4.49628 21.861 4.55271 21.7848 4.57418 21.7212C5.6395 18.5209 7.5962 15.6866 10.2172 13.5471C10.2736 13.501 10.3296 13.4081 10.4075 13.4479C10.4854 13.4876 10.4433 13.5877 10.4442 13.6605C10.4484 13.9166 10.4458 14.1744 10.4458 14.4318Z" fill="#AB5DBE"/>
<path d="M32.6416 14.4263C32.6416 14.1685 32.6387 13.9107 32.6416 13.6533C32.6416 13.5822 32.5995 13.4822 32.6837 13.4441C32.7511 13.4148 32.805 13.4985 32.8568 13.5408C33.3525 13.9393 33.8245 14.3661 34.2705 14.8189C36.1653 16.7347 37.6 19.0513 38.4674 21.5956C38.491 21.6638 38.5558 21.745 38.4897 21.809C38.4362 21.8609 38.3558 21.809 38.2909 21.7927C37.8349 21.6822 37.3809 21.5646 36.9244 21.4579C36.8629 21.4476 36.8053 21.4212 36.7576 21.3813C36.7099 21.3414 36.6739 21.2895 36.6532 21.231C35.7959 19.1105 34.4933 17.1962 32.8324 15.6158C32.696 15.4848 32.6265 15.3517 32.6383 15.16C32.653 14.9143 32.6416 14.6699 32.6416 14.4263Z" fill="#AB5DBE"/>
<path d="M34.8231 37.6528C34.736 37.6139 34.7355 37.5272 34.7124 37.4598C34.3254 36.3106 33.9421 35.1601 33.5535 34.0112C33.5043 33.881 33.5012 33.738 33.5446 33.6057C33.7606 32.9432 33.9754 32.2798 34.1801 31.614C34.2293 31.4541 34.3064 31.3871 34.4786 31.3963C34.7162 31.4089 34.9554 31.4043 35.1945 31.3963C35.3264 31.3926 35.4001 31.4382 35.4405 31.5671C35.6617 32.2719 35.8863 32.9754 36.1143 33.6777C36.1405 33.7647 36.1366 33.858 36.1033 33.9426C35.7058 35.1253 35.3085 36.3079 34.9116 37.4904C34.8918 37.5494 34.8825 37.6147 34.8231 37.6528Z" fill="#AB5DBE"/>
<path d="M21.6034 15.8535C21.5343 15.7987 21.5288 15.725 21.5073 15.661C21.1168 14.4997 20.7277 13.338 20.34 12.176C20.2966 12.0659 20.292 11.9445 20.3269 11.8315C20.5421 11.1619 20.7565 10.4923 20.9586 9.82011C21.0113 9.64726 21.0925 9.56482 21.2833 9.57653C21.5204 9.59076 21.7592 9.58323 21.9971 9.57905C22.1234 9.57905 22.1891 9.62885 22.2258 9.74645C22.4478 10.4571 22.6724 11.1672 22.8996 11.8767C22.9244 11.9567 22.9219 12.0427 22.8924 12.1211C22.4873 13.329 22.0823 14.5368 21.6775 15.7447C21.6741 15.7672 21.6657 15.7886 21.6528 15.8074C21.64 15.8263 21.6231 15.842 21.6034 15.8535Z" fill="#AB5DBE"/>
<path d="M8.18439 37.7613C8.10732 37.7195 8.10564 37.6333 8.08247 37.5638C7.69294 36.4079 7.3072 35.2502 6.91598 34.0947C6.87176 33.9704 6.87176 33.8348 6.91598 33.7105C7.13159 33.0476 7.34341 32.3834 7.54765 31.7171C7.59608 31.5585 7.67188 31.4848 7.84244 31.4928C8.08037 31.5036 8.31914 31.4986 8.55834 31.4953C8.68931 31.4953 8.76342 31.5489 8.80301 31.6748C9.02241 32.3729 9.24645 33.0697 9.46922 33.7674C9.50033 33.8605 9.49959 33.9611 9.46711 34.0537C9.06452 35.2495 8.66278 36.4455 8.26187 37.6417C8.24545 37.6864 8.23703 37.7367 8.18439 37.7613Z" fill="#AB5DBE"/>
</g>
<defs>
<clipPath id="clip0_174_340">
<rect width="43" height="45" fill="white"/>
</clipPath>
</defs>
</svg>
