<svg width="45" height="45" viewBox="0 0 45 45" fill="none" xmlns="http://www.w3.org/2000/svg">
<g clip-path="url(#clip0_173_314)">
<path d="M19.8295 36.9669C21.9055 38.1008 24.026 38.5146 26.2691 38.2844C27.0638 38.2027 27.8494 38.0369 28.6441 37.9569C29.9407 37.8265 30.9999 37.2458 31.9325 36.3674C32.7034 35.6344 33.6843 35.1603 34.7381 35.0112C35.4269 34.909 36.0636 35.0686 36.5871 35.5415C37.0817 35.9883 37.1346 36.5176 36.7235 37.0368C36.523 37.2892 36.4475 37.4645 36.71 37.7239C37.0803 38.0897 37.0605 38.5084 36.773 38.9264C36.3713 39.5102 35.8404 39.9696 35.2727 40.3712C33.9674 41.2938 32.6469 42.1953 31.3111 43.0755C30.4343 43.6569 29.4123 43.7856 28.3969 43.9198C26.1379 44.2189 23.8931 44.6153 21.6357 44.9283C20.0324 45.1519 18.576 44.8566 17.1384 44.1671C14.3318 42.8203 11.5025 41.5208 8.68443 40.1973C7.93431 39.8451 7.13823 39.6757 6.32197 39.601C5.86284 39.5596 5.68114 39.3728 5.68462 38.8898C5.70434 36.3055 5.70492 33.7207 5.68636 31.1354C5.68358 30.7247 5.81759 30.5324 6.21824 30.4166C8.23714 29.8338 10.2909 29.4548 12.3916 29.3703C14.6489 29.2795 16.8168 29.718 18.8019 30.7762C20.5232 31.6928 22.3371 32.0075 24.2439 32.1142C25.7751 32.2041 27.2871 32.4993 28.7395 32.9919C28.8683 33.0354 28.9974 33.0802 29.1224 33.1348C30.1621 33.5911 30.7236 34.4454 30.5168 35.2456C30.1645 36.6018 29.1151 37.4061 27.9169 37.3042C25.9179 37.1341 23.9164 36.9912 21.9152 36.8521C21.2532 36.8059 20.5907 36.8598 19.8295 36.9669Z" fill="#E4C625"/>
<path d="M16.8802 13.2185C16.6734 12.6444 16.4754 12.0665 16.2627 11.4962C15.9581 10.6776 15.9536 10.6773 16.6859 10.2468C17.1701 9.96232 17.6606 9.68692 18.1403 9.39726C18.4922 9.18514 18.7741 9.23834 19.0314 9.5593C19.4035 10.0239 19.8031 10.4665 20.1668 10.937C20.3823 11.2152 20.5995 11.2966 20.9549 11.2006C22.1575 10.8758 22.1607 10.8901 22.3472 9.66188C22.4008 9.30928 22.4517 8.95633 22.5213 8.60616C22.5965 8.21635 22.8398 8.02614 23.2422 8.02962C23.8545 8.03448 24.4674 8.04213 25.0797 8.02544C25.5361 8.01292 25.7759 8.21809 25.8483 8.65971C25.9475 9.26303 26.0739 9.86252 26.1616 10.4679C26.204 10.7645 26.3356 10.9304 26.628 10.985C26.7775 11.0178 26.9251 11.0589 27.0701 11.1081C27.7527 11.3168 27.9838 11.2371 28.4318 10.6665C28.7256 10.2923 29.0434 9.93624 29.3403 9.56556C29.5951 9.24669 29.8771 9.1914 30.2314 9.40456C30.7998 9.74673 31.3749 10.0778 31.9523 10.4039C32.2764 10.5872 32.3495 10.8331 32.2197 11.1752C31.9966 11.7629 31.8002 12.361 31.5719 12.9469C31.4518 13.2554 31.5399 13.4459 31.7369 13.7154C32.3342 14.5316 33.0164 14.5715 33.8338 14.1143C34.0238 14.0079 34.249 13.9644 34.4568 13.8889C35.3302 13.5725 35.3271 13.5735 35.7921 14.4074C36.0159 14.8084 36.2509 15.2027 36.483 15.5988C36.8283 16.1875 36.8102 16.3071 36.2794 16.7578C35.8387 17.1323 35.4033 17.5141 34.9459 17.8667C34.7189 18.0405 34.6904 18.2162 34.752 18.4808C35.0486 19.7598 35.0413 19.7608 36.3602 19.9628C36.6961 20.0143 37.0323 20.0671 37.3668 20.1266C37.7891 20.2028 37.9586 20.4646 37.9485 20.8881C37.9318 21.4824 37.9193 22.0788 37.9464 22.672C37.9676 23.1394 37.748 23.3738 37.3237 23.4541C36.7222 23.5678 36.1196 23.6791 35.5136 23.767C35.2188 23.8105 35.0705 23.9503 34.9953 24.2365C34.6719 25.4675 34.6664 25.4654 35.6689 26.2881C35.7733 26.3744 35.8704 26.4714 35.9759 26.5573C37.0309 27.4172 36.8371 27.3125 36.2544 28.37C36.0493 28.7421 35.8206 29.1003 35.6205 29.4762C35.4176 29.8559 35.1554 29.9678 34.7395 29.7964C34.1898 29.5693 33.6169 29.3993 33.0638 29.1802C32.7307 29.0481 32.5093 29.1548 32.2367 29.3614C31.5346 29.8931 31.3585 30.4898 31.7929 31.2819C31.9872 31.6356 32.0784 32.0449 32.2287 32.4239C32.3474 32.7229 32.2816 32.9525 32.0136 33.1284C31.7163 33.3238 31.5959 33.0891 31.4424 32.9059C30.8942 32.2511 30.2123 31.7994 29.4002 31.5222C27.4509 30.8574 25.4351 30.5354 23.3936 30.4369C22.1842 30.3866 21.0001 30.0747 19.9232 29.5227C17.5784 28.3279 15.107 27.6735 12.4553 27.8084C12.3376 27.8143 12.2179 27.7803 12.0995 27.7848C11.921 27.7917 11.7619 27.7886 11.678 27.5873C11.5941 27.3859 11.655 27.2166 11.8065 27.0837C12.2412 26.7012 12.6621 26.3013 13.1271 25.9613C13.5713 25.6368 13.7683 25.2884 13.5194 24.755C13.4414 24.588 13.4045 24.3982 13.3729 24.2146C13.3252 23.9364 13.164 23.8126 12.8949 23.7698C12.2732 23.6721 11.6547 23.556 11.0344 23.4513C10.5927 23.3765 10.3953 23.1283 10.4099 22.6738C10.4298 22.0621 10.4207 21.4497 10.4172 20.8377C10.4152 20.4378 10.5885 20.1989 10.9965 20.1325C11.584 20.0369 12.1681 19.9208 12.756 19.8283C13.1389 19.7681 13.3356 19.5796 13.4212 19.1836C13.7119 17.8437 13.8779 18.2979 12.8295 17.3753C12.5364 17.1166 12.2294 16.8736 11.9245 16.6287C11.6265 16.3888 11.5642 16.1228 11.7692 15.7824C12.111 15.2142 12.442 14.6396 12.762 14.0586C12.9649 13.6907 13.2392 13.6195 13.6165 13.7658C14.1874 13.9874 14.769 14.1831 15.3378 14.4078C15.6511 14.5329 15.885 14.4864 16.0998 14.2169C16.2463 14.0329 16.436 13.8823 16.6121 13.7227C16.763 13.5953 16.859 13.4147 16.8802 13.2185ZM30.5388 21.7926C30.545 18.2506 27.7388 15.4266 24.2067 15.4204C20.6747 15.4141 17.7904 18.2561 17.8002 21.7408C17.8103 25.2804 20.6378 28.1391 24.1301 28.1391C27.7241 28.1395 30.5328 25.3583 30.5388 21.7926Z" fill="#EBD664"/>
<path d="M23.7862 0.00892768C32.3749 0.291288 38.7818 4.16123 42.8165 11.7881C44.324 14.6371 44.9656 17.7243 44.9986 20.9732C45.0533 26.3165 43.3149 30.9657 39.9096 35.0338C39.6043 35.3986 39.2615 35.7314 38.935 36.0795C38.7654 36.2613 38.6342 36.3197 38.5806 35.9943C38.5019 35.5165 38.3272 35.0742 38.0195 34.6979C37.8054 34.4357 37.9614 34.2737 38.1305 34.0883C39.9086 32.1379 41.2532 29.9186 42.0479 27.4069C44.1228 20.8473 43.1405 14.7529 38.9325 9.29831C35.7218 5.13349 31.3905 2.73273 26.1706 2.08629C18.0083 1.07786 10.2588 5.20687 6.59349 12.4766C4.01382 17.5935 3.80879 22.869 5.81551 28.2328C5.8451 28.3121 5.8733 28.3924 5.90254 28.4721C5.95022 28.6018 6.01253 28.7426 5.84615 28.8278C5.66027 28.9234 5.56245 28.8024 5.49284 28.6501C5.31079 28.2506 5.02362 27.9445 4.65499 27.713C4.55474 27.65 4.44614 27.5586 4.33788 27.5572C3.37995 27.545 3.25116 26.8325 3.09313 26.1276C2.01162 21.3039 2.41435 16.6188 4.57389 12.157C7.44143 6.23268 12.1016 2.40412 18.4549 0.656757C20.1856 0.180709 21.9553 -0.050535 23.7862 0.00892768Z" fill="#E4C625"/>
<path d="M0.00211701 35.0137C0.00211701 33.315 -0.00240812 31.616 0.00211701 29.9173C0.0052498 28.9485 0.234291 28.7298 1.21311 28.7274C1.94409 28.7274 2.67508 28.7187 3.40606 28.7309C3.98214 28.7406 4.23381 28.9666 4.33963 29.5369C4.43292 30.0422 4.40437 30.5551 4.38279 31.0621C4.2533 34.1016 4.35112 37.1419 4.32954 40.1818C4.32362 41.0045 4.06012 41.306 3.25047 41.3157C2.51948 41.3244 1.7885 41.3251 1.05752 41.3126C0.278846 41.2994 0.00907875 41.0407 0.00385745 40.2631C-0.00519282 38.5133 0.00281319 36.7635 0.00211701 35.0137Z" fill="#E4C625"/>
</g>
<defs>
<clipPath id="clip0_173_314">
<rect width="45" height="45" fill="white"/>
</clipPath>
</defs>
</svg>
