<svg width="174" height="160" viewBox="0 0 174 160" fill="none" xmlns="http://www.w3.org/2000/svg">
<g clip-path="url(#clip0_188_8048)">
<path d="M152.255 126.124C181.248 97.2716 181.248 50.4921 152.255 21.6393C123.263 -7.21347 76.2567 -7.21347 47.2642 21.6393C18.2717 50.4921 18.2717 97.2716 47.2642 126.124C76.2567 154.977 123.263 154.977 152.255 126.124Z" fill="#F3F8FF"/>
<path opacity="0.5" fill-rule="evenodd" clip-rule="evenodd" d="M171.187 79.6817C170.544 81.7911 166.816 81.4975 163.442 80.4428C162.215 80.0579 158.547 78.3366 158.29 79.5207C158.163 79.9383 159.424 81.5051 160.779 83.1372C161.989 84.5953 165.763 88.3292 164.042 90.7833C162.481 93.0102 156.678 88.6598 155.001 86.9972C149.256 81.3105 148.822 82.9295 153.306 88.7207C155.105 91.0432 156.548 94.1236 156.839 95.8862C156.987 96.7854 156.892 97.564 155.872 97.5433C154.706 97.5194 152.532 96.5223 149.303 95.1185C141.922 91.9066 136.28 87.032 126.782 95.1968C128.946 84.0734 131.283 75.216 133.831 65.0386C134.399 62.7715 135.032 60.3935 135.702 58.196C136.646 55.0971 137.659 52.357 138.652 50.7912C138.871 50.4342 139.123 50.0982 139.405 49.7876L139.424 49.7691C140.844 48.2817 141.575 49.9866 140.982 54.1185C140.723 55.9354 140.435 57.6643 140.108 59.6639C139.637 62.4616 139.462 64.2502 139.78 64.3546C140.132 64.4634 140.915 62.3431 142.707 57.425C145.017 51.0815 148.279 43.2897 149.885 44.3934C150.415 44.7522 150.6 46.792 150.113 51.9579C149.098 61.1557 151.163 54.8731 153.29 50.7053C154.456 48.2958 157.312 40.4355 159.154 42.8765C159.919 43.8943 159.038 47.3933 158.219 50.0834C158.032 50.6977 157.848 51.2707 157.689 51.7611C157.56 52.1511 157.447 52.5096 157.348 52.8365C156.037 57.1423 157.129 56.0137 159.369 52.5647C160.454 50.901 161.554 49.2918 162.654 48.261C166.467 44.7 166.457 48.2773 165.393 51.7709C165.283 52.145 165.153 52.519 165.019 52.8822C164.533 54.1946 164.006 55.4233 163.718 56.3703C163.255 57.8926 163.406 58.6842 165.324 57.9415C166.377 57.5459 167.48 57.2975 168.602 57.2032C171.442 56.9368 172.747 57.5805 173.308 60.176C173.427 60.775 173.389 61.394 173.199 61.9744C172.653 63.7729 170.918 65.6344 168.851 66.9566C166.969 68.1646 165.198 69.0584 164.808 70.3447C164.742 70.56 164.716 70.7856 164.733 71.0102C164.842 72.6782 167.234 74.3809 169.056 75.7945C170.97 77.2754 171.511 78.6139 171.187 79.6817Z" fill="url(#paint0_linear_188_8048)"/>
<path opacity="0.5" fill-rule="evenodd" clip-rule="evenodd" d="M172.18 60.4372C165.874 63.0783 159.818 66.6698 154.018 70.8364C156.928 72.1412 159.576 73.6385 161.856 75.2945C158.94 73.9821 155.919 72.7175 153.024 71.5606C149.72 73.9843 146.499 76.5884 143.362 79.3057C142.179 80.331 140.959 81.4325 139.727 82.5807C143.389 84.9315 146.456 87.7456 149.242 90.4095C145.605 88.1022 142.337 85.6144 138.732 83.5126C134.309 87.6825 129.741 92.3374 125.816 96.1256C129.068 91.038 134.783 84.7587 140.049 79.9059C141.25 75.1521 143.763 65.4563 145.69 61.5756C144.754 64.9975 142.864 73.5211 141.715 78.4054C142.049 78.1111 142.381 77.8237 142.709 77.5431C146.163 74.5986 150.99 71.2551 156.026 68.2519L156.041 68.2062C157.287 64.5614 159.06 61.0689 160.61 58.1875C159.482 61.4267 158.228 64.4157 157.182 67.5701C162.503 64.4658 167.955 61.8029 172.18 60.4372Z" fill="#A1C3FF"/>
<path opacity="0.5" fill-rule="evenodd" clip-rule="evenodd" d="M147.488 21.7061C149.632 19.8097 158.305 17.0751 157.977 21.4212C157.649 25.7672 151.968 20.5818 147.488 21.7061ZM133.787 47.4856C133.83 47.2805 133.86 47.0727 133.876 46.8637C137.945 45.0294 144.346 48.2152 143.548 44.0703C142.783 40.0852 136.088 44.0431 133.897 46.5331C134.039 43.1037 132.231 36.061 128.925 38.227C125.428 40.518 131.963 42.8308 133.593 46.9094C133.556 46.9605 133.52 47.0094 133.484 47.0583C133.529 47.0333 133.574 47.0105 133.619 46.9876C133.681 47.1507 133.737 47.3138 133.782 47.4856H133.787ZM136.279 40.0918C136.246 39.9084 136.203 39.7269 136.15 39.5481C136.116 39.5622 136.082 39.5753 136.049 39.5905C136.075 39.5568 136.103 39.5231 136.133 39.4883C134.861 35.2912 128.577 32.4206 132.258 30.446C135.734 28.5834 136.913 35.712 136.478 39.1273C138.858 36.8439 145.921 33.4482 146.333 37.4963C146.761 41.7021 140.652 37.9475 136.432 39.4361C136.396 39.6586 136.345 39.8784 136.279 40.0939V40.0918ZM139.338 33.0241C139.436 32.833 139.521 32.6357 139.593 32.4337C144.037 31.5366 149.536 36.471 149.856 32.1999C150.164 28.0322 142.199 30.3775 139.656 32.2499C140.724 29.0347 140.865 21.5734 137.06 22.826C132.908 24.195 139.342 28.4247 139.338 33.0241ZM160.634 13.1835C162.779 11.2872 171.451 8.55258 171.123 12.8987C170.795 17.2447 165.114 12.0603 160.634 13.1835ZM153.076 17.0294C155.37 15.3169 159.791 7.40653 155.449 6.85308C151.107 6.29963 155.075 12.8834 153.076 17.0294ZM147.746 21.4875C149.521 19.2454 151.756 10.4706 147.418 11.0491C143.081 11.6276 148.612 16.974 147.746 21.4875ZM143.058 26.9948C143.346 22.4041 137.182 17.7873 141.419 16.676C145.656 15.5648 144.54 24.5494 143.058 26.9948ZM143.369 26.6382C147.849 25.5139 153.541 30.6983 153.858 26.3533C154.175 22.0083 145.508 24.7419 143.369 26.6382ZM152.816 17.2882C157.295 16.165 162.989 21.3483 163.305 17.0033C163.62 12.6584 154.96 15.393 152.816 17.2882Z" fill="#D6E6FF"/>
<path opacity="0.5" fill-rule="evenodd" clip-rule="evenodd" d="M134.434 43.3234C134.956 41.7826 135.533 40.2484 136.164 38.7327C135.888 36.9147 135.039 33.2558 132.524 30.9691C135.301 32.6056 136.072 36.4678 136.254 38.5163C137.198 36.2598 138.268 34.0575 139.459 31.9195C139.525 30.1982 139.416 26.2044 137.231 23.3882C139.79 25.5705 139.77 29.7665 139.565 31.7237C140.666 29.7616 141.888 27.8689 143.224 26.0566C143.405 24.444 143.619 20.2872 141.551 17.2492C144.064 19.6739 143.664 24.0993 143.325 25.925C144.746 24.0075 146.322 22.2085 148.037 20.5459C148.421 18.9421 149.129 14.8831 147.476 11.6298C149.653 14.3362 148.721 18.6431 148.154 20.4372C149.831 18.824 151.667 17.3822 153.634 16.1335C154.436 14.6352 156.105 10.9535 155.356 7.44141C156.734 10.5512 154.825 14.3884 153.799 16.0313C156.668 14.2297 159.835 12.9475 163.154 12.2442C164.183 11.9624 165.242 11.8022 166.309 11.7668C166.458 11.7527 166.608 11.7396 166.757 11.7277L166.515 11.7636C167.912 11.7636 169.348 12.0408 170.533 12.877C168.194 11.8647 165.529 12.0147 163.591 12.3616C160.103 13.2669 156.804 14.7795 153.846 16.8294C155.613 16.1607 159.872 14.9886 162.709 16.9882C159.258 15.4942 155.098 16.5326 153.609 16.9882C151.824 18.2442 150.153 19.6545 148.617 21.2027C150.437 20.5296 154.598 19.4325 157.386 21.3962C154.073 19.9631 150.109 20.8613 148.478 21.344C146.989 22.8596 145.608 24.4767 144.346 26.1838C146.072 25.5194 150.4 24.294 153.272 26.3175C149.885 24.854 145.824 25.8228 144.263 26.2958C142.935 28.1 141.718 29.9819 140.618 31.9314C142.494 31.2562 146.539 30.245 149.267 32.1685C146.073 30.7864 142.274 31.5726 140.544 32.0597C139.317 34.2403 138.215 36.4882 137.243 38.7925C139 37.7997 142.755 36.159 145.744 37.566C142.388 36.7624 138.816 38.1607 137.177 38.9469C136.498 40.5648 135.92 42.1099 135.437 43.5322C135.145 44.3883 134.865 45.2694 134.594 46.1755C136.25 45.0338 139.856 43.0548 142.968 44.1965C139.546 43.6909 136.105 45.4046 134.548 46.331C131.573 56.3497 129.91 69.0682 131.521 79.014C128.523 68.2831 131.174 54.2902 133.552 46.1363C133.115 44.3488 131.945 40.7834 129.238 38.7294C132.143 40.1103 133.255 43.8725 133.621 45.9058C133.898 44.9566 134.172 44.0911 134.434 43.3234Z" fill="#A1C3FF"/>
<path fill-rule="evenodd" clip-rule="evenodd" d="M125.697 47.7098L107.323 37.0833L111.59 16.935V16.9187V16.9002V16.8937V16.8741V16.8665V16.8534V16.8458V16.8393V16.8317V16.823V16.8154V16.8078V16.8002V16.7936V16.7882V16.7795V16.7719V16.7632V16.7545V16.7491V16.7425V16.7338V16.7262V16.7175V16.7088V16.7034V16.6969L111.595 16.6892V16.6827V16.6773L111.601 16.6697V16.6621V16.6545L111.607 16.6458L111.614 16.6371L111.619 16.6305V16.6251L111.626 16.6186L111.632 16.611L111.638 16.6055L111.644 16.599V16.5936H111.652H111.66H111.666H111.674H111.679C111.72 16.5699 111.767 16.5563 111.814 16.5541C111.862 16.5518 111.909 16.5609 111.952 16.5805L130.324 27.2059C129.91 26.7536 127.464 41.7686 125.697 47.7098Z" fill="url(#paint1_linear_188_8048)"/>
<path fill-rule="evenodd" clip-rule="evenodd" d="M111.59 16.9351L125.596 25.2814L126.634 43.466C126.468 45.047 125.989 46.5725 125.789 48.1415L107.324 37.0844L111.59 16.9351Z" fill="#783FD3"/>
<path fill-rule="evenodd" clip-rule="evenodd" d="M120.951 32.4764C120.978 32.4511 121.008 32.4288 121.041 32.4101C121.184 32.3285 121.313 32.3633 121.356 32.5046L125.695 47.7099L129.956 27.5616C129.995 27.3751 130.107 27.2116 130.268 27.1071C130.296 27.0916 130.326 27.0789 130.357 27.0691C130.533 27.0234 130.636 27.1778 130.587 27.3953L126.305 47.6816C126.255 47.9569 126.168 48.224 126.045 48.4754C125.969 48.6348 125.85 48.7692 125.699 48.8625C125.65 48.8983 125.591 48.9183 125.53 48.9199C125.469 48.9214 125.409 48.9044 125.359 48.8712C125.262 48.7983 125.179 48.6396 125.111 48.3971L120.729 33.0657C120.679 32.895 120.781 32.6297 120.951 32.4764Z" fill="#864DE2"/>
<path fill-rule="evenodd" clip-rule="evenodd" d="M90.9339 6.86739C90.9339 6.42267 90.5843 6.0595 90.7394 5.77354C90.9066 5.46365 91.5982 5.27336 91.8965 5.17876C92.3182 5.04502 92.8481 5.12549 93.4261 5.45603L123.675 22.7446C125.044 23.5308 126.153 25.4412 126.148 27.007L126.086 43.7106C126.086 44.4772 125.814 45.0208 125.379 45.2829C125.114 45.4427 124.365 45.7352 123.999 45.6721C123.741 45.6276 123.885 45.2872 123.596 45.1219L93.3474 27.8355C91.9773 27.0483 90.8705 25.1389 90.8749 23.5732L90.9339 6.86739Z" fill="url(#paint2_linear_188_8048)"/>
<path fill-rule="evenodd" clip-rule="evenodd" d="M90.3199 7.08804C90.3199 5.52228 91.4387 4.88945 92.8088 5.6745L123.057 22.9631C124.427 23.7492 125.534 25.6597 125.53 27.2254L125.471 43.928C125.471 45.4937 124.351 46.1266 122.982 45.3415L92.7334 28.0583C91.3633 27.2711 90.2565 25.3618 90.2609 23.796L90.3199 7.08804Z" fill="white"/>
<path fill-rule="evenodd" clip-rule="evenodd" d="M90.3199 7.08804C90.3199 5.52228 91.4376 4.88945 92.8088 5.6745L123.058 22.9631C124.427 23.7492 125.534 25.6597 125.53 27.2254L125.521 29.76L90.3112 9.64436L90.3199 7.08804Z" fill="url(#paint3_linear_188_8048)"/>
<path opacity="0.2" fill-rule="evenodd" clip-rule="evenodd" d="M97.1126 15.6572C99.7228 16.252 101.727 19.3444 101.592 22.5651C101.458 25.7857 99.2279 27.9147 96.6176 27.321C94.0074 26.7274 92.0036 23.6339 92.138 20.4132C92.2724 17.1925 94.5024 15.0625 97.1126 15.6572Z" fill="#6D6AFD"/>
<path fill-rule="evenodd" clip-rule="evenodd" d="M96.9978 18.3443C98.4051 18.665 99.4857 20.3319 99.4125 22.0684C99.3393 23.8049 98.1374 24.9531 96.7302 24.6323C95.3229 24.3115 94.2423 22.6447 94.3166 20.9082C94.3909 19.1717 95.5906 18.0235 96.9978 18.3443ZM96.9356 19.8187C96.1882 19.648 95.5502 20.2536 95.5152 21.18C95.4802 22.1064 96.0506 22.9883 96.7979 23.159C97.5452 23.3297 98.1822 22.7186 98.2183 21.7965C98.2543 20.8745 97.6785 19.9883 96.9356 19.8187Z" fill="url(#paint4_linear_188_8048)"/>
<path opacity="0.2" fill-rule="evenodd" clip-rule="evenodd" d="M103.173 21.5291C103.225 20.7897 103.767 20.4754 104.383 20.8299L123.106 31.0334C123.721 31.3879 124.18 32.2752 124.128 33.0156L124.031 34.4792C123.98 35.2197 123.438 35.5328 122.822 35.1794L104.1 24.9726C103.483 24.6193 103.025 23.7309 103.076 22.9915L103.173 21.5291Z" fill="#6D6AFD"/>
<path opacity="0.2" fill-rule="evenodd" clip-rule="evenodd" d="M103.36 27.445C103.418 27.0101 103.749 26.8219 104.1 27.0318L114.773 33.0545C115.124 33.2633 115.362 33.7885 115.304 34.2256L115.195 35.09C115.138 35.525 114.806 35.712 114.455 35.5032L103.776 29.4772C103.426 29.2684 103.187 28.7443 103.245 28.3072L103.36 27.445Z" fill="#6D6AFD"/>
<path fill-rule="evenodd" clip-rule="evenodd" d="M120.834 32.8429L125.273 47.5654C125.332 47.7241 125.29 48.7897 125.383 48.8821L107.004 38.2589C106.843 38.1676 106.757 37.9197 106.734 37.7718L102.353 22.4404L101.535 19.572C101.521 19.3851 101.578 19.1997 101.694 19.0522C102.459 19.7438 106.531 22.2251 107.282 22.6655C108.54 23.6441 108.584 24.6585 110.489 26.6701C110.755 26.9761 111.074 27.2308 111.432 27.4215L120.834 32.8429Z" fill="url(#paint5_linear_188_8048)"/>
<path fill-rule="evenodd" clip-rule="evenodd" d="M120.951 32.4763C120.978 32.451 121.008 32.4288 121.041 32.41C121.184 32.3285 121.313 32.3632 121.356 32.5046L125.695 47.7099L126.039 48.471C125.964 48.6304 125.844 48.7648 125.694 48.8581C125.645 48.8939 125.586 48.9139 125.525 48.9155C125.464 48.917 125.404 48.9 125.353 48.8668C125.257 48.7939 125.174 48.6352 125.105 48.3927L120.724 33.0613C120.679 32.895 120.781 32.6296 120.951 32.4763Z" fill="#864DE2"/>
<path fill-rule="evenodd" clip-rule="evenodd" d="M112.006 27.0286L121.279 32.3881C121.038 32.2707 120.668 32.81 120.732 33.0666L111.372 27.6528C111.099 27.5068 110.838 27.3391 110.592 27.1515C109.261 26.1055 108.634 24.6724 107.764 23.5133C107.554 23.2288 107.303 22.9762 107.019 22.763C106.789 22.638 106.666 22.5706 106.707 22.5912L101.535 19.5652C101.522 19.3797 101.578 19.1959 101.694 19.0498C101.792 18.9465 101.945 18.8182 102.084 18.891L107.259 21.9225C107.218 21.9018 107.339 21.9693 107.571 22.0943C107.854 22.3077 108.105 22.5604 108.316 22.8446C109.236 24.0711 109.894 25.4542 111.386 26.6198C111.582 26.7716 111.789 26.9082 112.006 27.0286Z" fill="#D477E4"/>
<path fill-rule="evenodd" clip-rule="evenodd" d="M68.3215 18.0886C67.8135 17.8016 67.2191 17.695 66.6619 17.9049L65.4163 18.3887C64.964 20.7189 129.576 127.621 130.154 128.209L131.266 127.792C131.996 127.506 132.38 126.749 132.487 126.014L141.875 62.2322C141.876 62.2301 141.876 62.2278 141.875 62.2257C142.027 61.1525 141.704 60.0358 141.111 59.1398C140.797 58.6427 140.367 58.2295 139.856 57.9361L68.3215 18.0886Z" fill="url(#paint6_linear_188_8048)"/>
<path fill-rule="evenodd" clip-rule="evenodd" d="M138.63 58.4123L67.0934 18.5604C65.7397 17.8145 64.4515 18.531 64.2133 20.1555L54.8235 83.9417C54.5842 85.5662 55.479 87.4897 56.8371 88.2356L128.374 128.087C129.727 128.833 131.018 128.119 131.257 126.496L140.647 62.7127C140.887 61.0838 139.983 59.1593 138.63 58.4123Z" fill="url(#paint7_linear_188_8048)"/>
<path opacity="0.5" fill-rule="evenodd" clip-rule="evenodd" d="M129.821 70.7579C129.555 70.6111 129.292 70.7579 129.245 71.0765C129.198 71.3951 129.38 71.7996 129.646 71.9464C129.911 72.0932 130.183 71.9529 130.231 71.6202C130.251 71.4524 130.223 71.2825 130.151 71.1298C130.078 70.9771 129.964 70.8479 129.821 70.7568V70.7579ZM62.3394 79.4337L66.2051 53.1703L65.7353 52.9104L61.8696 79.1717L62.3394 79.4337ZM66.2116 51.3664C65.9461 51.2196 65.6828 51.3664 65.6336 51.6926C65.5845 52.0188 65.7702 52.4103 66.0346 52.556C66.299 52.7017 66.5809 52.5647 66.6257 52.2395C66.6462 52.0695 66.6182 51.8972 66.545 51.7422C66.4718 51.5873 66.3563 51.4559 66.2116 51.3632V51.3664ZM70.0172 83.7102L73.6501 59.0202L73.1802 58.7603L69.5452 83.4482L70.0161 83.7102H70.0172ZM73.6599 57.2141C73.39 57.0651 73.1278 57.2141 73.0786 57.5403C73.0581 57.7086 73.0853 57.8792 73.1572 58.0329C73.229 58.1866 73.3426 58.3173 73.4851 58.4102C73.7593 58.5613 74.0226 58.4156 74.0707 58.0905C74.0904 57.9218 74.0623 57.751 73.9897 57.5973C73.9172 57.4437 73.8029 57.3132 73.6599 57.2206V57.2141ZM77.5747 87.9226L82.5165 55.2156L82.0423 54.9535L77.1038 87.6583L77.578 87.9226H77.5747ZM82.5307 53.4117C82.2565 53.2605 81.9932 53.4063 81.944 53.7379C81.9242 53.9066 81.9522 54.0774 82.0248 54.2311C82.0974 54.3848 82.2117 54.5153 82.3548 54.6078C82.6203 54.7545 82.8836 54.6078 82.9317 54.2816C82.9798 53.9554 82.7962 53.5585 82.5307 53.4117ZM85.4021 92.2817L91.3852 51.4099L90.9241 51.1544L84.941 92.0251L85.4021 92.2817ZM91.3994 49.606C91.124 49.4538 90.8705 49.606 90.8214 49.9409C90.8011 50.107 90.828 50.2755 90.8991 50.4271C90.9702 50.5788 91.0825 50.7075 91.2234 50.7988C91.5021 50.9532 91.7566 50.7988 91.8036 50.4824C91.8263 50.3132 91.8003 50.1412 91.7288 49.9861C91.6572 49.831 91.543 49.6992 91.3994 49.606ZM93.0896 96.5625L99.3174 54.0478L98.8465 53.789L92.6187 96.3037L93.0885 96.5647L93.0896 96.5625ZM99.3174 52.2374C99.0476 52.0895 98.7842 52.2374 98.7351 52.5636C98.7151 52.7318 98.7425 52.9023 98.8143 53.0559C98.8861 53.2095 98.9994 53.3402 99.1415 53.4334C99.4169 53.5846 99.6791 53.4389 99.7272 53.1148C99.7476 52.9454 99.7201 52.7737 99.6477 52.6191C99.5753 52.4644 99.4609 52.333 99.3174 52.2395V52.2374ZM100.596 100.745L106.529 61.4993L106.053 61.2372L100.122 100.481L100.596 100.745ZM106.529 59.6943C106.263 59.5475 106.001 59.6878 105.952 60.0205C105.933 60.1864 105.961 60.3543 106.032 60.5056C106.103 60.6569 106.214 60.7859 106.354 60.8784C106.633 61.0317 106.892 60.8849 106.938 60.5653C106.96 60.3965 106.932 60.2253 106.86 60.0713C106.787 59.9173 106.673 59.787 106.529 59.6954V59.6943ZM108.066 103.996L108.536 104.255L113.496 70.5676L113.025 70.3088L108.066 103.998V103.996ZM113.509 68.7594C113.235 68.6083 112.972 68.7594 112.923 69.0856C112.903 69.2543 112.931 69.425 113.004 69.5787C113.076 69.7323 113.19 69.8628 113.333 69.9555C113.604 70.1055 113.867 69.9555 113.915 69.6293C113.935 69.4611 113.907 69.2907 113.836 69.1371C113.764 68.9835 113.651 68.8527 113.509 68.7594ZM116.083 109.371L120.942 76.3599L120.477 76.1032L115.618 109.111L116.083 109.371ZM120.951 74.5647C120.681 74.4157 120.423 74.5581 120.375 74.8833C120.354 75.051 120.38 75.2215 120.451 75.3752C120.522 75.5289 120.634 75.6599 120.776 75.7531C121.05 75.9043 121.314 75.7586 121.363 75.4269C121.382 75.2591 121.353 75.0893 121.281 74.9368C121.208 74.7842 121.094 74.655 120.951 74.5636V74.5647ZM124.377 105.997L124.852 106.259L129.813 72.5607L129.338 72.2987L124.377 105.997Z" fill="#3856D8"/>
<path opacity="0.5" fill-rule="evenodd" clip-rule="evenodd" d="M132.781 74.0779C132.71 73.9418 132.602 73.8286 132.469 73.7517C132.403 73.7074 132.324 73.6838 132.244 73.6838C132.164 73.6838 132.086 73.7074 132.019 73.7517C130.866 74.6357 129.813 75.4001 128.824 76.0601C127.835 76.7201 126.934 77.2758 126.085 77.7455C122.133 79.893 119.271 80.0441 116.453 78.4881C113.696 76.9072 111.036 73.5745 107.562 68.8848C103.677 63.6384 100.249 60.0839 96.7979 58.18C96.3027 57.9053 95.792 57.6591 95.2683 57.4428C91.2901 55.8118 87.2464 56.3794 82.4029 59.0868C81.9003 59.3532 81.4196 59.6425 80.9312 59.9208C77.2043 62.0683 73.7124 64.0777 69.944 61.9987C67.9838 60.9179 65.9494 58.7302 63.7686 54.881C63.6989 54.7456 63.5921 54.6325 63.4605 54.5548C63.3922 54.5107 63.3122 54.4882 63.2308 54.4904C63.1495 54.4925 63.0707 54.5192 63.0049 54.5668C62.7863 54.743 62.7601 55.1703 62.9513 55.5063C65.3878 59.8121 67.6386 62.2401 69.7954 63.4297C73.8566 65.6696 77.5824 63.5166 81.5583 61.2278C82.0522 60.9549 82.5351 60.6765 83.029 60.4047C87.6485 57.8158 91.4791 57.259 95.206 58.7824C95.6787 58.9788 96.1394 59.2025 96.586 59.4522C99.843 61.2485 103.132 64.6605 106.883 69.7286C110.488 74.5813 113.254 78.0456 116.247 79.7636C116.304 79.7962 116.357 79.8288 116.419 79.8593C119.387 81.4979 122.495 81.3576 126.696 79.084C127.566 78.6121 128.502 78.0383 129.506 77.3627C130.502 76.6832 131.582 75.9068 132.729 75.0228C132.955 74.8467 132.98 74.4356 132.781 74.0779Z" fill="#3856D8"/>
<path fill-rule="evenodd" clip-rule="evenodd" d="M132.133 71.6008C132.063 71.4643 131.955 71.3509 131.821 71.2746C131.753 71.232 131.674 71.2101 131.594 71.2119C131.514 71.2136 131.436 71.2388 131.37 71.2844C130.218 72.1847 129.165 72.9632 128.176 73.6374C127.187 74.3115 126.286 74.8791 125.437 75.3619C121.485 77.5627 118.623 77.754 115.805 76.2318C113.048 74.6899 110.388 71.3931 106.914 66.7524C103.032 61.568 99.6026 58.0635 96.1489 56.2053C95.6535 55.9373 95.1427 55.6984 94.6192 55.4898C90.6422 53.9142 86.5974 54.5373 81.7539 57.3111C81.2513 57.5862 80.7705 57.8819 80.2821 58.1668C76.5553 60.3665 73.0633 62.4237 69.2949 60.398C67.3348 59.3433 65.3004 57.1849 63.1206 53.3651C63.0498 53.2318 62.9426 53.121 62.8114 53.0455C62.7425 53.0023 62.6621 52.9809 62.5807 52.9842C62.4994 52.9875 62.421 53.0153 62.3558 53.064C62.1373 53.2434 62.1111 53.6707 62.3023 54.0045C64.7377 58.2755 66.9895 60.672 69.1463 61.8333C73.2075 64.0177 76.9333 61.8126 80.9093 59.4683C81.4031 59.1889 81.8861 58.904 82.3799 58.6246C86.9983 55.9726 90.8301 55.3626 94.557 56.8337C95.0296 57.0219 95.4908 57.2376 95.938 57.4796C99.1951 59.2302 102.484 62.5977 106.235 67.6125C109.84 72.4152 112.607 75.8414 115.599 77.5181L115.771 77.6116C118.739 79.2089 121.847 79.0251 126.048 76.6928C126.918 76.2086 127.854 75.6221 128.858 74.9335C129.855 74.2398 130.934 73.4482 132.081 72.5479C132.307 72.3674 132.333 71.9564 132.133 71.6008Z" fill="#6BB6FF"/>
<path fill-rule="evenodd" clip-rule="evenodd" d="M131.37 71.2876C129.479 72.7664 127.528 74.1777 125.437 75.3651C121.485 77.5659 118.623 77.7572 115.805 76.235C113.048 74.6931 110.388 71.3963 106.914 66.7556C103.84 62.6509 99.5579 57.4415 94.6193 55.4897C89.318 53.3912 84.8733 55.4636 80.2822 58.1668C76.5554 60.3664 73.0634 62.4237 69.295 60.398C67.3349 59.3432 65.3005 57.1849 63.1207 53.3651C63.0499 53.2317 62.9427 53.1209 62.8115 53.0454C63.4288 54.6264 66.1986 59.3204 68.8853 60.7655C72.9465 62.9488 76.4395 61.034 80.4155 58.6898C84.8515 56.1769 89.4338 53.9164 94.557 55.9388C99.2083 57.7873 103.687 63.1924 106.583 67.0655C110.189 71.8682 112.781 75.1487 115.773 76.8265C118.269 78.2172 120.362 78.1422 122.559 77.3256C124.86 76.4677 130.199 73.1154 131.37 71.2876Z" fill="#00FFFF"/>
<path opacity="0.5" fill-rule="evenodd" clip-rule="evenodd" d="M57.5801 82.608C57.638 82.2067 57.9429 82.036 58.263 82.2274L128.331 122.216C128.651 122.408 128.864 122.888 128.806 123.289L128.62 124.507C128.563 124.908 128.257 125.079 127.938 124.888L57.8664 84.899C57.5473 84.7076 57.3343 84.227 57.3922 83.8258L57.5801 82.608Z" fill="white"/>
<path opacity="0.5" fill-rule="evenodd" clip-rule="evenodd" d="M57.7483 82.7677C57.8008 82.4034 58.0761 82.249 58.3678 82.4219L84.9563 97.5891C85.2458 97.7631 85.4381 98.1991 85.3868 98.5677L85.2229 99.6681C85.1704 100.031 84.8951 100.187 84.6034 100.014L58.0106 84.8467C57.721 84.6727 57.5287 84.2367 57.5801 83.8681L57.7483 82.7677Z" fill="white"/>
<path opacity="0.5" fill-rule="evenodd" clip-rule="evenodd" d="M90.7515 63.9146L89.2372 74.7846L98.4915 75.0336L90.7515 63.9146Z" fill="white"/>
<path opacity="0.5" fill-rule="evenodd" clip-rule="evenodd" d="M92.0888 79.1272C88.4668 76.9199 85.8916 71.5724 86.3373 67.1818C86.7831 62.7911 90.0806 61.0209 93.7026 63.226C97.3245 65.4311 99.8987 70.7852 99.4529 75.1704C99.0071 79.5556 95.7119 81.3323 92.0888 79.1272ZM91.8998 80.9876C96.3696 83.706 100.438 81.5226 100.988 76.1055C101.538 70.6884 98.3658 64.0883 93.8916 61.3656C89.4174 58.6429 85.3529 60.8285 84.8022 66.2477C84.2516 71.667 87.4299 78.2649 91.8998 80.9876Z" fill="white"/>
<path style="mix-blend-mode:multiply" opacity="0.5" fill-rule="evenodd" clip-rule="evenodd" d="M116.066 79.3403L136.607 90.4104L137.827 89.7112L138.901 82.9339L140.197 65.1832L119.506 54.0337C117.639 53.0279 115.857 54.0337 115.527 56.2834L113.282 73.4469C112.952 75.6923 114.199 78.3345 116.066 79.3403Z" fill="url(#paint8_linear_188_8048)"/>
<path fill-rule="evenodd" clip-rule="evenodd" d="M156.036 78.666L153.474 96.0253L153.781 96.0579L154.621 95.723C155.541 95.3511 156.024 94.391 156.158 93.4635L158.209 77.7951C158.209 77.7918 158.209 77.7885 158.209 77.7853C158.402 76.4315 157.99 75.03 157.246 73.91C156.844 73.3065 156.315 72.7553 155.666 72.4138L122.044 54.2923C121.403 53.939 120.654 53.8139 119.952 54.0858L119.213 54.3837C118.84 54.5272 118.725 54.6403 118.728 54.6631C119.072 57.8969 156.526 75.3377 156.036 78.666Z" fill="#D0E7FF"/>
<path fill-rule="evenodd" clip-rule="evenodd" d="M154.822 72.7552L121.193 54.6337C120.446 54.2314 119.714 54.1825 119.103 54.4272C118.319 54.7414 117.733 55.5373 117.564 56.6899L115.514 72.3584C115.213 74.4091 116.347 76.8164 118.051 77.7374L151.678 95.8589C153.384 96.7777 155.011 95.8589 155.312 93.806L157.361 78.1354C157.662 76.0857 156.524 73.674 154.822 72.7552Z" fill="#ECF5FF"/>
<path opacity="0.5" fill-rule="evenodd" clip-rule="evenodd" d="M155.446 79.2662L136.292 69.0246C136.218 68.9794 136.134 68.9515 136.048 68.9428C135.961 68.9342 135.874 68.945 135.792 68.9746C135.605 69.0496 135.464 69.2399 135.424 69.5183L135.296 70.2903C135.224 70.7807 135.495 71.3569 135.902 71.5766L155.055 81.8193C155.464 82.0367 155.853 81.8193 155.93 81.3278L156.057 80.5547C156.125 80.0665 155.853 79.4891 155.446 79.2662Z" fill="#22D2FB"/>
<path opacity="0.5" fill-rule="evenodd" clip-rule="evenodd" d="M154.752 83.9983L135.597 73.7556C135.523 73.7108 135.44 73.6831 135.353 73.6747C135.267 73.6662 135.18 73.6771 135.098 73.7067C134.91 73.7806 134.77 73.972 134.73 74.2503L134.602 75.0234C134.53 75.5127 134.801 76.089 135.208 76.3087L154.362 86.5514C154.77 86.7688 155.158 86.5513 155.236 86.061L155.365 85.2879C155.431 84.7942 155.159 84.2179 154.752 83.9983Z" fill="#22D2FB"/>
<path opacity="0.5" fill-rule="evenodd" clip-rule="evenodd" d="M142.522 82.4197L134.903 78.4835C134.829 78.4388 134.746 78.4112 134.659 78.4027C134.573 78.3942 134.486 78.4051 134.404 78.4346C134.216 78.5096 134.076 78.6999 134.036 78.9783L133.908 79.7503C133.836 80.2407 134.107 80.8169 134.515 81.0366L142.132 84.9749C142.541 85.1924 142.929 84.9749 143.006 84.4845L143.135 83.7114C143.202 83.2189 142.93 82.6426 142.522 82.4197Z" fill="#22D2FB"/>
<path fill-rule="evenodd" clip-rule="evenodd" d="M118.099 64.4224C117.508 69.7079 120.45 76.1188 124.677 78.7306C128.904 81.3424 132.957 77.8607 133.402 73.8778C133.848 69.8949 133.1 68.2563 131.891 65.6511C131.155 66.0642 130.42 66.4774 129.684 66.883C130.469 68.5575 130.952 69.6285 130.668 72.1859C130.383 74.7433 127.775 76.9822 125.061 75.3044C122.347 73.6266 120.457 69.5067 120.836 66.1132C119.933 65.5521 119.013 64.9867 118.099 64.4224Z" fill="#22D2FB"/>
<path fill-rule="evenodd" clip-rule="evenodd" d="M121.104 59.0356C119.523 59.9055 118.395 61.7746 118.099 64.4223C119.013 64.9866 119.933 65.552 120.831 66.1131C121.021 64.4158 121.741 63.2121 122.758 62.651C122.208 61.4484 121.651 60.2458 121.104 59.0356Z" fill="#12A3EB"/>
<path fill-rule="evenodd" clip-rule="evenodd" d="M126.825 59.5672C124.71 58.2624 122.673 58.1537 121.104 59.0235C121.652 60.2348 122.205 61.4428 122.763 62.6476C123.779 62.0865 125.084 62.1529 126.436 62.9901C127.787 63.8274 128.949 65.2735 129.714 66.9393C130.448 66.5348 131.183 66.1293 131.919 65.7161C130.731 63.1282 128.94 60.8731 126.825 59.5672Z" fill="#1C8DF3"/>
<path style="mix-blend-mode:multiply" opacity="0.5" fill-rule="evenodd" clip-rule="evenodd" d="M90.2412 56.8726C89.8927 59.5137 87.8867 60.6663 85.7615 59.4408L60.6099 44.7836L61.1857 40.8116L65.8008 19.7173L89.2655 33.3992C91.3928 34.6246 92.8329 37.7616 92.4854 40.4027L90.2412 56.8726Z" fill="url(#paint9_linear_188_8048)"/>
<path fill-rule="evenodd" clip-rule="evenodd" d="M51.7511 16.5653C51.8757 15.6248 51.6189 15.0572 52.0865 14.5255C52.3848 14.1873 53.3277 13.7513 53.7254 13.6045C54.4903 13.3185 55.3971 13.4077 56.328 13.9448L87.4267 32.1131C89.5944 33.3613 91.0673 36.5646 90.7122 39.2601L88.8668 52.7898C88.7575 53.6249 88.4439 54.7024 87.7283 55.3179C87.2191 55.7528 86.3647 56.2106 85.7616 56.2856C85.1585 56.3606 84.9815 55.8083 84.2909 55.4157L53.1911 37.242C51.0245 35.9905 49.5506 32.7894 49.9057 30.095L51.7511 16.5653Z" fill="#D0E7FF"/>
<path fill-rule="evenodd" clip-rule="evenodd" d="M51.0245 16.9947C51.3796 14.2992 53.4282 13.1238 55.5959 14.3742L86.6979 32.5424C88.8645 33.7918 90.3374 36.994 89.9823 39.6895L88.1369 53.2192C87.7818 55.9136 85.7332 57.089 83.5643 55.8396L52.4613 37.6714C50.2914 36.421 48.8207 33.2188 49.1758 30.5243L51.0245 16.9947Z" fill="#ECF5FF"/>
<path fill-rule="evenodd" clip-rule="evenodd" d="M65.8839 29.1087C65.9931 28.3084 66.5963 27.9692 67.2398 28.3476L86.7974 39.384C87.4398 39.7668 87.8758 40.728 87.7709 41.5282L87.5666 43.1114C87.4573 43.9117 86.8531 44.2509 86.2106 43.8725L66.6564 32.8372C66.0128 32.4544 65.578 31.4932 65.6828 30.693L65.8839 29.1087Z" fill="#86E4FD"/>
<path fill-rule="evenodd" clip-rule="evenodd" d="M65.1365 34.9326C65.1988 34.4596 65.5572 34.2595 65.9363 34.4857L77.4873 41.0031C77.8664 41.2282 78.1243 41.7958 78.062 42.2688L77.9407 43.2039C77.8785 43.6758 77.5201 43.877 77.141 43.6508L65.59 37.1333C65.2108 36.9072 64.953 36.3407 65.0153 35.8677L65.1365 34.9326Z" fill="#86E4FD"/>
<path opacity="0.2" fill-rule="evenodd" clip-rule="evenodd" d="M57.7517 20.7677C61.3321 21.5821 64.0822 25.8249 63.8932 30.2438C63.7042 34.6627 60.6504 37.5844 57.0699 36.7678C53.4895 35.9512 50.7394 31.7074 50.9273 27.2917C51.1152 22.876 54.1701 19.9489 57.7517 20.7677Z" fill="#6D6AFD"/>
<path fill-rule="evenodd" clip-rule="evenodd" d="M59.8472 35.4471C58.9871 35.8204 58.028 35.904 57.1157 35.6852C54.4421 35.0763 52.3083 32.2558 51.8767 29.0362L56.9813 28.9351L59.8472 35.4471Z" fill="url(#paint10_linear_188_8048)"/>
<path fill-rule="evenodd" clip-rule="evenodd" d="M59.4615 22.6064C61.6467 24.0287 63.1436 26.9862 63.0147 30.0405C62.9185 32.275 61.9756 34.0637 60.5891 35.0271L57.7112 28.4878L59.4615 22.6064Z" fill="url(#paint11_linear_188_8048)"/>
<path fill-rule="evenodd" clip-rule="evenodd" d="M57.7047 21.8554C58.0482 21.9346 58.3828 22.0482 58.7033 22.1947L56.9464 28.0891L51.8046 28.1913C51.7959 27.9586 51.797 27.7238 51.8046 27.4889C51.9696 23.6702 54.6104 21.1454 57.7047 21.8554Z" fill="url(#paint12_linear_188_8048)"/>
<path style="mix-blend-mode:multiply" opacity="0.5" fill-rule="evenodd" clip-rule="evenodd" d="M63.6604 51.3794L69.1966 54.6131C71.4342 55.9027 72.953 59.2071 72.5837 61.9885L70.6825 75.9499C70.3165 78.7302 68.2012 79.9425 65.9636 78.6541L56.4285 73.0837L58.6727 59.4202L63.6604 51.3794Z" fill="url(#paint13_linear_188_8048)"/>
<path fill-rule="evenodd" clip-rule="evenodd" d="M32.5289 36.691C32.6524 35.7515 32.3956 35.184 32.8644 34.6523C33.1626 34.3141 34.1045 33.8781 34.4978 33.7302C35.2626 33.4442 36.1695 33.5345 37.1015 34.0705L68.2045 52.2388C70.3723 53.4881 71.844 56.6903 71.4889 59.3858L69.6446 72.9155C69.5353 73.7517 69.2218 74.8292 68.5061 75.4436C67.9959 75.8785 67.1425 76.3363 66.5394 76.4113C65.9363 76.4863 65.7604 75.935 65.0688 75.5414L33.9679 57.3677C31.798 56.1173 30.3284 52.9162 30.6835 50.2207L32.5289 36.691Z" fill="#D0E7FF"/>
<path fill-rule="evenodd" clip-rule="evenodd" d="M31.7947 37.1205C32.1498 34.426 34.1984 33.2496 36.3672 34.5L67.4747 52.6682C69.6424 53.9176 71.1152 57.1263 70.7601 59.8153L68.9147 73.345C68.5596 76.0405 66.511 77.2148 64.3411 75.9654L33.2391 57.7972C31.0681 56.5468 29.5986 53.3456 29.9537 50.6512L31.7947 37.1205Z" fill="url(#paint14_linear_188_8048)"/>
<path fill-rule="evenodd" clip-rule="evenodd" d="M40.4044 41.6448C40.4503 41.2958 40.7147 41.1468 40.9955 41.3186L66.3789 55.8236C66.6586 55.9911 66.8487 56.4097 66.8028 56.7587L66.7143 57.4481C66.6673 57.7971 66.4029 57.945 66.1232 57.7743L40.7399 43.2671C40.4591 43.1007 40.2701 42.6821 40.3159 42.3331L40.4044 41.6448Z" fill="url(#paint15_linear_188_8048)"/>
<path opacity="0.5" fill-rule="evenodd" clip-rule="evenodd" d="M35.3523 39.1982L34.7994 43.1692L38.1799 43.2605L35.3523 39.1982Z" fill="white"/>
<path opacity="0.5" fill-rule="evenodd" clip-rule="evenodd" d="M35.8373 44.7555C34.5142 43.9487 33.5735 41.9958 33.7363 40.392C33.8991 38.7882 35.1042 38.1412 36.4273 38.9469C37.7505 39.7527 38.6912 41.7055 38.5284 43.3104C38.3656 44.9153 37.1638 45.559 35.8373 44.7555ZM35.7685 45.4351C37.4009 46.43 38.8879 45.6308 39.0889 43.6518C39.29 41.6729 38.1285 39.2612 36.4962 38.2663C34.8638 37.2714 33.3768 38.0706 33.1758 40.0506C32.9747 42.0306 34.1394 44.4401 35.7718 45.4351H35.7685Z" fill="white"/>
<path opacity="0.5" fill-rule="evenodd" clip-rule="evenodd" d="M33.9045 48.6992L33.3517 52.6702L36.7322 52.7604L33.9045 48.6992Z" fill="white"/>
<path opacity="0.5" fill-rule="evenodd" clip-rule="evenodd" d="M34.393 54.2579C33.0698 53.4511 32.1291 51.4983 32.2919 49.8934C32.4547 48.2885 33.6598 47.6426 34.983 48.4483C36.3061 49.254 37.2457 51.208 37.0829 52.8129C36.9201 54.4178 35.7161 55.0626 34.393 54.2579ZM34.3241 54.9375C35.9565 55.9314 37.4435 55.1332 37.6445 53.1543C37.8456 51.1754 36.6841 48.7637 35.0518 47.7687C33.4194 46.7738 31.9324 47.573 31.7314 49.552C31.5303 51.5309 32.6907 53.9415 34.3241 54.9364V54.9375Z" fill="white"/>
<path opacity="0.5" fill-rule="evenodd" clip-rule="evenodd" d="M39.9827 44.897C40.0199 44.622 40.2274 44.5056 40.4482 44.6372L60.4493 56.0705C60.5657 56.1528 60.658 56.2645 60.7168 56.394C60.7755 56.5236 60.7986 56.6663 60.7836 56.8077L60.7137 57.3514C60.6766 57.6254 60.4679 57.7428 60.2483 57.6112L40.2471 46.1768C40.1307 46.0948 40.0384 45.9833 39.9796 45.8539C39.9208 45.7245 39.8978 45.5819 39.9128 45.4407L39.9827 44.897Z" fill="white"/>
<path fill-rule="evenodd" clip-rule="evenodd" d="M39.2003 51.8006C39.2462 51.4515 39.5106 51.3037 39.7914 51.4744L65.1748 65.9816C65.4545 66.1479 65.6446 66.5666 65.5987 66.9156L65.5091 67.606C65.4632 67.9551 65.1988 68.103 64.9191 67.9322L39.5358 53.425C39.255 53.2576 39.066 52.839 39.1118 52.491L39.2003 51.8006Z" fill="url(#paint16_linear_188_8048)"/>
<path opacity="0.5" fill-rule="evenodd" clip-rule="evenodd" d="M38.7786 55.0536C38.8147 54.7796 39.0234 54.6622 39.2441 54.7937L59.2452 66.2281C59.3616 66.3102 59.454 66.4217 59.5127 66.5511C59.5715 66.6804 59.5946 66.8231 59.5796 66.9642L59.5096 67.5079C59.4725 67.783 59.2638 67.8994 59.0431 67.7678L39.0485 56.3345C38.9321 56.2521 38.8398 56.1405 38.781 56.0109C38.7223 55.8814 38.6992 55.7386 38.7142 55.5973L38.7786 55.0536Z" fill="white"/>
<path fill-rule="evenodd" clip-rule="evenodd" d="M88.5368 69.6567C88.8001 67.5636 90.3888 66.7536 92.0867 67.8507L128.162 89.5973C129.857 90.6934 131.019 93.2823 130.756 95.3754L128.843 111.052C128.58 113.144 126.985 113.954 125.293 112.858L89.2175 91.1109C87.5174 90.0138 86.3592 87.4216 86.6237 85.3328L88.5368 69.6567Z" fill="white"/>
<path fill-rule="evenodd" clip-rule="evenodd" d="M111.309 86.008C111.498 84.5064 112.638 83.9236 113.857 84.7119L126.334 92.3939C127.55 93.18 128.385 95.0394 128.192 96.541L126.818 107.791C126.629 109.292 125.487 109.874 124.27 109.087L111.793 101.405C110.576 100.617 109.742 98.7591 109.935 97.2575L111.309 86.008Z" fill="#D4E5FF"/>
<path fill-rule="evenodd" clip-rule="evenodd" d="M91.9533 73.819C92.1413 72.3174 93.2819 71.7357 94.5002 72.5229L106.978 80.2049C108.194 80.9922 109.029 82.8504 108.835 84.352L107.466 95.6016C107.277 97.1032 106.135 97.6849 104.919 96.8977L92.4417 89.2157C91.2235 88.4284 90.3898 86.5702 90.5843 85.0686L91.9533 73.819Z" fill="#D4E5FF"/>
<path fill-rule="evenodd" clip-rule="evenodd" d="M92.41 87.2683L98.7679 78.5044L100 87.7978L103.098 84.4478L104.922 94.3849L92.41 87.2683Z" fill="url(#paint17_linear_188_8048)"/>
<path fill-rule="evenodd" clip-rule="evenodd" d="M102.884 78.8937C103.563 79.0307 104.076 79.8233 104.027 80.6617C103.977 81.5 103.387 82.0698 102.708 81.9317C102.028 81.7936 101.517 81.002 101.565 80.1637C101.613 79.3253 102.204 78.7556 102.884 78.8937Z" fill="#FFDB59"/>
<path fill-rule="evenodd" clip-rule="evenodd" d="M117.698 92.0601L116.732 98.9951L122.636 99.1538L117.698 92.0601Z" fill="url(#paint18_linear_188_8048)"/>
<path fill-rule="evenodd" clip-rule="evenodd" d="M118.547 101.766C116.236 100.357 114.593 96.9465 114.877 94.1456C115.161 91.3446 117.266 90.2138 119.575 91.6208C121.885 93.0278 123.534 96.4464 123.245 99.2419C122.957 102.037 120.857 103.174 118.547 101.766ZM118.426 102.953C121.278 104.693 123.874 103.294 124.224 99.8388C124.575 96.3833 122.548 92.171 119.697 90.4345C116.845 88.698 114.249 90.092 113.898 93.5486C113.548 97.0052 115.579 101.215 118.43 102.953H118.426Z" fill="url(#paint19_linear_188_8048)"/>
<g style="mix-blend-mode:multiply" opacity="0.5">
<path fill-rule="evenodd" clip-rule="evenodd" d="M104.315 151.95L87.0345 142.156C85.1508 141.299 82.4554 140.617 80.5357 141.612C78.7875 142.517 75.9063 144.371 74.6356 145.091C73.6687 145.635 70.31 147.643 72.4012 148.775C78.5548 152.105 84.6449 155.851 90.8935 159.233C92.0757 159.873 93.8042 160.103 95.619 159.954C97.4338 159.805 99.2792 159.281 100.737 158.437L103.796 156.662C105.151 155.877 105.872 154.948 105.941 154.089C106.013 153.253 105.471 152.476 104.315 151.95Z" fill="#BDDDFF"/>
</g>
<path fill-rule="evenodd" clip-rule="evenodd" d="M82.498 139.98C82.419 140.221 82.3219 140.456 82.2074 140.683C82.0009 140.907 81.743 141.042 81.6217 141.299C80.9749 142.669 80.8329 143.989 81.283 151.021L82.9416 151.056L83.1535 148.572C83.359 147.565 83.9271 146.092 84.1576 145.179C84.6493 143.222 84.7039 142.228 84.9968 140.806L85.0142 140.796C86.8312 135.281 88.7094 129.859 90.2183 124.304L95.395 109.36L95.56 105.354C95.5863 104.707 95.2399 104.232 95.0345 103.723C92.3685 104.504 90.8761 105.347 88.0113 105.245C87.1525 106.516 85.9746 108.896 85.9353 110.695C85.8501 114.198 86.1265 116.535 85.0514 122.391C81.8555 133.089 83.7086 132.901 82.498 139.98Z" fill="url(#paint20_linear_188_8048)"/>
<path fill-rule="evenodd" clip-rule="evenodd" d="M79.4758 146.071C79.2955 146.047 78.9524 146.032 78.9142 145.99C78.829 145.895 78.6673 145.429 78.7853 145.337C78.9951 145.202 79.419 145.936 79.4758 146.071Z" fill="#1F202B"/>
<path fill-rule="evenodd" clip-rule="evenodd" d="M80.3979 143.259C80.5957 143.888 80.3138 144.494 80.1161 145.147C79.4223 147.43 79.0147 147.554 79.3086 148.586C79.5042 149.259 79.8514 149.878 80.3236 150.397C80.7727 150.906 80.9082 151.273 81.4851 151.67C82.3592 152.267 83.124 152.546 82.9393 151.344C82.8817 150.965 82.7865 150.593 82.6553 150.232C82.0401 148.809 81.3223 148.185 81.7113 146.408C81.9997 145.089 82.4575 144.22 81.862 143.332L80.3979 143.259Z" fill="#161A40"/>
<path fill-rule="evenodd" clip-rule="evenodd" d="M80.5345 141.838C80.2745 143.034 79.879 144.027 78.7864 145.34C78.9251 145.303 79.2791 145.666 79.4736 146.061C80.9071 144.421 81.6042 143.623 82.0456 144.33C82.003 144.923 81.7856 145.997 81.602 146.831C81.5419 147.106 81.4753 147.714 81.6501 148.136C82.2139 149.481 83.2453 151.445 82.8519 152.088C82.9907 151.915 83.1469 151.436 83.1448 150.803C83.1448 149.874 82.9831 148.617 82.9634 147.844C82.9372 146.801 83.3338 145.895 83.4004 144.474C83.4214 144.075 83.4214 143.676 83.4004 143.278C83.3414 142.272 83.23 140.938 82.5198 140.559C82.2663 140.424 81.6086 140.522 81.2677 140.694C80.7815 140.935 80.634 141.379 80.5345 141.838Z" fill="#161F69"/>
<path fill-rule="evenodd" clip-rule="evenodd" d="M92.2975 143.625C92.1697 144.686 91.1951 145.701 91.0771 146.393C90.7897 148.061 92.0047 147.193 93.3792 149.338C93.9255 149.338 95.1416 151.307 96.7826 151.411C97.1585 151.435 97.8326 150.525 97.0875 149.881C96.7597 149.69 96.4592 149.832 96.1861 149.595C95.6529 149.125 95.029 145.473 95.064 144.05C96.5521 136.195 97.4917 128.705 98.9755 121.019C99.7217 117.156 99.8616 114.768 99.6114 111.923C99.5163 110.292 99.6857 109.495 99.147 107.917C98.9391 107.35 98.6775 106.803 98.3658 106.286C95.8223 107.067 93.9244 107.835 91.0454 107.734C90.3898 109.006 89.814 110.708 90.0533 112.506C90.5188 116.01 92.2811 118.559 92.6756 124.567C90.7766 131.174 92.7488 136.447 92.3008 143.584C92.2953 143.599 92.2964 143.612 92.2975 143.625Z" fill="url(#paint21_linear_188_8048)"/>
<path fill-rule="evenodd" clip-rule="evenodd" d="M97.7135 128.163C98.1036 125.789 98.5133 123.413 98.9755 121.018C99.7217 117.154 99.8616 114.767 99.6114 111.922C99.5163 110.291 99.6857 109.494 99.147 107.915C99.0738 107.698 98.6084 106.8 98.6488 106.678C97.8435 104.912 97.7332 99.719 97.7386 99.669C98.1167 96.9148 99.6212 95.9471 98.8116 93.593C98.2183 92.7829 96.6144 91.4835 94.946 90.5745C92.6001 89.2958 89.979 88.4934 88.5717 88.3357C85.5933 88.0008 85.5867 92.8862 86.6225 95.1859C88.6875 99.7712 88.8383 102.117 87.7818 105.601C86.9569 106.927 85.9702 109.055 85.9309 110.698C85.8457 114.201 86.1221 116.538 85.047 122.394C84.551 124.054 84.1784 125.451 83.8954 126.653C86.0686 130.597 93.1989 130.246 97.7135 128.163Z" fill="url(#paint22_linear_188_8048)"/>
<path fill-rule="evenodd" clip-rule="evenodd" d="M91.6845 145.113C93.0164 145.275 94.2598 148.512 95.2901 149.919C95.7905 150.602 96.8515 149.899 96.421 149.715C96.6395 149.73 97.4469 149.636 98.0413 149.73C98.8771 149.864 98.5876 150.698 98.0151 151.088C96.7509 151.958 95.6288 152.446 94.4816 151.871C94.2356 151.734 94.0007 151.579 93.7791 151.406C93.6117 151.294 93.4541 151.169 93.3081 151.031C92.9367 150.587 92.7946 149.875 92.4548 149.268C92.3456 149.068 92.2516 149.024 92.1795 149.079C92.0396 149.273 92.1795 152.183 92.2527 152.766C92.2156 152.933 91.6452 153.065 91.5316 152.938L90.4761 147.769C90.3555 147.325 90.4049 146.853 90.6149 146.444C90.9339 145.836 91.5425 145.367 91.6845 145.113Z" fill="#161F69"/>
<path fill-rule="evenodd" clip-rule="evenodd" d="M95.1656 152.096C94.929 152.055 94.6999 151.979 94.486 151.871C94.24 151.734 94.0051 151.579 93.7835 151.405C93.6146 151.294 93.4556 151.169 93.3082 151.03C92.9061 150.551 92.7095 149.66 92.2637 149.05C92.4123 148.959 92.8012 148.969 93.1913 149.607C93.778 150.68 94.1746 151.47 94.9537 151.989C95.0205 152.032 95.0916 152.068 95.1656 152.096Z" fill="#161A40"/>
<path fill-rule="evenodd" clip-rule="evenodd" d="M85.7692 96.6205L90.8498 97.7741C91.8692 98.2286 91.0967 100.384 90.085 100.634L82.9929 99.7205C81.1857 99.3388 80.7891 98.1536 81.1803 97.2294C81.189 97.2098 81.1978 97.1913 81.2076 97.1728C81.33 96.6009 84.941 91.4328 85.4622 90.7326C86.1866 89.754 86.9427 89.1309 87.2573 88.9428C87.8714 88.5764 88.6777 88.6732 89.2142 88.9972C89.9451 89.443 90.1888 90.1824 89.9047 90.862C89.3857 92.1026 87.4081 94.5339 85.7692 96.6205Z" fill="#107CCE"/>
<path fill-rule="evenodd" clip-rule="evenodd" d="M107.849 94.5303C109.065 93.792 110.706 92.3926 111.831 92.2469C112.541 91.887 113.594 91.2976 114.269 90.9421C114.761 90.6833 114.97 91.5303 114.547 91.812C114.124 92.0936 113.018 92.7666 113.011 92.7677L112.962 92.7873C113.233 93.2364 113.29 93.8659 113.207 94.3096C113.097 94.8945 111.799 95.6405 110.984 96.183C110.262 96.6636 109.395 96.3026 108.908 96.6821C108.082 96.2885 107.949 95.3251 107.849 94.5303Z" fill="url(#paint23_linear_188_8048)"/>
<path fill-rule="evenodd" clip-rule="evenodd" d="M102.211 97.9108C103.562 96.8235 105.251 95.8895 106.618 95.0414C106.837 94.9055 107.164 94.9098 107.34 94.8065C107.559 94.6793 107.727 94.5793 107.848 94.514C108.336 94.7782 108.941 95.7644 109.208 96.5408C109.026 96.6963 108.845 96.867 108.661 97.0323C108.521 97.1649 108.375 97.6205 108.234 97.7597C106.714 99.2657 105.684 100.606 104.2 101.633C103.982 101.781 103.108 102.547 102.554 102.822C101.88 103.162 100.915 102.822 100.466 102.141C100.075 101.79 99.725 101.406 99.5032 101.199C98.4958 100.262 95.9926 98.1348 94.6225 96.3059C93.6162 94.9631 93.7834 94.227 94.1778 93.5278C95.0978 91.8968 96.4887 90.8573 98.0238 92.3317C98.7547 93.0331 99.2453 94.2052 99.8714 95.0164C100.572 95.9232 101.453 96.9225 102.211 97.9108Z" fill="url(#paint24_linear_188_8048)"/>
<path opacity="0.3" fill-rule="evenodd" clip-rule="evenodd" d="M88.5718 88.3358C87.6398 88.227 86.9984 88.6369 86.5898 89.3144C86.5734 89.3415 86.557 89.3698 86.5417 89.3981L86.5198 89.4372L86.4838 89.5057L86.4729 89.5275C86.4576 89.5579 86.4434 89.5884 86.4292 89.6199L86.4139 89.6536L86.3778 89.7362L86.3713 89.7536C86.357 89.7874 86.3428 89.8221 86.3297 89.8569L86.3199 89.8863L86.2904 89.97L86.2806 89.9972C86.2685 90.0331 86.2576 90.069 86.2467 90.1059L86.238 90.1331L86.2117 90.2234L86.2063 90.2484C86.1953 90.2875 86.1844 90.3267 86.1757 90.3669L86.1494 90.4822L86.1429 90.5126L86.12 90.6213V90.6355C86.1123 90.6746 86.1057 90.7138 86.0992 90.7529L86.0926 90.791L86.0762 90.8997V90.9095L86.0609 91.0302L86.0555 91.0737L86.0446 91.1683V91.1998L86.0336 91.327V91.3488L86.0271 91.4488V91.4945L86.0216 91.613V91.6489V91.7576V91.7783V91.8989V92.0686C86.0216 92.1621 86.0216 92.2567 86.0293 92.3502V92.3709L86.0358 92.4883V92.5176L86.0457 92.6536V92.6623L86.0555 92.7797V92.8156L86.0675 92.9384V92.9711L86.0806 93.0852V93.1015L86.0981 93.2331V93.257L86.1156 93.3658V93.3929L86.1363 93.5169V93.5397L86.1571 93.6485V93.6724C86.1735 93.7572 86.191 93.8398 86.2095 93.9225L86.2172 93.9551L86.2423 94.0638V94.0791L86.274 94.2052V94.2161C86.2959 94.2976 86.3188 94.3792 86.3428 94.4574L86.3516 94.4879L86.3789 94.576L86.3898 94.6075L86.4237 94.7097L86.4335 94.7369L86.4652 94.826L86.4729 94.8467C86.486 94.8826 86.5002 94.9185 86.5144 94.9554V94.9641L86.5526 95.0555L86.5635 95.0827L86.6062 95.1805C88.6712 99.7658 88.822 102.111 87.7654 105.596C86.9405 106.922 85.9539 109.049 85.9145 110.692C85.8293 114.196 86.1057 116.532 85.0306 122.389C84.5346 124.048 84.162 125.445 83.879 126.648C84.8788 128.462 86.9285 129.366 89.2896 129.612C99.0203 118.974 85.2885 115.156 90.51 105.398C91.1044 104.286 94.7581 102.871 95.6715 101.497C97.6294 99.2134 98.403 96.954 95.4529 93.3157C94.9624 92.7112 94.5974 92.3959 93.9386 91.4836C92.8646 91.7358 90.864 91.3825 90.6247 90.9454C90.5406 90.7931 90.9645 89.4568 90.8957 89.2937C89.0667 88.4934 89.6534 88.4575 88.5718 88.3358Z" fill="#0960AC"/>
<path fill-rule="evenodd" clip-rule="evenodd" d="M89.5266 89.6844C89.2961 90.663 92.8667 91.709 94.0904 91.1795L94.1167 90.9435C94.4313 89.4919 94.7416 88.2578 94.9601 87.2379C95.5294 87.4793 96.9268 87.5489 97.0492 87.3553C93.2841 84.363 88.882 82.1513 88.316 83.6584C88.6886 84.7522 89.6523 85.5308 90.1341 86.243C90.2631 86.4322 90.3625 86.8269 90.3865 87.2216C90.2489 87.9968 89.9539 88.7362 89.5266 89.6844Z" fill="url(#paint25_linear_188_8048)"/>
<path fill-rule="evenodd" clip-rule="evenodd" d="M97.0284 87.3716C96.7007 87.5826 94.3986 86.8204 94.2128 86.828C92.4199 86.9171 90.4903 86.7714 90.1341 86.2452C89.6523 85.533 88.6886 84.7544 88.316 83.6606C87.7195 81.9111 87.8364 79.9386 89.4425 78.5653C92.2374 76.1732 96.6209 77.9282 97.2481 80.6313C97.5048 81.7403 97.1869 81.8273 97.2393 82.5754C97.3366 83.9444 97.4917 83.4279 97.3661 85.5939C97.3169 86.4213 97.2415 87.2325 97.0284 87.3716Z" fill="#FFA698"/>
<path fill-rule="evenodd" clip-rule="evenodd" d="M90.0424 88.3784C90.1408 89.2646 92.6461 89.8887 94.1659 89.5364C94.3276 89.4995 94.4292 89.4679 94.4871 89.3657C94.7111 89.4875 95.3197 90.3617 95.3885 90.7977C94.0774 92.0569 89.9255 91.3186 89.4208 89.8431C89.3006 89.4875 89.1891 88.8242 90.0424 88.3784Z" fill="#00CEDC"/>
<path fill-rule="evenodd" clip-rule="evenodd" d="M83.1262 85.4438C80.7432 87.4314 79.3917 91.0098 80.4788 93.042C81.4622 94.8829 83.8659 95.9659 83.1273 97.1304C82.5154 98.0938 81.0776 99.0593 82.7886 100.61C83.6692 101.411 85.8205 103.559 90.2128 102.446C94.4936 101.359 98.9853 97.6817 95.3786 93.6586C91.5829 89.4234 93.8042 88.4872 95.9806 85.1578C97.1322 83.3985 98.1604 79.919 97.1748 78.6284C95.4835 76.408 94.3603 78.0075 92.7323 77.2235C89.6283 75.7274 87.0825 76.7962 85.6228 79.1361C84.316 81.2303 85.0251 83.8628 83.1262 85.4438Z" fill="url(#paint26_linear_188_8048)"/>
<g style="mix-blend-mode:multiply" opacity="0.5">
<path fill-rule="evenodd" clip-rule="evenodd" d="M4.28192 147.297L24.0056 136.118C26.1558 135.139 29.2326 134.362 31.4232 135.497C33.4194 136.53 36.707 138.65 38.1613 139.471C39.2659 140.099 43.0988 142.383 40.7114 143.676C33.6882 147.482 26.7371 151.75 19.6046 155.612C18.2563 156.342 16.2831 156.605 14.2115 156.435C12.1399 156.264 10.0334 155.667 8.37043 154.704L4.87411 152.678C3.32699 151.781 2.50754 150.721 2.42559 149.742C2.34474 148.783 2.96315 147.896 4.28192 147.297Z" fill="#BDDDFF"/>
</g>
<path fill-rule="evenodd" clip-rule="evenodd" d="M12.2951 146.554C12.742 146.544 14.2486 145.14 15.6756 145.846C17.3899 146.7 20.6447 145.944 22.2869 146.336C22.5786 146.406 23.1512 146.192 23.2637 146.392C23.6188 147.018 23.9608 147.954 23.09 148.566C22.4497 149.016 21.0785 149.614 20.1793 149.931C19.2254 150.268 17.592 150.801 16.4972 150.968C15.2844 151.157 14.7316 151.235 14.2781 151.584C13.6291 151.91 12.9583 152.048 12.5846 151.989C11.7848 151.862 10.8528 151.396 10.4256 150.489C10.2891 150.199 10.2858 148.933 10.4431 148.111C10.5666 147.458 10.9217 146.724 11.2079 146.034L12.2951 146.554Z" fill="white"/>
<path fill-rule="evenodd" clip-rule="evenodd" d="M15.8001 143.528C15.2538 144.824 15.4243 146.828 14.1394 147.524C13.2806 147.989 11.9356 147.994 11.3488 146.665C11.0211 145.925 11.4581 144.659 11.3598 143.032L15.8001 143.528Z" fill="#FFA495"/>
<path fill-rule="evenodd" clip-rule="evenodd" d="M16.1575 145.529C17.1408 145.814 19.8614 145.624 21.5801 145.762C22.3187 145.821 22.9808 145.815 23.3282 146.483C23.6462 147.097 23.4801 147.624 22.7601 148.13C22.1198 148.581 21.0338 149.095 20.1378 149.412C19.1829 149.748 17.5505 150.282 16.4547 150.45C15.243 150.638 14.689 150.716 14.2356 151.064C13.5866 151.39 12.9168 151.529 12.5421 151.47C11.7423 151.343 10.8114 150.782 10.3842 149.876C10.2476 149.585 10.2432 148.414 10.4006 147.592C10.4331 147.428 10.4754 147.267 10.5273 147.108C10.6628 145.821 11.09 145.3 11.4921 145.521C12.0438 145.822 12.2569 146.366 12.4612 146.811C12.5288 146.975 12.6304 147.124 12.7594 147.246C12.8883 147.368 13.0417 147.462 13.2096 147.521C13.8652 147.729 14.4705 147.363 14.8606 146.799C15.0759 146.389 15.2284 145.95 15.3129 145.495C15.3129 145.451 15.3129 145.407 15.3129 145.364C15.4429 144.239 15.9925 144.337 15.9095 144.574C15.8275 144.793 15.8592 145.3 16.1575 145.529Z" fill="#193161"/>
<path fill-rule="evenodd" clip-rule="evenodd" d="M22.9829 146.294C22.9698 146.729 23.6385 146.771 23.4462 147.535C23.7674 147.221 23.3184 146.319 23.1184 146.181C23.0386 146.126 22.9687 146.102 22.9829 146.294Z" fill="white"/>
<path fill-rule="evenodd" clip-rule="evenodd" d="M23.4965 142.094C23.9128 141.932 24.8404 140.092 26.4257 140.271C27.066 140.343 28.0952 140.178 29.1387 139.882C30.8038 139.411 33.1245 137.925 33.52 138.173C34.3821 138.7 34.4509 139.663 33.8478 140.537C33.402 141.179 32.5607 142.034 31.8254 142.641C31.0463 143.282 29.9395 144.272 28.9704 144.8C28.0548 145.307 27.7511 145.261 27.0999 146.139C26.6027 146.666 26.0215 146.979 25.65 147.051C24.6983 147.237 23.3162 146.628 22.818 145.993C22.5022 144.974 21.9526 144.01 22.3044 142.48L23.4965 142.094Z" fill="white"/>
<path fill-rule="evenodd" clip-rule="evenodd" d="M25.6958 137.753C25.6696 139.156 26.5699 140.959 25.6281 142.076C25.0009 142.823 23.751 143.32 22.7152 142.294C22.1372 141.724 22.0738 140.388 21.3833 138.911L25.6958 137.753Z" fill="#FFA495"/>
<path fill-rule="evenodd" clip-rule="evenodd" d="M28.7115 139.464C28.8065 139.439 28.9016 139.414 28.9966 139.386C30.6618 138.916 32.8863 137.774 33.2818 138.016C34.145 138.544 34.3089 139.168 33.7036 140.041C33.2578 140.684 32.4154 141.538 31.6811 142.144C30.901 142.786 29.7953 143.775 28.8262 144.304C27.9106 144.81 27.6068 144.765 26.9546 145.642C26.4585 146.169 25.8762 146.483 25.5058 146.555C24.553 146.74 23.1294 146.126 22.6322 145.491C22.3962 144.729 22.0739 144.01 22.0477 143.057C21.9089 141.809 21.9952 141.174 22.5415 141.19C23.5555 141.22 23.975 141.751 24.3935 142.011C25.2971 142.572 25.9013 141.848 26.0488 140.952C26.0664 140.556 26.0385 140.159 25.9658 139.769C25.9515 139.728 25.9363 139.686 25.9199 139.646C25.6238 138.552 26.1712 138.443 26.1821 138.694C26.2039 139.262 26.5601 139.581 27.019 139.649C27.5686 139.731 28.2657 139.505 28.7115 139.464Z" fill="#193161"/>
<path fill-rule="evenodd" clip-rule="evenodd" d="M33.1801 138.156C33.356 138.553 33.9788 138.303 34.135 139.076C34.2891 138.655 33.4937 138.034 33.2544 137.996C33.1571 137.983 33.0839 137.988 33.1801 138.156Z" fill="white"/>
<path fill-rule="evenodd" clip-rule="evenodd" d="M6.78405 88.7329C10.0957 92.557 10.1449 92.8538 16.6175 96.6356L17.8488 94.225C15.6778 89.8017 15.0288 89.2124 12.2099 85.7688C14.7721 84.003 17.5265 81.3107 18.8398 79.5623C23.0583 73.9593 20.7158 70.0655 17.0709 70.8538C13.8881 71.5465 8.92883 79.7319 6.22792 84.3487C5.10691 86.2722 4.83485 86.4832 6.78405 88.7329Z" fill="url(#paint27_linear_188_8048)"/>
<g style="mix-blend-mode:multiply" opacity="0.35">
<path fill-rule="evenodd" clip-rule="evenodd" d="M13.2959 84.9717C15.5161 83.2614 17.7068 81.0573 18.8354 79.5622C23.054 73.9592 20.5891 70.1775 16.9441 70.9669C15.043 71.5464 11.6505 75.5489 13.2959 84.9717Z" fill="#0960AC"/>
</g>
<path fill-rule="evenodd" clip-rule="evenodd" d="M24.7366 99.8528C25.1015 103.918 27.149 116.905 26.5798 120.471C25.7221 125.831 25.9669 132.309 25.9767 137.999C25.8325 140.391 22.5295 141.638 21.568 140.119C20.7956 135.035 19.6975 130.581 19.2506 127.755C18.7513 124.591 18.9163 120.747 19.7226 118.668C19.3949 116.397 17.8357 110.536 16.5355 106.476C16.0668 105.01 13.4085 100.278 16.1597 95.5698L24.7366 99.8528Z" fill="url(#paint28_linear_188_8048)"/>
<path fill-rule="evenodd" clip-rule="evenodd" d="M26.0302 136.472C26.0302 136.894 26.0171 137.537 26.0182 137.951C25.8739 140.343 22.5295 141.638 21.568 140.119C21.5112 139.745 21.4281 139.373 21.368 139.006C22.6617 140.392 25.1954 138.591 26.0302 136.472Z" fill="url(#paint29_linear_188_8048)"/>
<g style="mix-blend-mode:multiply" opacity="0.3">
<path fill-rule="evenodd" clip-rule="evenodd" d="M26.6672 118.052C25.5899 123.427 22.5437 130.609 20.8764 136.014C20.0111 131.383 17.8444 123.495 19.7182 118.668C19.5303 117.374 18.9436 114.917 18.2345 112.29C19.6756 109.572 18.2979 107.397 18.9786 103.569C22.795 102.908 17.0348 98.2719 25.1113 103.154C25.8379 108.923 26.5164 112.552 26.6672 118.052Z" fill="#1E2353"/>
</g>
<path fill-rule="evenodd" clip-rule="evenodd" d="M24.4743 123.15C22.2727 128.11 18.2115 137.84 16.0504 143.928C14.9326 145.545 10.9479 145.376 10.9556 143.868C11.8297 138.778 12.8698 130.929 14.7054 126.465C15.267 125.1 17.3407 121.812 18.0924 120.836C18.6726 118.59 19.4036 112.523 19.963 109.24C19.4582 106.521 17.2566 101.982 21.4872 98.0337C23.1938 99.2417 28.4711 99.9974 30.8639 98.6524C31.2485 109.385 28.5967 113.858 24.4743 123.15Z" fill="url(#paint30_linear_188_8048)"/>
<path fill-rule="evenodd" clip-rule="evenodd" d="M16.4983 142.867C16.4021 143.133 16.2109 143.67 16.1202 143.925C14.9697 145.588 10.867 145.415 10.8757 143.863C10.9195 143.612 10.9635 143.354 11.008 143.09C11.9826 144.082 14.9402 144.095 16.4983 142.867Z" fill="url(#paint31_linear_188_8048)"/>
<path fill-rule="evenodd" clip-rule="evenodd" d="M15.1413 85.2674C15.4964 88.4554 14.5338 91.5902 15.5139 94.4999C15.5587 94.8011 15.586 95.9798 15.6374 96.3016C16.2831 100.071 24.2962 103.886 30.9786 100.268C31.0157 99.8007 30.9786 99.3125 31.0092 98.447C30.8857 97.638 31.2364 96.7714 31.2343 96.2788C31.2244 94.227 30.5787 93.1777 30.8912 90.8954C31.5172 86.2514 34.1023 81.7879 32.6721 78.1334C32.3651 77.3494 31.8275 76.9689 31.2179 76.4817C29.6391 75.2193 21.4708 71.081 18.9949 70.7885C11.8056 69.861 14.7556 81.8097 15.1413 85.2674Z" fill="url(#paint32_linear_188_8048)"/>
<g style="mix-blend-mode:multiply" opacity="0.35">
<path fill-rule="evenodd" clip-rule="evenodd" d="M29.7417 96.3768C30.0225 95.1622 31.7193 87.2301 32.081 85.8036C32.8032 82.946 33.3921 79.9744 32.672 78.1335C31.8122 75.6218 27.8296 77.916 27.2571 81.2955C26.5732 85.3458 21.7264 96.7247 29.7417 96.3768Z" fill="#17ACC8"/>
</g>
<path fill-rule="evenodd" clip-rule="evenodd" d="M29.0917 70.7559C28.6371 70.9798 26.3296 70.6537 26.3973 70.8592C26.4312 71.8867 26.7382 72.5108 26.8343 73.9178C24.2973 73.5644 20.9693 73.2002 20.8371 71.2636C20.848 71.1092 20.8567 70.9538 20.8633 70.8015C20.8652 70.7836 20.8681 70.7658 20.872 70.7482H20.8687C20.895 70.0447 20.8611 69.4076 20.6644 69.0901C20.1269 68.2256 19.0255 67.2623 18.6322 65.952C18.0072 63.8578 18.2345 61.5309 20.1968 59.9804C23.7805 57.1533 28.3629 59.1627 29.5232 63.3055C29.7505 64.1144 29.1091 64.5515 29.1321 65.2431C29.1321 65.379 29.3156 65.5204 29.4599 65.8205C29.6642 66.2347 29.6489 70.4808 29.0917 70.7559Z" fill="#E7A376"/>
<path fill-rule="evenodd" clip-rule="evenodd" d="M29.0632 70.732C28.6087 70.956 26.3252 70.6538 26.3929 70.8593C26.4268 71.8868 26.7338 72.5109 26.8299 73.9179C25.356 74.2778 21.3833 73.7505 20.7889 71.5258C20.778 71.0572 20.7988 69.3185 20.6567 69.0891C20.1192 68.2247 19.0178 67.2613 18.6245 65.951C17.9995 63.8568 18.2268 61.5299 20.1891 59.9794C23.7728 57.1523 28.3552 59.1617 29.5155 63.3045C29.7428 64.1135 29.1014 64.5506 29.1244 65.2421C29.1244 65.378 29.308 65.5194 29.4522 65.8195C29.6641 66.2348 29.6248 70.4591 29.0632 70.732Z" fill="url(#paint33_linear_188_8048)"/>
<path fill-rule="evenodd" clip-rule="evenodd" d="M28.9977 70.756C28.7563 70.8843 27.7598 70.7995 27.0179 70.5157C26.5503 70.3374 26.2127 69.9383 26.1438 69.9089C25.8368 69.785 25.1539 68.8216 26.2116 67.2863C27.2419 65.789 20.9988 69.6208 20.6688 69.0891C20.1313 68.2247 19.0299 67.2613 18.6366 65.951C18.0116 63.8568 18.2389 61.5299 20.2012 59.9794C23.7849 57.1523 28.3673 59.1617 29.5276 63.3045C29.7549 64.1135 29.1135 64.5506 29.1365 65.2421C29.1365 65.378 29.32 65.5194 29.4643 65.8195C29.6642 66.2348 29.5451 70.4591 28.9977 70.756Z" fill="url(#paint34_linear_188_8048)"/>
<path fill-rule="evenodd" clip-rule="evenodd" d="M26.4289 67.331C25.1451 66.1349 23.9061 69.9286 25.9722 69.8895C25.1659 69.0392 25.7788 67.6952 26.4289 67.331Z" fill="#FFA698"/>
<path fill-rule="evenodd" clip-rule="evenodd" d="M26.4235 67.8844C26.6158 67.3549 26.453 67.1624 26.2191 67.219C25.9613 67.282 25.5964 67.6539 25.4063 68.1976C25.0992 69.0827 25.5396 70.2015 26.3983 69.7655C25.6597 69.8079 25.7286 68.9207 25.9504 68.3737C26.1001 68.004 26.3317 67.7409 26.4235 67.8844Z" fill="#FFB49C"/>
<path fill-rule="evenodd" clip-rule="evenodd" d="M26.0837 68.1245C26.2902 68.5073 26.3612 68.7345 26.2956 68.8661C26.2487 68.9574 26.1066 69.0618 25.8728 68.8378C25.8729 68.5848 25.9461 68.3372 26.0837 68.1245Z" fill="#FFA698"/>
<path fill-rule="evenodd" clip-rule="evenodd" d="M27.7007 62.3354L27.7499 62.3093C29.4751 61.3937 29.2042 59.5007 28.4754 58.857C27.0681 57.6142 23.2495 57.7446 20.8272 58.9853C18.3623 60.2477 17.7581 63.3912 18.4956 65.8605C18.9862 67.5045 20.1793 68.3614 20.7747 69.6074C20.9481 69.8335 21.1827 70.0055 21.451 70.1032C21.7193 70.2008 22.0101 70.2201 22.2891 70.1587C23.9979 69.8075 24.3934 68.0134 25.4205 67.2229C25.9832 66.788 26.5623 66.6793 26.7742 67.8557C26.8146 68.3755 26.8234 68.9029 26.8605 69.378C26.9206 70.1304 26.7327 70.2707 27.3719 70.5284C27.9859 70.7752 29.1812 71.0177 29.3855 70.9383C29.5451 70.8764 29.5341 69.938 29.5046 69.2367C29.4402 69.2367 29.438 69.477 29.4052 69.4726C29.3418 69.4639 29.2653 69.4476 29.1747 69.4389C29.1643 69.1515 29.1989 68.8643 29.2774 68.5875C29.3571 68.3135 29.3921 68.1156 29.5582 67.9493C29.6226 67.8851 29.6215 67.5067 29.592 67.3991C29.2281 67.6377 28.9676 68.0036 28.8622 68.4244C28.7699 68.7289 28.7063 69.0412 28.6721 69.3574C28.306 69.2878 27.9378 69.2334 27.798 69.0714C27.4374 68.6571 27.3741 68.1374 27.244 67.3317C27.2145 65.9062 27.2768 65.6941 28.022 64.6362C28.2285 64.3437 28.2405 63.7456 27.7281 62.4126C27.7175 62.3873 27.7084 62.3616 27.7007 62.3354Z" fill="#562E65"/>
<path fill-rule="evenodd" clip-rule="evenodd" d="M28.6568 61.509C28.1247 62.1723 25.8411 60.6391 22.6475 61.2241C23.3325 59.1234 23.728 58.6765 24.6884 58.0621C25.9395 57.2608 28.046 57.5881 28.7081 58.6917C29.3375 59.7508 29.084 60.9751 28.6568 61.509Z" fill="url(#paint35_linear_188_8048)"/>
<path fill-rule="evenodd" clip-rule="evenodd" d="M20.7595 70.9155C20.0668 71.1276 19.3697 71.8104 19.4965 72.2649C20.1859 75.0691 25.4227 75.6008 28.635 74.9256C28.6732 74.918 27.385 73.237 26.7699 73.038C24.7453 73.2359 21.3801 72.5715 20.7595 70.9155Z" fill="#0AB7E4"/>
<path fill-rule="evenodd" clip-rule="evenodd" d="M30.2651 111.171C29.8958 111.733 29.3975 111.626 29.2992 112.244C29.3396 112.268 30.0487 112.655 30.1569 112.679C30.3066 112.708 30.6409 112.427 30.6606 112.281C30.666 112.246 30.5874 111.787 30.5874 111.787L30.2651 111.171Z" fill="#FFA698"/>
<path fill-rule="evenodd" clip-rule="evenodd" d="M4.98453 103.994L1.94382 124.349L1.64554 124.384L0.953921 124.081C0.91946 124.066 0.885896 124.049 0.853401 124.031H0.842475C0.0853028 123.694 -0.0949764 122.803 0.0415988 121.937L3.0834 103.152C3.0834 103.152 3.0834 103.152 3.0834 103.144C3.28662 101.881 4.06674 100.565 5.08614 99.5102C5.63062 98.9277 6.27704 98.4487 6.99382 98.0966L54.4302 75.7052C55.1305 75.3681 55.8691 75.242 56.4504 75.4877L57.0601 75.7574C57.1245 75.7845 57.1792 75.8106 57.224 75.8346C57.4884 75.9542 57.5517 76.0466 57.5517 76.0673C56.3007 79.0933 5.46964 100.89 4.98453 103.994Z" fill="#D0E7FF"/>
<path fill-rule="evenodd" clip-rule="evenodd" d="M7.80335 98.4566L55.2364 76.0695C56.0515 75.6846 56.7519 75.6346 57.2566 75.852C57.9024 76.1358 58.2269 76.873 58.0586 77.9484L55.0168 96.7288C54.7174 98.6414 52.9693 100.906 51.1097 101.785L3.6755 124.173C1.81808 125.052 0.549567 124.21 0.84894 122.299L3.89183 103.514C4.19011 101.602 5.94265 99.3352 7.80335 98.4566Z" fill="url(#paint36_linear_188_8048)"/>
<path fill-rule="evenodd" clip-rule="evenodd" d="M52.8754 91.2825C53.0753 88.6348 52.2613 87.7215 50.8442 88.0618C50.6047 88.1209 50.3721 88.2051 50.1504 88.313C48.6678 89.0197 46.865 90.9095 45.8663 94.0976C45.2337 96.12 44.3804 97.9598 42.4301 98.8894C37.3386 101.179 42.4771 87.1093 37.6227 89.4296C33.4336 91.4216 33.7614 98.9579 31.1534 103.674C30.2465 105.305 29.1605 106.066 28.4579 106.4C25.5287 107.712 26.3186 103.386 26.441 101.557C26.9753 93.1222 26.1012 92.6405 24.3006 93.4963C22.4137 94.4096 21.5199 95.0381 19.6374 103.826C18.8725 107.414 17.9417 110.628 15.0135 112.09C11.7652 113.639 12.3366 110.337 11.4724 108.705C10.9588 107.736 10.0323 107.52 9.01619 108.003C7.91704 108.528 6.71518 109.868 5.81596 111.959C4.30927 115.466 3.38493 120.339 3.14893 122.042L52.0002 98.9068C52.2734 96.3233 52.7028 93.5713 52.8754 91.2825Z" fill="#D0E7FF"/>
<path fill-rule="evenodd" clip-rule="evenodd" d="M33.6576 106.204C33.8827 106.965 34.3011 107.322 34.5317 107.726C34.8081 108.198 34.9917 108.456 34.9534 108.853C34.8441 109.962 34.6617 110.81 34.3175 111.126C33.6958 111.707 31.2276 112.465 30.1503 112.702C30.2662 112.169 30.4115 111.584 30.2148 110.992C30.0531 110.502 29.6827 110.104 29.5702 109.595C29.4401 109.009 29.8051 108.33 29.8269 107.331L33.6576 106.204Z" fill="#FFA698"/>
<path fill-rule="evenodd" clip-rule="evenodd" d="M31.1228 112.45C30.7502 112.559 30.4126 112.642 30.1547 112.7C30.2705 112.167 30.4159 111.582 30.2192 110.99C30.0575 110.5 29.6871 110.102 29.5746 109.593C29.4445 109.007 29.8095 108.328 29.8313 107.329L30.6595 107.085L30.6388 107.235C30.6388 108.226 30.5666 108.552 30.6988 108.952C31.0135 109.896 31.3052 110.007 31.3675 110.583C31.4133 111.215 31.33 111.85 31.1228 112.45Z" fill="#FFAA99"/>
<path fill-rule="evenodd" clip-rule="evenodd" d="M34.7229 82.2023C33.9362 85.8177 32.4754 91.1064 32.0001 94.6751L33.6521 105.754C33.4172 107.65 30.3011 108.163 29.5549 107.378L26.4082 95.3677C26.5502 92.5613 27.4407 84.6618 27.7521 81.9848C27.9597 80.1733 28.9463 78.0911 30.3066 77.3201C33.1299 75.7174 35.4003 79.0718 34.7229 82.2023Z" fill="url(#paint37_linear_188_8048)"/>
</g>
<defs>
<linearGradient id="paint0_linear_188_8048" x1="135.082" y1="82.0173" x2="160.218" y2="65.315" gradientUnits="userSpaceOnUse">
<stop stop-color="#A3C6FF"/>
<stop offset="1" stop-color="#D7E7FF"/>
</linearGradient>
<linearGradient id="paint1_linear_188_8048" x1="119.322" y1="31.0953" x2="122.812" y2="24.9917" gradientUnits="userSpaceOnUse">
<stop stop-color="#965CF2"/>
<stop offset="1" stop-color="#FF8ADC"/>
</linearGradient>
<linearGradient id="paint2_linear_188_8048" x1="109.42" y1="17.0818" x2="106.335" y2="40.8134" gradientUnits="userSpaceOnUse">
<stop stop-color="#C4E0F5"/>
<stop offset="1" stop-color="#E1E8F6"/>
</linearGradient>
<linearGradient id="paint3_linear_188_8048" x1="105.747" y1="20.3502" x2="110.51" y2="15.1146" gradientUnits="userSpaceOnUse">
<stop stop-color="#6D6AFE"/>
<stop offset="1" stop-color="#3FB0F7"/>
</linearGradient>
<linearGradient id="paint4_linear_188_8048" x1="96.3062" y1="23.8875" x2="97.5621" y2="18.4373" gradientUnits="userSpaceOnUse">
<stop stop-color="#6D6AFE"/>
<stop offset="1" stop-color="#3FB0F7"/>
</linearGradient>
<linearGradient id="paint5_linear_188_8048" x1="122.517" y1="40.7739" x2="104.641" y2="28.6657" gradientUnits="userSpaceOnUse">
<stop stop-color="#965CF2"/>
<stop offset="1" stop-color="#FF8ADC"/>
</linearGradient>
<linearGradient id="paint6_linear_188_8048" x1="102.569" y1="50.3542" x2="91.9836" y2="114.916" gradientUnits="userSpaceOnUse">
<stop stop-color="#C4E0F5"/>
<stop offset="1" stop-color="#E1E8F6"/>
</linearGradient>
<linearGradient id="paint7_linear_188_8048" x1="85.5988" y1="83.7765" x2="117.418" y2="56.1017" gradientUnits="userSpaceOnUse">
<stop stop-color="#6D6AFE"/>
<stop offset="1" stop-color="#3FB0F7"/>
</linearGradient>
<linearGradient id="paint8_linear_188_8048" x1="129.881" y1="65.3822" x2="121.153" y2="85.8426" gradientUnits="userSpaceOnUse">
<stop stop-color="#965CF2"/>
<stop offset="1" stop-color="#FF8ADC"/>
</linearGradient>
<linearGradient id="paint9_linear_188_8048" x1="72.529" y1="29.3271" x2="83.8345" y2="63.9769" gradientUnits="userSpaceOnUse">
<stop stop-color="#965CF2"/>
<stop offset="1" stop-color="#FF8ADC"/>
</linearGradient>
<linearGradient id="paint10_linear_188_8048" x1="55.1392" y1="33.7846" x2="56.9646" y2="29.8384" gradientUnits="userSpaceOnUse">
<stop stop-color="#6D6AFE"/>
<stop offset="1" stop-color="#3FB0F7"/>
</linearGradient>
<linearGradient id="paint11_linear_188_8048" x1="58.8956" y1="29.747" x2="62.042" y2="27.1583" gradientUnits="userSpaceOnUse">
<stop stop-color="#965CF2"/>
<stop offset="1" stop-color="#FF8ADC"/>
</linearGradient>
<linearGradient id="paint12_linear_188_8048" x1="53.2152" y1="25.5567" x2="59.2082" y2="24.4043" gradientUnits="userSpaceOnUse">
<stop stop-color="#1C8EF4"/>
<stop offset="1" stop-color="#00CFDD"/>
</linearGradient>
<linearGradient id="paint13_linear_188_8048" x1="65.6762" y1="72.8901" x2="61.3411" y2="49.4125" gradientUnits="userSpaceOnUse">
<stop stop-color="#965CF2"/>
<stop offset="1" stop-color="#FF8ADC"/>
</linearGradient>
<linearGradient id="paint14_linear_188_8048" x1="48.8087" y1="60.7297" x2="52.4601" y2="47.6378" gradientUnits="userSpaceOnUse">
<stop stop-color="#6D6AFE"/>
<stop offset="1" stop-color="#3FB0F7"/>
</linearGradient>
<linearGradient id="paint15_linear_188_8048" x1="41.3299" y1="46.2203" x2="60.7902" y2="51.5634" gradientUnits="userSpaceOnUse">
<stop stop-color="#965CF2"/>
<stop offset="1" stop-color="#FF8ADC"/>
</linearGradient>
<linearGradient id="paint16_linear_188_8048" x1="41.8433" y1="56.7381" x2="62.6009" y2="62.6493" gradientUnits="userSpaceOnUse">
<stop stop-color="#1C8EF4"/>
<stop offset="1" stop-color="#00CFDD"/>
</linearGradient>
<linearGradient id="paint17_linear_188_8048" x1="99.7414" y1="87.8881" x2="102.211" y2="81.0672" gradientUnits="userSpaceOnUse">
<stop stop-color="#965CF2"/>
<stop offset="1" stop-color="#FF8ADC"/>
</linearGradient>
<linearGradient id="paint18_linear_188_8048" x1="116.732" y1="95.6069" x2="122.636" y2="95.6069" gradientUnits="userSpaceOnUse">
<stop stop-color="#6D6AFE"/>
<stop offset="1" stop-color="#3FB0F7"/>
</linearGradient>
<linearGradient id="paint19_linear_188_8048" x1="113.863" y1="96.6932" x2="124.268" y2="96.6932" gradientUnits="userSpaceOnUse">
<stop stop-color="#6D6AFE"/>
<stop offset="1" stop-color="#3FB0F7"/>
</linearGradient>
<linearGradient id="paint20_linear_188_8048" x1="87.8211" y1="127.076" x2="80.0485" y2="130.679" gradientUnits="userSpaceOnUse">
<stop stop-color="#FF8A78"/>
<stop offset="1" stop-color="#FFA799"/>
</linearGradient>
<linearGradient id="paint21_linear_188_8048" x1="88.5499" y1="139.155" x2="94.585" y2="128.554" gradientUnits="userSpaceOnUse">
<stop stop-color="#FFB89E"/>
<stop offset="1" stop-color="#FFA799"/>
</linearGradient>
<linearGradient id="paint22_linear_188_8048" x1="90.2915" y1="129.211" x2="93.3054" y2="98.9028" gradientUnits="userSpaceOnUse">
<stop stop-color="#1C8EF4"/>
<stop offset="1" stop-color="#00CFDD"/>
</linearGradient>
<linearGradient id="paint23_linear_188_8048" x1="111.393" y1="93.3766" x2="111.843" y2="94.4525" gradientUnits="userSpaceOnUse">
<stop stop-color="#FFB89E"/>
<stop offset="1" stop-color="#FFA799"/>
</linearGradient>
<linearGradient id="paint24_linear_188_8048" x1="105.252" y1="99.793" x2="98.9607" y2="92.8625" gradientUnits="userSpaceOnUse">
<stop stop-color="#1C8EF4"/>
<stop offset="1" stop-color="#00CFDD"/>
</linearGradient>
<linearGradient id="paint25_linear_188_8048" x1="92.7236" y1="86.9508" x2="93.6421" y2="89.6871" gradientUnits="userSpaceOnUse">
<stop stop-color="#FF8A78"/>
<stop offset="1" stop-color="#FFA799"/>
</linearGradient>
<linearGradient id="paint26_linear_188_8048" x1="92.8897" y1="79.9951" x2="87.0865" y2="98.0374" gradientUnits="userSpaceOnUse">
<stop stop-color="#5A2D68"/>
<stop offset="1" stop-color="#22043D"/>
</linearGradient>
<linearGradient id="paint27_linear_188_8048" x1="11.6669" y1="89.9007" x2="15.1582" y2="73.9446" gradientUnits="userSpaceOnUse">
<stop stop-color="#1C8EF4"/>
<stop offset="1" stop-color="#00CFDD"/>
</linearGradient>
<linearGradient id="paint28_linear_188_8048" x1="23.1163" y1="107.352" x2="17.663" y2="130.622" gradientUnits="userSpaceOnUse">
<stop stop-color="#3874C2"/>
<stop offset="1" stop-color="#214075"/>
</linearGradient>
<linearGradient id="paint29_linear_188_8048" x1="24.3727" y1="137.852" x2="22.3938" y2="140.704" gradientUnits="userSpaceOnUse">
<stop stop-color="#3874C2"/>
<stop offset="1" stop-color="#214075"/>
</linearGradient>
<linearGradient id="paint30_linear_188_8048" x1="27.1698" y1="110.117" x2="9.66854" y2="132.76" gradientUnits="userSpaceOnUse">
<stop stop-color="#3874C2"/>
<stop offset="1" stop-color="#214075"/>
</linearGradient>
<linearGradient id="paint31_linear_188_8048" x1="14.1721" y1="143.65" x2="11.1638" y2="144.423" gradientUnits="userSpaceOnUse">
<stop stop-color="#3874C2"/>
<stop offset="1" stop-color="#214075"/>
</linearGradient>
<linearGradient id="paint32_linear_188_8048" x1="21.0763" y1="94.6989" x2="25.058" y2="76.5411" gradientUnits="userSpaceOnUse">
<stop stop-color="#1C8EF4"/>
<stop offset="1" stop-color="#00CFDD"/>
</linearGradient>
<linearGradient id="paint33_linear_188_8048" x1="25.9701" y1="63.0196" x2="22.4761" y2="68.5596" gradientUnits="userSpaceOnUse">
<stop stop-color="#FF8A78"/>
<stop offset="1" stop-color="#FFA799"/>
</linearGradient>
<linearGradient id="paint34_linear_188_8048" x1="25.1933" y1="62.4955" x2="23.2555" y2="68.2738" gradientUnits="userSpaceOnUse">
<stop stop-color="#FFB89E"/>
<stop offset="1" stop-color="#FFA799"/>
</linearGradient>
<linearGradient id="paint35_linear_188_8048" x1="29.0119" y1="58.3786" x2="24.7891" y2="60.9639" gradientUnits="userSpaceOnUse">
<stop stop-color="#8A4791"/>
<stop offset="1" stop-color="#562E65"/>
</linearGradient>
<linearGradient id="paint36_linear_188_8048" x1="6.86589" y1="106.229" x2="73.5061" y2="88.0357" gradientUnits="userSpaceOnUse">
<stop stop-color="#6D6AFE"/>
<stop offset="1" stop-color="#3FB0F7"/>
</linearGradient>
<linearGradient id="paint37_linear_188_8048" x1="31.7303" y1="104.363" x2="30.0649" y2="79.6546" gradientUnits="userSpaceOnUse">
<stop stop-color="#1C8EF4"/>
<stop offset="1" stop-color="#00CFDD"/>
</linearGradient>
<clipPath id="clip0_188_8048">
<rect width="174" height="160" fill="white"/>
</clipPath>
</defs>
</svg>
