<svg width="351" height="188" viewBox="0 0 351 188" fill="none" xmlns="http://www.w3.org/2000/svg">
<g clip-path="url(#clip0_170_222)">
<path d="M133.651 30.3031C128.011 39.2494 124.769 47.2504 126.32 48.2955C127.536 49.1158 133.184 42.7709 138.82 33.8274C144.455 24.8838 147.935 17.2663 146.744 15.9529C145.487 14.5679 139.285 21.3511 133.651 30.3031Z" fill="#222238"/>
<path d="M169.864 23.3035C169.849 23.5734 169.9 23.843 170.013 24.0887C170.143 24.319 170.384 24.4918 170.838 24.5002C171.684 24.5171 171.784 24.0985 172.9 24.2193C174.015 24.3401 176.093 25.6507 176.815 25.624C177.472 25.5945 193.579 28.0541 196.609 27.4655C196.699 27.4484 196.788 27.4245 196.874 27.3939C197.015 27.3405 197.088 27.2745 197.098 27.193C197.109 27.0905 197.119 26.9373 197.128 26.7407C197.219 24.7039 197.149 18.0402 196.66 15.8994C196.562 15.478 196.448 15.2252 196.316 15.2308C196.101 15.2544 195.889 15.2924 195.68 15.3446C192.471 16.0652 179.491 19.9716 177.191 20.3382C174.756 20.7259 173.754 22.3244 173.063 22.4017C172.086 22.5098 172.169 22.1432 170.737 22.2275C169.964 22.2682 169.861 23.0029 169.864 23.3035Z" fill="#3B3B4D"/>
<path opacity="0.16" d="M170.013 24.0888C170.143 24.3192 170.384 24.492 170.838 24.5004C171.684 24.5172 171.784 24.0986 172.899 24.2194C174.015 24.3402 176.093 25.6508 176.815 25.6241C177.472 25.5946 193.579 28.0542 196.609 27.4656C196.599 27.446 196.587 27.4277 196.576 27.4095C196.435 27.1721 196.294 26.9347 196.162 26.7001C195.355 25.3179 194.591 24.0172 194.055 23.1013L193.29 21.7964C193.17 21.979 192.898 22.149 192.507 22.3035C189.036 23.6772 176.049 23.9694 173.727 23.6646C171.736 23.3977 170.483 23.8627 170.013 24.0888Z" fill="#1F1F39"/>
<path d="M192.466 21.7964C192.593 24.2265 193.687 26.172 195.103 26.9937C195.612 27.2993 196.202 27.4415 196.795 27.401C198.594 27.2606 199.917 24.5257 199.742 21.1854C199.567 17.8451 198.25 15.1102 196.447 15.1818C196.184 15.1934 195.924 15.2484 195.68 15.3447C195.249 15.5192 194.856 15.7765 194.525 16.1019C193.256 17.3 192.348 19.5152 192.466 21.7964Z" fill="#3B3B4D"/>
<path d="M193.834 21.4746C193.975 24.1842 195.296 26.891 196.758 26.8124C198.22 26.7337 199.266 23.9089 199.127 21.1937C198.987 18.4785 197.893 15.7997 196.432 15.8756C194.972 15.9514 193.693 18.765 193.834 21.4746Z" fill="white"/>
<path opacity="0.26" d="M192.466 21.7963C192.593 24.2264 193.687 26.1719 195.103 26.9936C196.485 27.113 198.024 27.1945 196.758 26.8208C194.691 26.2126 194.704 22.6813 194.657 21.2921C194.611 19.9028 195.316 17.8787 196.66 15.8995L195.673 15.3376C195.637 15.3601 195.109 15.6986 194.518 16.0948C193.256 17.3 192.348 19.5151 192.466 21.7963Z" fill="#3D3D59"/>
<path d="M181.75 30.0193C182.252 25.8895 184.204 27.967 185.122 25.6479C185.273 25.2673 183.43 22.6321 181.857 23.4103C180.283 24.1885 179.05 26.5469 178.832 27.7535C178.615 28.9601 180.039 29.6189 180.465 29.6119C180.891 29.6049 181.75 30.0193 181.75 30.0193Z" fill="#EFAEA6"/>
<path d="M154.74 31.2385L157.578 32.8019C157.578 32.8019 160.351 34.281 160.024 33.4522C159.584 32.344 159.948 31.4604 159.855 30.7834C159.796 30.3535 159.855 29.7762 159.972 29.2115C160.104 28.555 160.277 27.9072 160.489 27.2717L160.61 27.0469L160.523 26.2603L160.266 23.9595C160.266 23.9595 157.93 24.3191 157.366 25.6184C156.853 26.8039 155.04 29.8507 154.74 31.2385Z" fill="#EFAEA6"/>
<path opacity="0.14" d="M159.972 29.2172C160.104 28.5607 160.277 27.9129 160.489 27.2774L160.61 27.0526L160.523 26.266L160.225 26.0188C160.225 26.0188 158.957 26.5357 158.579 26.797C158.04 27.1678 158.383 29.1175 159.972 29.2172Z" fill="#1F1F39"/>
<path d="M156.255 27.7998C157.638 27.9403 156.925 30.1049 158.14 30.699C158.783 31.0137 158.754 30.6583 159.191 30.4673C159.46 30.3493 159.727 30.2032 159.904 30.6443C163.522 39.6159 150.555 53.5798 150.889 55.0392C151.171 56.2346 145.108 56.2318 142.136 54.1149C138.063 51.2101 140.33 46.2713 140.842 45.3582C141.354 44.4452 150.733 29.2045 150.733 29.2045C152.619 28.9355 154.471 28.4646 156.255 27.7998Z" fill="white"/>
<path d="M182.476 29.3071C182.29 29.7608 178.173 43.2021 172.826 42.8102C170.462 42.6374 162.534 41.1428 160.962 41.6288C159.765 41.9983 158.016 43.8946 157.719 45.1855C157.476 46.2235 157.272 47.2377 157.072 47.9709C156.557 49.8532 154.689 56.6265 153.344 57.5227C151.536 58.7237 146.951 58.7111 146.435 57.6126C145.547 55.7275 151.244 51.359 153.034 45.2417C154.417 40.5121 157.545 38.6397 158.558 34.6771C159.325 31.6824 159.911 30.6471 159.911 30.6471C165.801 36.1338 170.713 36.9892 172.475 37.0454C174.739 37.1199 177.063 27.915 178.01 27.6341C178.376 27.5231 182.921 28.2227 182.476 29.3071Z" fill="#0267A4"/>
<path opacity="0.11" d="M182.476 29.3071C182.29 29.7608 178.173 43.2021 172.826 42.8102C170.462 42.6374 162.534 41.1428 160.962 41.6288C159.765 41.9983 158.016 43.8946 157.719 45.1855C157.476 46.2235 157.272 47.2377 157.072 47.9709C156.557 49.8532 154.689 56.6265 153.344 57.5227C151.536 58.7237 146.951 58.7111 146.435 57.6126C145.547 55.7275 151.244 51.359 153.034 45.2417C154.417 40.5121 157.545 38.6397 158.558 34.6771C159.325 31.6824 159.911 30.6471 159.911 30.6471C165.801 36.1338 170.713 36.9892 172.475 37.0454C174.739 37.1199 177.063 27.915 178.01 27.6341C178.376 27.5231 182.921 28.2227 182.476 29.3071Z" fill="#1F1F39"/>
<path d="M133.196 54.4115C132.884 56.982 139.662 56.739 142.143 55.5352C144.202 54.5379 143.541 51.9449 146.045 48.7211C147.314 47.0931 149.371 44.243 150.627 41.9043C150.751 41.6753 150.867 41.4491 150.974 41.23C151.87 39.3941 152.733 37.3686 153.495 35.4498C153.843 34.5775 154.169 33.7276 154.468 32.9214C154.659 32.4087 154.84 31.9156 155.008 31.4507C155.628 29.7285 156.072 28.3857 156.255 27.7915C156.255 27.7915 153.086 26.6411 149.416 28.3927C148.993 28.5922 148.296 28.9265 147.838 29.4125C147.456 29.8142 145.634 31.5504 144.595 33.8625C143.326 36.6522 142.556 38.7353 141.851 40.4378C141.073 42.3144 139.807 43.861 138.535 46.8557C137.385 49.5527 133.359 53.0728 133.196 54.4115Z" fill="#0069A8"/>
<path opacity="0.18" d="M150.417 32.4043C150.108 33.1488 149.777 42.1822 149.524 43.7821C149.647 43.5518 150.866 41.4476 150.974 41.2285C151.87 39.3925 152.733 37.367 153.495 35.4482L150.417 32.4043Z" fill="#1F1F39"/>
<path d="M162.432 22.0042C162.773 23.1967 164.547 25.2461 163.728 25.4119C162.909 25.5776 164.453 27.9291 163.587 28.137C161.48 28.6426 158.776 27.8069 158.3 26.8447C157.823 25.8825 157.406 23.0029 157.406 23.0029L162.432 22.0042Z" fill="#EFAEA6"/>
<path d="M160.479 23.6181C161.163 23.5591 161.215 23.7122 161.64 23.3905C162.064 23.0689 161.125 22.5913 161.97 22.2668C162.814 21.9423 163.763 21.6937 163.662 20.6795C163.506 19.2102 162.27 19.6963 161.511 20.0278C161.022 20.2399 160.678 19.1625 159.669 19.4195C158.876 19.6204 159.062 20.0657 158.364 20.2764C157.941 20.4042 156.955 19.8718 156.391 20.525C155.337 21.7358 156.608 22.698 155.776 23.9313C154.806 25.3697 158.106 27.3349 158.369 26.9612C158.676 26.5258 157.874 25.4063 158.199 25.0382C158.689 24.4834 158.859 24.9596 159.433 25.3192C160.046 25.6984 161.005 25.5313 160.207 24.7208C159.409 23.9103 159.86 23.6729 160.479 23.6181Z" fill="#1F1F39"/>
<path d="M162.29 23.378C162.275 23.6479 162.326 23.9175 162.439 24.1632C162.567 24.3922 162.81 24.5649 163.264 24.5748C164.11 24.5902 164.21 24.1716 165.325 24.2938C166.44 24.416 168.519 25.7266 169.241 25.6985C169.898 25.6704 186.005 28.1286 189.035 27.54C189.125 27.5241 189.214 27.5001 189.3 27.4684C189.441 27.4164 189.514 27.3504 189.522 27.2675C189.531 27.1846 189.545 27.0133 189.553 26.8166C189.645 24.7798 189.575 18.1161 189.085 15.9754C188.988 15.554 188.872 15.3011 188.74 15.3067C188.526 15.329 188.313 15.3665 188.104 15.4191C184.896 16.1411 171.917 20.0475 169.617 20.4141C167.182 20.8004 166.18 22.4003 165.487 22.4776C164.512 22.5857 164.595 22.2191 163.161 22.3034C163.013 22.3046 162.868 22.3456 162.741 22.4219C162.614 22.4983 162.51 22.6073 162.441 22.7375C162.339 22.9357 162.287 23.1555 162.29 23.378Z" fill="#3B3B4D"/>
<path opacity="0.16" d="M162.439 24.1604C162.568 24.3894 162.81 24.5621 163.263 24.572C164.109 24.5874 164.21 24.1688 165.324 24.291C166.438 24.4132 168.519 25.7238 169.241 25.6957C169.898 25.6676 186.005 28.1272 189.035 27.5372L189.002 27.4825C188.861 27.2437 188.72 27.0077 188.588 26.7731C187.78 25.3909 187.017 24.0888 186.481 23.1743L185.714 21.8694C185.594 22.052 186.36 24.1702 185.968 24.3248C182.497 25.6985 168.475 24.0438 166.153 23.7376C164.162 23.4721 162.909 23.9357 162.439 24.1604Z" fill="#1F1F39"/>
<path opacity="0.18" d="M162.29 23.378C162.854 23.9694 183.58 19.9225 185.793 19.5376L187.195 16.7803C187.195 16.7803 166.765 22.576 165.888 22.7501C165.011 22.9243 163.435 22.8204 162.769 22.7501C162.66 22.7379 162.55 22.7314 162.441 22.7305C162.338 22.9308 162.286 23.1531 162.29 23.378Z" fill="white"/>
<path d="M186.258 21.549C186.399 24.2586 187.722 26.9654 189.183 26.8868C190.643 26.8081 191.692 23.9819 191.551 21.2681C191.41 18.5543 190.319 15.8756 188.857 15.95C187.395 16.0245 186.117 18.8394 186.258 21.549Z" fill="white"/>
<path opacity="0.26" d="M184.892 21.8708C185.018 24.2995 186.113 26.2463 187.527 27.0681C188.91 27.1861 190.449 27.2675 189.183 26.8953C187.117 26.2871 187.128 22.7543 187.082 21.3665C187.035 19.9787 187.742 17.9532 189.085 15.974L188.105 15.4121C188.069 15.436 187.541 15.7745 186.951 16.1706C185.687 17.373 184.774 19.5882 184.892 21.8708Z" fill="#3D3D59"/>
<path d="M171.361 27.9684C171.502 27.4838 173.515 26.7042 173.417 26.3249C173.233 25.6226 172.201 26.2252 172.051 25.0144C171.933 24.0704 173.844 22.8737 172.768 22.389C170.251 21.2555 168.801 23.1054 169.052 25.433C169.246 27.2408 168.074 28.2929 167.88 29.8184C167.685 31.3438 171.059 30.2271 171.059 30.2271C171.059 30.2271 171.083 28.8899 171.361 27.9684Z" fill="#EFAEA6"/>
<path d="M154.403 28.3281C159.579 34.246 163.849 50.2269 167.756 28.2255C167.851 27.696 172.371 27.5597 172.268 28.3786C167.667 63.7329 151.542 36.0018 149.259 33.3961C148.295 32.2921 149.558 27.7479 151.549 28.078C153.54 28.4081 154.403 28.3281 154.403 28.3281Z" fill="#0069A8"/>
<path opacity="0.18" d="M157.771 30.9028C157.645 30.7792 155.656 33.3413 153.521 33.9074C152.93 34.0719 152.312 34.1196 151.703 34.0479C149.91 33.8119 145.149 32.7584 145.149 32.7584C145.149 32.7584 145.973 31.3804 146.947 30.6415C148.465 31.4647 150.9 32.167 151.849 32.2372C152.533 32.2855 153.219 32.231 153.886 32.0757C155.005 31.7999 156.075 31.3571 157.06 30.7623C157.493 30.5095 157.641 30.0291 158.091 30.0965C158.684 30.1836 157.933 31.0643 157.771 30.9028Z" fill="#1F1F39"/>
<path d="M158.783 30.0811C158.786 29.9915 158.771 29.9023 158.738 29.8188C158.705 29.7354 158.656 29.6595 158.592 29.596C158.529 29.5324 158.453 29.4824 158.369 29.4492C158.286 29.4159 158.196 29.4001 158.106 29.4027C157.707 29.3914 157.664 29.5501 157.314 29.8156C156.259 30.6107 154.703 31.5715 152.928 31.6417C151.153 31.7119 147.288 29.1414 144.639 29.5347C141.99 29.928 141.044 32.2036 137.238 32.5505C133.433 32.8975 129.484 31.0447 128.368 31.1599C127.253 31.2751 126.555 31.4746 126.554 31.9142C126.552 32.3539 127.057 33.1166 127.823 33.479C128.588 33.8414 135.424 34.7629 137.255 34.6407C140.244 34.4412 142.969 31.9465 144.89 31.9044C145.698 31.8861 146.864 32.1165 148.111 32.3904C149.829 32.7683 151.7 33.2332 153 33.243C155.505 33.2697 157.73 30.5095 157.887 30.6303C157.968 30.7101 158.068 30.7683 158.177 30.7995C158.287 30.8306 158.403 30.8338 158.514 30.8087C158.732 30.7708 158.782 30.3311 158.783 30.0811Z" fill="#F4AD00"/>
<g opacity="0.85">
<path d="M84.3673 126.482L0.352539 185.595" stroke="#B4EAA5" stroke-linecap="round" stroke-linejoin="round"/>
<path d="M104.966 126.939L41.3505 185.937" stroke="#B4EAA5" stroke-linecap="round" stroke-linejoin="round"/>
<path d="M126.475 127.91L79.823 186.965" stroke="#B4EAA5" stroke-linecap="round" stroke-linejoin="round"/>
<path d="M145.757 128.656L113.145 187.306" stroke="#B4EAA5" stroke-linecap="round" stroke-linejoin="round"/>
<path d="M164.343 128.765L153.437 187.477" stroke="#B4EAA5" stroke-linecap="round" stroke-linejoin="round"/>
<path d="M266.634 126.654L350.648 185.767" stroke="#B4EAA5" stroke-linecap="round" stroke-linejoin="round"/>
<path d="M246.034 127.11L309.651 186.108" stroke="#B4EAA5" stroke-linecap="round" stroke-linejoin="round"/>
<path d="M224.525 128.08L271.177 187.135" stroke="#B4EAA5" stroke-linecap="round" stroke-linejoin="round"/>
<path d="M205.245 128.827L237.855 187.478" stroke="#B4EAA5" stroke-linecap="round" stroke-linejoin="round"/>
<path d="M186.659 128.936L197.565 187.649" stroke="#B4EAA5" stroke-linecap="round" stroke-linejoin="round"/>
<path d="M75.6821 128.897L276.832 129.299" stroke="#B4EAA5" stroke-linecap="round" stroke-linejoin="round"/>
<path d="M67.6046 136.543L286.93 137.348" stroke="#B4EAA5" stroke-linecap="round" stroke-linejoin="round"/>
<path d="M52.2562 145.798L299.855 146.201" stroke="#B4EAA5" stroke-linecap="round" stroke-linejoin="round"/>
<path d="M38.5221 155.457L313.992 155.858" stroke="#B4EAA5" stroke-linecap="round" stroke-linejoin="round"/>
<path d="M24.7894 164.712L330.352 166.523" stroke="#B4EAA5" stroke-linecap="round" stroke-linejoin="round"/>
</g>
<path d="M207.099 62.1244C206.185 59.5524 206.958 51.3913 205.352 52.0107C203.746 52.6302 196.114 56.604 196.848 60.3081C197.583 64.0123 203.234 66.2766 203.234 66.2766L207.099 62.1244Z" fill="#050511"/>
<path d="M231.868 84.8522C231.614 85.8271 231.184 86.748 230.599 87.5702C227.819 91.971 230.409 92.1073 228.379 95.0613C227.615 96.1724 226.864 96.7554 226.123 96.9548C222.724 97.8622 219.475 90.7448 215.689 89.68C206.051 86.9676 206.443 85.1064 205.387 85.3368C204.283 85.577 204.503 87.0322 205.491 89.2123C205.492 89.2146 205.492 89.2169 205.491 89.2193L206.866 91.3684C217.411 107.849 221.893 115.513 219.634 118.918C219.013 119.859 217.876 120.475 216.211 120.862C211.276 122.007 201.727 121.152 187.167 120.784C186.31 120.763 185.437 120.743 184.546 120.725C184.173 120.718 183.797 120.709 183.418 120.704C183.079 120.697 182.738 120.691 182.394 120.687C181.872 120.77 181.376 120.837 180.906 120.886C180.668 120.91 180.436 120.933 180.202 120.948C179.457 121.007 178.708 121.012 177.963 120.962C177.589 120.935 177.218 120.883 176.852 120.805C167.767 118.854 174.737 101.989 174.638 95.5754C174.574 91.4682 178.77 80.0608 182.401 71.1341C182.887 69.9359 183.365 68.7827 183.821 67.6983C184.011 67.2411 184.225 66.7938 184.461 66.3582C185.671 64.1192 187.238 62.6485 188.671 62.1751C189.3 61.968 189.899 61.6779 190.452 61.3127C190.518 61.2691 190.583 61.2256 190.646 61.1792C190.991 60.9367 191.316 60.6676 191.618 60.3743C192.067 59.9364 192.465 59.4486 192.803 58.9205C194.872 55.7024 197.892 52.1261 201.936 52.0376C202.202 52.4927 202.432 52.9282 202.629 53.3411C205.373 59.0694 202.127 60.9559 206.734 60.4446C207.447 60.3659 208.351 60.2296 209.494 60.04H209.505C217.989 62.1878 216.764 68.6535 221.618 74.0867C223.365 76.0435 225.901 77.8653 229.962 79.3023C230.127 79.3418 230.286 79.4017 230.436 79.4807C230.594 79.5649 230.742 79.6677 230.876 79.7869C231.15 80.035 231.376 80.3318 231.541 80.662C232.125 81.7352 232.28 83.2522 231.868 84.8522Z" fill="#333344"/>
<path d="M175.614 150.338C176.651 150.223 218.516 149.702 221.222 149.495C223.928 149.289 225.182 146.908 224.765 140.625C224.624 138.554 224.073 135.099 221.223 133.49C218.095 131.725 214.793 129.946 214.511 127.519L179.652 127.48C179.652 127.48 182.178 132.913 175.038 136.482C174.655 136.673 174.246 136.859 173.805 137.044C166.482 140.029 169.977 150.964 175.614 150.338Z" fill="#3B3B4C"/>
<path opacity="0.08" d="M207.716 77.2724C213.515 82.2829 220.719 81.0131 224.377 83.4108C225.673 84.2607 228.248 85.5403 231.031 86.8383C231.38 86.2078 231.661 85.5419 231.868 84.852C232.379 83.099 232.164 81.6733 231.586 80.6914C231.234 80.0679 230.674 79.5866 230.003 79.3303C214.659 73.8998 221.077 62.9897 209.541 60.0708H209.529C207.327 65.5799 203.292 73.4503 207.716 77.2724Z" fill="white"/>
<path opacity="0.09" d="M197.565 83.7537C199.936 85.7989 206.201 98.1431 205.097 105.365C203.993 112.586 206.278 119.306 210.863 120.358C213.401 120.94 217.067 121.773 219.655 118.937C221.911 115.532 217.429 107.868 206.886 91.3867C206.346 90.7243 205.885 90.0027 205.51 89.2361C205.509 89.2314 205.509 89.2267 205.51 89.2221V89.2122L204.792 88.1264C202.487 82.4852 190.415 77.5886 197.565 83.7537Z" fill="white"/>
<path d="M175.613 150.338C179.083 150.821 213.896 152.369 221.222 149.495C223.75 148.512 225.182 146.908 224.765 140.625C224.624 138.554 224.073 135.099 221.223 133.49C214.663 134.534 208.211 138.519 196.875 139.237C186.907 139.867 181.507 137.937 175.038 136.482C174.655 136.673 174.246 136.859 173.805 137.044C166.481 140.029 169.996 149.555 175.613 150.338Z" fill="#19192D"/>
<path d="M184.572 120.743C185.465 120.76 186.339 120.779 187.193 120.802C185.312 108.144 186.724 86.5616 186.268 86.5701C185.813 86.5785 183.406 114.228 184.572 120.743Z" fill="#050511"/>
<path d="M180.936 120.904C181.404 120.855 181.9 120.788 182.422 120.705C182.766 120.705 183.107 120.711 183.446 120.722C182.177 107.939 183.427 89.59 182.9 89.5999C182.394 89.6097 180.519 111.486 180.936 120.904Z" fill="#050511"/>
<path d="M177.998 120.98C178.743 121.031 179.492 121.026 180.237 120.966C179.575 109.06 180.537 95.1974 180.024 94.2015C179.543 93.2702 178.095 110.171 177.998 120.98Z" fill="#050511"/>
<path d="M173.602 125.172C173.627 126.52 174.439 128.094 175.539 129.324C176.639 130.555 178.029 131.44 179.205 131.418L213.785 130.786C216.136 130.744 218.42 127.782 218.371 125.085C218.35 123.972 217.869 122.829 217.146 121.874C216.994 121.671 216.831 121.478 216.657 121.294C215.67 120.244 214.392 119.538 213.218 119.559L179.281 120.18C178.216 120.199 176.943 120.668 175.873 121.43C174.574 122.347 173.575 123.693 173.602 125.172Z" fill="#19192D"/>
<path d="M175.872 121.43C183.966 122.413 208.08 123.537 217.144 121.874C216.992 121.671 216.829 121.478 216.655 121.294C215.668 120.244 214.391 119.538 213.216 119.559L179.279 120.18C178.215 120.199 176.946 120.668 175.872 121.43Z" fill="#050511"/>
<path d="M187.307 164.066C187.307 164.178 187.295 164.291 187.286 164.4C187.278 164.51 187.271 164.619 187.261 164.723C187.261 164.777 187.252 164.829 187.247 164.881C187.237 164.982 187.226 165.083 187.214 165.181C187.203 165.279 187.189 165.376 187.176 165.462C187.007 166.61 186.451 167.666 185.6 168.458C185.515 168.54 185.427 168.621 185.335 168.701C185.05 168.951 184.748 169.181 184.431 169.388C184.265 169.498 184.094 169.606 183.914 169.71C178.158 173.06 164.997 173.932 145.038 174.3C118.423 174.791 105.362 168.411 105.362 168.411C105.052 164.309 104.564 159.686 105.248 155.105C105.281 154.883 105.317 154.663 105.355 154.441C105.381 154.301 105.408 154.145 105.436 153.999C105.464 153.852 105.495 153.704 105.526 153.557C105.681 152.821 105.873 152.088 106.101 151.358C106.148 151.217 106.196 151.067 106.242 150.922C106.341 150.632 106.447 150.342 106.558 150.051C106.643 149.835 106.731 149.62 106.823 149.405C106.884 149.265 106.947 149.124 107.012 148.975C107.077 148.827 107.145 148.695 107.212 148.554C107.386 148.199 107.569 147.852 107.765 147.492C108 147.072 108.254 146.654 108.528 146.241C109.391 144.935 110.396 143.729 111.525 142.645C113.553 140.678 115.604 139.006 117.422 137.338L117.712 137.068C117.75 137.033 117.787 136.999 117.823 136.963C117.885 136.906 117.945 136.85 118.002 136.794L118.108 136.694C118.327 136.487 118.542 136.273 118.751 136.065L118.826 135.989L118.874 135.941C118.981 135.833 119.087 135.725 119.19 135.617C119.293 135.509 119.374 135.42 119.472 135.323C119.478 135.317 119.484 135.311 119.49 135.304L119.573 135.212C119.583 135.2 119.593 135.188 119.604 135.176C119.627 135.152 119.651 135.128 119.672 135.101C119.693 135.075 119.723 135.047 119.747 135.019C119.771 134.991 119.833 134.923 119.875 134.878C119.88 134.875 119.884 134.87 119.888 134.866L120.016 134.718L120.181 134.521L120.302 134.381C120.318 134.363 120.335 134.343 120.349 134.323C120.388 134.277 120.426 134.229 120.464 134.183C120.502 134.136 120.556 134.068 120.605 134.009C120.655 133.95 120.695 133.893 120.739 133.836C120.746 133.825 120.753 133.815 120.762 133.805C120.762 133.795 120.776 133.787 120.781 133.778C120.82 133.731 120.853 133.683 120.889 133.638L120.922 133.59C120.928 133.585 120.932 133.579 120.935 133.572L120.958 133.542L121.083 133.368L121.124 133.309L121.155 133.263C121.203 133.194 121.25 133.122 121.296 133.053C121.3 133.049 121.304 133.044 121.306 133.038C121.326 133.01 121.345 132.98 121.362 132.952L121.443 132.832L121.485 132.761C121.529 132.692 121.572 132.621 121.615 132.553C121.629 132.531 121.642 132.508 121.654 132.486C121.667 132.464 121.665 132.468 121.673 132.456L121.702 132.406C121.747 132.331 121.792 132.253 121.843 132.177L121.878 132.115C121.89 132.094 121.9 132.073 121.911 132.055L121.922 132.035V132.027V132.017L121.935 131.993L121.947 131.969C121.947 131.962 121.947 131.955 121.957 131.948C121.973 131.917 121.991 131.89 122.007 131.86L122.041 131.793L122.067 131.744C122.076 131.73 122.083 131.715 122.091 131.699L122.127 131.626C122.153 131.574 122.179 131.522 122.204 131.469C122.253 131.373 122.3 131.277 122.345 131.178C122.355 131.159 122.363 131.14 122.372 131.119C122.43 130.994 122.483 130.868 122.534 130.74C122.561 130.675 122.586 130.611 122.612 130.545L122.658 130.421C122.681 130.361 122.703 130.299 122.724 130.239C122.745 130.178 122.775 130.098 122.799 130.025C122.823 129.952 122.846 129.885 122.868 129.806C122.891 129.727 122.903 129.691 122.92 129.632C122.972 129.458 123.02 129.279 123.061 129.098C123.077 129.038 123.091 128.977 123.105 128.917C123.171 128.622 123.246 128.313 123.335 127.992C123.359 127.908 123.38 127.822 123.405 127.735C123.431 127.648 123.463 127.527 123.494 127.422C123.564 127.181 123.638 126.933 123.716 126.679C123.725 126.645 123.737 126.609 123.749 126.572C123.792 126.432 123.837 126.291 123.89 126.141C123.913 126.068 123.937 126.001 123.961 125.921C124.199 125.182 124.467 124.395 124.757 123.564C124.768 123.538 124.778 123.513 124.786 123.486L125.027 122.804C125.395 121.764 125.794 120.659 126.208 119.496C126.362 119.066 126.518 118.628 126.675 118.184C127.184 116.745 127.708 115.227 128.226 113.635C128.285 113.458 128.343 113.278 128.399 113.099C128.631 112.388 128.86 111.662 129.089 110.921C129.089 110.918 129.089 110.914 129.089 110.91C129.145 110.726 129.203 110.539 129.258 110.348C129.272 110.306 129.286 110.263 129.299 110.221C129.398 109.888 129.498 109.552 129.595 109.215C129.634 109.074 129.675 108.934 129.716 108.793C129.732 108.74 129.746 108.685 129.76 108.63C129.871 108.247 129.98 107.858 130.087 107.467C130.141 107.271 130.193 107.074 130.246 106.877C130.564 105.694 130.865 104.483 131.149 103.246L131.159 103.206C131.218 102.949 131.274 102.69 131.331 102.43C131.376 102.228 131.419 102.024 131.463 101.821C131.488 101.694 131.515 101.568 131.542 101.441C131.59 101.21 131.638 100.976 131.683 100.739C131.825 100.025 131.958 99.3048 132.083 98.5772C132.208 97.8496 132.325 97.1145 132.432 96.3719C132.464 96.1387 132.497 95.9055 132.529 95.6695C132.529 95.6456 132.529 95.6218 132.537 95.5993C132.568 95.3605 132.599 95.1203 132.628 94.8801C132.65 94.7087 132.67 94.5345 132.691 94.3618C132.728 94.0331 132.764 93.7016 132.797 93.3785C132.829 93.0554 132.863 92.7028 132.891 92.3629C132.907 92.1944 132.921 92.0244 132.934 91.853C132.934 91.8503 132.934 91.8473 132.934 91.8446C132.946 91.6774 132.96 91.5103 132.972 91.3417C132.987 91.1395 133.001 90.9344 133.014 90.7307C133.014 90.5902 133.029 90.4498 133.038 90.3093C133.046 90.1379 133.056 89.9651 133.065 89.7924C133.073 89.6196 133.08 89.4595 133.086 89.2937C133.086 89.2783 133.086 89.2628 133.086 89.2459C133.086 89.083 133.099 88.9187 133.104 88.7543C133.104 88.6363 133.104 88.5169 133.114 88.3975C133.124 88.2781 133.123 88.1292 133.124 87.9958C133.124 87.7261 133.135 87.4578 133.137 87.1867C133.137 87.0153 133.137 86.8426 133.137 86.6712V86.2498C133.12 83.6216 133.137 81.3039 133.173 79.2348C133.173 78.9539 133.182 78.673 133.189 78.392V78.1111C133.189 77.9299 133.197 77.7501 133.202 77.5731V77.5647C133.202 77.3877 133.202 77.2135 133.213 77.0393C133.213 76.7725 133.225 76.5098 133.231 76.2513C133.242 75.8299 133.252 75.4169 133.264 75.0166C133.272 74.6907 133.28 74.3728 133.289 74.0628C133.299 73.678 133.31 73.3043 133.32 72.9391C133.32 72.7986 133.328 72.6582 133.331 72.5177V72.5107C133.338 72.2986 133.343 72.0893 133.348 71.8828C133.348 71.8111 133.348 71.7423 133.348 71.6679C133.375 70.5231 133.395 69.4738 133.396 68.4933C133.396 68.166 133.396 67.8472 133.396 67.5339C133.396 67.2937 133.388 67.0563 133.382 66.8232V66.7937L133.369 66.4579C133.358 66.1054 133.341 65.7626 133.321 65.4241C133.314 65.3117 133.307 65.1994 133.299 65.0884C133.29 64.9774 133.283 64.865 133.273 64.7541C133.273 64.7105 133.273 64.6656 133.264 64.622C133.254 64.5785 133.264 64.5349 133.252 64.4914C133.23 64.2428 133.204 63.9941 133.176 63.7497C133.161 63.6093 133.142 63.4618 133.123 63.3171C133.111 63.223 133.099 63.1303 133.084 63.0362C133.084 63.001 133.076 62.9673 133.07 62.9308V62.9097C132.997 62.4026 132.908 61.8998 132.801 61.3913C132.781 61.3056 132.763 61.2199 132.745 61.1328C132.726 61.0457 132.707 60.9615 132.687 60.8744C132.667 60.7873 132.646 60.7016 132.625 60.6145C132.604 60.5274 132.575 60.4094 132.549 60.3055C132.53 60.2366 132.512 60.165 132.495 60.0976C132.478 60.0302 132.447 59.9192 132.422 59.8293C132.372 59.6495 132.32 59.4669 132.265 59.2843C132.21 59.1017 132.155 58.9177 132.095 58.7308C132.086 58.7013 132.078 58.6718 132.068 58.6423C132.048 58.5777 132.026 58.5131 132.004 58.4471C131.91 58.1662 131.813 57.8801 131.711 57.5888C131.555 57.1548 131.384 56.7081 131.201 56.2432C131.071 55.9187 130.934 55.583 130.789 55.2416C130.754 55.1559 130.716 55.066 130.678 54.9804C130.277 54.0406 129.84 53.0658 129.382 52.0671C129.273 51.8311 129.165 51.5937 129.054 51.3535C128.925 51.0726 128.794 50.7916 128.663 50.5107L127.676 48.4037C127.614 48.2716 127.552 48.141 127.49 48.0076C127.984 47.6847 128.511 47.414 129.062 47.1999C136.336 44.2852 159.315 46.4975 161.806 47.6452C162.444 47.9339 163.004 48.3708 163.437 48.9192C163.288 49.2713 163.139 49.6253 162.99 49.9811C162.902 50.1946 162.813 50.4091 162.723 50.6245C162.544 51.0529 162.367 51.4841 162.19 51.9154C161.777 52.9323 161.369 53.9549 160.984 54.9832C160.894 55.2121 160.811 55.4383 160.726 55.6672C160.665 55.8344 160.603 56.0002 160.544 56.1715C160.485 56.3443 160.427 56.5199 160.371 56.6969C160.089 57.5931 159.836 58.5365 159.614 59.5273C157.97 66.8892 158.039 76.705 158.453 86.6375C158.876 96.6107 162.501 114.373 164.775 124.398C165.187 126.21 165.554 127.769 165.847 128.983C166.04 129.794 166.275 130.594 166.552 131.381C166.677 131.736 166.809 132.073 166.95 132.397C166.999 132.517 167.051 132.632 167.105 132.747C167.127 132.796 167.15 132.843 167.174 132.888C167.209 132.964 167.247 133.039 167.285 133.114C167.354 133.254 167.426 133.386 167.498 133.517C167.509 133.541 167.522 133.561 167.535 133.584C167.568 133.646 167.607 133.709 167.642 133.771L167.752 133.954C167.798 134.03 167.845 134.104 167.893 134.179C167.965 134.292 168.034 134.403 168.117 134.514C168.168 134.587 168.218 134.655 168.271 134.732C168.323 134.809 168.374 134.873 168.427 134.944C168.481 135.016 168.56 135.114 168.627 135.197C168.695 135.28 168.789 135.395 168.874 135.493C168.901 135.526 168.929 135.557 168.957 135.588C168.971 135.603 168.984 135.618 169 135.634C169.032 135.672 169.064 135.707 169.098 135.743C169.132 135.78 169.148 135.797 169.172 135.825C169.196 135.853 169.2 135.854 169.214 135.871L169.355 136.012C169.415 136.074 169.476 136.137 169.54 136.199C169.724 136.383 169.92 136.568 170.125 136.752L170.266 136.883L170.326 136.935C170.5 137.086 170.682 137.238 170.869 137.39L170.983 137.481C171.034 137.523 171.085 137.562 171.137 137.603C171.158 137.62 171.179 137.638 171.203 137.655C171.367 137.782 171.536 137.909 171.708 138.039L171.908 138.179L171.952 138.21C172.037 138.273 172.121 138.335 172.21 138.397C172.386 138.522 172.565 138.648 172.751 138.776C174.027 139.658 175.539 140.609 177.349 141.741C178.383 142.39 179.516 143.097 180.756 143.882C182.38 144.912 183.671 146.801 184.665 149.079C185.047 149.965 185.38 150.87 185.662 151.792C185.803 152.255 185.944 152.727 186.061 153.196C186.247 153.909 186.411 154.631 186.555 155.354C186.646 155.816 186.728 156.278 186.803 156.738C186.923 157.475 187.021 158.207 187.1 158.919C187.302 160.627 187.371 162.348 187.307 164.066Z" fill="#333345"/>
<path opacity="0.09" d="M172.764 138.766L172.515 138.907C159.66 145.565 127.094 140.981 117.422 137.343C119.373 135.551 121.049 133.76 122.131 131.612L161.425 132.278C161.425 132.278 163.956 132.223 166.959 132.378C168.117 135.052 169.802 136.72 172.764 138.766Z" fill="white"/>
<path opacity="0.15" d="M126.561 45.9412C126.843 46.5606 127.132 47.1815 127.418 47.7981C127.23 47.388 127.04 46.9755 126.847 46.5606C126.753 46.3541 126.655 46.1476 126.561 45.9412Z" fill="white"/>
<path opacity="0.15" d="M163.451 48.891C163.31 49.2436 163.152 49.5933 163.004 49.9529C162.736 50.5935 162.469 51.2382 162.204 51.8872C160.503 51.4953 158.432 51.0444 157.497 50.9545C155.771 50.7915 144.025 50.0555 143.697 50.0555C143.426 50.0555 134.042 51.3843 129.395 52.0361L129.065 51.3239C128.935 51.043 128.807 50.762 128.674 50.4811L127.687 48.3741C127.625 48.2434 127.564 48.1114 127.502 47.9794C127.997 47.656 128.524 47.3848 129.075 47.1703C136.35 44.2556 159.327 46.4679 161.819 47.617C162.457 47.9055 163.017 48.3424 163.451 48.891Z" fill="white"/>
<path opacity="0.15" d="M164.983 45.2615C164.901 45.4581 164.819 45.6562 164.736 45.8528C164.78 45.7503 164.822 45.6478 164.864 45.5466C164.906 45.4455 164.943 45.3556 164.983 45.2615Z" fill="white"/>
<path d="M160.998 54.9578C160.471 54.946 159.95 54.8463 159.456 54.6629C154.803 53.0067 134.5 53.0756 130.8 54.9059C130.764 54.9237 130.727 54.9397 130.689 54.9536C128.375 55.8568 122.964 51.0205 127.503 47.9808C127.997 47.6574 128.524 47.3863 129.075 47.1717C136.35 44.257 159.327 46.4694 161.819 47.6184C162.457 47.9068 163.016 48.3432 163.45 48.8911C165.274 51.2326 164.092 54.9845 160.998 54.9578Z" fill="#19192E"/>
<path opacity="0.58" d="M137.523 91.0887C137.031 104.838 135.428 124.967 129.515 130.368C127.503 132.206 124.205 133.249 120.731 133.823C121.265 133.128 121.733 132.386 122.131 131.605C122.566 130.745 122.895 129.835 123.108 128.896C124.832 121.285 133.272 105.06 133.148 86.2398C133.037 69.2433 134.454 65.2034 131.723 57.562L136.537 57.8233C138.262 62.734 138.016 77.3412 137.523 91.0887Z" fill="#19192E"/>
<path opacity="0.09" d="M166.56 131.354C165.342 130.84 164.268 130.206 163.422 129.433C157.509 124.033 155.906 103.904 155.413 90.1546C154.921 76.4057 154.669 61.8055 156.4 56.8892L160.385 56.6729C160.103 57.569 159.851 58.5125 159.628 59.5033C157.984 66.8652 158.053 76.681 158.467 86.6134C158.89 96.5866 162.515 114.349 164.789 124.374C165.201 126.186 165.568 127.745 165.861 128.959C166.052 129.769 166.286 130.568 166.56 131.354Z" fill="white"/>
<path d="M124.339 123.249C129.355 126.026 158.205 126.987 164.505 124.476C171.282 121.775 173.992 133.069 168.079 136.135C164.704 137.885 130.434 139.633 120.581 135.214C110.729 130.795 121.013 121.407 124.339 123.249Z" fill="#19192E"/>
<path d="M133.964 59.8532C136.917 58.8699 153.898 58.5314 157.606 59.4191C161.594 60.3729 162.972 56.7278 159.491 55.6434C157.504 55.0239 138.387 54.1671 132.585 55.7305C126.783 57.2939 132.006 60.5035 133.964 59.8532Z" fill="#19192E"/>
<path d="M187.178 165.47C186.178 172.429 171.65 173.818 145.039 174.309C118.428 174.799 105.364 168.42 105.364 168.42C104.846 161.606 103.842 153.356 108.529 146.243C117.706 153.498 132.673 160.074 143.945 159.29C155.948 158.457 168.507 152.06 185.538 151.78H185.679C187.195 156.701 187.61 162.445 187.178 165.47Z" fill="#19192E"/>
<path d="M89.8969 2.35833C90.744 2.83673 91.3859 3.60759 91.7014 4.52532C92.017 5.44305 91.9842 6.44412 91.6095 7.33946C91.2347 8.23481 90.5439 8.96245 89.6674 9.38496C88.7909 9.80747 87.7894 9.8956 86.8522 9.6327C85.9149 9.36981 85.1067 8.7741 84.5802 7.95806C84.0537 7.14203 83.8454 6.16218 83.9945 5.20355C84.1437 4.24493 84.64 3.3739 85.3898 2.75498C86.1396 2.13605 87.0909 1.81207 88.064 1.84422C88.7077 1.86555 89.3366 2.04195 89.8969 2.35833Z" fill="#19192E"/>
<path opacity="0.15" d="M87.2011 2.83895C86.3706 2.69849 85.6276 2.99347 85.5416 3.49774C85.4556 4.00202 86.0591 4.52597 86.8895 4.66643C87.7199 4.8069 88.463 4.51192 88.549 4.00764C88.635 3.50336 88.0315 2.97942 87.2011 2.83895Z" fill="white"/>
<path d="M89.897 2.35835C90.5801 2.74401 91.1337 3.32218 91.4881 4.02023C91.8425 4.71828 91.982 5.5051 91.8891 6.28188C91.7961 7.05865 91.4749 7.79076 90.9657 8.38625C90.4565 8.98174 89.7821 9.41406 89.0271 9.62893C91.6608 6.15658 90.155 3.53266 88.0613 1.84424C88.706 1.86449 89.3361 2.04095 89.897 2.35835Z" fill="#080815"/>
<path d="M110.115 5.30264C109.065 6.51206 105.131 10.2457 106.928 10.0575C108.724 9.86923 110.115 7.53045 112.607 8.98991C115.276 10.5589 113.89 12.7825 114.462 12.6252C115.515 12.26 119.211 12.2389 119.804 14.3796C120.398 16.5204 112.82 27.8195 112.82 27.8195C111.153 28.2016 108.026 25.9541 107.991 23.8865C106.209 24.6829 104.064 24.7377 102.774 22.5604C101.484 20.3832 102.224 15.9936 101.223 19.8775C100.659 22.0899 100.484 23.7699 100.156 24.6408C99.909 25.3038 99.572 25.5032 98.9037 25.1254C97.3528 24.2475 90.1805 21.4606 91.3352 20.0686C91.3831 20.011 91.4409 19.9464 91.5058 19.8775C92.9905 18.3127 98.5399 14.2434 95.9809 14.8727C94.1057 15.3362 89.9337 16.3757 88.1459 15.6607C87.3902 15.3573 87.0589 14.742 87.5086 13.6366C89.0102 9.92401 94.1833 -0.182606 95.6228 9.8953e-07C95.8752 0.0365225 96.1571 0.294982 96.4645 0.702337C97.9576 2.68293 99.8483 8.13306 100.512 6.80143C101.302 5.19729 100.827 -0.248626 102.87 0.842805C104.997 1.98902 111.167 4.09041 110.115 5.30264Z" fill="#19192E"/>
<path opacity="0.15" d="M100.146 24.6478C99.8989 25.3108 99.562 25.5102 98.8936 25.1324C97.3427 24.2545 90.1704 21.4676 91.3252 20.0756C91.3731 20.018 91.4309 19.9534 91.4958 19.8845C94.2451 21.3777 98.6258 23.4215 100.146 24.6478Z" fill="white"/>
<path opacity="0.15" d="M96.4644 0.702337C94.8613 3.95837 89.7672 12.923 88.1359 15.6733C87.3802 15.3699 87.0489 14.7547 87.4986 13.6492C89.0101 9.92401 94.1831 -0.182606 95.6226 9.80683e-07C95.875 0.0365225 96.157 0.294982 96.4644 0.702337Z" fill="white"/>
<path d="M139.834 7.41248C140.422 8.05723 141.004 8.7399 141.596 9.45066C141.812 9.70631 142.028 9.96711 142.242 10.2331C142.362 10.3806 142.483 10.5337 142.604 10.684L143.027 11.222C143.116 11.3315 143.203 11.4439 143.294 11.5563C143.652 12.0086 144.012 12.4674 144.374 12.9328C144.523 13.1201 144.673 13.313 144.822 13.5116C145.182 13.9742 145.544 14.4424 145.908 14.9162L146.35 15.4922L146.491 15.6649C146.497 15.6723 146.502 15.6793 146.508 15.686L146.728 15.9108C146.728 16.3926 146.346 17.1019 145.193 17.8773C141.888 20.0868 128.174 38.0175 127.075 46.1702C126.987 46.7846 126.962 47.4065 127.003 48.0258L127.507 48.0665L127.002 48.0272L126.791 48.0089L126.074 47.9513L125.833 47.9303L124.996 47.8586C124.338 47.8024 123.684 47.743 123.034 47.6802L122.489 47.6255C122.229 47.6002 121.97 47.5735 121.712 47.5454C121.262 47.4976 120.815 47.4485 120.371 47.3951C119.384 47.2771 118.427 47.1465 117.492 46.9976C111.92 46.1084 107.355 44.5857 106.056 41.4323C104.779 38.3265 106.279 32.4508 109.097 26.1466C109.128 26.0722 109.164 25.9963 109.197 25.9205C111.308 21.2872 113.827 16.8493 116.724 12.6589L116.838 12.4946C120.587 7.11469 124.552 2.89224 127.481 1.81907C131.845 0.212128 135.799 2.95826 139.834 7.41248Z" fill="#333345"/>
<path d="M121.712 47.6001C121.585 42.4815 137.746 14.6451 142.202 10.2807C143.55 8.96175 142.249 4.95703 139.033 8.07681C136.574 10.4648 119.976 36.461 117.633 46.0156C116.571 50.3448 121.75 49.1073 121.712 47.6001Z" fill="#19192E"/>
<path d="M127.003 48.0259L127.507 48.0666L127.002 48.0273L127.003 48.0259Z" fill="#19192E"/>
<path opacity="0.11" d="M204.531 168.641C204.531 172.337 177.264 176.629 145.85 176.629C114.435 176.629 88.9663 173.633 88.9663 169.936C88.9663 166.239 114.434 163.243 145.85 163.243C177.266 163.243 204.531 164.944 204.531 168.641Z" fill="#323241"/>
<path opacity="0.11" d="M238.701 146.523C238.701 149.613 219.667 153.212 197.751 153.212C175.835 153.212 158.053 150.703 158.053 147.607C158.053 144.511 175.818 142.001 197.749 142.001C219.681 142.001 238.701 143.427 238.701 146.523Z" fill="#323241"/>
<path d="M125.825 52.0769C127.842 52.0769 129.477 50.4078 129.477 48.3489C129.477 46.2899 127.842 44.6208 125.825 44.6208C123.808 44.6208 122.173 46.2899 122.173 48.3489C122.173 50.4078 123.808 52.0769 125.825 52.0769Z" fill="#6C6C7A"/>
<path d="M125.825 50.6005C127.043 50.6005 128.03 49.5924 128.03 48.3489C128.03 47.1053 127.043 46.0972 125.825 46.0972C124.607 46.0972 123.62 47.1053 123.62 48.3489C123.62 49.5924 124.607 50.6005 125.825 50.6005Z" fill="#19192E"/>
</g>
<defs>
<clipPath id="clip0_170_222">
<rect width="351" height="188" fill="white"/>
</clipPath>
</defs>
</svg>
